<?xml version="1.0" encoding="utf-8"?>
<!-- Generator: Adobe Illustrator 25.0.0, SVG Export Plug-In . SVG Version: 6.00 Build 0)  -->
<svg version="1.1" id="Ñëîé_1" xmlns="http://www.w3.org/2000/svg" xmlns:xlink="http://www.w3.org/1999/xlink" x="0px" y="0px"
	 viewBox="0 0 617.53 347.91" style="enable-background:new 0 0 617.53 347.91;" xml:space="preserve">
<style type="text/css">
	.st0{fill:#FFCF02;}
</style>
<path class="st0" d="M366.12,280.35c16.35-9.45,32.85-18.91,49.27-28.51c7.32-4.27,14.79-8.38,21.67-13.3
	c15.1-10.81,31.09-19.76,48.81-25.5c1.34-0.44,2.55-1.3,4.67-2.41c-1.32-1.37-2.05-2.8-3.13-3.14
	c-19.01-6.04-38.04-11.17-58.46-7.76c-9.75,1.63-19.84,1.04-29.71,2.11c-9.47,1.02-18.86,2.84-28.27,4.4
	c-3.62,0.6-7.23,1.29-10.79,2.16c-14.97,3.68-30.02,7.12-44.86,11.28c-10.61,2.98-21.08,6.57-31.34,10.6
	c-15.75,6.19-31.64,12.24-46.78,19.73c-20.76,10.27-41.52,20.82-61.05,33.19c-12.59,7.98-23.32,19.07-34.21,29.47
	c-6.67,6.36-13.96,9.82-22.87,8.7c-13.07-1.64-25.82-6.21-34.24-16.08c-9.09-10.67-19.63-17.68-32.53-21.69
	c-8.73-2.72-15.3-7-17.04-16.76c-0.43-2.41-2.12-4.69-3.57-6.8c-3.15-4.61-3.83-9.15-1.84-14.61c1.47-4.04,1.59-8.61,2.07-12.97
	c1.07-9.81,5.04-13.89,15.03-13.53c5.97,0.21,10.67-1.7,15.41-4.86c29.19-19.45,59.29-37.36,91.15-52.1
	c46.82-21.66,95.69-36.2,146.97-43.01c27.83-3.7,55.57-7.33,83.69-6.03c36.43,1.68,71.69,8.56,104.72,24.74
	c6.23,3.05,12.45,6.14,20.18,9.97c-0.36-3.67-0.22-5.7-0.79-7.49c-8.13-25.66-16.4-51.28-24.52-76.93
	c-0.99-3.14-1.39-6.47-2.07-9.71c-1.71-8.25-3.13-16.57-5.2-24.73c-2.17-8.56,1.9-13.76,10.23-10.99
	c6.09,2.03,11.88,5.88,16.88,10.04c13.23,11,23.39,24.88,30.68,40.2c11.39,23.94,21.45,48.53,31.7,73
	c4.98,11.9,9.09,24.16,13.66,36.23c1.44,3.79,2.08,8.72,4.85,11.02c8.73,7.28,9.11,19.05,15.94,27.16c2.9,3.44,2.64,6.65-0.54,9.74
	c-4.3,4.19-8.59,7.61-15.46,6.9c-4.05-0.42-8.32,1.64-12.53,2.29c-4.23,0.65-9.17,2.55-12.65,1.11c-12.4-5.15-24.93-3.75-36.81-0.49
	c-18.08,4.96-35.45,12.02-51.57,22.21c-11.46,7.24-24.25,12.37-36.44,18.47c-9.56,4.78-18.85,10.23-28.74,14.21
	c-7.37,2.97-15.42,4.96-23.32,5.72C373.84,296.39,369.42,291.5,366.12,280.35z"/>
</svg>
