<?xml version="1.0" encoding="utf-8"?>
<!-- Generator: Adobe Illustrator 25.0.0, SVG Export Plug-In . SVG Version: 6.00 Build 0)  -->
<svg version="1.1" id="Layer_1" xmlns="http://www.w3.org/2000/svg" xmlns:xlink="http://www.w3.org/1999/xlink" x="0px" y="0px"
	 viewBox="0 0 150.42 133.28" style="enable-background:new 0 0 150.42 133.28;" xml:space="preserve">
<style type="text/css">
	.st0{fill:#FFFFFF;}
	.st1{fill:none;stroke:#000000;stroke-width:0.342;stroke-miterlimit:10;}
</style>
<path class="st0" d="M36.85,86.65c0,0,4.85,6.8,5.04,8.12c0.19,1.33-3.52,3.73-3.52,3.73l8.94,11.11H27.49l-0.97-21.44L36.85,86.65z
	"/>
<path class="st1" d="M36.85,86.65c0,0,4.85,6.8,5.04,8.12c0.19,1.33-3.52,3.73-3.52,3.73l8.94,11.11H27.49l-0.97-21.44L36.85,86.65z
	"/>
<path class="st0" d="M38.61,79.27c-0.14,0-0.25-0.11-0.25-0.25l0.19-57.65c0-0.06,0.03-0.13,0.07-0.17l5.72-5.68
	c0.1-0.1,0.25-0.1,0.35,0s0.1,0.25,0,0.35l-5.65,5.61l-0.19,57.55C38.86,79.16,38.75,79.27,38.61,79.27"/>
<path class="st1" d="M38.61,79.27c-0.14,0-0.25-0.11-0.25-0.25l0.19-57.65c0-0.06,0.03-0.13,0.07-0.17l5.72-5.68
	c0.1-0.1,0.25-0.1,0.35,0s0.1,0.25,0,0.35l-5.65,5.61l-0.19,57.55C38.86,79.16,38.75,79.27,38.61,79.27z"/>
<path d="M23.87,50.25c-1.03-0.82-22.69-3.94-21.86,26.37s34.73,47.67,71.94,41.14c37.21-6.54,1.99-49.99,1.99-49.99L23.87,50.25z"/>
<path class="st0" d="M26.28,104.48c-0.04,0-0.08-0.01-0.12-0.03c-9.93-5.94-13.88-14.88-13.92-14.97c-0.05-0.12,0-0.26,0.12-0.31
	c0.12-0.05,0.26,0,0.31,0.12c0.04,0.09,3.94,8.89,13.73,14.75c0.11,0.07,0.15,0.21,0.08,0.32
	C26.43,104.44,26.36,104.48,26.28,104.48"/>
<path class="st0" d="M80.43,32.27c0,0,3.45,0.25,2.35,5.1s-4.24-1.18-4.24-1.18L80.43,32.27z"/>
<path class="st1" d="M80.43,32.27c0,0,3.45,0.25,2.35,5.1s-4.24-1.18-4.24-1.18L80.43,32.27z"/>
<path class="st0" d="M113.95,124.76c-0.66,0.38-38.96-1.61-39.82-2.4c-0.31-0.28-0.29-2.1-0.04-4.7c0.44-4.72,3.11-12.79,4.59-17.77
	c0,0,13.4,0.9,14.6,1.67c1.21,0.77,14.11,11.68,14.11,11.68s4.93,1.88,6.69,4.79c0.52,0.86,0.78,1.77,0.87,2.62
	C115.17,122.71,114.41,124.51,113.95,124.76"/>
<path class="st1" d="M113.95,124.76c-0.66,0.38-38.96-1.61-39.82-2.4c-0.31-0.28-0.29-2.1-0.04-4.7c0.44-4.72,3.11-12.79,4.59-17.77
	c0,0,13.4,0.9,14.6,1.67c1.21,0.77,14.11,11.68,14.11,11.68s4.93,1.88,6.69,4.79c0.52,0.86,0.78,1.77,0.87,2.62
	C115.17,122.71,114.41,124.51,113.95,124.76z"/>
<path class="st0" d="M113.95,124.76c-0.66,0.38-38.96-1.62-39.82-2.42c-0.31-0.28-0.29-2.12-0.04-4.73l40.86,3.01
	C115.17,122.69,114.41,124.5,113.95,124.76"/>
<path class="st1" d="M113.95,124.76c-0.66,0.38-38.96-1.62-39.82-2.42c-0.31-0.28-0.29-2.12-0.04-4.73l40.86,3.01
	C115.17,122.69,114.41,124.5,113.95,124.76z"/>
<path class="st0" d="M67.1,64.55c0,0,21.25-15.03,39.6-10.42c18.34,4.62-8.45,49.22-8.45,49.22l-26.67,0.06l2.6-12.78l-32.01-0.06
	l14.12-20L67.1,64.55z"/>
<path class="st1" d="M67.1,64.55c0,0,21.25-15.03,39.6-10.42c18.34,4.62-8.45,49.22-8.45,49.22l-26.67,0.06l2.6-12.78l-32.01-0.06
	l14.12-20L67.1,64.55z"/>
<path d="M91.69,67.2c-0.04,0-0.09-0.01-0.13-0.04c-0.11-0.07-0.14-0.22-0.07-0.33c0.02-0.04,2.41-3.79,5.61-6.52
	c0.1-0.09,0.25-0.07,0.34,0.03s0.07,0.25-0.03,0.33c-3.15,2.69-5.5,6.38-5.52,6.41C91.84,67.16,91.77,67.2,91.69,67.2"/>
<path class="st0" d="M64.08,43.35l18.28,5.52c0,0,0.18,12.36-11.42,15.74c-11.6,3.38-12.95-10.7-12.95-10.7L64.08,43.35z"/>
<path class="st1" d="M64.08,43.35l18.28,5.52c0,0,0.18,12.36-11.42,15.74c-11.6,3.38-12.95-10.7-12.95-10.7L64.08,43.35z"/>
<path class="st0" d="M73.91,45.69c0,0-0.57,6.98,4.98,6.32s5.21-8.65,5.21-8.65L73.91,45.69z"/>
<path class="st1" d="M73.91,45.69c0,0-0.57,6.98,4.98,6.32s5.21-8.65,5.21-8.65L73.91,45.69z"/>
<path class="st0" d="M30.89,81c0,0-10.64-38.4-1.68-48.97s29.76-1.76,29.76-1.76l9.95,35.24L30.89,81z"/>
<path class="st1" d="M30.89,81c0,0-10.64-38.4-1.68-48.97s29.76-1.76,29.76-1.76l9.95,35.24L30.89,81z"/>
<path class="st0" d="M45.68,53.48c0,0,5.39-8.54,8.01-9.51s8.94,0.31,8.94,1.07s-5.86,1.68-5.86,1.68s3.29,5.76,3.35,7.05
	c0.05,1.29-2.92,5.06-3.57,5.44c-0.65,0.38-2.29-1.72-2.29-1.72s-1.81,2.19-4.36,2.86s-5.47-3.19-5.47-3.19L45.68,53.48z"/>
<path class="st1" d="M45.68,53.48c0,0,5.39-8.54,8.01-9.51s8.94,0.31,8.94,1.07s-5.86,1.68-5.86,1.68s3.29,5.76,3.35,7.05
	c0.05,1.29-2.92,5.06-3.57,5.44c-0.65,0.38-2.29-1.72-2.29-1.72s-1.81,2.19-4.36,2.86s-5.47-3.19-5.47-3.19L45.68,53.48z"/>
<path class="st0" d="M53.68,49.06c-0.14,0-0.26-0.1-0.28-0.24c-0.02-0.16,0.08-0.31,0.23-0.34l3.56-0.62
	c0.15-0.03,0.3,0.08,0.33,0.24c0.03,0.16-0.08,0.31-0.23,0.34l-3.56,0.62C53.71,49.06,53.7,49.06,53.68,49.06"/>
<path class="st1" d="M53.68,49.06c-0.14,0-0.26-0.1-0.28-0.24c-0.02-0.16,0.08-0.31,0.23-0.34l3.56-0.62
	c0.15-0.03,0.3,0.08,0.33,0.24c0.03,0.16-0.08,0.31-0.23,0.34l-3.56,0.62C53.71,49.06,53.7,49.06,53.68,49.06z"/>
<path class="st0" d="M36.92,21.22l0.17,6.9c0,0,1.29,1.95,5.33,2.18c3.01,0.17,3.8-0.88,3.8-0.88l-0.26-3.14l-0.5-3.4l-7.32-1.42
	L36.92,21.22z"/>
<path class="st1" d="M36.92,21.22l0.17,6.9c0,0,1.29,1.95,5.33,2.18c3.01,0.17,3.8-0.88,3.8-0.88l-0.26-3.14l-0.5-3.4l-7.32-1.42
	L36.92,21.22z"/>
<path class="st0" d="M46.38,8.43c0,0,3.66,8.17,2.41,12.78s-5.45,3.93-7.97,3.06c-2.52-0.87-3.7-2.4-3.7-2.4s-2.34,0.82-3.93-1.35
	c-1.59-2.17-0.65-4.68,0.69-5.27c1.33-0.59,2.94,0.37,2.94,0.37l-1.27-2.37C35.54,13.26,40.68,1.1,46.38,8.43"/>
<path class="st1" d="M46.38,8.43c0,0,3.66,8.17,2.41,12.78s-5.45,3.93-7.97,3.06c-2.52-0.87-3.7-2.4-3.7-2.4s-2.34,0.82-3.93-1.35
	c-1.59-2.17-0.65-4.68,0.69-5.27c1.33-0.59,2.94,0.37,2.94,0.37l-1.27-2.37C35.54,13.26,40.68,1.1,46.38,8.43z"/>
<path d="M46.07,18.82c-0.02,0-0.05,0-0.07-0.01c-0.13-0.04-0.2-0.17-0.16-0.3c0.47-1.52-0.67-3.15-0.68-3.16
	c-0.08-0.11-0.05-0.26,0.06-0.33c0.11-0.08,0.26-0.05,0.33,0.06c0.05,0.07,1.28,1.84,0.75,3.58C46.26,18.75,46.17,18.82,46.07,18.82
	"/>
<path d="M36.48,19.44c-0.06,0-0.13-0.02-0.17-0.07l-2.22-2.35C34,16.92,34,16.77,34.1,16.68s0.25-0.09,0.34,0.01l2.22,2.35
	c0.09,0.1,0.09,0.25-0.01,0.34C36.6,19.42,36.54,19.44,36.48,19.44"/>
<path d="M34.13,18.81c-0.12,0-0.22-0.08-0.24-0.2c-0.02-0.13,0.07-0.25,0.2-0.27l1.53-0.23c0.13-0.02,0.25,0.07,0.27,0.2
	s-0.07,0.25-0.2,0.27l-1.54,0.24C34.16,18.81,34.14,18.81,34.13,18.81"/>
<path d="M36.81,15.67c0,0,0.85,0.55,1.46-0.41s-0.74-3.81-0.74-3.81s2.54,0.57,4.11-0.27s2.33-3.16,2.33-3.16s1.16,2.41,4.62,1.34
	S52.7,3.57,49,2.61S43.28,3.3,43.28,3.3s-0.48-3.43-5.04-1.72c-4.16,1.55-4.85,6.78-4.85,6.78s-2.5,0.12-2.98,2.85
	s2.71,4.69,2.71,4.69S34.92,14.83,36.81,15.67"/>
<path class="st1" d="M36.81,15.67c0,0,0.85,0.55,1.46-0.41s-0.74-3.81-0.74-3.81s2.54,0.57,4.11-0.27s2.33-3.16,2.33-3.16
	s1.16,2.41,4.62,1.34S52.7,3.57,49,2.61S43.28,3.3,43.28,3.3s-0.48-3.43-5.04-1.72c-4.16,1.55-4.85,6.78-4.85,6.78
	s-2.5,0.12-2.98,2.85s2.71,4.69,2.71,4.69S34.92,14.83,36.81,15.67z"/>
<path d="M42.36,15.78c-0.12,0-0.22-0.09-0.24-0.21l-0.2-1.52c-0.02-0.13,0.08-0.25,0.21-0.27s0.25,0.07,0.27,0.21l0.2,1.52
	c0.02,0.13-0.08,0.25-0.21,0.27C42.38,15.78,42.37,15.78,42.36,15.78"/>
<path d="M46.88,15.41c-0.12,0-0.22-0.08-0.24-0.2l-0.23-1.52c-0.02-0.13,0.07-0.25,0.2-0.27s0.25,0.07,0.27,0.2l0.23,1.52
	c0.02,0.13-0.07,0.25-0.2,0.27C46.9,15.4,46.89,15.41,46.88,15.41"/>
<path d="M40.93,12.86c-0.04,0-0.07-0.01-0.11-0.03c-0.12-0.06-0.16-0.2-0.1-0.32c0.54-1.06,1.89-0.79,1.95-0.77
	c0.13,0.03,0.21,0.15,0.18,0.28c-0.03,0.13-0.15,0.21-0.28,0.18c-0.04-0.01-1.05-0.21-1.43,0.53C41.1,12.82,41.02,12.86,40.93,12.86
	"/>
<path class="st0" d="M50.68,53.58l22.29,4.31c0.59,0.11,1.17-0.27,1.28-0.87l6.02-31.15c0.11-0.6-0.27-1.17-0.87-1.29l-22.29-4.3
	c-0.59-0.11-1.17,0.27-1.29,0.87l-6.01,31.14C49.69,52.89,50.08,53.46,50.68,53.58"/>
<path class="st1" d="M50.68,53.58l22.29,4.31c0.59,0.11,1.17-0.27,1.28-0.87l6.02-31.15c0.11-0.6-0.27-1.17-0.87-1.29l-22.29-4.3
	c-0.59-0.11-1.17,0.27-1.29,0.87l-6.01,31.14C49.69,52.89,50.08,53.46,50.68,53.58z"/>
<path class="st0" d="M52.12,53.86l22.29,4.31c0.59,0.11,1.17-0.27,1.28-0.87l6.02-31.15c0.11-0.6-0.27-1.17-0.87-1.29l-22.29-4.31
	c-0.59-0.12-1.17,0.27-1.28,0.87l-6.02,31.15C51.13,53.17,51.52,53.74,52.12,53.86"/>
<path class="st1" d="M52.12,53.86l22.29,4.31c0.59,0.11,1.17-0.27,1.28-0.87l6.02-31.15c0.11-0.6-0.27-1.17-0.87-1.29l-22.29-4.31
	c-0.59-0.12-1.17,0.27-1.28,0.87l-6.02,31.15C51.13,53.17,51.52,53.74,52.12,53.86z"/>
<path d="M72.52,28.25c-0.33,0-0.68-0.03-1.02-0.1l-5.19-1.01c-0.98-0.19-1.85-0.63-2.46-1.25c-0.63-0.64-0.9-1.39-0.76-2.11
	l0.42-2.17c0.03-0.13,0.15-0.21,0.28-0.19c0.13,0.03,0.21,0.15,0.19,0.28l-0.42,2.17c-0.11,0.56,0.11,1.16,0.63,1.68
	c0.54,0.55,1.32,0.94,2.21,1.12l5.19,1.01c0.89,0.17,1.76,0.1,2.46-0.21c0.67-0.29,1.11-0.76,1.22-1.33l0.42-2.17
	c0.03-0.13,0.15-0.21,0.28-0.19s0.21,0.15,0.19,0.28l-0.42,2.17c-0.14,0.72-0.67,1.31-1.49,1.67
	C73.74,28.14,73.14,28.25,72.52,28.25"/>
<path d="M45.34,11.91c-0.05,0-0.09-0.01-0.13-0.04c-0.11-0.07-0.14-0.22-0.06-0.33c0.22-0.33,0.51-0.51,0.85-0.56
	c0.7-0.09,1.36,0.48,1.38,0.51c0.1,0.09,0.11,0.24,0.02,0.34c-0.09,0.1-0.24,0.11-0.34,0.02c-0.01-0.01-0.52-0.46-1.01-0.39
	c-0.2,0.02-0.37,0.14-0.52,0.35C45.5,11.88,45.42,11.91,45.34,11.91"/>
<path class="st0" d="M82.44,41.36c0,0,4.87-0.56,3.37-2.82S75.5,35.2,74.56,37.85C73.62,40.5,82.44,41.36,82.44,41.36"/>
<path class="st1" d="M82.44,41.36c0,0,4.87-0.56,3.37-2.82S75.5,35.2,74.56,37.85C73.62,40.5,82.44,41.36,82.44,41.36z"/>
<path class="st0" d="M81.91,45.36c0,0,4.87-0.56,3.37-2.82s-10.31-3.34-11.25-0.69C73.1,44.5,81.91,45.36,81.91,45.36"/>
<path class="st1" d="M81.91,45.36c0,0,4.87-0.56,3.37-2.82s-10.31-3.34-11.25-0.69C73.1,44.5,81.91,45.36,81.91,45.36z"/>
<path class="st0" d="M79.1,48.7c1.05,0.35,2.17,0.46,3.25,0.22c0.96-0.21,1.8-0.7,1.32-1.8c-0.97-2.2-8.5-4.48-9.72-2.31
	C73.05,46.43,77.02,48,79.1,48.7"/>
<path class="st1" d="M79.1,48.7c1.05,0.35,2.17,0.46,3.25,0.22c0.96-0.21,1.8-0.7,1.32-1.8c-0.97-2.2-8.5-4.48-9.72-2.31
	C73.05,46.43,77.02,48,79.1,48.7z"/>
<path class="st0" d="M39.33,81.75c-0.14,0-0.26-0.09-0.3-0.22l-0.99-3.62c-0.04-0.16,0.05-0.32,0.22-0.37
	c0.16-0.04,0.33,0.05,0.38,0.21l0.99,3.62c0.04,0.16-0.05,0.32-0.22,0.37C39.38,81.75,39.35,81.75,39.33,81.75"/>
<path class="st1" d="M39.33,81.75c-0.14,0-0.26-0.09-0.3-0.22l-0.99-3.62c-0.04-0.16,0.05-0.32,0.22-0.37
	c0.16-0.04,0.33,0.05,0.38,0.21l0.99,3.62c0.04,0.16-0.05,0.32-0.22,0.37C39.38,81.75,39.35,81.75,39.33,81.75z"/>
<path class="st0" d="M67.24,72.81c-0.18,0-0.32-0.13-0.32-0.29l-0.11-3.85c-0.01-0.16,0.14-0.3,0.32-0.31
	c0.2,0.02,0.33,0.12,0.33,0.29l0.11,3.85C67.56,72.67,67.42,72.81,67.24,72.81L67.24,72.81z"/>
<path class="st1" d="M67.24,72.81c-0.18,0-0.32-0.13-0.32-0.29l-0.11-3.85c-0.01-0.16,0.14-0.3,0.32-0.31
	c0.2,0.02,0.33,0.12,0.33,0.29l0.11,3.85C67.56,72.67,67.42,72.81,67.24,72.81L67.24,72.81z"/>
<path class="st0" d="M64.1,75.17c-0.18,0-0.33-0.13-0.33-0.3l-0.01-4.08c0-0.16,0.15-0.3,0.33-0.3s0.33,0.13,0.33,0.3l0.01,4.08
	C64.43,75.04,64.28,75.17,64.1,75.17L64.1,75.17z"/>
<path class="st1" d="M64.1,75.17c-0.18,0-0.33-0.13-0.33-0.3l-0.01-4.08c0-0.16,0.15-0.3,0.33-0.3s0.33,0.13,0.33,0.3l0.01,4.08
	C64.43,75.04,64.28,75.17,64.1,75.17L64.1,75.17z"/>
<path d="M44.13,21.12c-0.99,0-1.7-0.72-1.96-1.17c-0.07-0.11-0.03-0.26,0.08-0.33c0.11-0.07,0.26-0.03,0.33,0.08
	c0.03,0.05,0.74,1.2,1.97,0.89c0.13-0.04,0.26,0.04,0.29,0.17c0.03,0.13-0.04,0.26-0.17,0.29C44.48,21.1,44.3,21.12,44.13,21.12"/>
<path class="st0" d="M148.58,110.09c-0.31,0.7-32.34,21.8-33.5,21.67c-0.41-0.05-1.48-1.52-2.82-3.76
	c-2.44-4.07-5.06-12.15-6.82-17.03c0,0,11.33-7.22,12.75-7.31c1.43-0.09,18.28,1.04,18.28,1.04s5.08-1.41,8.23-0.11
	c0.92,0.38,1.67,0.96,2.25,1.59C148.35,107.71,148.8,109.61,148.58,110.09"/>
<path class="st1" d="M148.58,110.09c-0.31,0.7-32.34,21.8-33.5,21.67c-0.41-0.05-1.48-1.52-2.82-3.76
	c-2.44-4.07-5.06-12.15-6.82-17.03c0,0,11.33-7.22,12.75-7.31c1.43-0.09,18.28,1.04,18.28,1.04s5.08-1.41,8.23-0.11
	c0.92,0.38,1.67,0.96,2.25,1.59C148.35,107.71,148.8,109.61,148.58,110.09z"/>
<path class="st0" d="M148.58,110.08c-0.31,0.7-32.36,21.81-33.52,21.68c-0.41-0.04-1.48-1.52-2.82-3.76l34.71-21.83
	C148.35,107.7,148.8,109.6,148.58,110.08"/>
<path class="st1" d="M148.58,110.08c-0.31,0.7-32.36,21.81-33.52,21.68c-0.41-0.04-1.48-1.52-2.82-3.76l34.71-21.83
	C148.35,107.7,148.8,109.6,148.58,110.08z"/>
<path class="st0" d="M30.87,80.95c0,0,45.81-23.31,55.9-19.99c13.26,4.36,37.28,40.33,37.28,40.33l-21.06,20.39
	c0,0-21.81-29.45-25.3-29.06c-4.04,0.45-26.75,10.01-34.83,7.41C34.78,97.43,30.87,80.95,30.87,80.95"/>
<path class="st1" d="M30.87,80.95c0,0,45.81-23.31,55.9-19.99c13.26,4.36,37.28,40.33,37.28,40.33l-21.06,20.39
	c0,0-21.81-29.45-25.3-29.06c-4.04,0.45-26.75,10.01-34.83,7.41C34.78,97.43,30.87,80.95,30.87,80.95z"/>
<path d="M81.21,85.99c-0.48,0-0.89,0.17-1.23,0.51c-1.24,1.23-1.34,4.27-1.32,5.53c1.68-1.82,3.85-4.64,3.47-5.65
	c-0.03-0.09-0.13-0.35-0.75-0.39C81.32,85.99,81.27,85.99,81.21,85.99 M78.44,92.85c-0.03,0-0.06,0-0.08-0.01
	c-0.09-0.03-0.15-0.12-0.16-0.21c-0.01-0.19-0.29-4.75,1.44-6.47c0.48-0.48,1.08-0.7,1.77-0.64c0.61,0.05,1,0.28,1.16,0.7
	c0.65,1.72-3.49,6.07-3.96,6.56C78.56,92.82,78.5,92.85,78.44,92.85"/>
<path class="st0" d="M33.83,28.55c0,0-31.65,13.69-26.16,37.32c5.24,22.51,41.37,2.85,41.37,2.85l-1.79-17.67"/>
<path class="st1" d="M33.83,28.55c0,0-31.65,13.69-26.16,37.32c5.24,22.51,41.37,2.85,41.37,2.85l-1.79-17.67"/>
<path d="M24.74,52.26c-0.11,0-0.21-0.08-0.23-0.19c-0.03-0.13,0.06-0.26,0.18-0.28c9.3-1.92,19.82-1.28,19.93-1.28
	c0.13,0.01,0.23,0.12,0.22,0.25s-0.12,0.24-0.25,0.22c-0.1-0.01-10.57-0.64-19.8,1.27C24.77,52.26,24.76,52.26,24.74,52.26"/>
<path d="M27.97,48.32c-0.1,0-0.2,0.01-0.29,0.02c-0.37,0.05-0.64,0.2-0.83,0.46c-0.2,0.27-0.13,0.41-0.11,0.46
	c0.39,0.78,3.6,1.1,5.96,1.14C31.65,49.68,29.46,48.32,27.97,48.32 M33.3,50.88c-1.11,0-6.32-0.07-6.99-1.41
	c-0.1-0.21-0.16-0.54,0.15-0.96c0.27-0.36,0.66-0.58,1.15-0.65c2.18-0.3,5.83,2.47,5.98,2.59c0.08,0.06,0.11,0.17,0.08,0.26
	c-0.03,0.1-0.12,0.16-0.22,0.16C33.42,50.88,33.36,50.88,33.3,50.88"/>
<path d="M45.39,30.37c1.31,0.43,2.96,0.82,3.51,0.54c0.03-0.01,0.04-0.03,0.04-0.06c0.07-0.5-1.28-2.04-2.46-3.18l0.09,0.93
	C46.64,29.4,46.14,30.13,45.39,30.37 M37.38,28.37c0.13,2.18,0.61,5.21,1.52,5.51c0.91,0.3,3.34-1.7,4.94-3.29
	c-0.48,0.02-0.97-0.01-1.46-0.09C39.8,30.12,38.13,28.98,37.38,28.37 M39.09,34.38c-0.12,0-0.24-0.02-0.34-0.05
	c-1.63-0.55-1.85-5.92-1.87-6.52c0-0.1,0.05-0.19,0.15-0.23c0.09-0.04,0.2-0.02,0.27,0.06c0.02,0.02,1.8,1.9,5.16,2.4
	c0.66,0.1,1.3,0.11,1.92,0.04c0.04-0.02,0.09-0.02,0.13-0.01c0.22-0.03,0.44-0.07,0.65-0.12c0.59-0.14,0.99-0.69,0.94-1.3
	l-0.14-1.56c-0.01-0.1,0.04-0.19,0.13-0.23s0.19-0.03,0.27,0.04c0.54,0.49,3.2,3.01,3.06,4.03c-0.03,0.18-0.13,0.33-0.3,0.42
	c-1,0.51-3.84-0.49-4.59-0.77C43.82,31.31,40.74,34.38,39.09,34.38"/>
</svg>
