<?xml version="1.0" encoding="utf-8"?>
<!-- Generator: Adobe Illustrator 25.0.0, SVG Export Plug-In . SVG Version: 6.00 Build 0)  -->
<svg version="1.1" id="_x3C_Layer_x3E_" xmlns="http://www.w3.org/2000/svg" xmlns:xlink="http://www.w3.org/1999/xlink" x="0px"
	 y="0px" viewBox="0 0 224.95 188.69" style="enable-background:new 0 0 224.95 188.69;" xml:space="preserve">
<style type="text/css">
	.st0{fill:#FFFFFF;}
	.st1{fill:#FCFCFC;stroke:#000000;stroke-miterlimit:10;}
</style>
<g>
	<path class="st0" d="M124.21,137.09c-3.49-1.14-5.86,9.72-5.86,9.78s-0.62-7.62-0.57-10.65c0.05-3.03-0.57-9.04-4.37-9.15
		c-3.8-0.1-4.01,9.1-4.01,9.1s-0.35-1.55-0.53-3.96c-0.18-2.41-2.19-5.6-4.61-5.37c-2.42,0.23-3.08,2.8-3.08,2.8
		s-1.6-2.26-3.96-1.64c-2.36,0.62-2.16,6.99-1.7,10.64c0.46,3.65,2.26,13.15,2.26,13.15l-2,0.67c0,0-7.08-5.54-9.3-4
		c-2.22,1.54-0.93,5.28,0.57,7.51c1.49,2.23,7.78,9.51,7.78,9.51l-3.16,18.57l30.99,0.21c0,0,2-23.69,2.21-28.27
		C125.08,151.4,127.7,138.22,124.21,137.09z"/>
	<g>
		<path d="M104.72,144.97c-0.28-1.81-0.56-3.62-0.88-5.43c-0.32-1.8-0.63-3.61-0.95-5.41c-0.29-1.64-0.52-3.35-1.39-4.8
			c-0.79-1.31-2.14-2.44-3.73-2.48c-1.66-0.04-2.77,1.28-3.3,2.71c-1.2,3.23-0.32,6.99,0.11,10.29c0.54,4.08,1.07,8.16,1.61,12.24
			c0.07,0.56,0.43,1.04,1.04,1.04c0.51,0,1.12-0.48,1.04-1.04c-0.44-3.33-0.88-6.67-1.33-10c-0.22-1.65-0.44-3.29-0.66-4.94
			c-0.21-1.58-0.4-3.17-0.3-4.76c0.07-1.04,0.25-2.67,1.19-3.32c0.89-0.61,2.05,0.55,2.48,1.24c0.77,1.24,0.94,2.77,1.19,4.18
			l0.9,5.02c0.33,1.83,0.68,3.66,1.04,5.49c0.27,1.37,0.77,3.72,1.02,4.91c0.09,0.41,0.47,0.68,0.89,0.62
			c0.44-0.06,0.74-0.46,0.68-0.9C105.23,148.44,104.92,146.25,104.72,144.97z"/>
		<path d="M111.98,148.51c-0.04-0.55-0.12-1.1-0.18-1.65c-0.13-1.09-0.25-2.18-0.4-3.26c-0.33-2.39-0.7-4.78-1.1-7.16
			c-0.37-2.24-0.78-4.48-1.24-6.7c-0.21-1-0.53-1.96-1.24-2.72c-0.61-0.66-1.48-1.15-2.36-1.31c-1.05-0.2-2.13-0.03-3.05,0.53
			c-0.87,0.53-2.14,1.84-2.3,2.89c-0.07,0.48,0.08,0.96,0.57,1.16c0.42,0.17,1.01,0.04,1.23-0.4c0.31-0.62,0.96-1.59,1.57-1.96
			c0.55-0.34,1.18-0.45,1.81-0.28c1.74,0.47,1.89,2.35,2.19,3.85c0.81,4.02,1.53,8.05,2.18,12.1c0.18,1.11,0.37,2.21,0.55,3.32
			c0.09,0.57,0.17,1.14,0.27,1.71c0.05,0.3,0.12,0.73,0.17,1.1c0.06,0.38,0.41,0.65,0.79,0.6c0.38-0.05,0.65-0.38,0.62-0.76
			C112.04,149.19,112,148.79,111.98,148.51z"/>
		<path d="M112.15,160.78c-0.31-0.8-0.61-1.59-1.03-2.34c-0.43-0.77-0.94-1.49-1.49-2.19c-1.11-1.4-2.42-2.61-3.93-3.57
			c-1.45-0.92-4.03-1.75-5.74-1.9c-0.62-0.05-1.24-0.06-1.87,0c-0.79,0.07-1.65,0.18-2.4,0.49c-0.37-0.51-0.83-0.96-1.26-1.35
			c-0.81-0.73-1.68-1.39-2.63-1.91c-1.9-1.06-4.38-1.77-6.3-0.34c-2,1.5-1.82,4.27-0.92,6.33c0.91,2.07,2.55,3.76,3.98,5.47
			l5.19,6.18c0,0-0.37,2.46-0.51,3.24c-0.28,1.58-0.54,3.17-0.81,4.75c-0.27,1.55-0.52,3.1-0.78,4.66
			c-0.13,0.78-0.26,1.55-0.39,2.33c-0.07,0.4-0.13,1.02-0.18,1.57c-0.05,0.61,0.38,1.16,1,1.24c0.58,0.08,1.13-0.3,1.27-0.87
			c0.12-0.48,0.24-1.03,0.3-1.38c0.13-0.78,0.26-1.55,0.39-2.33c0.26-1.55,0.52-3.1,0.77-4.66c0.25-1.55,0.51-3.11,0.76-4.66
			c0.12-0.75,0.2-1.5,0.33-2.24c0.39-2.11,0.03-2.68-0.18-2.92c-1.43-1.71-2.86-3.41-4.29-5.12c-1.28-1.53-2.68-3.02-3.81-4.66
			c-0.84-1.21-1.84-2.99-1.17-4.49c0.68-1.54,2.82-0.82,3.98-0.2c0.86,0.46,1.7,0.98,2.45,1.6c0.75,0.61,1.48,1.25,2.27,1.81
			c0.31,0.22,0.67,0.34,1.08,0.27c0.75-0.13,1.44-0.4,2.21-0.45c0.7-0.05,1.41-0.03,2.1,0.08c1.51,0.24,2.96,0.81,4.26,1.6
			c1.27,0.78,2.42,1.78,3.43,2.87c0.51,0.54,0.98,1.11,1.45,1.69c0.49,0.61,1.02,1.21,1.48,1.84
			C111.48,161.66,112.4,161.41,112.15,160.78z"/>
		<path d="M126.55,137.72c-1.14-1.68-3.44-1.75-5-0.6c-1.75,1.3-2.41,3.67-3.01,5.68c0-0.39,0-0.79,0-1.18
			c0-3.12,0.13-6.28-0.3-9.38c-0.31-2.26-1-5.45-3.62-6.07c-1.31-0.31-2.65,0.21-3.6,1.12c-1.07,1.03-1.5,2.47-1.69,3.91
			c-0.28,2.13-0.26,4.32-0.47,6.45c0.02,0.07,1.85,2.7,1.85,2.7c0.14-2.45,0.29-4.89,0.44-7.34c0.07-1.2,0.11-2.51,0.7-3.58
			c0.39-0.72,1.21-1.49,2.1-1.39c0.87,0.09,1.41,0.94,1.72,1.68c0.44,1.04,0.62,2.23,0.76,3.34c0.34,2.77,0.29,5.58,0.32,8.37
			l0.05,4.86c0.01,0.78,0.03,1.56,0.04,2.33c0.01,0.49,0.04,1.3,0.11,1.73c0.09,0.56,0.53,1.05,1.05,1.05
			c0.62,0,0.98-0.48,1.05-1.05c0.24-2.01,0.63-3.99,1.17-5.94c0.27-0.96,0.57-1.91,0.9-2.84c0.27-0.74,0.55-1.51,1.02-2.15
			c0.63-0.86,2.27-1.65,2.82-0.32c0.26,0.63,0.21,1.38,0.17,2.05c-0.07,1.04-0.16,2.07-0.25,3.11c-0.68,8.47-1.37,16.95-2.03,25.42
			c-0.19,2.38-0.4,4.76-0.55,7.14c-0.06,0.88-0.4,4.66-0.57,6.47c-0.05,0.52,0.36,0.97,0.89,0.98c0.45,0,0.84-0.33,0.89-0.79
			c0.2-1.62,0.63-5.22,0.72-6.08c0.22-2.28,0.39-4.56,0.58-6.84c0.38-4.56,0.74-9.13,1.11-13.69l1.1-13.69
			C127.16,141.45,127.59,139.27,126.55,137.72z"/>
	</g>
	<g>
		<path d="M141.73,26.46c-6.99-14.33-23.29-21.59-36.81-21.89c-23.37-0.52-53.46,15.02-49.65,44.6
			c2.08,16.17,13.96,30.27,29.07,35.77c0,0,1.66,11.04,1.99,14.1c0.16,1.51,1.59,1.21,2.51,0.14c3.68-4.28,6.72-6.78,10.06-11.33
			c8.74,0.28,24.74-6.33,31.56-11.35C147.37,64.04,151.36,46.2,141.73,26.46z"/>
	</g>
	<g>
		<g>
			<path class="st0" d="M103.1,78.72c4.52,4.19,15.21,9.16,21.56,9.67c2.34,3.02,4.24,5.27,6.55,8.67c0.58,0.85,1.69-0.28,1.93-1.36
				c0.49-2.19,2.29-8.22,2.29-8.22c11.38-2.73,19.52-11.43,22.35-22.95c5.19-21.07-12.04-36.3-30.63-36.17
				c-9.84,0.07-23.36,3.16-29.6,12.95C88.96,54.8,91.89,68.32,103.1,78.72z"/>
		</g>
		<g>
			<path d="M158,46.89c-2.08-5.51-5.68-10.41-10.54-13.78c-5.84-4.05-13.19-5.59-20.2-5.78c-7.13-0.19-14.44,1.17-20.7,4.7
				c-5.45,3.07-10.11,7.79-12.58,13.58c-2.53,5.94-2.68,12.66-0.9,18.84c1.78,6.2,5.45,11.65,10.38,15.78
				c4.94,4.13,10.88,6.92,17.11,8.46c1.41,0.35,2.83,0.62,4.27,0.84c0.37,0.73,4.3,6.37,4.99,7.15c0.33,0.38,0.68,0.75,1.04,1.11
				c0.35,0.35,0.79,0.79,1.3,0.88c0.22,0.04,0.48-0.04,0.61-0.22c0.63-0.6,1.74-4.39,2.03-5.25c0.29-0.86,1.59-5,1.59-5
				s2.71-0.88,3.43-1.18c1.34-0.57,2.65-1.23,3.9-1.98c2.56-1.51,4.93-3.39,7.01-5.51c4.12-4.2,7.22-9.48,8.53-15.24
				C160.58,58.51,160.08,52.39,158,46.89z M157.7,59.85c-0.39,5.48-2.61,10.81-5.92,15.23c-3.33,4.44-7.87,7.98-12.92,10.27
				c-0.6,0.27-1.21,0.52-1.83,0.75c-0.65,0.24-1.28,0.56-1.93,0.82c-0.21,0.09-0.35,0.22-0.43,0.38c-0.52,0.71-2.78,8.51-2.86,8.89
				c-0.15-0.18-0.29-0.35-0.41-0.52c-0.61-0.81-3.97-5.71-4.23-6.12c-1.07-1.69-1.27-1.85-1.48-1.88
				c-6.08-0.85-11.95-2.87-17.11-6.22c-5.04-3.27-9.24-7.82-11.79-13.28c-2.5-5.33-3.42-11.56-2.18-17.34
				c1.25-5.83,4.74-10.88,9.43-14.5c5.15-3.98,11.53-6.08,17.98-6.62c3.45-0.29,6.96-0.19,10.4,0.29c3.34,0.47,6.69,1.3,9.77,2.71
				c5.2,2.38,9.36,6.34,12.08,11.36C156.88,48.86,158.09,54.38,157.7,59.85z"/>
		</g>
	</g>
	<g>
		<path d="M144.18,62.09c-0.15-0.54-0.79-0.97-1.35-0.77c-2,0.71-4.32,0.42-6.02-0.8c0.85-0.74,1.64-1.57,2.33-2.5
			c1.18-1.58,2.07-3.48,1.74-5.49c-0.31-1.9-1.83-3.47-3.82-3.5c-2.1-0.03-3.73,1.49-4.49,3.33c-0.7,1.72-0.72,3.71-0.18,5.48
			c0.27,0.88,0.68,1.69,1.19,2.41c-0.64,0.4-1.3,0.76-1.98,1.06c-2.37,1.06-5.02,1.47-7.61,1.24c-1.74-0.15-3.59-0.66-5.19-1.56
			c1.11-0.95,2.04-2.08,2.67-3.37c0.81-1.65,1.18-3.64,0.26-5.32c-0.82-1.48-2.54-2.24-4.2-2.08c-1.74,0.17-3.29,1.14-4.05,2.74
			c-0.78,1.63-0.8,3.57-0.13,5.24c0.43,1.06,1.07,1.98,1.86,2.77c-0.27,0.14-0.54,0.28-0.81,0.4c-2.33,1.07-5.11,1.4-7.64,0.95
			c-0.67-0.12-1.34-0.29-1.99-0.5c-0.72-0.24-1.19,0.88-0.52,1.23c2.95,1.54,6.42,1.68,9.57,0.68c1.05-0.33,2.09-0.8,3.07-1.38
			c1.44,0.95,3.1,1.61,4.73,1.99c3.16,0.73,6.54,0.51,9.6-0.57c1.35-0.48,2.63-1.12,3.81-1.9c1.56,1.33,3.59,2.09,5.75,2.05
			c0.89-0.02,1.79-0.18,2.63-0.47C143.98,63.24,144.35,62.69,144.18,62.09z M116.64,59.38c-0.94-0.96-1.6-2.19-1.64-3.55
			c-0.03-1.18,0.41-2.48,1.41-3.08c0.89-0.54,2.02-0.59,2.88-0.06c1.02,0.62,1.02,2.07,0.68,3.16c-0.49,1.57-1.59,2.89-2.91,3.93
			C116.91,59.64,116.77,59.51,116.64,59.38z M134.2,55.19c0.02-1.3,0.45-2.89,1.62-3.62c1.06-0.66,2.3-0.37,2.77,0.79
			c0.55,1.37-0.16,2.86-0.94,4.02c-0.65,0.97-1.44,1.83-2.33,2.58C134.59,57.85,134.18,56.54,134.2,55.19z"/>
	</g>
	<g>
		<path class="st0" d="M165.44,88.23c-0.35-0.12-16.38,5.44-17.91,13.74c-1.54,8.3-1.14,12.53-1.72,16.2
			c-0.58,3.68-1.72,11.46-1.61,11.4c0.11-0.06,5.18,0,5.18,0s-0.71,9.26,1.01,12.24c1.34,2.32,4.48,7.18,13.09,7.3v11.3l26.83-0.46
			l0.8-14.08c0,0,21.62-21.77,12.3-44.25C194.09,79.15,165.44,88.23,165.44,88.23z"/>
		<path d="M157.73,118.14c-0.02-0.12-0.05-0.24-0.1-0.36c-0.69-1.78-3.4-1.47-3.73,0.38c-0.26,1.46,1.22,2.69,2.61,2.13
			C157.34,119.96,157.86,119.01,157.73,118.14z"/>
		<path d="M168.06,148.82c-0.03-0.68-0.61-1.21-1.29-1.18c-1.97,0.08-3.95,0.04-5.91-0.17c-2.3-0.25-4.79-0.88-6.68-2.35
			c-1.92-1.5-3.01-3.77-3.57-6.09c-0.37-1.53-0.47-3.09-0.5-4.66c-0.02-1.05,0.09-4.18,0.08-4.69c-0.01-0.39-0.01-0.82-0.24-1.15
			c-0.21-0.3-0.55-0.44-0.91-0.43c-1.19,0.03-2.38,0.05-3.57,0.08c1.13-5.16,1.7-10.39,1.94-15.67c0.23-5.03,0.54-10.28,3.33-14.64
			c1.29-2.02,3.07-3.64,5.05-4.98c0.55-0.37,0.2-1.14-0.44-1.03c-1.18,0.2-2.23,0.64-3.2,1.35c-0.92,0.67-1.76,1.48-2.47,2.38
			c-1.49,1.88-2.55,4.09-3.21,6.39c-1.62,5.6-1.22,11.57-1.85,17.31c-0.36,3.3-0.95,6.57-1.73,9.79c-0.17,0.72,0.35,1.49,1.12,1.47
			c1.29-0.03,2.59-0.05,3.88-0.08c-0.07,1.85,0.04,6.66,0.28,8.2c0.43,2.73,1.57,5.43,3.51,7.44c1.94,2.02,4.64,3.14,7.36,3.62
			c2.57,0.46,5.22,0.54,7.83,0.43C167.56,150.09,168.09,149.51,168.06,148.82L168.06,148.82z"/>
		<g>
			<path d="M154.72,132.12c-0.02-0.11-0.04-0.2-0.09-0.31c-0.07-0.15-0.3-0.29-0.47-0.27c-0.13,0.02-0.21,0.04-0.33,0.09
				c0.14-0.06-0.06,0.02-0.13,0.06c-0.1,0.05-0.19,0.11-0.27,0.18c-0.23,0.17-0.45,0.34-0.65,0.54c-0.17,0.16-0.34,0.31-0.52,0.47
				c-0.05,0.04-0.1,0.09-0.15,0.13c-0.03,0.03-0.2,0.14-0.04,0.04c0.15-0.1-0.01,0.01-0.04,0.03c-0.05,0.04-0.11,0.08-0.16,0.11
				c-0.38,0.28-0.75,0.54-1.17,0.76c-0.21,0.11-0.42,0.21-0.64,0.3c-0.03,0.01-0.07,0.03-0.1,0.04c-0.12,0.05-0.25,0.09-0.38,0.13
				c-0.61,0.2-1.06,0.86-0.85,1.5c0.19,0.6,0.85,1.07,1.5,0.85c1.11-0.37,2.18-0.97,3.03-1.78c0.41-0.4,0.77-0.87,1.07-1.35
				c0.16-0.25,0.28-0.53,0.35-0.81c0.04-0.17,0.07-0.34,0.07-0.51C154.73,132.28,154.72,132.18,154.72,132.12z"/>
		</g>
		<path d="M160.37,111.09c-1.41-1.18-3.23-1.84-5.07-1.62c-0.89,0.11-1.78,0.35-2.55,0.81c-0.72,0.43-1.82,1.2-1.71,2.17
			c0.04,0.38,0.29,0.7,0.7,0.7c0.74,0,1.32-0.6,1.93-0.92c0.31-0.16,0.48-0.24,0.77-0.34c0.16-0.05,0.32-0.1,0.48-0.14
			c0.08-0.02,0.16-0.04,0.24-0.05c0.02,0,0.15-0.03,0.17-0.03c1.26-0.17,2.56,0.2,3.5,0.97c0.46,0.37,1.1,0.45,1.54,0
			C160.76,112.24,160.82,111.47,160.37,111.09z"/>
		<path d="M209.76,91.6c-5.81-7.63-15.12-11.73-30.32-10.16c0.01-0.77-1.96-7.57-9.28-7.19c-6.13,0.32-8.99,5.54-8.66,7.65
			c-3.16-0.76-7.66,0.47-10.48,2.14c-8.99,5.32-4.73,14.31-2.13,16.33c2.91,2.27,7.17,2.23,10.59,1.48
			c1.18-0.26,2.34-0.65,3.43-1.18c1.19,3.08,3.93,5.08,9.58,3.79c0,0-2.17,10.95,5.29,14.27l2.73,12.47
			c0.43,13.29,10.99,15.55,10.99,15.55c10.57-0.72,20.22-11.96,23-25.76C216.45,111.37,216.87,100.93,209.76,91.6z"/>
		<g>
			<g>
				<path class="st0" d="M171.71,121.15c-1.29,2.9-1.05,6.65,2.17,8.09c1.01,0.45,2.13,0.63,3.23,0.74c1.7,0.17,3.47,0.19,5.06-0.45
					c3.61-1.45,4.03-6.17,3.66-9.54c-0.17-1.49-0.78-2.98-1.96-3.9c-0.76-0.59-1.71-0.91-2.67-1.05c-4.03-0.57-7.4,2.02-9.17,5.45
					C171.91,120.71,171.81,120.93,171.71,121.15z"/>
			</g>
			<path d="M181.37,120.29c-0.39-0.01-0.8,0.16-1.16,0.3c-0.37,0.14-0.74,0.3-1.1,0.47c-0.63,0.31-1.21,0.68-1.76,1.1
				c-0.6,0.46-1.12,0.96-1.59,1.56c-0.42,0.55-0.83,1.17-0.95,1.86c-0.04,0.25,0.01,0.49,0.22,0.65c0.18,0.14,0.49,0.19,0.69,0.05
				c0.53-0.38,0.97-0.86,1.45-1.3c0.23-0.21,0.47-0.41,0.7-0.61c0.13-0.11,0.26-0.22,0.39-0.33c0.1-0.08,0.17-0.13,0.24-0.18
				c0.5-0.36,1.03-0.68,1.58-0.96c0.12-0.06,0.23-0.11,0.35-0.16c-0.03,0.01,0.15-0.06,0.16-0.07c0.07-0.03,0.14-0.06,0.22-0.08
				c0.35-0.13,0.76-0.19,1.08-0.4C182.74,121.65,182.4,120.32,181.37,120.29z"/>
		</g>
		<path d="M163.73,148.47c-0.72-0.09-1.37,0.47-1.38,1.2c-0.02,1.66-0.06,4.35-0.08,5.14c-0.04,2.34-0.19,4.7-0.11,7.04
			c0.05,1.63,2.41,1.61,2.52,0c0.15-2.33,0.07-4.7,0.1-7.04c0.01-0.81,0.01-3.57,0.01-5.12
			C164.8,149.07,164.34,148.55,163.73,148.47z"/>
		<path d="M191.25,144.5c-0.69-0.03-1.26,0.51-1.28,1.2c-0.02,0.75-0.05,1.67-0.06,2.27c-0.04,2.34-0.19,7.46-0.11,9.79
			c0.05,1.63,2.41,1.61,2.52,0c0.15-2.33,0.07-4.7,0.1-7.04c0.01-0.6,0.01-4.26,0.01-4.99C192.44,145.07,191.91,144.52,191.25,144.5
			z"/>
		<g>
			<path d="M221.25,184.05c-0.02-0.14-10.24-15.16-17.46-20.41c-6.83-4.96-15.31-7.52-23.73-7.56
				c-17.53-0.08-32.85,9.54-42.84,23.46c-0.32,0.45-3.08,4.51-3.08,4.51H221.25z"/>
		</g>
	</g>
	<path class="st0" d="M63.81,88.23c0.35-0.12,16.23,5.95,18.71,14.28c2.41,8.09,0.33,12.01,0.91,15.68
		c0.58,3.68,2.81,10.97,2.7,10.91l-4.31,0.33c0,0,0.33,8.13,0.09,10.79c-0.23,2.67-5.24,9.92-16.14,8.48v11.3
		c0,0-28.85,1.42-30.16,0.93c-1.86-0.7-19.1-36.83-9.78-59.31C35.16,79.15,63.81,88.23,63.81,88.23z"/>
	<path d="M71.53,118.14c0.02-0.12,0.05-0.24,0.1-0.36c0.69-1.78,3.4-1.47,3.73,0.38c0.26,1.46-1.22,2.69-2.61,2.13
		C71.92,119.96,71.4,119.01,71.53,118.14z"/>
	<path d="M68.89,111.09c1.41-1.18,3.23-1.84,5.07-1.62c0.89,0.11,1.78,0.35,2.55,0.81c0.72,0.43,1.82,1.2,1.71,2.17
		c-0.04,0.38-0.29,0.7-0.7,0.7c-0.74,0-1.32-0.6-1.93-0.92c-0.31-0.16-0.48-0.24-0.77-0.34c-0.16-0.05-0.32-0.1-0.48-0.14
		c-0.08-0.02-0.16-0.04-0.24-0.05c-0.02,0-0.15-0.03-0.17-0.03c-1.26-0.17-2.56,0.2-3.5,0.97c-0.46,0.37-1.1,0.45-1.55,0
		C68.5,112.24,68.43,111.47,68.89,111.09z"/>
	<path d="M65.53,148.47c0.72-0.09,1.37,0.47,1.38,1.2c0.02,1.66,0.06,4.35,0.08,5.14c0.04,2.34,0.19,4.7,0.11,7.04
		c-0.05,1.63-2.41,1.61-2.52,0c-0.15-2.33-0.07-4.7-0.1-7.04c-0.01-0.81-0.01-3.57-0.01-5.12
		C64.46,149.07,64.92,148.55,65.53,148.47z"/>
	<g>
		<path d="M87.55,129.1c0.14-0.42,0.02-0.89-0.25-1.24c-3.26-4.19-2.92-9.86-2.81-14.86c0.06-2.95,0.05-5.97-0.61-8.86
			c-0.58-2.52-1.72-4.97-3.33-7c-0.85-1.08-1.83-2.03-2.91-2.88c-0.54-0.43-1.11-0.85-1.71-1.2c-0.61-0.35-1.29-0.58-1.93-0.86
			c-0.51-0.22-0.96,0.46-0.46,0.77c0.52,0.32,0.96,0.7,1.42,1.08c0.5,0.41,1.01,0.8,1.48,1.25c0.85,0.8,1.64,1.68,2.31,2.64
			c1.42,2.01,2.43,4.18,2.94,6.59c1.16,5.55-0.03,11.28,0.73,16.88c0.31,2.28,0.94,4.05,2.05,6.2c-0.18,0-0.35,0.01-0.53,0.01
			c-0.4,0-0.8,0-1.21-0.01c-0.47-0.01-0.99-0.01-1.43,0.17c-0.24,0.09-0.47,0.26-0.61,0.48c-0.17,0.26-0.15,0.59-0.15,0.89
			c0,0.3,0,0.61,0,0.91c0,0.65,0.02,2.1,0.02,2.75c0,0.17,0,0.35,0,0.52c0,1.23,0.04,2.46,0.06,3.69c0.02,1.21,0.07,2.45-0.22,3.62
			c-0.22,0.9-0.63,1.7-1.17,2.45c-2.53,3.45-7.3,4.36-11.32,4.47c-1.42,0.04-2.82-0.06-4.22-0.21c-0.87-0.1-1.73,0.51-1.61,1.46
			c0.09,0.74,0.74,1.11,1.36,1.03c1.1,0.09,2.19,0.22,3.29,0.24c1.22,0.02,2.44-0.05,3.65-0.2c2.27-0.28,4.51-0.79,6.56-1.83
			c1.83-0.93,3.44-2.31,4.52-4.07c1.21-1.95,1.47-4.12,1.38-6.37c-0.05-1.35-0.1-2.71-0.18-4.06c-0.03-0.46-0.07-2.53-0.11-3.57
			c0.45,0.04,0.9,0.04,1.34,0.04c0.85,0,1.71-0.02,2.55-0.1c0.38-0.04,0.74-0.18,0.97-0.49C87.46,129.31,87.51,129.21,87.55,129.1z"
			/>
	</g>
	<path d="M49.91,80.47c-10.69-0.05-23.32,3.73-29.15,11.35c-8.63,11.3-9.1,26.7,4.51,48.97c-1.24,0.28-2.41,0.82-3.42,1.57
		c-2.44,1.84-3.76,4.85-3.43,7.9c0.08,0.76,0.25,1.48,0.49,2.17c-1.57-0.05-11.39-0.69-14.32,9.9c-3.63,13.14,8.22,18.11,8.22,18.11
		l44.45-20.63c0,0,4.78-4.78,1.23-12.28c-2.77-5.87-7.5-5.86-9.03-5.98c6.31-3.27,4.1-13,2.77-15.18l0.49-5.59
		c7.46-3.33,3.67-15.57,3.67-15.57c5.65,1.29,15.5-0.9,19.09-11.74l4.6,3.31C75.16,84.04,58.38,80.51,49.91,80.47z"/>
	<g>
		<path class="st1" d="M8.01,184.05c0,0,8.61-12.93,14.22-17.9c4.98-4.42,11.09-7.53,17.56-9.08c13.8-3.3,29.42,1.18,40.99,8.93
			c6.16,4.13,20.12,18.05,20.12,18.05H8.01z"/>
	</g>
	<g>
		<g>
			<path class="st0" d="M57.23,120.49c-1.78-3.43-5.15-6.02-9.17-5.45c-0.96,0.14-1.91,0.45-2.67,1.05
				c-1.18,0.92-1.79,2.42-1.96,3.9c-0.38,3.37,0.05,8.09,3.66,9.54c1.59,0.64,3.36,0.62,5.06,0.45c1.1-0.11,2.22-0.29,3.23-0.74
				c3.22-1.44,3.46-5.19,2.17-8.09C57.45,120.93,57.34,120.71,57.23,120.49z"/>
		</g>
		<path d="M47.37,122.2c0.31,0.2,0.73,0.27,1.08,0.4c0.07,0.03,0.14,0.05,0.22,0.08c0.02,0.01,0.19,0.08,0.16,0.07
			c0.12,0.05,0.24,0.11,0.35,0.16c0.55,0.27,1.08,0.6,1.58,0.96c0.07,0.05,0.13,0.1,0.2,0.15c0.17,0.13,0.3,0.24,0.42,0.36
			c0.23,0.21,0.47,0.4,0.7,0.61c0.48,0.44,0.92,0.92,1.45,1.3c0.2,0.14,0.5,0.09,0.69-0.05c0.21-0.16,0.27-0.4,0.22-0.65
			c-0.12-0.7-0.52-1.31-0.95-1.86c-0.46-0.6-0.99-1.1-1.59-1.56c-0.55-0.43-1.13-0.8-1.76-1.1c-0.36-0.17-0.73-0.33-1.1-0.47
			c-0.36-0.14-0.77-0.31-1.16-0.3C46.86,120.32,46.52,121.65,47.37,122.2z"/>
	</g>
	<path d="M167.64,31.71c-1-0.25-1.93-0.71-2.7-1.41c-0.43-0.39-0.89-0.8-1.17-1.33c-0.43-0.8-0.01-2.47-1.47-2.32
		c-0.86,0.09-1.18,1.1-1.4,1.79c-0.29,0.88-0.67,1.72-1.32,2.39c-0.71,0.73-1.65,1.25-2.67,1.36c-0.57,0.06-1.06,0.44-1.06,1.06
		c0,0.57,0.48,1.06,1.06,1.06c2.41-0.03,3.58,2.54,4.23,4.47c0.34,1,1.73,1.03,2.06,0c0.74-2.31,2.49-4.14,4.7-5.1
		C168.77,33.3,168.49,31.92,167.64,31.71z M162.22,35.86c-0.34-0.66-0.75-1.27-1.26-1.82c-0.32-0.34-0.68-0.64-1.07-0.9
		c1-0.73,1.76-1.74,2.15-2.92c0.12,0.19,0.25,0.37,0.39,0.55c0.68,0.88,1.53,1.61,2.48,2.16C163.84,33.71,162.93,34.72,162.22,35.86
		z"/>
	<path class="st0" d="M52,61.84c-0.56-0.16-1.13-0.26-1.68-0.48c-0.9-0.38-1.62-0.93-2.17-1.74c-0.16-0.24-0.34-0.48-0.59-0.62
		c-0.64-0.38-1.44,0.21-1.68,0.82c-0.39,1.01-0.51,1.89-1.27,2.73c-0.64,0.71-1.49,1.2-2.43,1.39c-0.87,0.17-1.03,1.51-0.25,1.91
		c2.1,1.07,3.77,2.73,4.84,4.83c0.45,0.89,1.64,0.53,1.94-0.25c0.46-1.21,1.05-2.36,1.75-3.44c0.34-0.53,0.7-1.04,1.1-1.53
		c0.42-0.52,1.02-0.99,1.34-1.58C53.37,63.04,52.89,62.1,52,61.84z M48.53,66.04c-0.37,0.59-0.7,1.2-1.01,1.82
		c-0.79-1.06-1.73-2-2.81-2.77c1.17-0.79,2.09-2.01,2.32-3.37c0.43,0.44,0.92,0.82,1.45,1.13c0.48,0.28,1.01,0.51,1.54,0.69
		c0.09,0.03,0.19,0.06,0.28,0.09c-0.18,0.21-0.35,0.42-0.52,0.63C49.34,64.84,48.92,65.43,48.53,66.04z"/>
	<g>
		<path d="M81.36,137.52c-0.39-0.14-0.8-0.22-1.2-0.36c-0.09-0.03-0.19-0.07-0.28-0.1c-0.03-0.01-0.06-0.03-0.1-0.04
			c-0.21-0.1-0.42-0.2-0.63-0.31c-0.37-0.2-0.72-0.42-1.06-0.66c-0.03-0.02-0.12-0.09-0.14-0.1c-0.06-0.05-0.12-0.1-0.18-0.15
			c-0.17-0.14-0.33-0.28-0.48-0.43c-0.14-0.13-0.26-0.28-0.39-0.42c-0.02-0.03-0.05-0.07-0.07-0.1c-0.06-0.09-0.12-0.19-0.17-0.29
			c-0.02-0.16,0.08-0.15,0.13-0.14c0.47,0.1,0.95,0.18,1.43,0.25c0.61,0.09,1.23,0.2,1.84,0.21c0.6,0.02,1.26,0.02,1.79-0.3
			c0.33-0.19,0.47-0.75,0.13-1.02c-0.26-0.21-0.49-0.33-0.81-0.43c-0.29-0.09-0.6-0.16-0.9-0.22c-0.57-0.11-1.15-0.19-1.72-0.31
			c-1.15-0.24-2.5-0.78-3.52,0.1c-1.03,0.89-0.69,2.51,0.01,3.48c0.66,0.9,1.55,1.63,2.49,2.22c0.54,0.34,1.11,0.61,1.69,0.84
			c0.59,0.24,1.2,0.44,1.83,0.5c0.56,0.05,1.04-0.47,1.1-0.98C82.25,138.17,81.9,137.71,81.36,137.52z"/>
		<path d="M76.17,134.96c-0.02-0.08-0.03-0.1-0.03-0.08C76.17,134.96,76.17,134.96,76.17,134.96z"/>
	</g>
</g>
</svg>
