<?xml version="1.0" encoding="utf-8"?>
<!-- Generator: Adobe Illustrator 25.0.0, SVG Export Plug-In . SVG Version: 6.00 Build 0)  -->
<svg version="1.1" id="_x3C_Layer_x3E_" xmlns="http://www.w3.org/2000/svg" xmlns:xlink="http://www.w3.org/1999/xlink" x="0px"
	 y="0px" viewBox="0 0 286.78 232.17" style="enable-background:new 0 0 286.78 232.17;" xml:space="preserve">
<style type="text/css">
	.st0{fill:#FFFFFF;}
	.st1{fill:#FFA399;}
	.st2{fill:#FFFFFF;stroke:#020200;stroke-width:2;stroke-miterlimit:10;}
</style>
<g>
	<path class="st0" d="M256.68,73.19l7.75,4.07c2.57,1.35,5.56-0.83,5.07-3.69l-1.48-8.62c-0.19-1.13,0.18-2.29,1.01-3.09l6.27-6.11
		c2.08-2.02,0.93-5.55-1.94-5.96l-8.66-1.26c-1.14-0.17-2.12-0.88-2.63-1.91l-3.87-7.85c-1.28-2.6-4.99-2.6-6.27,0l-3.87,7.85
		c-0.51,1.03-1.49,1.75-2.63,1.91l-8.66,1.26c-2.87,0.42-4.01,3.94-1.94,5.96l6.27,6.11c0.82,0.8,1.2,1.96,1.01,3.09l-1.48,8.62
		c-0.49,2.86,2.51,5.03,5.07,3.69l7.75-4.07C254.44,72.65,255.66,72.65,256.68,73.19z"/>
</g>
<g>
	<path class="st0" d="M114.81,100.48l12.09,6.36c4,2.11,8.68-1.3,7.92-5.75l-2.31-13.47c-0.3-1.77,0.28-3.58,1.57-4.83l9.78-9.54
		c3.24-3.16,1.45-8.66-3.03-9.31l-13.52-1.96c-1.78-0.26-3.31-1.38-4.11-2.99l-6.05-12.25c-2-4.06-7.79-4.06-9.79,0l-6.05,12.25
		c-0.8,1.61-2.33,2.73-4.11,2.99L83.7,63.94c-4.48,0.65-6.26,6.15-3.03,9.31l9.78,9.54c1.29,1.25,1.87,3.06,1.57,4.83l-2.31,13.47
		c-0.76,4.46,3.92,7.86,7.92,5.75l12.09-6.36C111.32,99.65,113.22,99.65,114.81,100.48z"/>
</g>
<g>
	<path class="st0" d="M154.9,39.82l7,3.68c2.32,1.22,5.03-0.75,4.59-3.33l-1.34-7.8c-0.18-1.03,0.16-2.07,0.91-2.8l5.67-5.52
		c1.88-1.83,0.84-5.01-1.75-5.39l-7.83-1.14c-1.03-0.15-1.92-0.8-2.38-1.73l-3.5-7.1c-1.16-2.35-4.51-2.35-5.67,0l-3.5,7.1
		c-0.46,0.93-1.35,1.58-2.38,1.73l-7.83,1.14c-2.59,0.38-3.63,3.56-1.75,5.39l5.67,5.52c0.74,0.73,1.08,1.77,0.91,2.8l-1.34,7.8
		c-0.44,2.58,2.27,4.55,4.59,3.33l7-3.68C152.87,39.33,153.97,39.33,154.9,39.82z"/>
</g>
<g>
	<path class="st0" d="M44.19,82.75l5.05,2.66c1.67,0.88,3.63-0.54,3.31-2.4l-0.97-5.63c-0.13-0.74,0.12-1.49,0.66-2.02l4.09-3.99
		c1.35-1.32,0.61-3.62-1.26-3.89l-5.65-0.82c-0.74-0.11-1.39-0.57-1.72-1.25l-2.53-5.12c-0.84-1.7-3.25-1.7-4.09,0l-2.53,5.12
		c-0.33,0.67-0.97,1.14-1.72,1.25l-5.65,0.82c-1.87,0.27-2.62,2.57-1.26,3.89l4.09,3.99c0.54,0.52,0.78,1.28,0.66,2.02L33.7,83
		c-0.32,1.86,1.64,3.28,3.31,2.4l5.05-2.66C42.73,82.4,43.52,82.4,44.19,82.75z"/>
</g>
<g>
	<g>
		<path d="M98.25,107.89c0.52,4.82,4.86,8.31,9.68,7.79c4.82-0.52,8.31-4.86,7.79-9.68c-0.52-4.82-4.86-8.31-9.68-7.79
			C101.22,98.73,97.73,103.07,98.25,107.89z"/>
	</g>
</g>
<g>
	<path d="M246.38,99.04l-46.61-67.68c-1.6-2.33-5.04-2.33-6.64,0l-46.61,67.68c-1.84,2.68,0.07,6.32,3.32,6.32h15.96
		c2.23,0,4.03,1.81,4.03,4.03v112.92h53.25V109.39c0-2.23,1.81-4.03,4.03-4.03h15.96C246.31,105.36,248.22,101.71,246.38,99.04z"/>
</g>
<g>
	<path class="st0" d="M194.59,159.16l-29.49-42.81c-1.01-1.47-3.19-1.47-4.2,0l-29.49,42.81c-1.17,1.69,0.05,4,2.1,4h10.09
		c1.41,0,2.55,1.14,2.55,2.55v56.6h33.68v-56.6c0-1.41,1.14-2.55,2.55-2.55h10.09C194.54,163.16,195.75,160.85,194.59,159.16z"/>
</g>
<g>
	<path class="st0" d="M278.69,201.3l-29.49-42.81c-1.01-1.47-3.19-1.47-4.2,0l-29.49,42.81c-1.17,1.69,0.05,4,2.1,4h10.09
		c1.41,0,2.55,1.14,2.55,2.55v14.46h33.68v-14.46c0-1.41,1.14-2.55,2.55-2.55h10.09C278.64,205.3,279.85,202.99,278.69,201.3z"/>
</g>
<path d="M5.8,211.16c0-25.89,20.97-46.9,46.86-46.94h66.3c25.89,0.04,46.86,21.04,46.86,46.94v11.15H5.8"/>
<g>
	<path d="M46.54,135.3c4.13,18.58,22.54,30.28,41.12,26.15c18.58-4.13,30.28-22.54,26.15-41.12c-4.13-18.58-22.54-30.28-41.12-26.15
		C54.11,98.32,42.41,116.73,46.54,135.3z"/>
</g>
<g>
	<rect x="71.64" y="125.49" class="st1" width="27.32" height="50.66"/>
</g>
<g>
	<path class="st0" d="M63.11,135.76c3.21,17.36,11.45,28.32,36.39,23.32c15.57-3.12,22.27-10.39,18.43-24.38
		c-4.02-14.61-5.85-23.13-10.46-27.56c-10.15-9.74-23.3-4.65-33.21-0.66C60.43,112.04,60.25,120.33,63.11,135.76z"/>
</g>
<g>
	<path d="M110.26,126.31c0.23,0.89,1.15,1.42,2.04,1.19c0.89-0.23,1.42-1.15,1.19-2.04c-0.23-0.89-1.15-1.42-2.04-1.19
		C110.56,124.51,110.03,125.42,110.26,126.31z"/>
</g>
<g>
	<path d="M91.67,130.48c0.23,0.89,1.15,1.42,2.04,1.19c0.89-0.23,1.42-1.15,1.19-2.04c-0.23-0.89-1.15-1.42-2.04-1.19
		C91.97,128.68,91.44,129.59,91.67,130.48z"/>
</g>
<g>
	<path d="M95.44,139.01c-4.79,0-9.07-3.42-9.98-8.3c-0.5-2.67,0.07-5.37,1.61-7.61c1.53-2.24,3.85-3.75,6.52-4.25
		c2.67-0.5,5.37,0.07,7.61,1.61c2.24,1.53,3.75,3.85,4.25,6.52c0.5,2.67-0.07,5.37-1.61,7.61c-1.53,2.24-3.85,3.75-6.52,4.25
		C96.68,138.95,96.06,139.01,95.44,139.01z M95.46,121.23c-0.47,0-0.94,0.04-1.41,0.13c-2,0.37-3.73,1.5-4.88,3.18
		c-1.15,1.68-1.58,3.7-1.2,5.7c0.37,2,1.5,3.73,3.18,4.88c1.68,1.15,3.7,1.58,5.7,1.2c2-0.37,3.73-1.5,4.88-3.18
		c1.15-1.68,1.58-3.7,1.2-5.7c-0.37-2-1.5-3.73-3.18-4.88C98.46,121.69,96.98,121.23,95.46,121.23z"/>
</g>
<g>
	<path d="M115.74,133.73c-1.55,0-3.08-0.36-4.49-1.06c-0.63-0.31-0.89-1.08-0.58-1.71c0.31-0.63,1.08-0.89,1.71-0.58
		c1.49,0.74,3.14,0.97,4.78,0.66c4.12-0.77,6.85-4.75,6.08-8.88c-0.77-4.12-4.75-6.85-8.88-6.08c-2.63,0.49-4.84,2.36-5.76,4.88
		c-0.24,0.66-0.97,1-1.64,0.76c-0.66-0.24-1-0.97-0.76-1.64c1.23-3.36,4.17-5.86,7.68-6.52c5.51-1.03,10.83,2.61,11.86,8.12
		c1.03,5.51-2.61,10.83-8.12,11.86C116.99,133.67,116.36,133.73,115.74,133.73z"/>
</g>
<g>
	<path d="M70.93,155.03c0,0,8.65-5.21,3.29-17c0,0,2.18-25.64-10.92-27.52c-2.97-0.43-13.99,12.93-11.26,23.56
		C54.36,143.11,70.93,155.03,70.93,155.03z"/>
</g>
<g>
	<path d="M110.55,135.15c-0.18,0-0.36-0.04-0.53-0.12c-0.64-0.3-0.92-1.05-0.62-1.69l1.09-2.36c0.22-0.47-0.01-0.83-0.12-0.96
		c-0.11-0.13-0.41-0.43-0.91-0.32l-1.91,0.43c-0.57,0.13-1.15-0.14-1.41-0.66c-2.01-3.87,0.01-9.19,0.09-9.41
		c0.25-0.66,0.99-0.98,1.65-0.73c0.66,0.25,0.98,0.99,0.73,1.65c-0.02,0.05-1.37,3.63-0.56,6.42l0.85-0.19
		c1.3-0.29,2.62,0.17,3.46,1.2c0.84,1.03,1.01,2.43,0.45,3.63l-1.09,2.36C111.49,134.87,111.03,135.15,110.55,135.15z"/>
</g>
<g>
	<g>
		<path d="M61.23,110.58c0.52,4.82,4.86,8.31,9.68,7.79c4.82-0.52,8.31-4.86,7.79-9.68c-0.52-4.82-4.86-8.31-9.68-7.79
			C64.19,101.42,60.71,105.75,61.23,110.58z"/>
	</g>
</g>
<g>
	<g>
		<path d="M61.7,118.58c0.52,4.82,4.86,8.31,9.68,7.79c4.82-0.52,8.31-4.86,7.79-9.68c-0.52-4.82-4.86-8.31-9.68-7.79
			C64.66,109.42,61.17,113.76,61.7,118.58z"/>
	</g>
</g>
<g>
	<g>
		<path d="M72.61,108.24c0.52,4.82,4.86,8.31,9.68,7.79c4.82-0.52,8.31-4.86,7.79-9.68c-0.52-4.82-4.86-8.31-9.68-7.79
			C75.57,99.08,72.09,103.42,72.61,108.24z"/>
	</g>
</g>
<g>
	<g>
		<path d="M85.35,104.13c0.52,4.82,4.86,8.31,9.68,7.79c4.82-0.52,8.31-4.86,7.79-9.68c-0.52-4.82-4.86-8.31-9.68-7.79
			C88.31,94.97,84.82,99.3,85.35,104.13z"/>
	</g>
</g>
<g>
	<g>
		<path d="M96.02,100.08c0.52,4.82,4.86,8.31,9.68,7.79c4.82-0.52,8.31-4.86,7.79-9.68c-0.52-4.82-4.86-8.31-9.68-7.79
			C98.98,90.92,95.5,95.25,96.02,100.08z"/>
	</g>
</g>
<g>
	<g>
		<path d="M86.22,93c0.52,4.82,4.86,8.31,9.68,7.79c4.82-0.52,8.31-4.86,7.79-9.68c-0.52-4.82-4.86-8.31-9.68-7.79
			C89.18,83.84,85.69,88.18,86.22,93z"/>
	</g>
</g>
<g>
	<g>
		<path d="M71.44,93.7c0.52,4.82,4.86,8.31,9.68,7.79c4.82-0.52,8.31-4.86,7.79-9.68c-0.52-4.82-4.86-8.31-9.68-7.79
			C74.4,84.54,70.91,88.88,71.44,93.7z"/>
	</g>
</g>
<g>
	<g>
		<path d="M57.03,99.11c0.52,4.82,4.86,8.31,9.68,7.79c4.82-0.52,8.31-4.86,7.79-9.68c-0.52-4.82-4.86-8.31-9.68-7.79
			C60,89.95,56.51,94.28,57.03,99.11z"/>
	</g>
</g>
<g>
	<g>
		<path d="M47.72,109.79c0.52,4.82,4.86,8.31,9.68,7.79c4.82-0.52,8.31-4.86,7.79-9.68c-0.52-4.82-4.86-8.31-9.68-7.79
			C50.68,100.63,47.2,104.97,47.72,109.79z"/>
	</g>
</g>
<g>
	<g>
		<g>
			<path class="st1" d="M63.68,140.41c0.52,4.82,4.86,8.31,9.68,7.79s8.31-4.86,7.79-9.68c-0.52-4.82-4.86-8.31-9.68-7.79
				C66.65,131.25,63.16,135.59,63.68,140.41z"/>
		</g>
	</g>
	<g>
		<path d="M76.2,142.5c-0.18,0-0.36-0.04-0.54-0.12l-7.56-3.52c-0.64-0.3-0.92-1.06-0.62-1.69c0.3-0.64,1.06-0.92,1.69-0.62
			l7.56,3.52c0.64,0.3,0.92,1.06,0.62,1.69C77.14,142.23,76.68,142.5,76.2,142.5z"/>
	</g>
</g>
<g>
	<path class="st2" d="M247.6,139.37c-0.35-14.51-4.66-19.61-11.02-19.61c-9.18,0-13.22,8-13.88,34.57c0,0-7.81-3.37-12.22,4.28
		c0,0-3.94-0.93-7.55,1.97c0,0-2.34-27.92-17.61-22.26c-9.69,3.6-5.33,15.73-4.52,25.28c0,0-11.95,8.41-5.17,32.47v26.23h58.12
		v-23.82C253.04,190.57,248.08,159.58,247.6,139.37z"/>
</g>
<g>
	<path d="M233.75,223.58c-0.7,0-1.28-0.57-1.28-1.28v-23.82c0-0.52,0.31-0.98,0.79-1.18c5.98-2.46,9.92-7.45,12.04-15.27
		c2.08-7.66,2.07-16.99,1.83-24.26c-0.02-0.7,0.53-1.29,1.23-1.32c0.71-0.02,1.29,0.53,1.32,1.23c0.24,7.45,0.25,17.02-1.92,25.01
		c-1.09,4.03-2.68,7.45-4.73,10.16c-2.13,2.83-4.82,4.99-8.02,6.46v22.98C235.03,223.01,234.46,223.58,233.75,223.58z"/>
</g>
<g>
	<path d="M175.63,223.58c-0.7,0-1.28-0.57-1.28-1.28v-26.06c-1.55-5.55-2.24-10.75-2.05-15.45c0.15-3.84,0.89-7.37,2.19-10.48
		c1.7-4.06,3.92-6.35,4.97-7.28c-0.16-1.66-0.42-3.37-0.69-5.18c-1.03-6.88-2.1-13.99,2.17-18.29c0.5-0.5,1.3-0.5,1.8-0.01
		c0.5,0.5,0.5,1.3,0.01,1.8c-3.37,3.39-2.39,9.86-1.46,16.11c0.3,2,0.61,4.06,0.77,6.01c0.04,0.45-0.17,0.89-0.54,1.15
		c-0.02,0.02-2.8,2.05-4.76,6.84c-1.82,4.46-3.29,12.28,0.08,24.25c0.03,0.11,0.05,0.23,0.05,0.35v26.23
		C176.91,223.01,176.33,223.58,175.63,223.58z"/>
</g>
<g>
	<path class="st0" d="M212.01,140.29l12.11,6.37c4.01,2.11,8.7-1.3,7.93-5.76l-2.31-13.48c-0.3-1.77,0.28-3.58,1.57-4.84l9.8-9.55
		c3.24-3.16,1.45-8.67-3.03-9.32l-13.54-1.97c-1.78-0.26-3.32-1.38-4.11-2.99l-6.05-12.27c-2-4.06-7.8-4.06-9.8,0l-6.05,12.27
		c-0.8,1.61-2.33,2.73-4.11,2.99l-13.54,1.97c-4.48,0.65-6.27,6.16-3.03,9.32l9.8,9.55c1.29,1.26,1.88,3.06,1.57,4.84l-2.31,13.48
		c-0.77,4.46,3.92,7.87,7.93,5.76l12.11-6.37C208.51,139.45,210.41,139.45,212.01,140.29z"/>
</g>
<g>
	<path d="M226.66,148.56c-1.07,0-2.15-0.26-3.14-0.78l-12.11-6.37c-1.22-0.64-2.68-0.64-3.9,0l-12.11,6.37
		c-2.29,1.2-5.01,1.01-7.1-0.51c-2.09-1.52-3.12-4.05-2.68-6.59l2.31-13.48c0.23-1.36-0.22-2.75-1.2-3.71l-9.8-9.55
		c-1.85-1.8-2.5-4.45-1.71-6.91c0.8-2.46,2.88-4.22,5.44-4.59l13.54-1.97c1.36-0.2,2.54-1.06,3.15-2.29l6.05-12.27
		c1.14-2.32,3.46-3.76,6.04-3.76c2.58,0,4.9,1.44,6.04,3.76l6.05,12.27c0.61,1.24,1.79,2.09,3.15,2.29l13.54,1.97
		c2.56,0.37,4.64,2.13,5.44,4.59c0.8,2.46,0.15,5.11-1.71,6.91l-9.8,9.55c-0.99,0.96-1.44,2.35-1.2,3.71l2.31,13.48
		c0.44,2.55-0.59,5.07-2.68,6.59C229.44,148.13,228.05,148.56,226.66,148.56z M209.46,138.38c1.08,0,2.15,0.26,3.14,0.77l12.11,6.37
		c1.44,0.76,3.09,0.64,4.41-0.32c1.32-0.96,1.94-2.49,1.67-4.1l-2.31-13.48c-0.38-2.19,0.35-4.42,1.94-5.97l9.8-9.55
		c1.17-1.14,1.56-2.74,1.06-4.29c-0.5-1.55-1.77-2.62-3.38-2.85L224.35,103c-2.2-0.32-4.09-1.7-5.08-3.69l-6.05-12.27
		c-0.72-1.46-2.13-2.34-3.76-2.34c-1.63,0-3.04,0.87-3.76,2.34l-6.05,12.27c-0.98,1.99-2.88,3.37-5.08,3.69l-13.54,1.97
		c-1.61,0.23-2.88,1.3-3.38,2.85c-0.5,1.55-0.11,3.16,1.06,4.29l9.8,9.55c1.59,1.55,2.31,3.78,1.94,5.97l-2.31,13.48
		c-0.28,1.61,0.35,3.14,1.67,4.1c1.32,0.96,2.97,1.08,4.41,0.32l12.11-6.37C207.31,138.64,208.38,138.38,209.46,138.38z"/>
</g>
<g>
	<path class="st0" d="M110.93,222.31c0,0,3.45-15.8,10.42-43.11c6.97-27.31-27.08-24.84-27.08-24.84
		c-0.99-3.25-5.11-12.51-8.03-18.94c-1.67-3.67-5.97-5.32-9.67-3.7c-3.67-10.61-8.89-10.7-12.94-9.49
		c-4.47,1.34-4.56,4.91-4.56,4.91c-2.07-1.74-6.24-3.29-10.45-0.39c-4.47,3.09-3.26,8.61-3.26,8.61c-4.48,1.64-6.52,6.81-4.38,11.07
		c0.2,0.4,0.41,0.81,0.61,1.22c2.38,4.7,7.26,12.91,10.98,18.89c6.36,10.21,12.09,11.46,12.09,11.46l-13.46,44.3H110.93z"/>
</g>
<g>
	<path d="M110.2,157.74c-0.14,0-0.29-0.02-0.43-0.07c-7.25-2.59-15.33-2.04-15.41-2.03c-0.59,0.04-1.14-0.33-1.31-0.9
		c-0.74-2.44-3.57-9.11-7.97-18.78c-1.37-3.02-4.96-4.39-7.99-3.06c-0.33,0.14-0.7,0.14-1.02,0c-0.33-0.14-0.58-0.42-0.69-0.75
		c-0.9-2.6-1.94-4.67-3.1-6.16c-0.43-0.56-0.33-1.36,0.22-1.79c0.56-0.43,1.36-0.33,1.79,0.22c1.14,1.47,2.16,3.38,3.06,5.69
		c1.74-0.46,3.57-0.37,5.28,0.29c2.14,0.82,3.83,2.41,4.78,4.5c2.87,6.33,6.43,14.34,7.77,18.15c2.49-0.07,9.17-0.02,15.46,2.22
		c0.66,0.24,1.01,0.97,0.77,1.63C111.22,157.41,110.73,157.74,110.2,157.74z"/>
</g>
<g>
	<path d="M60.71,171.77c-0.47,0-0.91-0.26-1.14-0.7c-0.38-0.75-0.8-1.57-1.26-2.47c-4.96-9.74-13.26-26.03-14.22-33.06
		c-0.1-0.7,0.39-1.34,1.09-1.44c0.7-0.1,1.34,0.39,1.44,1.09c0.91,6.6,9.4,23.29,13.97,32.25c0.46,0.9,0.88,1.73,1.26,2.48
		c0.32,0.63,0.07,1.4-0.56,1.71C61.1,171.73,60.91,171.77,60.71,171.77z"/>
</g>
<g>
	<path d="M72.58,166.09c-0.47,0-0.91-0.26-1.14-0.7c-10.14-20.03-14.59-32.61-13.62-38.46c0.12-0.69,0.77-1.16,1.47-1.05
		c0.69,0.12,1.16,0.77,1.05,1.47c-0.6,3.58,1.24,12.89,13.38,36.89c0.32,0.63,0.07,1.4-0.56,1.71
		C72.97,166.05,72.77,166.09,72.58,166.09z"/>
</g>
<g>
	<path d="M80.83,161.46c-0.48,0-0.94-0.27-1.16-0.74c-3.3-7.09-6.43-13.78-7.56-18.81c-0.61-2.71-0.65-4.9-0.12-6.7
		c0.6-2.03,1.95-3.58,4.01-4.63c0.63-0.32,1.4-0.07,1.71,0.56c0.32,0.63,0.07,1.4-0.56,1.71c-2.81,1.43-3.58,3.96-2.55,8.49
		c1.08,4.77,4.14,11.34,7.39,18.3c0.3,0.64,0.02,1.4-0.62,1.7C81.2,161.42,81.01,161.46,80.83,161.46z"/>
</g>
<g>
	<path d="M71.63,182.67c-0.19,0-0.38-0.04-0.56-0.13l-6.97-3.39c-0.63-0.31-0.9-1.07-0.59-1.71c0.31-0.63,1.07-0.9,1.7-0.59
		l6.97,3.39c0.63,0.31,0.9,1.07,0.59,1.71C72.56,182.41,72.11,182.67,71.63,182.67z"/>
</g>
<g>
	<path d="M110.3,140.06c-0.41,0-0.67-0.03-0.72-0.03c-0.7-0.08-1.2-0.71-1.12-1.41c0.08-0.7,0.71-1.2,1.41-1.12
		c0.14,0.02,3.34,0.32,4.34-2.08c0.27-0.65,1.02-0.96,1.67-0.68c0.65,0.27,0.96,1.02,0.68,1.67
		C115.19,139.68,111.79,140.06,110.3,140.06z"/>
</g>
<g>
	<path d="M104.27,128.23c-0.57,0-1.08-0.38-1.23-0.95c-0.18-0.68,0.23-1.38,0.91-1.56l3.23-0.85c0.68-0.18,1.38,0.23,1.56,0.91
		c0.18,0.68-0.23,1.38-0.91,1.56l-3.23,0.85C104.48,128.22,104.38,128.23,104.27,128.23z"/>
</g>
<g>
	<path d="M238.48,175.14c-0.51,0-0.99-0.31-1.19-0.81c-3.46-8.82-7.41-13.48-10.12-15.85c-2.76-2.41-4.73-2.9-4.75-2.91
		c-0.69-0.15-1.12-0.84-0.96-1.52c0.15-0.69,0.84-1.12,1.52-0.96c0.39,0.09,9.63,2.35,16.68,20.31c0.26,0.66-0.07,1.4-0.72,1.65
		C238.79,175.12,238.63,175.14,238.48,175.14z"/>
</g>
<g>
	<path d="M224.68,179.41c-0.47,0-0.93-0.27-1.15-0.72c-6.83-14.13-13.69-18.98-13.76-19.02c-0.58-0.4-0.73-1.19-0.33-1.77
		c0.4-0.58,1.19-0.73,1.77-0.33c0.3,0.21,7.46,5.19,14.62,20.02c0.31,0.63,0.04,1.4-0.59,1.7
		C225.05,179.37,224.86,179.41,224.68,179.41z"/>
</g>
<g>
	<path d="M189.67,187.93c-0.46,0-0.91-0.25-1.13-0.69l-3.61-7c-2.21-4.28-1.07-9.47,2.7-12.34c3.1-2.35,6.77-2.25,8.55-2.02
		c2.74-5.6,6.31-6.51,6.47-6.55l0.59,2.48c-0.1,0.03-2.92,0.85-5.14,6c-0.25,0.58-0.88,0.89-1.49,0.73
		c-0.04-0.01-4.26-1.03-7.43,1.38c-2.79,2.12-3.62,5.96-1.98,9.14l3.61,7c0.32,0.63,0.08,1.4-0.55,1.72
		C190.06,187.89,189.86,187.93,189.67,187.93z"/>
</g>
<g>
	<path d="M185.9,193.52c-0.15,0-0.3-0.03-0.45-0.08c-0.66-0.25-1-0.98-0.75-1.64c2.13-5.72,5.89-7.56,7.94-8.15
		c0.04-0.1-3.1-5.62-3.1-5.62c-0.35-0.61-0.13-1.39,0.48-1.74c0.61-0.35,1.39-0.13,1.74,0.48l3.14,5.52c0.4,0.7,0.45,1.54,0.15,2.29
		c-0.31,0.75-0.92,1.3-1.7,1.53c-1.94,0.56-4.6,2.15-6.25,6.59C186.91,193.21,186.42,193.52,185.9,193.52z"/>
</g>
<g>
	<path d="M208.83,185.29c-0.5,0-0.97-0.3-1.18-0.79c-5-12-11.34-16.07-11.41-16.11c-0.6-0.37-0.78-1.16-0.4-1.76
		c0.37-0.6,1.16-0.78,1.76-0.4c0.29,0.18,7.09,4.55,12.41,17.29c0.27,0.65-0.04,1.4-0.69,1.67
		C209.16,185.26,208.99,185.29,208.83,185.29z"/>
</g>
<g>
	<path d="M222.76,203.67c-0.52,0-1.02-0.33-1.2-0.85c-0.24-0.66,0.11-1.39,0.77-1.63l10.99-3.9c0.66-0.24,1.39,0.11,1.63,0.78
		c0.24,0.66-0.11,1.39-0.78,1.63l-10.99,3.9C223.05,203.65,222.91,203.67,222.76,203.67z"/>
</g>
</svg>
