<?xml version="1.0" encoding="utf-8"?>
<!-- Generator: Adobe Illustrator 25.0.0, SVG Export Plug-In . SVG Version: 6.00 Build 0)  -->
<svg version="1.1" xmlns="http://www.w3.org/2000/svg" xmlns:xlink="http://www.w3.org/1999/xlink" x="0px" y="0px"
	 viewBox="0 0 510.96 238.13" style="enable-background:new 0 0 510.96 238.13;" xml:space="preserve">
<style type="text/css">
	.st0{fill:#FFD13A;}
	.st1{fill:#FFD753;}
</style>
<g id="Isolation_Mode">
	<line class="st0" x1="1359.56" y1="435.76" x2="1361.68" y2="435.77"/>
	<line class="st0" x1="1358.34" y1="435.75" x2="1359.12" y2="435.75"/>
</g>
<g id="Layer_2">
</g>
<g id="Layer_3">
</g>
<g id="Layer_4">
	<g>
		<g>
			<g>
				<g>
					<g>
						<path class="st1" d="M317.58,38.05C317.84,38.08,317.97,38.03,317.58,38.05L317.58,38.05z"/>
						<path class="st1" d="M113.03,39.15c-0.08,0-0.12,0-0.2,0c-0.15,0.15-0.28,0.28-0.41,0.38L113.03,39.15z"/>
						<path class="st1" d="M80.12,38.22c-0.08-0.02-0.13-0.03-0.2-0.04C79.94,38.27,79.9,38.36,80.12,38.22z"/>
						<path class="st1" d="M188.84,37.75c0.29,0.01,0.44-0.02,0.56-0.07C189.23,37.71,189.07,37.74,188.84,37.75z"/>
						<path class="st1" d="M377.87,37.25c0,0-0.08,0.01-0.14,0.01c0.12,0.03,0.23,0.05,0.35,0.09L377.87,37.25z"/>
						<path class="st1" d="M377.21,37.51c-0.73-0.11,0.2-0.21,0.52-0.24c-0.8-0.2-1.6-0.22-2.42-0.13
							C375.32,37.37,376.85,37.34,377.21,37.51z"/>
						<path class="st1" d="M487.24,36.61l-0.33,0.09C487.05,36.68,487.15,36.65,487.24,36.61z"/>
						<path class="st1" d="M185.61,26.38c0.16-0.02,0.34-0.04,0.49-0.05C185.85,26.32,185.71,26.35,185.61,26.38z"/>
						<path class="st1" d="M469.98,36.38l-0.19,0.37C469.96,36.6,470,36.48,469.98,36.38z"/>
						<path class="st1" d="M112.41,39.53l-0.24,0.14C112.26,39.64,112.33,39.59,112.41,39.53z"/>
						<path class="st1" d="M49.73,37.98c-0.01-0.11-0.08-0.2-0.16-0.28c-0.04,0-0.07,0-0.09,0L49.73,37.98z"/>
						<path class="st1" d="M29.05,165.52c0.05-0.01,0.09-0.04,0.14-0.08l-0.26-0.61C28.96,165.15,29,165.38,29.05,165.52z"/>
						<path class="st1" d="M33.3,53.99c0.04,0.04,0.08,0.14,0.13,0.14c0.12-0.71,0.15-2.59,0.14-5l-0.45-0.15L33.3,53.99z"/>
						<path class="st1" d="M22.79,99.59l0.91-4.44c0.42,14.27-0.49,20.92,0.24,33.14l-0.2-0.68c-0.21,1.78,1.83,2.78-0.66,22.42
							h-0.09c0.02,0.68,0.2,0.68-0.04,2.04l0.56-3.39c0.23,2.03,0.66,3.81,0.72,6.52c-0.1,0.58-0.29,0.77-0.43,0.83l0.15,6.65
							l-0.59,2.04c0.32,2.03,1.55,1.11,0.87,6.54c0.86-2.05,0.51,2.7,0.95,2.03c-0.11,0.27-0.26,0.9-0.41,1.4
							c0.1,3.23,0.34,9.32,0.78,10.83c0,0,1.81-12.65,2.72-16.06c-0.23,4.55,0.11,1.2,0.39,0.3l-0.21-0.3
							c0.21-2.73,0.75-2.73,0.9-4.09c-0.04,0-0.1,0.04-0.15,0.08l0.07,0.17c-0.1,0.13-0.16,0.05-0.22-0.09
							c-0.12,0.03-0.21-0.09-0.17-0.84l0.06,0.14c-0.08-1.14,0.01-3.11,0.04-3.96l0.45-0.02c-0.86-2.02,1.31-13.59,1.34-16.3
							c0.57-2.73-0.14-6.11,0.14-9.51c0.15-5.43,0.66-2.71,1.05-5.44c0.28-3.4-0.53,0.69-0.56-0.68l0.63-4.08
							c0.05,2.37,0.33,1.08,0.5,0.65c0.08-3.52,0.91-9.08,0-10.16c0.43-4.75,0.79-4.77,0.84-6.8c-0.16,0.68-0.31,2.04-0.5,2.05
							c0.4-1.9-0.1-0.91-0.19-0.13c-0.39-2.9,1.65-15.07,0.65-15.68h0.18c-0.74-0.67-1.46,0.41-1.86-1.62L32,91.79l-0.32-2.04
							c0.24-1.37,0.44-0.69,0.53-0.69c-0.34-3.32,0.07-7.95,0.17-11.97l-2.01,4.26c0.46-3.39,1.41-9.51,0.76-10.19l0.68-2.04
							c1.29-6.8-0.56-4.75-0.17-7.46l0.74-3.42l-0.01,3.4c0.37-3.4,0.61-4.76,1.09-7.47c-0.01,0-0.01-0.03-0.02-0.03
							c-0.03,0.19-0.07,0.31-0.11,0.33l-0.02-0.47c-0.37-0.41-0.62-2.19-0.59-4.58c0.05-1.7-0.06-3.22-0.08-4.98
							c-0.01-0.88,0-1.83,0.06-2.9c0.03-0.53,0.07-1.1,0.13-1.69c0.06-0.4,0.14-0.67,0.23-1.01c-0.25-0.29-0.5-0.63-0.75-1.01
							c0.15-0.75,0.29-1.41,0.44-1.99l0.04,0.01l0.59,0.6c-0.01,0-0.02,0-0.03,0c-0.01,0.45,0,1.02,0.02,1.65
							c0.02,0.73,0.05,1.53,0.07,2.35c0.05,3.01,0.1,6.15,0.14,8.71l0.27,0.09c0-3.04-0.27-6.51-0.21-8.52
							c0.03-0.25,0.09-0.59,0.17-0.93c0.08-0.18,0.18-0.27,0.29-0.36c0.22-0.16,0.48-0.12,0.68,0.14c-0.2-0.18-0.39-0.42-0.59-0.7
							c-0.01-0.67-0.02-1.22-0.03-1.61c1.02-0.01,1.72,0,2.47,0.09c2.16,0.09,4.78,0.25,9.06,0.52l-0.92-0.3
							c2.1-0.18,4.2-0.35,4.79,0.14c6.37,0.1,12.97,0.48,17.1,1.24l0.91-0.71c1.34,0.04,3.36,1.11,4.02,0.12l2.87-0.31
							c1.84,0.05,2.96-0.35,5.06,0.06v0c0.01,0,0.01,0,0.01,0c0.13,0.03,0.26,0.06,0.4,0.08c0-0.02-0.01-0.04-0.02-0.06
							c4.16,0.31-0.04-0.63,4.72-0.23c1.53,0.5,1.69-0.9,4.01-0.74l2.33,1.01c4.21,0.58,4.93-0.43,11.02-0.44
							c2.93,0.36,4.34,1.23,2.4,1.99c2.66-0.93,1.21-0.61,4.75-1.05c0.54,0.38,0.17,0.46-0.61,0.81c3.14,0.45,1.94-0.35,4.3-0.32
							c0.69-0.72,1.48-1.87,2.25-1.91l-0.92-0.22c2.51-0.38,5.24-0.56,8.16-0.2l-0.11,0.36l3.1-0.18l0.2,0.46l4.43-0.14l-0.61-0.12
							c1.04-0.06,4.45-0.22,6.41,0.02l-0.07,0.26c5.51,0.8,10.05-0.25,16.5-0.33l-0.85,0.53c2.2,0.52,0.6-0.81,3.22-0.55l0.13,0.65
							c2.31-0.85,2.98,0.18,4.57,0.5l-0.74-0.85l2.99,0.18c3.29,0.28,2.02,1.07,1.54,1.51l2.24-0.67l0.44,0.75
							c1.64-0.87,1.64,0.14,4.51-0.33c0.24,0.28-0.49,0.44,0.49,0.56l4.74-1.05l-2.86,0.47l0.35-1.09c2.98-0.83,4.03,0.12,6.16-0.19
							l-1.46,0.32c3.47-0.26,3.65,0.2,5.61,0.44c-0.61-0.2-1.54-0.5-0.13-0.65c1.03-0.06,0.56,0.38,1.53,0.5
							c0.23-0.73,2.72-1.11,4.98-0.77c-0.03,0.1-0.08,0.2-0.22,0.27c0.58-0.12,0.87-0.3,1.88-0.13l-0.59,0.81l1.93-0.77
							c1.29,0.22,3.16-0.36,2.99,0.18l-0.73,0.16l9.74,0.19l0.14,0.65c0.96-0.89,5.31,0.34,4.99-0.77c1.84,0.6,7.24-0.43,6.15,0.82
							c6.4,0.1,9.86-1.11,17.64-0.5c2.77,1.06,10.36,0.72,15.36,0.83c9.76-0.44,16.07-0.84,26.04-1.18c6,1.48,14.97-0.51,21.42,0.33
							l1.77-0.59c4.29,0.94,10.84-0.21,16.87,0.7c1.48-0.26,2.25-0.34,2.59-0.36c-0.27-0.03-0.69-0.14-0.82-0.51
							c1.72,0.26,5.2-0.07,4.95,0.68l-0.44,0.08c-0.25,0.75,5.22-0.35,7.14,0.3l-1.05-0.8l3.26,0.14l-0.87,0.15
							c14.15-1.78,20.54,0.76,33.82-0.86c-1.76,0.87,2.62-0.46,2.79,0.5c3.35,1.2,6.21-0.26,8.95-0.58c0-0.05,0.03-0.1,0.19-0.18
							l4.8,0.11c-2.87,1.21,3.46-1,0.82,0.03c12.52,0.9,28.86-0.02,43.35,0.4l-0.64-0.31c3.68,0.06,8.25-0.32,11.04,0.18
							c2.79,0.49,6.1-0.79,7.18-0.84c3.06-0.53,5.84,0.53,4.53,0.47c3.27-0.15,6.34-1.25,10.88-0.78c1.55,1.02,12.38-1,12.51,0.15
							l0.05-0.1c5.81,0.81,11.29-0.57,17.55,0.17c0,0-0.12,0.08-0.33,0.16l12.73-3.5l-3.63-3.85l-11.04-3.12l-29.91,0.68
							l-23.87-1.22l-58.1,0.41l-4.15,0.87c-11.42-1.52-26.06,0.23-38.35-0.86l-0.25,0.75c-3.47,0.04-3.23-0.42-4.09-0.55
							c-32.25,0.17-65.46,1.16-94.47,0.22c-2.8-0.49-11.31-0.2-13.5-0.73c-9.43,0.91-19.41,0.9-28.85,0.81l0.36-0.08l-4.44,0.14
							c-0.19-0.06-0.21-0.15-0.07-0.21c-5.01,0.66-12.91,0.01-19.05-0.26l0.36-0.08c-35.82-0.14-69.07,1.26-104.6,0.22
							c-5.08-0.37-10.41-0.48-15.92-0.46c-7.63,0.07-15.5,0.14-23.48,0.21c0.02,3.45,0.03,6.91,0.05,10.38
							c0,2.35-0.01,4.7-0.01,7.06c-0.04,3.65-0.13,7.3-0.33,10.95C21.88,57.87,22.44,96.2,22.79,99.59z"/>
						<path class="st1" d="M23.79,156.02l0-0.15C23.47,155.88,23.59,156.1,23.79,156.02z"/>
						<path class="st1" d="M32.39,76.83c0,0.09-0.01,0.17-0.01,0.25l0.44-0.94L32.39,76.83z"/>
						<path class="st1" d="M32.65,127.56c0.1-2.28,0.02-2.39-0.1-2.06C32.52,126.32,32.55,127.04,32.65,127.56z"/>
						<path class="st1" d="M24.39,174.64c-0.02,1.2,0.16,0.74,0.37,0.04c-0.03-1.22-0.06-2.07-0.06-2.07
							C24.63,173.28,24.46,173.95,24.39,174.64z"/>
						<path class="st1" d="M28.66,169.76l0.26,0.37C28.85,169.43,28.76,169.45,28.66,169.76z"/>
					</g>
				</g>
			</g>
		</g>
	</g>
	<g>
		<g>
			<g>
				<g>
					<g>
						<path class="st1" d="M484.6,208.22C484.62,207.93,484.57,207.79,484.6,208.22L484.6,208.22z"/>
						<path class="st1" d="M270.05,225.18c-0.09,0-0.13,0-0.21,0c-0.16,0.15-0.3,0.28-0.44,0.38L270.05,225.18z"/>
						<path class="st1" d="M234.76,224.25c-0.08-0.02-0.14-0.03-0.22-0.04C234.56,224.3,234.52,224.39,234.76,224.25z"/>
						<path class="st1" d="M351.37,223.78c0.31,0.01,0.48-0.02,0.6-0.07C351.79,223.74,351.61,223.77,351.37,223.78z"/>
						<path class="st1" d="M483.8,143.54c0,0,0.01,0.09,0.01,0.15c0.03-0.12,0.05-0.25,0.09-0.38L483.8,143.54z"/>
						<path class="st1" d="M484.05,144.25c-0.11,0.78-0.21-0.21-0.24-0.56c-0.2,0.86-0.22,1.72-0.13,2.59
							C483.91,146.28,483.88,144.64,484.05,144.25z"/>
						<path class="st1" d="M483.15,26.23l0.09,0.35C483.22,26.43,483.19,26.32,483.15,26.23z"/>
						<path class="st1" d="M347.9,212.41c0.17-0.02,0.37-0.04,0.53-0.05C348.16,212.35,348.01,212.38,347.9,212.41z"/>
						<path class="st1" d="M482.92,44.74l0.37,0.2C483.14,44.77,483.02,44.73,482.92,44.74z"/>
						<path class="st1" d="M269.39,225.56l-0.26,0.14C269.22,225.67,269.31,225.62,269.39,225.56z"/>
						<path class="st1" d="M202.15,224.01c-0.01-0.11-0.09-0.2-0.17-0.28c-0.04,0-0.07,0-0.09,0L202.15,224.01z"/>
						<path class="st1" d="M37.79,218.17c0.01,0.05,0.04,0.09,0.09,0.14l0.66-0.26C38.19,218.07,37.95,218.11,37.79,218.17z"/>
						<path class="st1" d="M157.42,222.42c-0.04,0.04-0.15,0.08-0.15,0.13c0.76,0.12,2.78,0.15,5.36,0.14l0.16-0.45L157.42,222.42z"
							/>
						<path class="st1" d="M108.51,211.9l4.77,0.91c-15.3,0.42-22.44-0.49-35.54,0.24l0.73-0.2c-1.91-0.21-2.98,1.83-24.05-0.66
							v-0.09c-0.73,0.02-0.73,0.2-2.19-0.04l3.64,0.56c-2.18,0.23-4.09,0.66-7,0.72c-0.62-0.1-0.83-0.29-0.89-0.43l-7.13,0.15
							l-2.19-0.59c-2.18,0.32-1.19,1.55-7.02,0.87c2.2,0.86-2.89,0.51-2.17,0.95c-0.29-0.11-0.96-0.26-1.5-0.41
							c-3.47,0.1-10,0.34-11.62,0.78c0,0,13.57,1.81,17.22,2.72c-4.88-0.23-1.29,0.11-0.32,0.39l0.32-0.21
							c2.93,0.21,2.93,0.75,4.39,0.9c0-0.04-0.04-0.1-0.09-0.15l-0.19,0.07c-0.14-0.1-0.06-0.16,0.1-0.22
							c-0.04-0.12,0.1-0.21,0.9-0.17l-0.15,0.06c1.22-0.08,3.33,0.01,4.25,0.04l0.02,0.45c2.17-0.86,14.58,1.31,17.49,1.34
							c2.92,0.57,6.55-0.14,10.2,0.14c5.82,0.15,2.91,0.66,5.83,1.05c3.65,0.28-0.74-0.53,0.73-0.56l4.37,0.63
							c-2.54,0.05-1.16,0.33-0.7,0.5c3.78,0.08,9.74,0.91,10.9,0c5.1,0.43,5.11,0.79,7.3,0.84c-0.73-0.16-2.19-0.31-2.2-0.5
							c2.04,0.4,0.98-0.1,0.14-0.19c3.12-0.39,16.17,1.65,16.82,0.65v0.18c0.72-0.74-0.44-1.46,1.74-1.86l1.45,0.33l2.19-0.32
							c1.47,0.24,0.74,0.44,0.74,0.53c3.56-0.34,8.53,0.07,12.84,0.17l-4.57-2.01c3.64,0.46,10.2,1.41,10.93,0.76l2.19,0.68
							c7.3,1.29,5.09-0.56,8.01-0.17l3.66,0.74l-3.65-0.01c3.65,0.37,5.1,0.61,8.01,1.09c0-0.01,0.03-0.01,0.03-0.02
							c-0.2-0.03-0.33-0.07-0.36-0.11l0.51-0.02c0.44-0.37,2.34-0.62,4.91-0.59c3.65,0.1,6.5-0.44,12.33,0.34l1.45-0.75l4.37,0.45
							v0.6c-4.29-0.04-12.35,0.19-17.86,0.22l-0.1,0.27c3.27,0,6.98-0.27,9.14-0.21c1.05,0.12,3.74,0.74,1.79,1.15l2.02-0.59
							c10.9-0.07,10.97-0.1,22.35,0.58l-0.99-0.3c2.26-0.18,4.51-0.35,5.13,0.14c6.83,0.1,13.91,0.48,18.34,1.24l0.97-0.71
							c1.44,0.04,3.61,1.11,4.31,0.12l3.08-0.31c1.97,0.05,3.18-0.35,5.42,0.06v0c0.01,0,0.01,0,0.01,0
							c0.14,0.03,0.28,0.06,0.42,0.08c0-0.02-0.01-0.04-0.02-0.06c4.46,0.31-0.04-0.63,5.07-0.23c1.64,0.5,1.81-0.9,4.3-0.74
							l2.5,1.01c4.51,0.58,5.28-0.43,11.82-0.44c3.14,0.36,4.66,1.23,2.58,1.99c2.86-0.93,1.3-0.61,5.09-1.05
							c0.58,0.38,0.18,0.46-0.66,0.81c3.37,0.45,2.08-0.35,4.62-0.32c0.74-0.72,1.59-1.87,2.41-1.91l-0.98-0.22
							c2.69-0.38,5.63-0.56,8.75-0.2l-0.12,0.36l3.33-0.18l0.21,0.46l4.75-0.14l-0.65-0.12c1.12-0.06,4.78-0.22,6.87,0.02
							l-0.08,0.26c5.91,0.8,10.78-0.25,17.7-0.33l-0.91,0.53c2.36,0.52,0.65-0.81,3.46-0.55l0.14,0.65c2.47-0.85,3.2,0.18,4.9,0.5
							l-0.8-0.85l3.21,0.18c3.53,0.28,2.17,1.07,1.65,1.51l2.41-0.67l0.47,0.75c1.76-0.87,1.76,0.14,4.84-0.33
							c0.25,0.28-0.53,0.44,0.52,0.56l5.08-1.05l-3.06,0.47l0.37-1.09c3.19-0.83,4.32,0.12,6.6-0.19l-1.57,0.32
							c3.72-0.26,3.92,0.2,6.02,0.44c-0.65-0.2-1.65-0.5-0.14-0.65c1.11-0.06,0.6,0.38,1.64,0.5c0.25-0.73,2.92-1.11,5.34-0.77
							c-0.03,0.1-0.08,0.2-0.24,0.27c0.62-0.12,0.94-0.3,2.01-0.13l-0.63,0.81l2.07-0.77c1.38,0.22,3.39-0.36,3.21,0.18l-0.78,0.16
							l10.45,0.19l0.15,0.65c1.03-0.89,5.69,0.34,5.35-0.77c1.97,0.6,7.76-0.43,6.6,0.82c6.86,0.1,10.57-1.11,18.92-0.5
							c2.97,1.06,11.12,0.72,16.47,0.83c10.47-0.44,17.24-0.84,27.94-1.18c6.44,1.48,16.05-0.51,22.98,0.33l1.9-0.59
							c0.71,0.14,1.47,0.24,2.28,0.3c0.2,0.01,0.41,0.03,0.61,0.04c0.26,0.01,0.52,0.02,0.79,0.03c0.76,0.01,1.53,0.02,2.32,0.03
							c3.16,0.02,6.54-0.05,10-0.06c-0.01-2.21-0.01-4.44,0.05-6.66c0.03-1.11,0.06-2.23,0.12-3.35l0.09-1.68l0.06-0.85
							c0.01-0.17,0.02-0.21,0.03-0.3l0.03-0.23c-0.26-1.58-0.34-2.41-0.36-2.78c-0.03,0.29-0.14,0.74-0.51,0.88
							c0.26-1.84-0.07-5.58,0.68-5.31l0.08,0.47c0.75,0.27-0.35-5.6,0.3-7.66l-0.8,1.13l0.14-3.49l0.15,0.94
							c-1.78-15.17,0.76-22.03-0.86-36.28c0.87,1.89-0.46-2.81,0.5-3c1.2-3.59-0.26-6.66-0.58-9.6c-0.05,0-0.1-0.04-0.18-0.2
							l0.11-5.15c1.21,3.08-1-3.71,0.03-0.88c0.9-13.43-0.02-30.96,0.4-46.5l-0.31,0.68c0.06-3.94-0.32-8.85,0.18-11.84
							c0.49-2.99-0.79-6.54-0.84-7.7c-0.53-3.28,0.53-6.26,0.47-4.85c-0.15-3.51-1.25-6.8-0.78-11.67c1.02-1.66-1-13.27,0.15-13.42
							l-0.1-0.05c0.81-6.23-0.57-12.11,0.17-18.82c0,0,0.08,0.13,0.16,0.36l-3.5-13.66l-3.85,3.89l-3.12,11.84l0.68,32.08
							l-1.22,25.61l0.41,62.32l0.87,4.45c-1.52,12.24,0.23,27.95-0.86,41.14l0.75,0.27c0.04,3.72-0.42,3.47-0.55,4.38
							c0.02,3.33,0.05,6.66,0.07,10l0.02,2.51l0.01,0.37l0.01,0.08l0.01,0.17l0.05,0.74l-0.74,0.06l-0.2,0.02l-0.14,0.01l-0.66,0.01
							l-2.63,0.03c-3.51,0.04-7,0.08-10.49,0.12c-6.98,0.06-13.9,0.12-20.74,0.18c-13.67,0.07-26.97,0-39.54-0.38
							c-3-0.49-12.13-0.2-14.48-0.73c-10.11,0.91-20.82,0.9-30.94,0.81l0.38-0.08l-4.77,0.14c-0.2-0.06-0.23-0.15-0.07-0.21
							c-5.38,0.66-13.85,0.01-20.44-0.26l0.38-0.08c-38.42-0.14-74.09,1.26-112.2,0.22c-17.72-1.22-38.33,0.46-58.66-0.55
							C153.27,210.99,112.14,211.55,108.51,211.9z"/>
						<path class="st1" d="M47.98,212.9l0.16,0C48.13,212.58,47.9,212.7,47.98,212.9z"/>
						<path class="st1" d="M132.92,221.5c-0.09,0-0.18-0.01-0.27-0.01l1.01,0.44L132.92,221.5z"/>
						<path class="st1" d="M78.51,221.76c2.44,0.1,2.56,0.02,2.21-0.1C79.84,221.64,79.07,221.66,78.51,221.76z"/>
						<path class="st1" d="M28.01,213.5c-1.28-0.02-0.8,0.16-0.04,0.37c1.31-0.03,2.22-0.06,2.22-0.06
							C29.47,213.74,28.75,213.57,28.01,213.5z"/>
						<path class="st1" d="M33.25,217.77l-0.4,0.26C33.6,217.96,33.57,217.87,33.25,217.77z"/>
					</g>
				</g>
			</g>
		</g>
	</g>
</g>
</svg>
