<?xml version="1.0" encoding="utf-8"?>
<!-- Generator: Adobe Illustrator 25.0.0, SVG Export Plug-In . SVG Version: 6.00 Build 0)  -->
<svg version="1.1" id="_x3C_Layer_x3E_" xmlns="http://www.w3.org/2000/svg" xmlns:xlink="http://www.w3.org/1999/xlink" x="0px"
	 y="0px" viewBox="0 0 245.16 159.15" style="enable-background:new 0 0 245.16 159.15;" xml:space="preserve">
<style type="text/css">
	.st0{fill:#FFFFFF;stroke:#000000;stroke-width:2;stroke-miterlimit:10;}
	.st1{fill:#FFFEEB;}
	.st2{fill:#FFFFFF;}
</style>
<g>
	<g>
		<g>
			<path d="M163.67,70.19c-0.72-6.44-4.85-11.38-6.51-17.47c-0.95-3.5-0.83-16.02-0.83-16.02l-18.17,15.31
				c0,0-13.6,2.36-15.41,15.31c-1.82,12.97,6.28,17.12,13.26,20.52c5.94,2.89,14.51,3.25,20.28-0.55
				c5.44-3.57,8.04-10.68,7.41-16.92C163.69,70.32,163.68,70.25,163.67,70.19z"/>
		</g>
	</g>
	<g>
		<path d="M238.63,82.4c-3.39-10.67-10.78-19.76-22.13-23.66c-6.26-2.15-13.52-2.88-17.68-3.12c-1.91-0.11-3.39-1.69-3.39-3.6V38.13
			c0,0-19.96-10.54-26.71-12.41c-3.37-0.94-6.87-1.46-10.37-1.52c-1.6-0.03-9.85-0.21-10.41,1.38c-4.52,12.8-7.14,26.11-8.56,39.59
			c-1.43,13.67-1.69,27.62,1.14,41.14c1.29,6.17,2.9,13.65,8.74,17.11c2.67,1.58,5.73,2.34,8.78,2.89
			c8.91,1.61,17.93,2.25,26.98,2.26c9.13,0.01,17.99-1.11,27.18,0c3.64,0.44,7.37,1.07,10.93,0.21c3.48-0.83,6.52-3.03,8.86-5.73
			C241.3,112.36,242.81,95.53,238.63,82.4z"/>
	</g>
	<g>
		<path class="st0" d="M231.17,152.81v-33.49c0-21.52-17.43-38.97-38.94-39l-54.97-0.08c-21.56-0.03-39.06,17.44-39.06,39v33.57
			H231.17z"/>
	</g>
	<g>
		<path class="st1" d="M194.12,80.38c-0.62-0.03-1.25-0.05-1.89-0.05l-54.97-0.08c-0.68,0-1.35,0.02-2.01,0.05
			c1.23,15.17,13.96,27.14,29.44,27.14C180.13,107.43,192.85,95.5,194.12,80.38z"/>
	</g>
	<g>
		<path class="st2" d="M187.17,80.32l-44.98-0.07c1.18,11.38,10.8,20.25,22.49,20.25C176.35,100.5,185.96,91.67,187.17,80.32z"/>
	</g>
	<g>
		<g>
			<path d="M124.89,153.57c-0.09,0-0.17-0.01-0.26-0.03c-4.53-1.1-8.64-3.73-11.56-7.4c-3.01-3.78-4.6-8.34-4.6-13.18
				c0-4.84,1.59-9.4,4.6-13.18c2.92-3.67,7.02-6.3,11.56-7.4c0.59-0.14,1.19,0.22,1.33,0.81c0.14,0.59-0.22,1.19-0.81,1.33
				c-8.52,2.07-14.47,9.65-14.47,18.44c0,8.78,5.95,16.37,14.47,18.44c0.59,0.14,0.95,0.74,0.81,1.33
				C125.84,153.23,125.39,153.57,124.89,153.57z"/>
		</g>
	</g>
	<g>
		<circle cx="166.79" cy="39.15" r="28.63"/>
	</g>
	<g>
		<rect x="155.16" y="40.72" class="st2" width="22.7" height="42.1"/>
	</g>
	<g>
		<path class="st2" d="M169.76,21.42c-8.63-2.12-18.25-2.45-25.32,6.17c-6.14,7.49-7.05,18.96-7.33,23.2
			c-0.82,12.03,6.61,17.47,18.05,17.47c21.69,0,26.6-9.4,27.2-24.06C182.9,31.17,181.78,24.37,169.76,21.42z"/>
	</g>
	<g>
		<path d="M143.87,40.76c0,0.77-0.62,1.39-1.39,1.39c-0.77,0-1.39-0.62-1.39-1.39c0-0.77,0.62-1.39,1.39-1.39
			C143.25,39.37,143.87,40,143.87,40.76z"/>
	</g>
	<g>
		<path d="M159.64,42.96c0,0.77-0.62,1.39-1.39,1.39c-0.77,0-1.39-0.62-1.39-1.39c0-0.77,0.62-1.39,1.39-1.39
			C159.02,41.57,159.64,42.19,159.64,42.96z"/>
	</g>
	<g>
		<path d="M178.73,25.19c-1.51-2.12-8.89-14.52-8.89-14.52s-11.4-1.57-21.05,4.68c-6.42,4.16-9.12,9.45-10.08,11.87
			c-0.27,0.68,0.15,1.44,0.87,1.57c2.03,0.37,6.14,1.11,10.48,1.84c0.28,0.05,0.56-0.07,0.73-0.3l2.69-3.83
			c0.4-0.57,1.29-0.32,1.34,0.37l0.29,4.01c0.02,0.34,0.28,0.62,0.62,0.68c2.65,0.4,11.98,1.77,15.04,2.21
			c0.45,0.07,0.73,0.52,0.6,0.95c-0.81,2.56-2.57,9.82-0.85,16.38c1.94,7.4,14.46-4.62,15.31-12.22
			C186.46,33.13,183.5,27.82,178.73,25.19z"/>
	</g>
	<g>
		<g>
			<path d="M205.84,68.45c-1.33-6.34-9.49-9.12-11.73-15.04c-1.28-3.39-10.34-26.89-14.11-29.45c-3.5-2.38-7.9,31.8-7.93,31.51
				c0.02,0.16-12.33,10.67-6.6,24.66c2.04,4.99,5.74,9.25,10.92,11.03c3.56,1.23,7.46,1.34,11.17,0.65
				c5.35-0.99,10.37-3.65,14.22-7.48c3.95-3.93,5.15-10.37,4.09-15.71C205.87,68.58,205.85,68.51,205.84,68.45z"/>
		</g>
	</g>
	<g>
		<g>
			<g>
				<path class="st2" d="M180.13,49.44c0,4.03-3.27,7.3-7.3,7.3c-4.03,0-7.3-3.27-7.3-7.3s3.27-7.3,7.3-7.3
					C176.86,42.14,180.13,45.41,180.13,49.44z"/>
			</g>
		</g>
		<g>
			<path d="M169.84,52.29c-0.38,0-0.75-0.2-0.95-0.55c-0.31-0.53-0.13-1.2,0.4-1.51l5.99-3.49c0.53-0.31,1.2-0.13,1.51,0.4
				c0.31,0.53,0.13,1.2-0.4,1.51l-5.99,3.49C170.22,52.24,170.03,52.29,169.84,52.29z"/>
		</g>
	</g>
	<g>
		<path d="M156.45,50.8c-0.26,0-0.51-0.01-0.77-0.03c-4.76-0.42-8.29-4.64-7.87-9.4c0.42-4.76,4.64-8.29,9.4-7.87
			c2.31,0.21,4.4,1.3,5.88,3.07c1.49,1.78,2.19,4.02,1.99,6.33C164.68,47.4,160.89,50.8,156.45,50.8z M156.44,35.66
			c-3.31,0-6.14,2.54-6.44,5.9c-0.32,3.55,2.32,6.7,5.87,7.01c3.55,0.32,6.7-2.32,7.01-5.87c0.32-3.55-2.32-6.7-5.87-7.01
			C156.82,35.67,156.63,35.66,156.44,35.66z"/>
	</g>
	<g>
		<path d="M138.74,47.99c-0.26,0-0.51-0.01-0.77-0.03c-2.31-0.21-4.4-1.3-5.88-3.07c-1.49-1.78-2.19-4.02-1.99-6.33
			c0.42-4.76,4.64-8.29,9.4-7.87c2.82,0.25,5.35,1.87,6.76,4.33c0.3,0.53,0.12,1.2-0.41,1.5c-0.53,0.3-1.2,0.12-1.5-0.41
			c-1.05-1.84-2.94-3.04-5.04-3.23c-3.55-0.32-6.7,2.32-7.01,5.87c-0.15,1.72,0.37,3.4,1.48,4.72c1.11,1.32,2.67,2.14,4.39,2.29
			c1.52,0.14,3.04-0.27,4.28-1.14c0.5-0.35,1.19-0.23,1.53,0.27c0.35,0.5,0.23,1.19-0.27,1.53
			C142.26,47.44,140.52,47.99,138.74,47.99z"/>
	</g>
	<g>
		<path d="M144.52,48.32c-0.31,0-0.62-0.13-0.84-0.38l-1.23-1.43c-0.87-1.01-0.99-2.4-0.3-3.54c0.68-1.14,1.96-1.69,3.26-1.41
			l0.47,0.1c0.17-1.19,0.2-3.26-1.09-5.03c-0.36-0.49-0.25-1.18,0.24-1.54c0.49-0.36,1.18-0.25,1.54,0.24
			c2.61,3.58,1.26,7.81,1.2,7.98c-0.18,0.54-0.73,0.85-1.28,0.73l-1.55-0.34c-0.55-0.12-0.82,0.27-0.9,0.39
			c-0.07,0.12-0.28,0.55,0.08,0.97l1.23,1.43c0.4,0.46,0.34,1.16-0.12,1.55C145.03,48.24,144.78,48.32,144.52,48.32z"/>
	</g>
	<g>
		<path d="M148.8,42.36c-0.06,0-0.12,0-0.18-0.01l-2.81-0.46c-0.6-0.1-1.01-0.66-0.91-1.26c0.1-0.6,0.66-1.01,1.26-0.91l2.81,0.46
			c0.6,0.1,1.01,0.66,0.91,1.26C149.8,41.97,149.34,42.36,148.8,42.36z"/>
	</g>
	<g>
		<path d="M169.84,11.78c-0.07,0-0.15-0.01-0.22-0.02c-0.3-0.06-0.56-0.24-0.72-0.5l-2.11-3.43c-0.32-0.52-0.16-1.2,0.36-1.52
			c0.52-0.32,1.2-0.16,1.52,0.36l1.49,2.43l3.14-2.25c0.49-0.35,1.18-0.24,1.54,0.25c0.35,0.49,0.24,1.18-0.25,1.54l-4.1,2.94
			C170.29,11.71,170.07,11.78,169.84,11.78z"/>
	</g>
	<g>
		<path d="M198.04,154.76c-0.36,0-0.71-0.18-0.92-0.5l-26.95-41.4c-0.33-0.51-0.19-1.19,0.32-1.52c0.51-0.33,1.19-0.19,1.52,0.32
			l26.95,41.4c0.33,0.51,0.19,1.19-0.32,1.52C198.46,154.7,198.25,154.76,198.04,154.76z"/>
	</g>
	<g>
		<path d="M141.15,153.92c-0.51,0-0.96-0.35-1.08-0.87l-5.43-24.91c-0.13-0.59,0.25-1.18,0.84-1.31c0.59-0.13,1.18,0.25,1.31,0.84
			l5.43,24.91c0.13,0.59-0.25,1.18-0.84,1.31C141.31,153.91,141.23,153.92,141.15,153.92z"/>
	</g>
	<g>
		<g>
			<path class="st0" d="M171.08,109.97c0,0-1.28-20.5-5.79-32.32c0,0,0.55-6.89,0.91-11.96c0.37-5.08-1.53-9.68-4.88-10.15
				c-2.88-0.4-9.49,1.2-10.15,9.63c0,0-3.1-3.97-4.46-5.41c-2.85-3.02-6.66-3.44-9.35-1.71c-3,1.93-4.79,5.79-1.66,11.57
				c0.94,1.75,3.74,7,3.74,7s-2.34-0.74-5.4,1.76c-3.17,2.58-2.23,5.54-2.23,5.54s-3.14,0.01-5.24,1.83
				c-2.1,1.81-1.77,5.75-1.77,5.75s-2.97,0.34-4.77,2.34c-1.43,1.59-2.14,4.22-0.05,8.57c5.43,11.29,12.65,22.18,12.65,22.18
				l3.44,9.58c3.73,10.4,14.87,16.15,25.51,13.16c12.54-3.53,18.9-17.48,13.33-29.25L171.08,109.97z"/>
		</g>
		<g>
			<path d="M170.09,100.95c-0.55,0-1.02-0.41-1.09-0.97c-0.81-6.48-2.29-15.55-4.73-21.95c-0.06-0.15-0.08-0.32-0.07-0.48
				c0.01-0.07,0.55-6.94,0.91-11.96c0.34-4.68-1.39-8.62-3.93-8.98c-1.12-0.16-3.57,0.03-5.68,1.72c-1.9,1.52-2.98,3.85-3.23,6.9
				c-0.04,0.45-0.35,0.84-0.78,0.97c-0.44,0.13-0.91-0.02-1.19-0.38c-0.03-0.04-3.08-3.94-4.4-5.33c-2.2-2.34-5.28-3.03-7.64-1.72
				c-0.53,0.29-1.2,0.1-1.5-0.43c-0.29-0.53-0.1-1.2,0.43-1.5c3.26-1.8,7.41-0.94,10.31,2.13c0.75,0.8,1.99,2.3,2.98,3.53
				c0.62-2.46,1.85-4.47,3.63-5.9c2.52-2.02,5.54-2.44,7.36-2.19c3.81,0.53,6.26,5.29,5.82,11.32c-0.32,4.48-0.79,10.45-0.89,11.73
				c2.46,6.59,3.95,15.7,4.77,22.22c0.08,0.6-0.35,1.15-0.96,1.23C170.18,100.95,170.13,100.95,170.09,100.95z"/>
		</g>
		<g>
			<path d="M142.81,83.29c-0.37,0-0.74-0.19-0.94-0.53l-3.36-5.57c-0.31-0.52-0.15-1.2,0.37-1.51c0.52-0.31,1.2-0.15,1.51,0.37
				l3.36,5.57c0.31,0.52,0.15,1.2-0.37,1.51C143.2,83.24,143,83.29,142.81,83.29z"/>
		</g>
		<g>
			<path d="M135.13,90.46c-0.37,0-0.73-0.19-0.94-0.53l-3.31-5.44c-0.32-0.52-0.15-1.2,0.37-1.51c0.52-0.32,1.2-0.15,1.51,0.37
				l3.31,5.44c0.32,0.52,0.15,1.2-0.37,1.51C135.52,90.41,135.32,90.46,135.13,90.46z"/>
		</g>
		<g>
			<path d="M128.09,98.12c-0.36,0-0.72-0.18-0.93-0.51l-3.52-5.48c-0.33-0.51-0.18-1.19,0.33-1.52c0.51-0.33,1.19-0.18,1.52,0.33
				l3.52,5.48c0.33,0.51,0.18,1.19-0.33,1.52C128.5,98.06,128.29,98.12,128.09,98.12z"/>
		</g>
		<g>
			<path d="M158.99,79.48c-0.38,0-0.74-0.19-0.95-0.54l-7.81-13.21c-0.31-0.52-0.14-1.2,0.39-1.51c0.52-0.31,1.2-0.14,1.51,0.39
				l7.81,13.21c0.31,0.52,0.14,1.2-0.39,1.51C159.37,79.43,159.18,79.48,158.99,79.48z"/>
		</g>
	</g>
	<g>
		<g>
			<path d="M107.35,152.81H36.63c-8.58,0-15.54-6.96-15.54-15.54V96.53c0-8.58,6.96-15.54,15.54-15.54h70.72
				c8.58,0,15.54,6.96,15.54,15.54v40.75C122.89,145.86,115.93,152.81,107.35,152.81z"/>
		</g>
		<g>
			<g>
				
					<ellipse transform="matrix(0.7071 -0.7071 0.7071 0.7071 -61.4049 85.0715)" class="st1" cx="71.99" cy="116.66" rx="10.41" ry="10.41"/>
			</g>
		</g>
	</g>
	<g>
		<g>
			<g>
				<g>
					<path class="st0" d="M8.2,123.45c0,0-3.13-1.83-2.66-8.06c0.33-4.33,3.35-6.06,3.35-6.06S6,105.6,6.12,101.99
						c0.17-5.38,2.78-6.78,2.78-6.78C5.26,89.54,5.23,85,19.63,78.15c4.23-2.01,9.5-2.24,11.54,2.1c1.86,3.94-2.05,8.81-6.29,10.7
						c7.46-1.67,12.5,0.67,13.18,5.74c0.86,6.36-3.31,8.86-5.93,9.24c2.78-0.06,5.67,3.06,5.67,7.4c0,5.26-3.1,7.2-6.93,7.99
						c2.11,0.16,4.92,1.71,4.24,6.2c-0.71,4.63-4.61,5.48-13.73,6.39l-0.08,5.95c0,0-7.28,0-11.05-4.17
						C6.15,131.16,6.73,127.22,8.2,123.45z"/>
				</g>
			</g>
		</g>
		<g>
			<path d="M8.89,110.43c-0.36,0-0.71-0.17-0.92-0.5c-0.34-0.51-0.19-1.19,0.32-1.53c0.22-0.15,5.71-3.64,24.15-3.64
				c0.61,0,1.1,0.49,1.1,1.1c0,0.61-0.49,1.1-1.1,1.1c-17.58,0-22.9,3.25-22.95,3.28C9.31,110.37,9.1,110.43,8.89,110.43z"/>
		</g>
		<g>
			<path d="M8.9,96.31c-0.41,0-0.81-0.23-1-0.63c-0.26-0.55-0.03-1.21,0.52-1.47c0.19-0.09,4.73-2.22,16.25-4.35
				c0.6-0.11,1.17,0.28,1.28,0.88c0.11,0.6-0.28,1.17-0.88,1.28C13.9,94.1,9.41,96.18,9.37,96.2C9.21,96.28,9.05,96.31,8.9,96.31z"
				/>
		</g>
		<g>
			<path d="M8.2,124.55c-0.42,0-0.82-0.25-1.01-0.66c-0.25-0.56,0.01-1.21,0.56-1.46c0.2-0.09,5.02-2.14,23.1-2.23
				c0.61,0,1.1,0.49,1.11,1.1c0,0.61-0.49,1.1-1.1,1.11c-17.41,0.09-22.18,2.03-22.23,2.05C8.5,124.52,8.35,124.55,8.2,124.55z"/>
		</g>
		<g>
			<path d="M17.11,135.89c-0.51,0-0.97-0.36-1.08-0.88c-0.12-0.6,0.26-1.18,0.86-1.3l4.26-0.88c0.6-0.12,1.18,0.26,1.3,0.86
				c0.12,0.6-0.26,1.18-0.86,1.3l-4.26,0.88C17.26,135.88,17.18,135.89,17.11,135.89z"/>
		</g>
	</g>
	<g>
		<path d="M145.65,52.92c-0.06,0-0.13-0.01-0.19-0.02l-3.57-0.63c-0.6-0.11-1-0.68-0.89-1.28c0.11-0.6,0.68-1,1.28-0.89l3.57,0.63
			c0.6,0.11,1,0.68,0.89,1.28C146.64,52.54,146.18,52.92,145.65,52.92z"/>
	</g>
</g>
</svg>
