<?xml version="1.0" encoding="utf-8"?>
<!-- Generator: Adobe Illustrator 25.0.0, SVG Export Plug-In . SVG Version: 6.00 Build 0)  -->
<svg version="1.1" id="_x3C_Layer_x3E_" xmlns="http://www.w3.org/2000/svg" xmlns:xlink="http://www.w3.org/1999/xlink" x="0px"
	 y="0px" viewBox="0 0 210.14 173.88" style="enable-background:new 0 0 210.14 173.88;" xml:space="preserve">
<style type="text/css">
	.st0{fill:#FFFFFF;}
	.st1{fill:#FFFFFF;stroke:#000000;stroke-miterlimit:10;}
	.st2{stroke:#FFFFFF;stroke-miterlimit:10;}
</style>
<g>
	<path d="M204.84,166.16c-12.77-12.18-31.38-17.33-49.02-19.19c-6.1-0.65-12.23-0.98-18.35-1.22c-14.82-0.58-29.72-0.71-44.41,1.31
		c-16.36,2.25-32.73,7.86-44.57,19.11H204.84z"/>
	<path class="st0" d="M71.66,103.79c-3.08-4.73-7.63-7.77-7.63-7.77s2.6-19.11,3.01-23.86c0.41-4.75,1.95-13.18-3.08-14.1
		c-5.04-0.93-10.54,4.83-12.62,13.57c-2.08,8.74-3.21,17.14-3.21,17.14l-1.49,0.48c0,0-3.96-3.85-8.21,0.43c0,0-2.58-3.09-5.46-3.02
		c-2.88,0.07-6.01,2.54-6.01,2.54s-5.34-3.49-9.81,0.31c-4.48,3.8-4.83,8.02-5.5,11.82c-0.67,3.8,1.03,8.48,2.93,9.3
		c0,0-2.67,6.47-0.87,13.72c1.8,7.25,4.26,11.3,4.26,11.3l-8.24,30.51h48.44c0,0,10.41-38.32,11.96-42.74
		C71.66,119,74.74,108.52,71.66,103.79z"/>
	<path d="M132.31,92.62l-46.94-9.63c0,0-2.46,32.01-2.87,41.33c-0.09,2.04,1.65,3.92,3.6,4.73c2.82,1.17,28.3,0.37,37.44,0.55
		c3.91,0.08,8.24-1.2,8.41-5.88C132.26,115.58,132.7,100.91,132.31,92.62z"/>
	<path class="st0" d="M161.3,149.18c-1.83-0.27-3.66-0.5-5.47-0.69c-6.1-0.65-12.23-0.98-18.35-1.22
		c-14.09-0.56-28.26-0.7-42.26,1.03c2.52,3.58,5.74,6.65,9.39,9.09c4.88,3.26,10.52,5.27,16.32,6.06
		C135.89,165.48,150.46,159.28,161.3,149.18z"/>
	<path class="st0" d="M158.54,77.67c-2.9-26.53-26.37-42.94-47.52-36.31c-21.14,6.63-26.47,25.39-27.97,33.87
		c-1.49,8.48-1.04,30.78,3.97,42.76c4.47,10.69,20.81,11.41,20.81,11.41l-0.97,24.92l43,1.18l1.64-27.44
		C151.52,128.06,160.21,92.93,158.54,77.67z"/>
	<path d="M181.49,92.62c-1.25-26.31-5.17-41.86-21.9-51.53c-14.21-8.22-31.85-9.04-44.96-5.54c-13.11,3.49-23.71,10.04-28.81,23.38
		c-3.26,8.52-2.15,15.53-2.15,15.53S84.3,62.9,93.54,53c8.15-8.73,15.1-9.5,15.1-9.5c-1.55,6.82-0.57,15.62,2.47,21.95
		c3.15,6.55,8.73,11.85,15.44,14.92c3.23,1.48,8,2.62,8,2.62s-2.46,32.01-2.87,41.33c-0.09,2.04,1.65,3.92,3.6,4.73
		c2.82,1.17,28.3,0.37,37.44,0.55c3.91,0.08,8.24-1.2,8.41-5.88C181.44,115.58,181.88,100.91,181.49,92.62z"/>
	<path d="M97.11,84.2c-0.03-0.18-0.07-0.37-0.14-0.54c-1.03-2.67-5.08-2.19-5.58,0.56c-0.39,2.18,1.83,4.02,3.9,3.19
		C96.52,86.92,97.3,85.51,97.11,84.2z"/>
	<path d="M123.21,84.2c-0.03-0.18-0.07-0.37-0.14-0.54c-1.03-2.67-5.08-2.19-5.58,0.56c-0.39,2.18,1.83,4.02,3.9,3.19
		C122.63,86.92,123.41,85.51,123.21,84.2z"/>
	<path d="M107.37,145.45c-2,0.06-4,0.1-6,0.18c-0.98,0.04-1.97,0.07-2.95,0.13c-0.96,0.05-2.24,0-3.06,0.55
		c-0.5,0.33-0.54,1.06,0,1.38c0.84,0.5,2.02,0.4,2.96,0.41c1.02,0.01,2.04-0.02,3.05-0.03c2-0.02,4-0.09,6-0.13
		C108.98,147.91,108.98,145.4,107.37,145.45z"/>
	<path d="M160.68,146.6c-1.86-0.13-3.73-0.27-5.59-0.39c-0.91-0.06-1.83-0.14-2.75-0.15c-0.92-0.01-2.05-0.12-2.8,0.5
		c-0.33,0.27-0.26,0.81,0,1.09c0.62,0.67,1.86,0.68,2.7,0.79c0.94,0.12,1.9,0.17,2.84,0.24c1.86,0.14,3.73,0.26,5.59,0.38
		c0.67,0.05,1.24-0.6,1.24-1.24C161.91,147.13,161.35,146.65,160.68,146.6z"/>
	<path d="M152.04,121.96c-0.3-1.19-2.03-1.14-2.36,0c-0.3,1.04-0.22,2.19-0.24,3.26c-0.01,1.04-0.03,2.09-0.05,3.13l-0.18,12.15
		c-0.01,1.04-0.03,2.09-0.05,3.13c-0.02,1.04-0.09,2.1-0.03,3.13c0.04,0.73,0.59,1.36,1.36,1.36c0.79,0,1.29-0.62,1.36-1.36
		c0.09-1.03,0.04-2.1,0.06-3.13c0.01-1.04,0.03-2.09,0.05-3.13l0.18-12.15c0.02-1.04,0.03-2.09,0.05-3.13
		C152.21,124.14,152.31,123.01,152.04,121.96z"/>
	<path d="M107.7,129.37c-0.26,0.02-0.52,0-0.78-0.01c-0.14-0.01-0.27-0.01-0.41-0.01c-0.14,0.02-0.25,0.02-0.35,0.02L106,140.14
		l-0.05,3.14c-0.01,1.04-0.09,2.1-0.03,3.13c0.04,0.73,0.59,1.36,1.36,1.36c0.79,0,1.29-0.62,1.36-1.36
		c0.09-1.03,0.04-2.1,0.06-3.13l0.05-3.14l0.16-11.03C108.53,129.26,108.14,129.35,107.7,129.37z"/>
	<path d="M101.58,99.79c-0.34-0.75-1.23-0.72-1.92-0.77c-0.48-0.04-0.96-0.07-1.44-0.08c-0.34-0.01-0.68,0-1.02,0.01
		c0.31-2.88,0.63-5.76,0.98-8.64c0.38-3.12,0.93-6.29,0.92-9.44c0-2.83-0.66-5.62-2.61-7.76c-1.75-1.91-4.34-3.08-6.93-3.05
		c-1.5,0.02-2.97,0.42-4.29,1.13c-0.59,0.32-1.37,0.85-2.09,1.46c0.17,0.41,0.22,0.87,0.15,1.34c-0.02,0.15-0.03,0.49-0.05,0.71
		c-0.02,0.3-0.1,0.58-0.22,0.83c1.66-1.35,4.25-2.92,6.06-3.04c2.1-0.15,4.11,0.67,5.57,2.22c1.63,1.72,2.04,4.16,2,6.5
		c-0.05,2.91-0.5,5.82-0.83,8.71c-0.38,3.36-0.78,6.71-1.2,10.06c-0.08,0.65,0.14,1.1,1.21,1.21c0.93,0.1,2.53,0.06,3.75,0.21
		c0.54,0.06,1.27,0.23,1.7-0.2C101.71,100.82,101.8,100.29,101.58,99.79z"/>
	<path d="M56.24,46.79c-0.23-0.94-0.47-1.88-0.71-2.82c-0.48-1.9-1-3.8-1.51-5.69c-0.45-1.7-3.12-0.97-2.63,0.73
		c0.55,1.92,1.08,3.84,1.66,5.75c0.27,0.89,0.52,1.8,0.83,2.68c0.33,0.94,0.68,1.96,1.42,2.66c0.53,0.5,1.48,0.16,1.47-0.61
		C56.76,48.57,56.45,47.68,56.24,46.79z"/>
	<path d="M124.72,71.98c-1.98-2.02-4.9-3.09-7.72-2.86c-1.46,0.12-2.89,0.52-4.12,1.31c-0.64,0.41-1.2,0.9-1.67,1.5
		c-0.49,0.63-0.99,1.62-0.55,2.38c0.18,0.31,0.57,0.47,0.92,0.37c0.6-0.16,0.97-0.78,1.39-1.2c0.4-0.41,0.79-0.69,1.29-0.98
		c0.87-0.49,2.01-0.81,2.95-0.86c2.14-0.12,4.2,0.61,5.69,2.14C124.06,74.98,125.87,73.16,124.72,71.98z"/>
	<g>
		<path d="M67.43,59.52c-0.57-1.03-1.37-1.91-2.46-2.4c-1.07-0.48-2.28-0.5-3.4-0.22c-2.2,0.55-4.01,2.05-5.48,3.72
			c-2.81,3.19-4.31,7.31-5.45,11.35c-0.76,2.69-1.41,5.41-1.94,8.16c-0.27,1.4-1.62,8.64-1.62,8.64l2.55-0.17c0,0,1.04-5.5,1.3-6.68
			c0.5-2.35,1.06-4.7,1.67-7.03c0.96-3.65,2.11-7.66,4.21-10.8c1.07-1.59,2.26-2.98,3.89-3.97c0.69-0.42,1.51-0.74,2.36-0.74
			c-0.01,0.01,0.33,0.04,0.4,0.05c0.29,0.05,0.24,0.06,0.51,0.17c0.26,0.1,0.59,0.4,0.78,0.64c0.3,0.38,0.36,0.5,0.55,0.93
			c0.09,0.2,0.16,0.41,0.23,0.61c0.09,0.26,0.14,0.46,0.16,0.57c0.25,1.17,0.37,2.35,0.39,3.54c0.04,2.34-0.29,4.69-0.55,7.01
			c-0.63,5.52-1.77,16.12-2.62,21.61c-0.11,0.71,0.4,1.41,1.11,1.52c0.71,0.11,1.41-0.4,1.52-1.11c0.79-5.21,1.88-15.51,2.49-20.74
			c0.3-2.6,0.64-5.2,0.67-7.83C68.73,64.07,68.54,61.55,67.43,59.52z"/>
		<path d="M52.29,107.02c-0.21-0.41-0.7-0.66-1.15-0.66c-2.74,0.02-5.42,1.05-7.93,2.06c-2.33,0.93-4.61,2.02-6.73,3.36
			c-4.24,2.69-7.87,6.38-9.82,11.06c-0.53,1.28-0.88,2.6-1.06,3.98c-0.08,0.63-0.13,1.25-0.08,1.89c0.05,0.7,0.18,1.38,0.26,2.07
			c0.1,0.81,1.28,0.86,1.3,0c0.03-1.07,0.36-2.16,0.61-3.2c0.27-1.08,0.63-2.14,1.05-3.17c0.78-1.94,1.96-3.87,3.31-5.46
			c2.97-3.49,6.99-5.95,11.16-7.69c1.23-0.51,2.48-0.97,3.74-1.39c1.37-0.45,2.74-0.81,4.18-0.85c0.45-0.01,0.93-0.24,1.15-0.66
			C52.55,107.87,52.55,107.51,52.29,107.02z"/>
		<g>
			<path d="M46.7,88.15c-0.69-1.15-2.25-1.54-3.51-1.58c-1.3-0.04-2.61,0.28-3.77,0.85c-2.27,1.12-3.91,3.36-4.89,5.64
				c-1.14,2.66-1.66,5.61-1.95,8.47c-0.28,2.67-0.02,5.59,1.59,7.83c0.89,1.24,2.09,2.19,3.55,2.66c1.24,0.4,3.8,0.69,4.22-0.98
				c0.11-0.43-0.07-0.78-0.38-1.04c0.02,0.03-0.5-0.3-0.52-0.31c-0.14-0.04-0.32-0.05-0.47-0.05c-0.3,0-0.56,0.1-0.73,0.11
				c-0.52,0.03-0.81-0.01-1.29-0.15c-0.85-0.25-1.6-0.78-2.17-1.54c-1.28-1.71-1.44-3.96-1.26-6.06c0.2-2.35,0.64-4.79,1.4-7.02
				c0.64-1.87,1.72-3.74,3.31-4.86c0.85-0.6,1.82-1.03,2.82-1.15c0.5-0.06,1.04-0.05,1.54,0.01c0.63,0.08,1.21,0.29,1.85,0.32
				C46.62,89.33,47,88.63,46.7,88.15z"/>
		</g>
		<path d="M38.43,89.67c-0.22-0.74-0.51-1.43-1.06-1.98c-0.52-0.53-1.14-0.98-1.81-1.29c-1.46-0.68-3.02-0.88-4.62-0.63
			c-3.21,0.51-5.84,3.03-7.28,5.83c-0.84,1.64-1.38,3.41-1.71,5.22c-0.35,1.91-0.58,3.86-0.61,5.8c-0.06,3.24,0.41,7.63,3.68,9.29
			c1.76,0.89,3.88,0.95,5.8,0.64c1.75-0.29,3.5-1.13,4.61-2.55c0.43-0.55,0.53-1.29,0-1.82c-0.44-0.44-1.39-0.55-1.82,0
			c-0.42,0.53-0.75,0.84-1.28,1.15c-0.53,0.31-0.96,0.47-1.62,0.63c-0.63,0.15-1.05,0.19-1.76,0.2c-0.68,0-1.33-0.05-1.99-0.23
			c-0.64-0.18-1.12-0.46-1.53-0.89c-0.32-0.34-0.67-0.94-0.83-1.36c-0.51-1.33-0.66-2.78-0.68-4.2c-0.06-3.14,0.33-6.49,1.45-9.44
			c0.47-1.25,1.18-2.46,2.04-3.4c0.82-0.9,1.83-1.67,2.88-2.08c1.31-0.51,2.48-0.56,3.79-0.19c0.6,0.17,1.12,0.4,1.68,0.79
			c0.5,0.34,1.06,0.77,1.46,1.24C37.69,90.94,38.62,90.35,38.43,89.67z"/>
		<path d="M27.39,88.56c-2.54-2.16-6.14-2.44-9.11-1.07c-2.76,1.27-4.78,3.79-5.96,6.53c-0.65,1.49-1.11,3.04-1.46,4.63
			c-0.37,1.68-0.69,3.4-0.73,5.12c-0.08,3.06,1.04,6.46,3.88,8.02c3.29,1.81,7.09,0.25,9.74-1.95c0.54-0.45,0.47-1.38,0-1.85
			c-0.54-0.54-1.31-0.45-1.85,0c-1.71,1.43-4.19,2.56-6.28,1.7c-0.38-0.16-0.82-0.46-1.13-0.76c-0.42-0.41-0.64-0.7-0.94-1.23
			c-0.57-1.02-0.83-2.29-0.84-3.57c-0.02-1.43,0.2-2.84,0.47-4.23c0.26-1.35,0.59-2.68,1.05-3.98c0.83-2.32,2.21-4.48,4.3-5.79
			c1.05-0.66,2.25-1.1,3.46-1.14c1.61-0.06,3.09,0.51,4.64,0.87C27.34,90.04,28.03,89.1,27.39,88.56z"/>
		<path d="M72.56,102.68c-1.01-1.89-2.5-3.49-4.08-4.92c-1.65-1.49-3.4-2.88-5.11-4.3c-3.16-2.63-6.58-5.61-10.76-6.35
			c-2.16-0.39-4.61-0.25-6.48,1.02c-1.64,1.11-2.73,2.9-3.09,4.84c-0.81,4.27,1.49,8.4,4,11.69c2.44,3.2,5.5,6.02,9.12,7.82
			c0.4,0.2,0.8,0.39,1.21,0.58c0.46,0.21,1.02,0.28,1.52,0.38c0.6,0.12,1.24-0.67,0.66-1.14c-0.37-0.3-0.72-0.67-1.1-0.94
			c-0.39-0.26-0.81-0.49-1.2-0.75c-0.78-0.53-1.55-1.08-2.3-1.66c-1.8-1.39-3.44-2.97-4.94-4.7c-0.72-0.84-1.37-1.73-1.97-2.66
			c-1.14-1.78-2.28-3.79-2.52-5.95c-0.05-0.44-0.06-0.88-0.03-1.32c0-0.03,0.04-0.4,0.03-0.4c0.03-0.23,0.08-0.45,0.14-0.67
			c0.05-0.21,0.11-0.41,0.18-0.62c0.03-0.09,0.06-0.18,0.1-0.27c0.15-0.31,0.24-0.48,0.33-0.64c0.05-0.08,0.1-0.16,0.15-0.24
			c0,0.01,0.17-0.24,0.15-0.22c0.51-0.66,1.03-1.06,1.83-1.35c0.87-0.32,1.76-0.39,2.69-0.34c4.15,0.22,7.88,3.67,10.89,6.13
			c1.2,0.98,2.38,1.97,3.56,2.97c1.54,1.31,3.1,2.7,4.22,4.4c2.25,3.43,2.39,7.61,1.56,11.53c-0.46,2.2-1.13,4.35-1.75,6.51
			c-0.64,2.23-1.29,4.46-1.93,6.69c-1.29,4.46-2.57,8.92-3.86,13.38c-2.23,7.75-4.47,15.5-6.71,23.25c-0.25,0.87,0.4,1.74,1.31,1.74
			c0.61,0,1.14-0.4,1.31-0.98c2.06-7.06,4.07-14.15,6.1-21.22c1.35-4.68,2.69-9.37,4.02-14.05c0.67-2.36,1.34-4.72,2.01-7.08
			c0.64-2.26,1.34-4.52,1.86-6.82C74.69,111.55,74.77,106.81,72.56,102.68z"/>
	</g>
	<path d="M19.09,135.34c-0.04-0.81-0.51-1.39-0.9-2.1c-0.95-1.72-1.62-3.3-2.21-5.17c-1.15-3.68-1.58-7.32-1.34-11.17
		c0.06-1.02,0.18-2.04,0.34-3.04c0.19-1.13,0.52-2.26,0.52-3.41c0-0.82-1.01-0.98-1.44-0.39c-0.65,0.89-0.94,2.01-1.21,3.06
		c-0.11,0.43-0.21,0.86-0.29,1.29c-0.47,2.56-0.64,5.12-0.44,7.7c0.32,4.14,1.5,8.21,3.4,11.9c0.3,0.58,0.62,1.15,0.96,1.7
		c-0.03,0.15-1.05,4.5-1.38,5.62c-0.68,2.27-1.44,4.51-2.12,6.78c-1.42,4.76-2.45,9.65-3.57,14.48c-0.14,0.58-0.3,1.31-0.45,1.97
		c-0.18,0.81,0.45,1.58,1.29,1.54c0.52-0.02,0.98-0.36,1.14-0.86c0.1-0.29,0.2-0.66,0.31-1.1c0.6-2.42,1.18-4.84,1.77-7.25
		c0.6-2.46,1.17-4.93,1.87-7.36c0.65-2.25,1.4-4.46,2.08-6.7c0.39-1.29,0.77-2.59,1.08-3.9c0.27-1.1,0.55-2.23,0.6-3.37
		C19.09,135.47,19.09,135.4,19.09,135.34z"/>
	<path d="M49.55,54.59c-0.08-0.11-0.1-0.2-0.15-0.28c-0.11-0.19-0.29-0.33-0.45-0.48c-0.3-0.27-0.61-0.53-0.95-0.75
		c-0.61-0.4-1.22-0.8-1.83-1.2c-0.6-0.4-1.2-0.8-1.8-1.2c-0.31-0.2-0.62-0.4-0.93-0.6c-0.51-0.32-1.02-0.65-1.65-0.44
		c-0.67,0.22-0.98,0.82-0.85,1.5c0.11,0.61,0.64,0.88,1.12,1.18c0.33,0.2,0.67,0.41,1,0.62c0.64,0.41,1.28,0.83,1.92,1.25
		c0.61,0.4,1.25,0.75,1.88,1.11c0.74,0.41,1.63,0.9,2.42,0.33C49.59,55.41,49.82,54.95,49.55,54.59z"/>
	<path d="M99.32,107.7c-0.21-0.66-0.83-0.99-1.49-0.85c-0.53,0.11-1.04,0.13-1.58,0.07c-0.29-0.03-0.58-0.09-0.84-0.22
		c-0.46-0.22-0.62-0.65-0.87-1.06c-0.25-0.41-0.55-0.82-1.04-0.96c-0.46-0.13-0.85,0.1-1.11,0.45c-0.38,0.51-0.21,1.3,0.01,1.84
		c0.89,2.21,3.47,2.88,5.6,2.35c0.16-0.04,0.32-0.09,0.47-0.14C99.07,108.99,99.53,108.35,99.32,107.7z"/>
	<path d="M115.02,128.17c-7.61,0.45-16.02,0.26-22.32-4.65c-2.79-2.17-4.71-5.15-5.86-8.48c-1.16-3.39-1.64-6.97-1.99-10.52
		c-0.85-8.67-1.7-17.47-0.92-26.18c0.68-7.57,2.77-15.15,7.08-21.49c3.89-5.72,9.72-10.15,16.15-12.64c0.83-0.32,1.62-0.7,2.46-0.99
		c0.85-0.29,0.51-1.52-0.37-1.34c-0.91,0.19-1.84,0.34-2.72,0.63c-0.89,0.29-1.77,0.62-2.63,0.99c-1.66,0.71-3.28,1.55-4.81,2.52
		c-3.1,1.97-5.91,4.48-8.23,7.33c-5.06,6.2-7.76,13.95-8.84,21.81c-1.24,8.98-0.51,18.04,0.3,27.02c0.67,7.46,1.44,15.68,6.91,21.35
		c5.75,5.96,14.55,7.45,22.49,7.08c1.09-0.05,2.19-0.13,3.28-0.22c0.6-0.05,1.11-0.47,1.11-1.11
		C116.13,128.71,115.62,128.14,115.02,128.17z"/>
	<g>
		<g>
			<path class="st1" d="M189.71,41.71c-2.26-0.01-4.52-0.14-6.77-0.35c-0.52-1.09-1.04-2.18-1.57-3.26c-0.34-0.7-0.67-1.47-1.1-2.15
				c0.59-0.37,3.61-2.88,4.64-3.8c1.19-1.06,1.23-2.33,0.26-3.4c-0.91-1.01-1.87-1.98-2.82-2.95c-0.99-1-2-1.99-3.02-2.96
				c-0.95-0.9-2.04-2.32-3.35-1.58c-1.53,0.87-5.47,3.9-5.54,3.97c-0.39-0.17-2.72-1.45-2.72-1.45c-1.02-0.54-2.05-1.07-3.07-1.61
				c-0.23-2.21-0.46-4.42-0.65-6.64c-0.07-0.83-0.63-1.46-1.49-1.49c-3.82-0.15-7.63,0.08-11.41,0.65c-0.63,0.1-1.09,0.84-1.09,1.43
				c-0.01,2.05-0.03,6.19-0.03,6.19l-5.51,2.91c0,0-3.14-2.43-4.5-3.49c-1.19-0.92-2.28-1.11-4.39,1.11
				c-0.97,1.02-2.03,1.96-3.02,2.96c-0.96,0.97-1.91,1.94-2.82,2.95c-0.97,1.07-1.23,2.41-0.04,3.47c1.03,0.92,4.35,3.36,4.94,3.73
				c-0.43,0.68-0.76,1.45-1.1,2.15c-0.53,1.08-1.05,2.18-1.57,3.26c-2.25,0.2-4.51,0.33-6.77,0.35c-0.82,0-1.56,0.7-1.54,1.54
				c0.09,3.53,0.18,7.06,0.27,10.59c0.02,0.84,0.69,1.52,1.53,1.53c2.45,0.03,4.9,0.02,7.34-0.02c0.01,0.08,0.03,0.16,0.04,0.24
				c0.12,0.67,0.27,1.33,0.44,1.99c0.34,1.29,0.74,2.57,1.19,3.82c-0.53,0.36-3.43,2.76-4.46,3.68c-1.19,1.06-1.07,2.56-0.1,3.63
				c0.91,1.01,1.68,1.78,2.64,2.75c0.99,1,2.03,1.96,3.02,2.96c2.67,2.7,3.52,2.03,5.67,0.28c0.51-0.42,3.22-2.66,3.22-2.66
				s0.78,0.43,1.13,0.61l1.59,0.83c1.02,0.54,2.05,1.07,3.07,1.61c0.23,2.21,0.46,4.42,0.65,6.64c0.07,0.83,0.63,1.46,1.49,1.49
				c3.82,0.15,7.63-0.08,11.41-0.65c0.63-0.1,1.09-0.84,1.09-1.43c0.01-2.05,0.03-6.19,0.03-6.19s1.86-0.97,2.79-1.46l1.59-0.83
				c0.35-0.18,0.74-0.45,1.13-0.61c0.07,0.07,1.83,1.6,2.36,2c0.92,0.71,2.04,1.66,3.18,1.97c1.46,0.39,2.4-0.68,3.35-1.58
				c1.02-0.97,2.03-1.96,3.02-2.96c0.96-0.97,1.91-1.94,2.82-2.95c0.97-1.07,1.23-2.41,0.04-3.47c-1.03-0.92-2.2-1.72-3.32-2.54
				c-0.53-0.39-1.15-0.92-1.82-1.3c0.04-0.07,0.94-2.65,1.38-3.85c0.21-0.59,0.68-1.92,0.71-2c2.43,0.03,4.86,0.04,7.29,0.02
				c0.85-0.01,1.51-0.7,1.53-1.53c0.09-3.53,0.18-7.06,0.27-10.59C191.27,42.42,190.52,41.72,189.71,41.71z"/>
			<path class="st1" d="M171.72,43.44c-1.45-3.31-4.13-6.03-7.45-7.49c-3.58-1.57-7.84-1.84-11.49-0.19
				c-3.67,1.65-6.96,5.02-8.45,8.76c-1.19,2.99-1.38,6.44-0.47,9.54c0.91,3.09,2.86,5.77,5.41,7.72c5.57,4.24,13.54,3.71,18.73-0.88
				c2.3-2.04,4.02-4.86,4.71-7.86C173.45,49.8,173.04,46.46,171.72,43.44z"/>
		</g>
		<g>
			<path class="st2" d="M124.92,29.09c-1.81-0.01-3.63-0.11-5.43-0.28c-0.42-0.87-0.83-1.75-1.26-2.62
				c-0.28-0.56-0.54-1.18-0.88-1.73c0.47-0.3,2.89-2.31,3.72-3.05c0.95-0.85,0.99-1.87,0.21-2.73c-0.73-0.81-1.5-1.59-2.26-2.37
				c-0.8-0.8-1.6-1.6-2.42-2.38c-0.76-0.72-1.64-1.86-2.69-1.27c-1.23,0.7-4.39,3.13-4.45,3.18c-0.32-0.13-2.18-1.16-2.18-1.16
				c-0.82-0.43-1.64-0.86-2.46-1.29c-0.19-1.77-0.37-3.55-0.52-5.33c-0.06-0.67-0.5-1.17-1.2-1.2c-3.07-0.12-6.12,0.07-9.16,0.52
				c-0.51,0.08-0.87,0.67-0.87,1.15c-0.01,1.65-0.02,4.97-0.02,4.97l-4.42,2.33c0,0-2.52-1.95-3.61-2.8
				c-0.95-0.74-1.83-0.89-3.53,0.89c-0.78,0.82-1.63,1.57-2.42,2.38c-0.77,0.78-1.53,1.56-2.26,2.37c-0.78,0.86-0.98,1.93-0.03,2.78
				c0.83,0.74,3.49,2.7,3.96,2.99c-0.34,0.55-0.61,1.16-0.88,1.73c-0.43,0.87-0.84,1.75-1.26,2.62c-1.81,0.16-3.62,0.27-5.43,0.28
				c-0.65,0-1.25,0.56-1.23,1.23c0.07,2.83,0.15,5.67,0.22,8.5c0.02,0.67,0.55,1.22,1.23,1.23c1.96,0.02,3.93,0.01,5.89-0.01
				c0.01,0.07,0.02,0.13,0.04,0.19c0.1,0.54,0.21,1.07,0.35,1.6c0.27,1.04,0.6,2.06,0.96,3.07c-0.43,0.29-2.75,2.21-3.58,2.95
				c-0.95,0.85-0.86,2.05-0.08,2.91c0.73,0.81,1.35,1.43,2.12,2.2c0.8,0.8,1.63,1.57,2.42,2.38c2.14,2.16,2.82,1.63,4.55,0.22
				c0.41-0.34,2.58-2.14,2.58-2.14s0.63,0.34,0.91,0.49l1.27,0.67c0.82,0.43,1.64,0.86,2.46,1.29c0.19,1.77,0.37,3.55,0.52,5.33
				c0.06,0.67,0.5,1.17,1.2,1.2c3.07,0.12,6.12-0.07,9.16-0.52c0.51-0.08,0.87-0.67,0.87-1.15c0.01-1.65,0.02-4.97,0.02-4.97
				s1.49-0.78,2.24-1.17l1.27-0.67c0.28-0.15,0.59-0.36,0.91-0.49c0.06,0.05,1.47,1.28,1.89,1.6c0.74,0.57,1.64,1.33,2.55,1.58
				c1.17,0.31,1.93-0.54,2.69-1.27c0.82-0.78,1.63-1.57,2.42-2.38c0.77-0.78,1.53-1.56,2.26-2.37c0.78-0.86,0.98-1.93,0.03-2.78
				c-0.83-0.74-1.77-1.38-2.66-2.04c-0.42-0.31-0.92-0.74-1.46-1.05c0.03-0.06,0.76-2.13,1.11-3.09c0.17-0.47,0.55-1.54,0.57-1.6
				c1.95,0.03,3.9,0.03,5.85,0.01c0.68-0.01,1.21-0.56,1.23-1.23c0.07-2.83,0.14-5.67,0.22-8.5
				C126.17,29.65,125.57,29.09,124.92,29.09z"/>
			<path class="st0" d="M96.49,28.65c-1.67,0.73-3.03,2.08-3.77,3.75c-0.79,1.8-0.92,3.94-0.1,5.78c0.83,1.84,2.52,3.5,4.4,4.25
				c1.5,0.6,3.24,0.7,4.8,0.24c1.56-0.46,2.9-1.44,3.88-2.72c2.13-2.8,1.87-6.81-0.44-9.42c-1.02-1.16-2.44-2.02-3.95-2.37
				C99.69,27.78,98.01,27.98,96.49,28.65z"/>
		</g>
	</g>
</g>
</svg>
