<?xml version="1.0" encoding="utf-8"?>
<!-- Generator: Adobe Illustrator 25.0.0, SVG Export Plug-In . SVG Version: 6.00 Build 0)  -->
<svg version="1.1" id="_x3C_Layer_x3E_" xmlns="http://www.w3.org/2000/svg" xmlns:xlink="http://www.w3.org/1999/xlink" x="0px"
	 y="0px" viewBox="0 0 272.44 171.33" style="enable-background:new 0 0 272.44 171.33;" xml:space="preserve">
<style type="text/css">
	.st0{fill:#FFFFFF;}
	.st1{fill:#FFFFFF;stroke:#000000;stroke-width:2;stroke-miterlimit:10;}
</style>
<g>
	<path d="M134.4,28.48c0-7.02,5.69-12.72,12.72-12.72l17.65,0c11.02,0,56.58,0.34,79.07,0.5c7.01,0.05,12.65,5.76,12.62,12.77
		l-0.31,70.55c-0.03,6.98-5.68,12.63-12.66,12.66c-5.42,0.02-10.74,0.04-11.68,0.05c-17.13,0.07-34.05,0.12-50.29,0.15
		c-3.92,0.01-21.81,0.03-34.38,0.05c-7.03,0.01-12.73-5.69-12.73-12.72V28.48z"/>
	<path class="st0" d="M218.16,36.39l3.31,3.31c0.71,0.71,0.71,1.86,0,2.57l-17.5,17.5c-0.34,0.34-0.8,0.53-1.28,0.53h-28.55
		c-0.65,0-1.25,0.35-1.58,0.92L143.59,112c1.13,0.33,2.32,0.5,3.55,0.5c5.04-0.01,10.94-0.02,16.45-0.03l19.23-33.65
		c0.32-0.57,0.92-0.91,1.58-0.91h25.59c0.44-0.18,0.84-0.35,1.28-0.53l22.66-22.66c0.71-0.71,1.86-0.71,2.57,0l3.64,3.64
		c1.08,1.08,2.93,0.42,3.09-1.1l2.46-24.42c0.12-1.14-0.85-2.1-1.99-1.99l-24.42,2.46C217.74,33.46,217.08,35.31,218.16,36.39z"/>
	<g>
		<path d="M170.76,167.84c0,0-2.67-47.11-3.51-52.11c-5.32-31.88-55.82-21.84-55.82-21.84l-30,0.02
			C57.19,81.63,27.07,96.1,24.6,121.19c-2.08,21.13-4.3,46.65-4.3,46.65H170.76z"/>
	</g>
	<path class="st0" d="M79.85,95.57V68.44c0,0-5.85-37.3,5.09-42.77c10.94-5.47,20.61-6.47,28.54-2.77
		c7.92,3.7,11.58,5.65,13.63,11.41c2.04,5.76,1.36,20.81,1.26,23.35c-0.1,2.54,0.32,19.69-7.55,22.99s-10.85,2.52-10.85,2.52v14.54
		L79.85,95.57z"/>
	<path d="M120.69,49.45c0.02-0.14,0.06-0.27,0.11-0.4c0.76-1.97,3.75-1.62,4.12,0.42c0.29,1.61-1.35,2.97-2.88,2.36
		C121.12,51.46,120.54,50.42,120.69,49.45z"/>
	<path d="M101.41,49.45c0.02-0.14,0.06-0.27,0.11-0.4c0.76-1.97,3.75-1.62,4.12,0.42c0.29,1.61-1.35,2.97-2.88,2.36
		C101.84,51.46,101.26,50.42,101.41,49.45z"/>
	<path d="M126.54,39.33c-0.89-0.58-2.09-0.84-3.14-0.83c-4.45,0.03-7.38,4.24-8.01,8.27c-0.38,2.47-0.21,4.97,0.2,7.42
		c0.35,2.12,0.89,4.2,1.62,6.22c-0.57-0.02-1.14-0.03-1.71-0.04c-0.57,0-1,0.4-1.05,0.96c-0.05,0.53,0.44,1.05,0.96,1.05
		c0.61,0,1.23,0,1.84-0.02c0.45-0.01,0.91-0.03,1.35-0.14c0.6-0.14,1.29-0.68,1.01-1.38c-0.91-2.33-1.58-4.76-1.98-7.23
		c-0.61-3.75-0.93-8.28,1.84-11.31c1.08-1.18,2.51-1.97,4.13-1.94c0.77,0.01,1.49,0.18,2.2,0.48c0.34,0.14,0.68,0.34,0.97,0.56
		c0.32,0.24,0.58,0.52,0.94,0.7c0.29,0.14,0.65-0.02,0.65-0.37C128.37,40.7,127.34,39.84,126.54,39.33z"/>
	<path d="M101.18,81.85c4.62,0,14.53,0.77,18.71-1.68c1.8-1.06,3.34-2.52,4.38-4.33c1.25-2.16,1.86-4.68,2.33-7.11
		c0.98-5.12,0.95-10.38,0.9-15.58c-0.03-2.71-0.09-5.43-0.2-8.14c-0.1-2.62-0.13-5.28-0.73-7.84c-0.54-2.27-1.52-4.42-2.85-6.34
		c-0.67-0.97-1.43-1.86-2.26-2.71c-0.84-0.86-1.78-1.6-2.62-2.47c-0.37-0.38,0-1.12,0.54-0.93c2.13,0.72,3.94,2.47,5.35,4.18
		c1.46,1.78,2.59,3.79,3.35,5.96c0.88,2.51,1.12,5.18,1.25,7.82c0.14,2.84,0.23,5.68,0.27,8.52c0.09,5.6,0.16,11.26-0.72,16.8
		c-0.42,2.66-1.06,5.34-2.19,7.8c-1.01,2.18-2.59,4-4.52,5.41c-4.78,3.49-11.35,2.84-21,2.49C99.8,83.66,99.8,81.85,101.18,81.85z"
		/>
	<g>
		<path d="M119.83,65.26c-1.46,0.24-5.99,0.28-6.79,0.27c-1.56-0.02-2.24-0.11-2.76,0.64c-0.48,0.7,0.3,2.13,0.76,2.67
			c0.39,0.46,0.85,0.86,1.36,1.19c1.01,0.66,2.21,1.03,3.42,1c0.27-0.01,0.54-0.03,0.81-0.08c2.34-0.39,4.21-2.47,4.37-4.82
			C121.03,65.5,120.37,65.17,119.83,65.26z M116.18,69.12c-1.49,0.23-2.99-0.58-3.88-1.76c0.31,0.04,0.63,0.06,0.94,0.08
			c0.79,0.05,1.59,0.05,2.38,0.01c1.08-0.05,2.16-0.14,3.23-0.26C118.33,68.21,117.27,68.96,116.18,69.12z"/>
	</g>
	<path class="st0" d="M164.36,167.84h48.23l-10.87-34.89c0,0,10.24-5.54,16.49-10.33c6.26-4.79,9.63-9.51,3.47-12.81
		c0,0,4.01-5.07,2.54-8.7c-1.46-3.62-6.4-1.53-6.4-1.53s2.31-5.25-1.23-7.1s-10.46,2.47-10.46,2.47s-0.06-3.97-3.8-4.38
		c-3.74-0.41-14.57,6.15-20.58,9.92c-6.01,3.78-12.56,8.22-12.56,8.22s-5.4-13.31-15.49-10.15c-10.1,3.16-0.62,22.51,0.93,28.06
		C156.16,132.18,164.36,167.84,164.36,167.84z"/>
	<g>
		<path d="M202.49,89.4c-1.64-0.18-3.24,0.44-4.69,1.13c-1.43,0.68-2.84,1.43-4.24,2.17c-5.56,2.94-10.99,6.15-16.25,9.6
			c-1.48,0.97-2.94,1.99-4.38,3.01c-0.74,0.52-1.45,1.07-2.16,1.64c-0.71,0.57-1.44,1.12-2.07,1.77c-0.53,0.55,0.13,1.35,0.79,1.03
			c1.3-0.63,2.53-1.49,3.74-2.28c1.23-0.8,2.43-1.63,3.66-2.43c2.41-1.56,4.82-3.12,7.28-4.61c2.51-1.52,5.05-2.98,7.62-4.39
			c1.29-0.71,2.58-1.4,3.88-2.08c1.24-0.65,2.48-1.34,3.77-1.88c1.18-0.5,2.71-0.95,3.86-0.25c0.41,0.25,0.74,0.59,0.94,1.02
			c0.17,0.35,0.21,0.72,0.05,1.05c-0.25,0.51-0.14,1.14,0.38,1.44c0.47,0.27,1.19,0.13,1.44-0.38
			C207.44,92.36,205.08,89.69,202.49,89.4z"/>
		<path d="M218.31,92.31c-2.64-2.73-6.67-1.74-9.71-0.34c-1.6,0.74-3.1,1.67-4.58,2.62c-1.62,1.04-3.22,2.09-4.82,3.15
			c-3.17,2.1-6.32,4.21-9.46,6.35c-1.78,1.22-3.56,2.45-5.3,3.72c-0.86,0.63-1.72,1.25-2.57,1.89c-0.86,0.65-1.75,1.27-2.46,2.09
			c-0.24,0.28-0.02,0.81,0.39,0.67c1.62-0.58,3.07-1.67,4.52-2.59c1.49-0.94,2.98-1.9,4.46-2.87c2.97-1.92,5.92-3.87,8.9-5.78
			c2.93-1.89,5.85-3.8,8.82-5.62c1.36-0.84,2.77-1.64,4.27-2.2c1.38-0.51,2.94-0.92,4.4-0.52c1.28,0.35,2.24,1.4,2.53,2.69
			c0.34,1.49-0.51,2.62-1.35,3.76c-0.25,0.34-0.13,0.9,0.15,1.18c0.32,0.32,0.8,0.36,1.18,0.15c1.45-0.76,2.17-2.6,2.26-4.16
			C220.03,94.97,219.38,93.42,218.31,92.31z"/>
		<path d="M225.9,102.04c-0.28-1.42-1.09-2.74-2.26-3.59c-1.42-1.03-3.25-1.02-4.87-0.48c-1.74,0.58-3.39,1.5-5.03,2.32
			c-1.64,0.82-3.27,1.68-4.88,2.57c-3.17,1.74-6.29,3.59-9.31,5.57c-1.72,1.12-3.43,2.26-5.07,3.49c-1.66,1.24-3.23,2.52-4.75,3.92
			c-0.44,0.41,0.13,1.14,0.64,0.83c1.44-0.87,2.87-1.74,4.29-2.66c1.41-0.92,2.82-1.84,4.25-2.75c2.82-1.8,5.69-3.53,8.61-5.17
			c2.94-1.66,5.94-3.22,8.98-4.7c1.35-0.66,2.86-1.58,4.41-1.59c1.19,0,1.96,0.67,2.48,1.66c0.59,1.14,0.57,2.48,0.07,3.76
			c-0.57,1.47-1.68,2.68-2.81,3.74c-1.05,0.98,0.53,2.55,1.57,1.57C224.53,108.36,226.57,105.38,225.9,102.04z"/>
		<path d="M170.07,108.32c-1.64-2.89-3.64-5.71-5.99-8.08c-2.34-2.36-5.51-4.13-8.93-3.54c-2.98,0.52-5.07,3.15-5.91,5.91
			c-1.04,3.42-0.19,7.1,0.64,10.47c0.47,1.91,4.61,17.04,4.94,18.52c0.66,2.95,1.33,5.89,2,8.83c1.32,5.82,2.6,11.65,3.98,17.46
			c0.32,1.34,1.65,7.01,2.15,9.13c0.11,0.47,0.53,0.81,1.02,0.81c0.68,0.01,1.19-0.62,1.04-1.28c-0.51-2.31-1.53-7.01-1.77-8.11
			c-0.62-2.95-1.27-5.9-1.92-8.85c-1.28-5.83-2.54-11.67-3.85-17.5c-0.37-1.66-3.24-12.29-3.49-13.07c-0.49-1.55-0.93-3.1-1.33-4.67
			c-0.78-3.05-1.72-6.23-1.42-9.41c0.22-2.37,1.4-4.67,3.57-5.69c2.5-1.17,5.44,0.22,7.38,1.94c2.55,2.26,4.56,5.14,6.21,8.11
			C168.99,110.41,170.69,109.42,170.07,108.32z"/>
		<path d="M212.45,167.84c0.6,0,1.04-0.56,0.89-1.15c-0.38-1.46-1-3.85-1.09-4.22c-0.28-1.11-0.58-2.22-0.91-3.31
			c-0.64-2.16-1.3-4.32-1.97-6.48c-1.32-4.25-2.64-8.5-3.96-12.76c-0.76-2.44-1.52-4.88-2.28-7.31c-0.44-1.4-2.64-0.8-2.21,0.61
			c2.66,8.57,5.28,17.15,8.03,25.68c0.38,1.18,0.76,2.38,1.2,3.54c0.18,0.47,1.04,3.4,1.43,4.73
			C211.68,167.57,212.04,167.84,212.45,167.84L212.45,167.84z"/>
		<path d="M225.82,111.98c-0.74-2.05-2.8-3.14-4.89-3.24c-2.41-0.12-4.77,1.05-6.92,1.99c-2.13,0.93-4.24,1.93-6.31,3
			c-2.34,1.21-4.62,2.51-6.85,3.9c-1.95,1.21-4.09,2.56-5.96,3.69c0,0-1.19-0.8-1.95-1.14c-0.91-0.41-1.86-0.73-2.83-0.94
			c-1.96-0.44-3.98-0.54-5.98-0.49c-4.23,0.11-8.79,0.61-12.33,3.12c-0.91,0.65-1.68,1.41-2.33,2.31c-0.29,0.4-0.54,0.82-0.75,1.26
			c-0.24,0.51-0.31,1.03-0.49,1.55c-0.16,0.46,0.58,0.78,0.8,0.34c0.18-0.37,0.5-0.67,0.75-1c0.26-0.34,0.56-0.66,0.86-0.98
			c0.56-0.59,1.19-1.1,1.85-1.57c1.5-1.09,3.21-1.78,5-2.22c1.97-0.49,3.99-0.66,6.01-0.74c1.79-0.07,3.61-0.05,5.37,0.26
			c0.97,0.17,1.94,0.43,2.85,0.8c0.44,0.18,0.87,0.4,1.28,0.65c1.51,0.92,1.94,0.94,2.48,0.63c1.9-1.12,3.41-2.03,5.29-3.17
			c1.89-1.15,3.82-2.22,5.78-3.26c1.96-1.03,3.94-2.01,5.95-2.93c1.96-0.89,3.96-1.85,6.02-2.47c1.6-0.48,3.56-0.65,4.77,0.65
			c1.23,1.33,0.32,3.4-0.64,4.62c-1.27,1.63-2.89,3.06-4.43,4.43c-1.52,1.36-3.1,2.64-4.75,3.84c-3.79,2.75-7.85,4.97-12.1,6.93
			c-1.13,0.52-0.31,2.52,0.86,2.04c4.13-1.7,8.05-3.96,11.69-6.54c1.86-1.32,3.66-2.74,5.38-4.24c1.64-1.44,3.3-2.95,4.71-4.62
			C225.48,116.68,226.66,114.3,225.82,111.98z"/>
	</g>
	<path class="st0" d="M79.03,103.48c3.37,3.74,7.53,6.86,12.28,8.5c4.16,1.44,8.81,1.68,13.03,0.33c3.81-1.22,6.79-4.92,8.8-8.23
		c1.86-3.06,4.07-7.51,5.6-11.21c-4.45,0.44-7.33,1.01-7.33,1.01l-30,0.02c-3.65-1.85-7.43-3.08-11.23-3.78
		C72.5,94.49,75.91,100.01,79.03,103.48z"/>
	<path d="M111.05,94.31c-0.06,0.31-0.44,0.65-0.79,0.7c-0.22,0.03-0.38,0.03-0.6,0c-0.35-0.05-0.73-0.39-0.79-0.7
		c-0.12-0.63-0.07-1.28-0.07-1.92c0-0.61,0.01-1.22,0.02-1.83c0.01-1.22,0.03-2.43,0.04-3.65c0.01-1.19,0.04-2.38,0.06-3.57
		c0.01-0.61,2.02-1.21,2.04-0.09c0.03,1.22,0.05,2.43,0.07,3.65c0.01,1.19,0.03,2.38,0.04,3.57c0.01,0.61,0.02,1.22,0.02,1.83
		C111.12,92.97,111.17,93.65,111.05,94.31z"/>
	<path d="M80.42,92.82c-0.06,0.35-0.44,0.73-0.79,0.79c-0.22,0.04-0.38,0.04-0.6,0c-0.35-0.06-0.73-0.44-0.79-0.79
		c-0.12-0.71-0.07-1.44-0.07-2.16c0-0.68,0.01-9.36,0.02-10.04c0.01-1.37,0.03-2.74,0.04-4.11c0.01-1.34,0.04-2.67,0.06-4.01
		c0.01-0.68,0.04-1.37,0.1-2.05c0.06-0.69,0.14-1.41,0.47-2.02c0.18-0.34,0.71-0.34,0.9,0c0.62,1.14,0.55,2.72,0.57,3.98
		c0.03,1.37,0.05,2.74,0.07,4.11c0.01,1.34,0.03,2.67,0.04,4.01c0.01,0.68,0.02,9.36,0.02,10.04C80.5,91.32,80.55,92.08,80.42,92.82
		z"/>
	<g>
		<path class="st1" d="M68.25,72.42c3.23,3.64,6.84,8.23,11.61,8.22c0,0,9.56-3.42,4.78-20.91c-0.81-2.98,2.66-5.53,2.47-8.61
			c0.27-0.07,3.19-5.66,3.79-7.12c1.94-4.65,0.76-7.86-0.87-12.49c0,0,3.39,1.77,8.22,1.13c4.14-0.55,6.37-4.11,6.37-4.11
			s3.29,3.7,11.32,2.69c3.62-0.45,5.92-3.76,5.92-3.76l3.85,3.58c0.88-3.13,0.62-11.95-5.06-16.26c-5.34-4.06-11.77-3.04-15.05-1.83
			c-0.07-0.79-2.22-7.05-11.98-7.04c-11.33,0.01-13.3,8.35-13.3,8.35c-10.79,2.95-16.44,6.14-20.51,15.23
			C53.65,43.29,58.58,61.55,68.25,72.42z"/>
	</g>
	<g>
		<path class="st0" d="M89.32,52.95c-1.97-3.8-5.7-6.67-10.16-6.04c-1.06,0.15-2.11,0.5-2.95,1.16c-1.31,1.02-1.98,2.68-2.17,4.32
			c-0.42,3.73,0.05,8.97,4.05,10.57c1.76,0.71,3.72,0.69,5.61,0.5c1.22-0.12,2.46-0.32,3.58-0.83c3.57-1.59,3.83-5.75,2.4-8.96
			C89.56,53.43,89.44,53.19,89.32,52.95z"/>
		<path d="M78.71,52.95c0.16-0.5,0.68-0.84,1.21-0.69c1.5,0.45,2.84,1.22,4,2.28c0.55,0.5,1.06,1.07,1.48,1.69
			c0.23,0.34,0.42,0.68,0.58,1.06c0.07,0.16,0.14,0.33,0.19,0.51c0.05,0.18,0.03,0.37,0.06,0.55c0.08,0.4-0.46,0.85-0.78,0.45
			c-0.1-0.13-0.22-0.22-0.34-0.33c-0.12-0.11-0.21-0.26-0.31-0.38c-0.23-0.28-0.42-0.54-0.63-0.78c-0.44-0.52-0.9-1.01-1.42-1.45
			c-0.22-0.19-0.4-0.32-0.71-0.52c-0.29-0.18-0.59-0.34-0.89-0.5c-0.14-0.07-0.27-0.14-0.41-0.21c-0.07-0.03-0.14-0.06-0.21-0.1
			c-0.02-0.01-0.08-0.03-0.11-0.04c-0.33-0.13-0.67-0.24-1.01-0.33C78.9,54.03,78.55,53.45,78.71,52.95z"/>
	</g>
	<path class="st0" d="M268.01,17.36c-2.67-0.9-5.39-1.65-8.12-2.36c0,0,0.53-8.14,0.76-12.42c0.03-0.64-0.65-1.22-1.31-1
		c-3.17,1.05-6.33,2.16-9.46,3.34c-1.56,0.59-3.11,1.23-4.67,1.82c0.01,0-0.06,0.03-0.14,0.06c-0.06-0.11-0.35-0.25-0.45-0.32
		l-1.11-0.8c-0.68-0.5-1.37-0.99-2.05-1.49c-1.55-1.12-3.11-2.25-4.66-3.37c-0.53-0.38-1.42,0-1.55,0.63
		c-0.35,1.75-0.71,3.5-1.02,5.26c-0.15,0.88-0.3,1.77-0.42,2.66c-0.12,0.89-0.15,1.78-0.2,2.67c-0.04,0.7,0.96,0.76,1.17,0.16
		c0.3-0.86,0.62-1.7,0.85-2.58c0.22-0.81,0.4-1.63,0.59-2.46c0.27-1.2,0.51-2.41,0.75-3.62c1.04,0.75,2.07,1.5,3.11,2.24
		c0.71,0.51,1.42,1.03,2.14,1.54c0.66,0.48,1.35,1.13,2.1,1.46c0.87,0.38,1.72-0.13,2.52-0.44c0.84-0.33,1.68-0.66,2.52-0.98
		c1.62-0.62,3.25-1.23,4.88-1.82c1.45-0.52,2.91-1.03,4.37-1.52c-0.06,0.02-1.05,11.4-1.03,11.86c0.03,0.58,0.46,0.91,0.97,1.08
		c0.63,0.21,1.31,0.32,1.96,0.49c0.84,0.23,1.67,0.46,2.51,0.7c0.43,0.12,0.86,0.24,1.28,0.37c0.15,0.04,1.13,0.43,1.22,0.35
		c-0.76,0.65-1.53,1.29-2.29,1.94c-0.62,0.53-1.25,1.05-1.85,1.6c-0.3,0.27-0.59,0.56-0.86,0.87c-0.25,0.29-0.52,0.56-0.64,0.93
		c-0.09,0.29,0.16,0.62,0.47,0.61c0.72-0.03,1.54-0.61,2.11-1c0.7-0.48,1.37-0.99,2.04-1.5c1.35-1.03,2.67-2.1,3.98-3.17
		C269.15,18.6,268.7,17.59,268.01,17.36z"/>
	<g>
		<path class="st0" d="M8.77,167.84l13.78-32.32c0,0-9.1-2.62-12.23-4.32c-3.13-1.7-6.83-4.26-5.81-7.71
			c1.03-3.44,4.84-2.26,6.64-2.11c5.6,0.48,7.71,0.87,7.71,0.87s-4-2.22-7.3-5.34c-3.38-3.2-6.96-7.95-5.31-10.67
			c2.05-3.39,5.52-3,5.52-3s-0.57-0.01-1.08-4.79c-0.51-4.78,1.75-5.94,4.47-5.78c2.72,0.15,6.76,2.9,6.76,2.9S20,91.5,22.46,89.13
			s8.3-1.13,16.13,5.91c6.04,5.42,22.1,18.95,22.1,18.95s5.45-3.13,8.53-4.15c3.08-1.03,6.81-2.57,9.28,0.51
			c2.47,3.08,2.07,5.29-0.65,10.59c-2.72,5.29-6.58,11.66-9.25,17.47c-2.67,5.81-12.64,29.44-12.64,29.44H8.77z"/>
		<g>
			<path d="M21.96,134.88c-0.71,0.33-0.88,0.95-1.18,1.62c-0.26,0.59-0.53,1.18-0.79,1.77c-0.53,1.18-1.05,2.36-1.57,3.54
				c-1.02,2.3-2.03,4.61-3.03,6.92c-2.03,4.7-4.11,9.4-6,14.17c-0.32,0.81-1,2.49-1.48,3.66c-0.25,0.61,0.2,1.27,0.86,1.27
				c0.36,0,0.69-0.21,0.84-0.54c0.32-0.7,0.9-1.94,1.26-2.74c1.04-2.29,2.05-4.59,3.05-6.9c2.04-4.67,4.11-9.33,6.19-13.99
				c0.58-1.3,1.16-2.59,1.74-3.89c0.3-0.68,0.61-1.35,0.91-2.03c0.15-0.32,0.29-0.65,0.44-0.97c0.21-0.48,0.26-0.84,0.11-1.36
				C23.13,134.82,22.5,134.63,21.96,134.88z"/>
			<path d="M52.91,129.31c-0.31-0.98-0.93-1.83-1.53-2.66c-0.6-0.82-1.24-1.6-1.96-2.32c-1.49-1.48-3.27-2.66-5.3-3.25
				c-4.36-1.27-8.91,0.09-12.79,2.14c-1.1,0.58-2.16,1.22-3.21,1.87c-1.49-0.55-2.94-1.22-4.43-1.75c-1.68-0.59-3.38-1.11-5.1-1.56
				c-1.72-0.45-3.46-0.82-5.22-1.12c-1.8-0.3-3.72-0.7-5.55-0.51c-1.65,0.17-3.33,0.92-4.17,2.42c-0.85,1.52-0.52,3.31,0.39,4.72
				c1.88,2.91,5.46,4.44,8.56,5.68c1.94,0.77,3.92,1.46,5.88,2.17c1.02,0.37,2.79,0.99,3.76,1.32c0.38,0.13,0.78-0.08,0.9-0.45
				c0.03-0.1,0.06-0.2,0.09-0.27c0.12-0.37-0.04-0.75-0.39-0.9c-0.72-0.29-1.82-0.74-2.49-1c-1.72-0.66-3.45-1.32-5.17-1.99
				c-2.84-1.09-5.95-2.18-8.24-4.26c-0.89-0.81-1.92-2.04-1.75-3.34c0.16-1.23,1.44-1.88,2.54-2.06c1.58-0.25,3.3,0.12,4.86,0.38
				c1.64,0.27,3.27,0.61,4.88,1.01c1.81,0.45,3.6,0.99,5.36,1.6c1.15,0.4,2.32,0.79,3.44,1.28c0.62,0.27,1.3,0.8,1.96,0.91
				c0.71,0.12,1.29-0.46,1.85-0.8c0.92-0.56,1.86-1.11,2.82-1.6c1.74-0.89,3.58-1.59,5.51-1.93c1.69-0.3,3.47-0.31,5.14,0.14
				c1.64,0.44,3.12,1.32,4.4,2.41c0.75,0.64,1.47,1.34,2.15,2.05c0.71,0.74,1.35,1.55,2.19,2.14C52.6,130,53.02,129.65,52.91,129.31
				z"/>
			<path d="M37.29,118.42c-1.84-1.9-4.02-3.47-6.11-5.07c-2.08-1.59-4.17-3.17-6.26-4.75c-3.47-2.62-7.12-5.67-11.53-6.4
				c-2.45-0.41-5.01-0.1-6.98,1.53c-1.77,1.46-2.52,3.87-1.79,6.06c0.77,2.31,2.63,4.15,4.31,5.83c1.67,1.67,3.45,3.22,5.29,4.68
				c1.38,1.1,2.8,2.14,4.24,3.16l3.39-0.35c-1.47-0.99-2.93-2.01-4.36-3.07c-1.75-1.3-3.44-2.68-5.05-4.14
				c-1.6-1.45-3.23-2.98-4.54-4.7c-1.15-1.51-1.95-3.43-0.68-5.12c1.21-1.61,3.31-1.96,5.2-1.79c4,0.37,7.38,3.18,10.51,5.44
				c2.26,1.64,4.52,3.27,6.79,4.89c2.26,1.61,4.5,3.32,6.97,4.58C37.19,119.46,37.69,118.83,37.29,118.42z"/>
			<path d="M13.11,102.92c-0.55-1.06-0.97-2.15-1.19-3.15c-0.29-1.29-0.47-2.97,0.17-4.18c0.74-1.4,2.51-1.51,3.92-1.26
				c3.2,0.57,6,2.37,8.47,4.42c2.95,2.45,5.65,5.19,8.45,7.8c3.48,3.23,6.9,6.6,10.7,9.44c0.58,0.43,1.11-0.46,0.71-0.94
				c-2.93-3.5-6.35-6.59-9.63-9.76c-1.62-1.57-3.26-3.11-4.89-4.66c-1.34-1.27-2.67-2.54-4.1-3.71c-2.84-2.34-6.1-4.39-9.82-4.86
				c-2.03-0.26-4.21,0.19-5.47,1.92c-1.07,1.48-1.13,3.45-0.9,5.2c0.17,1.33,0.62,2.71,1.28,4.03L13.11,102.92z"/>
			<path d="M81.01,113.98c-0.14-2.69-1.57-5.3-4.25-6.14c-1.28-0.4-2.65-0.34-3.97-0.17c-1.14,0.15-2.26,0.37-3.36,0.7
				c-1.96,0.58-3.83,1.39-5.56,2.48c-0.79,0.5-2.1,1.43-2.75,1.9c-0.23,0.17-0.54,0.16-0.77-0.02c-0.87-0.71-2.97-2.43-3.57-2.98
				c-1.54-1.42-3.08-2.83-4.63-4.23c-3.11-2.8-6.25-5.57-9.42-8.29c-1.59-1.36-3.18-2.72-4.78-4.07c-1.51-1.27-3-2.57-4.63-3.69
				c-2.98-2.05-7.03-3.46-10.52-1.85c-2.03,0.93-2.68,3.05-2.47,5.14c0.09,0.91,0.3,1.84,0.64,2.72l2.72,0.36
				c-0.52-0.89-0.91-1.84-1.07-2.89c-0.1-0.7-0.12-1.47,0.09-2.16c0.19-0.6,0.67-0.99,1.24-1.22c3.02-1.23,6.41,0.49,8.82,2.24
				c1.44,1.04,2.77,2.22,4.13,3.37c1.5,1.26,3,2.53,4.49,3.81c2.96,2.53,5.92,5.06,8.86,7.62c1.63,1.42,3.26,2.83,4.88,4.25
				c0.82,0.72,1.66,1.43,2.49,2.14c0.55,0.47,1.69,1.45,2.37,2.04c0.33,0.28,0.81,0.31,1.17,0.07c0.5-0.34,1.18-0.8,1.49-1
				c0.58-0.38,1.16-0.76,1.75-1.12c1.1-0.67,2.26-1.26,3.46-1.74c1.24-0.49,2.51-0.88,3.82-1.15c1.16-0.24,2.38-0.43,3.56-0.29
				c2.13,0.24,3.31,2,3.44,3.95c0.19,2.86-1.56,5.42-2.77,7.79c-0.32,0.63-0.64,1.26-1,1.87c-0.9,1.54-8.79,17.28-11.31,22.87
				c-2.72,6.05-5.29,12.18-7.72,18.35c-0.16,0.4-0.41,1.07-0.72,1.87c-0.24,0.64,0.23,1.33,0.92,1.33c0.4,0,0.75-0.24,0.9-0.6
				c0.76-1.82,2.97-7.1,4.08-9.66c2.63-6.06,5.34-12.08,8.18-18.05c1.6-3.35,6.26-12.22,6.82-13.26c0.79-1.45,1.57-2.91,2.36-4.36
				C79.76,119.49,81.16,116.81,81.01,113.98z"/>
		</g>
	</g>
	<path d="M140.05,134.6c-0.37-0.48-1.13-0.76-1.61-0.21c-0.2,0.23-0.4,0.49-0.48,0.79c-0.09,0.31-0.06,0.69-0.07,1.02
		c-0.02,0.59-0.04,1.18-0.05,1.77c-0.03,1.11-0.07,2.23-0.1,3.34c-0.07,2.26-0.14,4.52-0.21,6.78c-0.14,4.52-0.28,9.04-0.38,13.57
		c-0.04,1.72-0.09,3.43-0.03,5.15c0.02,0.57,0.49,1.03,1.06,1.04c0.55,0,1.02-0.41,1.07-0.95c0.13-1.38,0.2-2.76,0.26-4.15
		c0.09-2.26,0.19-4.52,0.26-6.78c0.14-4.52,0.28-9.04,0.42-13.57c0.04-1.25,0.08-2.49,0.12-3.74c0.02-0.66,0.04-1.31,0.06-1.97
		C140.38,135.97,140.51,135.21,140.05,134.6z"/>
	<path d="M109.89,41.61c-1.71-1.98-4.42-3.13-7.03-2.86c-1.28,0.13-2.52,0.52-3.61,1.21c-0.52,0.33-1.07,0.73-1.48,1.2
		c-0.4,0.46-0.96,1.17-0.9,1.82c0.03,0.38,0.36,0.7,0.76,0.58c0.52-0.15,0.94-0.64,1.35-0.97c0.37-0.3,0.73-0.59,1.13-0.84
		c0.85-0.51,1.83-0.89,2.82-0.98c2.11-0.18,4.14,0.69,5.52,2.28c0.36,0.41,1.07,0.37,1.43,0C110.3,42.63,110.25,42.03,109.89,41.61z
		"/>
	<path d="M119.34,92.37c-0.18-0.65-0.79-0.88-1.4-0.79c-1.49,0.2-2.98,0.44-4.45,0.74c-0.73,0.15-1.46,0.31-2.18,0.52
		c-0.68,0.19-1.59,0.29-2.12,0.78c-0.45,0.43-0.26,1.07,0.18,1.39c0.63,0.46,1.69,0.18,2.39,0.03c0.75-0.17,1.5-0.36,2.25-0.52
		c1.5-0.31,3.01-0.54,4.53-0.75C119.15,93.69,119.48,92.91,119.34,92.37z"/>
	<path d="M80.12,92.05c-0.55-0.6-1.42-0.81-2.17-1.04c-0.72-0.22-1.45-0.44-2.17-0.65c-1.46-0.43-2.94-0.84-4.44-1.12
		c-0.61-0.12-1.25,0.17-1.42,0.81c-0.15,0.56,0.19,1.31,0.81,1.42c1.5,0.28,2.97,0.69,4.44,1.11c0.73,0.21,1.45,0.42,2.18,0.63
		c0.8,0.23,1.43,0.51,2.27,0.39C80.34,93.51,80.53,92.5,80.12,92.05z"/>
</g>
</svg>
