<?xml version="1.0" encoding="utf-8"?>
<!-- Generator: Adobe Illustrator 25.0.0, SVG Export Plug-In . SVG Version: 6.00 Build 0)  -->
<svg version="1.1" id="Ñëîé_1" xmlns="http://www.w3.org/2000/svg" xmlns:xlink="http://www.w3.org/1999/xlink" x="0px" y="0px"
	 viewBox="0 0 617.53 245.79" style="enable-background:new 0 0 617.53 245.79;" xml:space="preserve">
<style type="text/css">
	.st0{fill:#FFCF02;}
</style>
<g>
	<path class="st0" d="M527.59,83.31c-9.12-2.87-18.19-5.94-27.38-8.55c-6.14-1.74-12.44-2.96-18.71-4.19
		c-6.45-1.26-13.07-1.79-19.41-3.44c-8.24-2.15-16.27-5.08-24.38-7.69c-1.42-0.46-2.77-1.25-4.22-1.51
		c-8.78-1.53-13.1-8.01-15.6-15.39c-2.92-8.64-4.71-17.67-6.7-26.59c-0.59-2.66-0.22-5.53-0.29-8.3c13.68,0,27.36,0,41.03,0
		c5.57,2.13,11.19,4.12,16.67,6.45c2.47,1.05,4.49,3.15,6.97,4.14c6.62,2.63,13.39,4.9,20.08,7.37c0.7,0.26,1.29,0.83,2.14,1.4
		c-3.78,3.19-8.28-2.72-11.68,2.08c6.48,3.14,12.87,6.25,20.25,6.51c7.14,0.25,8.37,1.75,7.39,8.19C521.2,45.4,528.6,47,536,48.59
		c0.03,0.36,0.05,0.73,0.08,1.09c-1.6,0.26-3.21,0.51-4.85,0.77c0,0.37-0.16,0.91,0.03,1.1c0.6,0.59,1.25,1.27,2.01,1.53
		c7.56,2.63,15.1,5.33,22.74,7.7c6.75,2.1,12.88,0.35,18.63-3.58c6.59-4.51,8.46-3.94,14,3.75c1.49-0.45,3.07-0.92,4.51-1.35
		c0.51,0.46,1.12,0.81,1.07,0.99c-0.87,3.47,1.5,5.04,3.84,6.55c3.98,2.56,6.34,5.62,4.26,10.67c-0.42,1.03,0.08,2.47,0.23,3.71
		c0.18,1.47,0.84,3.01,0.59,4.39c-1.69,9.71-3.22,19.58-7.04,28.66c-3.02,7.17-9.29,12.19-15.33,16.91
		c-5.65,4.43-10.49,10.12-17.71,12.32c-6.67,8.91-17.9,9.26-26.69,14.2c-1.08,0.61-2.88,0.98-3.14,1.84
		c-1.3,4.15-5.01,5.71-8.06,7.85c-3.21,2.25-6.15,4.47-8.62,7.71c-2.06,2.71-5.58,4.62-8.82,6.06
		c-10.33,4.59-19.14,11.04-26.34,19.75c-2.78,3.36-6.76,5.73-6.96,10.99c-0.06,1.63-2.62,3.19-4.11,4.71
		c-2.4,2.45-4.76,4.81-5.15,8.58c-0.11,1.11-1.57,2.74-2.67,2.98c-7.24,1.57-14.64,3.7-21.55-2.64c-2.12,2.07-4.03,3.94-6.43,6.28
		c-1.4,0-3.44,0-5.85,0c-0.33-5.41-0.12-10.45,2.23-15.51c1.99-4.29,4.85-6.16,9.38-6.27c5.6-0.15,5.44-0.27,6.67-6.07
		c0.36-1.68,1.9-3.1,3.07-4.91c1.62,1.16,2.76,1.98,4.59,3.29c0.89-2.69,1.65-5,2.46-7.45c2.9-0.82,5.9-1.67,9.28-2.63
		c-0.3-6.89,4.64-8.27,9.94-9.25l-0.02-0.01c0.67,0.43,1.51,1.37,2,1.22c4.11-1.28,7.39-3.77,9.41-7.61c0.26-0.5-0.7-1.65-1.09-2.49
		l-0.12-0.18c0.1-1.48,0.2-2.96,0.33-4.9c3.46-1.21,7.54-2.24,8.66-6.97c0.21-0.88,1.32-1.79,2.23-2.21
		c5.27-2.38,8.25-7.21,12.15-11.06c3.74-3.7,7.45-7.42,11.48-11.45c-1.09-1.18-1.88-2.04-3.22-3.48c1.63-1.69,3.28-3.4,5.9-6.11
		c-0.21,2.78-0.3,4.1-0.45,6.07c4.29-1.72,8.62-2.14,10.97-6.44c-0.74-2.78-2.74-3.55-5.33-3.36c-5.68,0.42-11.36,0.86-17.29,1.31
		c-0.24-1.06-0.51-2.23-0.82-3.62c-1.93,0-3.84-0.12-5.72,0.05c-0.99,0.09-2.71,0.58-2.77,1.05c-0.62,4.97-4.4,3.73-7.32,3.78
		c-12.31,0.19-24.46,0.89-36.5,4.17c-5.79,1.58-12.18,0.98-18.31,1.33c-1.48,0.08-3.27-0.52-4.41,0.1
		c-7.39,4.03-15.68,2.83-23.49,3.91c-6.85,0.94-14.01-0.36-21.03-0.69c-0.85-0.04-1.83-0.55-2.52-0.28
		c-6.6,2.64-13.48,0.71-20.18,1.04c-7.56,0.37-15.22-1.26-22.84-1.92c-3.34-0.29-6.71-0.33-10.07-0.45
		c-3.82-0.13-7.65-0.27-11.47-0.3c-4.04-0.03-8.07,0.07-12.11,0.11c-7.88,0.08-15.76,0.18-23.64,0.2c-1.27,0-2.57-0.63-3.79-0.47
		c-6.7,0.91-13.38,1.99-20.07,2.99c-3.54,0.53-7.07,1.17-10.64,1.46c-18.06,1.44-36.13,2.82-54.2,4.15
		c-13.4,0.98-26.83,1.72-40.22,2.81c-9.77,0.79-19.51,2-29.27,2.98c-3.18,0.32-6.37,0.63-9.56,0.73c-16.63,0.47-33.27,0.8-49.9,1.35
		c-3.6,0.12-7.21,0.84-10.77,1.49c-6.51,1.2-11.38-0.66-15.57-6.15c-4.39-5.76-9.6-10.91-12.47-17.71
		c-2.81-6.65-5.49-13.36-8.2-20.05c-0.24-0.58-0.3-1.25-0.38-1.88c-0.67-5.2,5.42-19.22,9.55-22.33c2.34-1.76,4.63-1.37,7.26-0.77
		c3.69,0.83,7.53,1.65,11.27,1.49c11.07-0.48,22.13-1.34,33.17-2.24c13.17-1.08,26.3-2.62,39.48-3.5
		c12.98-0.87,25.99-1.2,38.99-1.73c9.38-0.38,18.75-0.7,28.13-1.04c1.07-0.04,2.14-0.06,3.2-0.05c23.89,0.37,47.79,0.72,71.68,1.17
		c4.68,0.09,9.35,0.59,14.03,0.91c0.85,0.06,1.7,0.18,2.55,0.18c28.37,0.08,56.74-0.12,85.1,0.3c17.9,0.27,35.8,1.46,53.69,2.22
		c5.76,0.25,11.73-0.45,17.24,0.83c15.08,3.52,30.3,4.39,45.68,4.73c6.35,0.14,12.64,1.94,19,2.58c11.24,1.13,22.51,2.01,33.77,2.81
		c1.52,0.11,3.12-0.85,4.67-1.36c1.9-0.63,3.78-1.3,6.11-1.04c-0.5,0.43-1,0.87-1.51,1.3c0.09,0.26,0.17,0.52,0.26,0.78
		c1.9-0.63,3.8-1.27,5.7-1.9c-4.88-3.39-9.93-2.77-14.84-2.56c-3.94,0.17-7.71,0.48-10.29-3.3c3-0.33,6.42,1.56,9.42-1.42
		C532.04,79.61,531.52,79.7,527.59,83.31z M521.18,120.5c-0.82,0.41-1.63,0.82-2.45,1.23c0.25,0.27,0.49,0.55,0.74,0.82
		c0.57-0.69,1.14-1.38,1.7-2.07c2.55,0.44,5.11,0.89,7.66,1.33c0.04-0.45,0.09-0.89,0.13-1.34
		C526.41,119.63,523.84,119.2,521.18,120.5z M489.77,69.03c2.42,1.21,4.72,2.07,6.35-0.78C494,68.51,491.88,68.77,489.77,69.03z
		 M515.17,64.15c0,0.29,0,0.58,0,0.88c3.04,0,6.09,0,9.13,0c-0.01-0.29-0.02-0.58-0.03-0.88C521.24,64.15,518.21,64.15,515.17,64.15
		z M579.44,60.08c-0.9,0.8-1.71,1.24-1.66,1.53c0.14,0.74,0.66,1.4,1.02,2.09c0.44-0.35,1.19-0.67,1.24-1.06
		C580.12,61.97,579.75,61.24,579.44,60.08z M520.59,70.12c-1.76-0.89-2.29-1.36-2.83-1.37c-0.45-0.01-0.92,0.52-1.38,0.8
		c0.28,0.28,0.52,0.75,0.84,0.81C517.73,70.47,518.31,70.31,520.59,70.12z M432.15,224.92c0.43,0.43,0.87,0.86,1.3,1.28
		c0.56-0.59,1.12-1.18,1.67-1.77c-0.34-0.33-0.68-0.66-1.02-1C433.46,223.94,432.81,224.43,432.15,224.92z"/>
	<path class="st0" d="M516.92,35.18c-2.34-0.59-4.68-1.17-7.01-1.76C512.85,31.44,515.22,31.89,516.92,35.18z"/>
	<path class="st0" d="M521.82,36.55c3.04-2.69,5.38-0.65,7.99-0.45c-0.08,0.52-0.15,1.03-0.23,1.55
		C527,37.28,524.41,36.91,521.82,36.55z"/>
	<path class="st0" d="M482.66,178.15c-0.26-1.49-0.52-2.98-0.79-4.47c1.53,0.19,3.07,0.38,4.6,0.57c0,0,0.12,0.18,0.11,0.18
		c-1.29,1.26-2.57,2.53-3.86,3.79L482.66,178.15z"/>
	<path class="st0" d="M544.27,53.78c2.83,0.25,5.65,0.5,8.48,0.76c-0.07,0.46-0.15,0.92-0.22,1.38c-3.07,1-5.8,0.08-8.32-2.05
		L544.27,53.78z"/>
	<path class="st0" d="M473.78,219.82c1.45-0.85,2.91-1.69,4.36-2.54c0.24,0.37,0.47,0.74,0.71,1.11c-1.39,0.97-2.78,1.94-4.17,2.9
		C474.38,220.8,474.08,220.31,473.78,219.82z"/>
	<path class="st0" d="M477.6,180.72c1.69-0.85,3.37-1.71,5.06-2.57c0,0,0.07,0.07,0.07,0.07c-1.06,3.08-3.6,4.28-6.45,5.1l0.02,0.01
		c0.01-0.44,0.01-0.87,0.02-1.31C476.75,181.59,477.17,181.15,477.6,180.72z"/>
	<path class="st0" d="M503.79,28.53c1.01,0.05,2.03,0.1,3.04,0.15c0.03,0.36,0.06,0.72,0.08,1.09c-1.01,0.12-2.02,0.24-3.03,0.35
		C503.86,29.59,503.82,29.06,503.79,28.53z"/>
	<path class="st0" d="M478.93,172.21c-0.69,0.49-1.38,0.99-2.1,1.43c-0.02,0.02-0.42-0.58-0.64-0.89c0.7-0.49,1.4-0.97,2.1-1.46
		C478.51,171.6,478.72,171.9,478.93,172.21z"/>
	<path class="st0" d="M477.6,180.72c-0.43,0.43-0.85,0.87-1.28,1.3c-0.67-0.5-1.34-1-2.01-1.5
		C475.4,180.58,476.5,180.65,477.6,180.72z"/>
	<path class="st0" d="M544.21,53.85c-1.15-0.39-2.3-0.78-3.44-1.17c0.19-0.36,0.38-0.71,0.57-1.07c0.98,0.72,1.96,1.44,2.94,2.16
		L544.21,53.85z"/>
	<path class="st0" d="M549.68,45.14c0.33,0.19,0.67,0.37,1,0.56c-0.38,0.28-0.73,0.65-1.15,0.78c-0.15,0.05-0.48-0.5-0.72-0.77
		C549.09,45.52,549.39,45.33,549.68,45.14z"/>
</g>
</svg>
