<?xml version="1.0" encoding="utf-8"?>
<!-- Generator: Adobe Illustrator 25.0.0, SVG Export Plug-In . SVG Version: 6.00 Build 0)  -->
<svg version="1.1" xmlns="http://www.w3.org/2000/svg" xmlns:xlink="http://www.w3.org/1999/xlink" x="0px" y="0px"
	 viewBox="0 0 458.43 247.57" style="enable-background:new 0 0 458.43 247.57;" xml:space="preserve">
<style type="text/css">
	.st0{fill:#FFFFFF;}
	.st1{fill:#E6F4FF;}
	.st2{fill:none;stroke:#FFFFFF;stroke-width:0.5;stroke-miterlimit:10;}
	.st3{fill:none;stroke:#000000;stroke-width:0.5;stroke-miterlimit:10;}
</style>
<g id="Layer_1">
	<g>
		<g>
			<rect x="59.4" y="142.17" width="9.4" height="64.1"/>
		</g>
		<g>
			<path d="M83.9,210.1H44.47c-1.63,0-2.95-1.32-2.95-2.95s1.32-2.95,2.95-2.95H83.9c1.63,0,2.95,1.32,2.95,2.95
				S85.53,210.1,83.9,210.1z"/>
		</g>
		<g>
			<path d="M49.74,214.63c0,3.51-2.84,6.35-6.35,6.35c-3.51,0-6.35-2.84-6.35-6.35c0-3.51,2.84-6.35,6.35-6.35
				C46.9,208.28,49.74,211.12,49.74,214.63z"/>
		</g>
		<g>
			<path d="M70.45,214.63c0,3.51-2.84,6.35-6.35,6.35c-3.51,0-6.35-2.84-6.35-6.35c0-3.51,2.84-6.35,6.35-6.35
				C67.6,208.28,70.45,211.12,70.45,214.63z"/>
		</g>
		<g>
			<path d="M91.07,214.63c0,3.51-2.84,6.35-6.35,6.35c-3.51,0-6.35-2.84-6.35-6.35c0-3.51,2.84-6.35,6.35-6.35
				C88.22,208.28,91.07,211.12,91.07,214.63z"/>
		</g>
		<g>
			<g>
				<path class="st0" d="M110.43,48.98c0,0,1.24-5.52,4.19-8.04c2.95-2.52,6.44-4.14,5.83-1.9s-2.65,5.9-2.65,5.9l5.35-1.42
					c0,0,3.49-1.62,6.02-2.3c2.53-0.67,3.33,1.19,3.33,1.19s2.53-0.67,3.64,0.07c1.1,0.74,0.32,2.34,0.32,2.34s3.64,0.07,2.27,2.86
					c-1.37,2.79-8.57,7.47-12.06,9.09c-3.49,1.62-11.35,2.68-11.35,2.68S108.27,60.98,110.43,48.98z"/>
			</g>
		</g>
		<g>
			<path d="M130,50.22c-0.05,0-0.11-0.01-0.16-0.04l-9.28-4.98c-0.16-0.09-0.22-0.29-0.14-0.45c0.09-0.16,0.29-0.22,0.45-0.14
				l9.28,4.98c0.16,0.09,0.22,0.29,0.14,0.45C130.24,50.15,130.12,50.22,130,50.22z"/>
		</g>
		<g>
			<path d="M111.94,53.22c-0.15,0-0.28-0.1-0.32-0.25c-0.05-0.18,0.06-0.36,0.24-0.41c2.81-0.73,4.61-1.9,5.35-3.47
				c0.78-1.66,0.08-3.19,0.08-3.21c-0.08-0.17-0.01-0.36,0.16-0.44c0.17-0.08,0.36-0.01,0.44,0.16c0.03,0.07,0.83,1.84-0.08,3.77
				c-0.83,1.76-2.78,3.05-5.79,3.84C111.99,53.22,111.96,53.22,111.94,53.22z"/>
		</g>
		<g>
			<polygon class="st0" points="111.71,187.84 113,203.4 88.69,203.4 88.69,187.84 			"/>
		</g>
		<g>
			<polygon class="st0" points="151.97,143.91 162.82,155.15 144,170.53 134.14,158.47 			"/>
		</g>
		<g>
			<path class="st0" d="M39.2,77.8c0,0-25.12,8.96-20.41,41.8c4.33,30.16,35.05,39.79,61.03,32.69
				c25.98-7.1,21.65-27.57,21.65-27.57L39.2,77.8z"/>
		</g>
		<g>
			<ellipse transform="matrix(0.1241 -0.9923 0.9923 0.1241 -77.2789 174.3288)" cx="60.11" cy="130.94" rx="6.05" ry="19.38"/>
		</g>
		<g>
			<path d="M30.32,136.16c-0.08,0-0.16-0.03-0.23-0.09c-6.62-6.13-7.85-17.7-7.9-18.19c-0.02-0.18,0.11-0.35,0.3-0.36
				c0.18-0.02,0.35,0.12,0.36,0.3c0.01,0.12,1.26,11.81,7.69,17.77c0.13,0.12,0.14,0.33,0.02,0.47
				C30.5,136.12,30.41,136.16,30.32,136.16z"/>
		</g>
		<g>
			<polygon points="116.96,150.35 116.96,192.03 83.28,192.03 77,134.52 103.83,131.51 			"/>
		</g>
		<g>
			<path d="M157.5,142.36c0,0-27.4-32.54-43.96-37.68c-16.56-5.14-67.94-3.43-67.94-3.43s-5.14,23.98,8.56,30.26
				c13.7,6.28,40.15,5.14,44.62,7.42c4.48,2.28,31.88,29.12,31.88,29.12L157.5,142.36z"/>
		</g>
		<g>
			<g>
				<path d="M147.66,224.02c0.54-0.07,0.9-0.6,0.8-1.16c-0.45-2.64-2.04-10.04-6.22-13.17c-5.14-3.85-15.91-5.4-19.83-7.97
					c-3.92-2.57-8.3-8.77-10.64-7.6c-2.34,1.17-6.74,6.57-13.11,5.8c-6.37-0.77-9.3-2.31-11.02-0.77
					c-1.71,1.54-2.69,23.13-1.96,24.41c0.73,1.28,9.7,0.1,10.48,0.31c0.78,0.21,2.98-4.93,4.45-4.16c1.47,0.77,3.26,3.18,5.43,4.29
					C108.07,225.04,141.25,224.88,147.66,224.02z"/>
			</g>
		</g>
		<g>
			<g>
				<path d="M202.37,154.09c0.41-0.35,0.42-0.99,0.03-1.41c-1.83-1.96-7.22-7.26-12.44-7.58c-6.41-0.39-16.26,4.24-20.94,4.25
					c-4.68,0.01-11.76-2.77-13.06-0.5c-1.31,2.27-2.02,9.2-7.76,12.05c-5.74,2.86-9.04,3.18-9.63,5.41
					c-0.58,2.23,10.47,20.8,11.79,21.47c1.32,0.67,8.16-5.25,8.92-5.51c0.77-0.26-0.22-5.76,1.43-5.92c1.65-0.16,4.47,0.86,6.89,0.6
					C169.86,176.7,197.48,158.33,202.37,154.09z"/>
			</g>
		</g>
		<g>
			<path class="st0" d="M103.92,69.22l6.28-13.97l12.51,0.44c0,0,4.84,35.25-10.47,42.43c-12.1,5.68-23.06-7.47-23.06-7.47
				L103.92,69.22z"/>
		</g>
		<g>
			<path class="st0" d="M35.9,83.62c0,0,3.23-26.52,16.27-29.68c13.05-3.16,25.94-1.05,35.89,4.27
				c7.23,3.87,15.96,10.54,15.96,10.54L91.4,95.5l-3.78-1.89v11.02l-39.17-0.33l-0.68-17.78L35.9,83.62z"/>
		</g>
		<g>
			<path d="M51.45,32.31c0,0-2.84,3.99-1,6.74c1.84,2.75,5.17,3.25,5.17,3.25s-0.61,2.69,2.59,4.23c3.2,1.54,4.25-2.81,4.25-2.81
				l-1.01-10.95l-6.79-4.8L51.45,32.31z"/>
		</g>
		<g>
			<g>
				<g>
					<g>
						<path class="st0" d="M61.49,45.78l-0.28,8.16c0,0,2.24,2.38,6.15,2.94c3.53,0.51,4.71-1.63,4.71-1.63l-0.25-2.86l-0.35-4.04
							l-8.55-2.19L61.49,45.78z"/>
					</g>
				</g>
			</g>
		</g>
		<g>
			<g>
				<g>
					<g>
						<path d="M62.93,46.15c0.01,0.22,0.09,0.49,0.21,0.79c1.69,4.14,6.65,5.18,8.69,5.44l-0.35-4.04L62.93,46.15z"/>
					</g>
				</g>
			</g>
		</g>
		<g>
			<g>
				<g>
					<g>
						<path class="st0" d="M73.93,29.81c0,0,3.93,10.37,2.05,15.99c-1.88,5.62-7.03,4.47-10.09,3.21c-3.05-1.26-4.4-3.23-4.4-3.23
							s-2.95,0.84-4.76-1.96c-1.81-2.8-0.46-5.84,1.23-6.47c1.69-0.63,3.61,0.67,3.61,0.67L60.17,35
							C60.17,35,67.42,20.33,73.93,29.81z"/>
					</g>
				</g>
			</g>
		</g>
		<g>
			<path d="M72.84,42.7c-0.04,0-0.08-0.01-0.12-0.02c-0.17-0.06-0.26-0.26-0.2-0.43c0.68-1.83-0.6-3.93-0.61-3.95
				c-0.1-0.16-0.05-0.36,0.11-0.46c0.16-0.1,0.36-0.05,0.46,0.11c0.06,0.1,1.47,2.39,0.67,4.53C73.1,42.61,72.97,42.7,72.84,42.7z"
				/>
		</g>
		<g>
			<path d="M60.89,42.77c-0.09,0-0.19-0.04-0.25-0.12l-2.59-3.08c-0.12-0.14-0.1-0.35,0.04-0.47c0.14-0.12,0.35-0.1,0.47,0.04
				l2.59,3.08c0.12,0.14,0.1,0.35-0.04,0.47C61.04,42.75,60.96,42.77,60.89,42.77z"/>
		</g>
		<g>
			<path d="M58.01,41.83c-0.17,0-0.31-0.13-0.33-0.3c-0.02-0.18,0.12-0.34,0.3-0.36l1.92-0.18c0.18-0.02,0.34,0.12,0.36,0.3
				c0.02,0.18-0.12,0.34-0.3,0.36l-1.92,0.18C58.04,41.83,58.03,41.83,58.01,41.83z"/>
		</g>
		<g>
			<path d="M69.55,45.64c-0.31,0-0.63-0.07-0.94-0.25c-1.27-0.73-1.62-2.18-1.63-2.24c-0.03-0.12,0.01-0.25,0.11-0.33
				c0.09-0.08,0.22-0.1,0.34-0.06l3.89,1.54c0.11,0.04,0.18,0.14,0.2,0.25c0.02,0.11-0.02,0.23-0.1,0.31
				C71.37,44.9,70.54,45.64,69.55,45.64z M67.88,43.66c0.2,0.39,0.53,0.85,1.05,1.15c0.55,0.32,1.15,0.11,1.56-0.12L67.88,43.66z"/>
		</g>
		<g>
			<path d="M68.45,38.65c-0.17,0-0.32-0.13-0.33-0.31l-0.13-1.9c-0.01-0.18,0.12-0.34,0.31-0.35c0.18-0.02,0.34,0.12,0.35,0.31
				l0.13,1.9c0.01,0.18-0.12,0.34-0.31,0.35C68.47,38.65,68.46,38.65,68.45,38.65z"/>
		</g>
		<g>
			<path d="M74.09,38.52c-0.17,0-0.31-0.13-0.33-0.3l-0.17-1.9c-0.02-0.18,0.12-0.34,0.3-0.36c0.18-0.02,0.34,0.12,0.36,0.3
				l0.17,1.9c0.02,0.18-0.12,0.34-0.3,0.36C74.11,38.52,74.1,38.52,74.09,38.52z"/>
		</g>
		<g>
			<path d="M66.9,34.93c-0.06,0-0.11-0.02-0.17-0.05c-0.16-0.09-0.21-0.3-0.12-0.46c0.77-1.3,2.45-0.86,2.52-0.84
				c0.18,0.05,0.28,0.23,0.23,0.41c-0.05,0.18-0.23,0.28-0.41,0.23c-0.05-0.01-1.26-0.33-1.77,0.53
				C67.12,34.87,67.01,34.93,66.9,34.93z"/>
		</g>
		<g>
			<path d="M74.78,34.2c-0.08,0-0.17-0.03-0.23-0.1c-0.17-0.17-0.71-0.59-1.2-0.55c-0.24,0.02-0.45,0.14-0.64,0.39
				c-0.11,0.15-0.32,0.17-0.47,0.06c-0.15-0.11-0.17-0.32-0.06-0.47c0.31-0.4,0.68-0.61,1.12-0.64c0.89-0.05,1.68,0.71,1.71,0.74
				c0.13,0.13,0.13,0.34,0,0.47C74.95,34.17,74.86,34.2,74.78,34.2z"/>
		</g>
		<g>
			<path d="M61.57,38.03c0,0,2.38-0.84,3.03-3.13c0.64-2.29-0.67-4.09-0.67-4.09s4.16,1.32,6.27-0.54c2.11-1.85,1.63-2.71,1.63-2.71
				l2.57,3.57c0,0,0.37-4.35-1.22-6.51c-1.59-2.17-3.93-0.58-3.93-0.58s0.14-3.36-4-3.49c-4.14-0.13-4.67,3.49-4.67,3.49
				s-3.98-1.4-7.01,1.69c-3.03,3.09-2.1,6.57-2.1,6.57L61.57,38.03z"/>
		</g>
		<g>
			<path class="st0" d="M115.95,154.26c-0.09,0-0.18-0.04-0.24-0.11c-0.13-0.14-12.93-13.98-16.99-14.89
				c-4.14-0.93-21.36-2.45-21.53-2.46c-0.18-0.02-0.32-0.18-0.3-0.36c0.02-0.18,0.17-0.32,0.36-0.3c0.71,0.06,17.43,1.54,21.62,2.48
				c4.27,0.96,16.81,14.51,17.34,15.09c0.12,0.13,0.12,0.35-0.02,0.47C116.11,154.23,116.03,154.26,115.95,154.26z"/>
		</g>
		<g>
			<path class="st0" d="M98.78,139.27c-0.03,0-0.07,0-0.1-0.01c-0.14-0.04-0.24-0.18-0.23-0.33c0.04-1.23,0.32-7.43,1.85-8.22
				c0.21-0.11,0.55-0.18,0.96,0.08c2.21,1.45-1.74,7.63-2.19,8.33C99,139.21,98.89,139.27,98.78,139.27z M100.7,131.27
				c-0.04,0-0.07,0.01-0.09,0.03c-0.75,0.39-1.24,3.62-1.42,6.37c1.42-2.42,2.79-5.61,1.71-6.32
				C100.81,131.29,100.74,131.27,100.7,131.27z"/>
		</g>
		<g>
			<path class="st0" d="M122.76,160.73c-0.08,0-0.17-0.03-0.23-0.1c-0.13-0.13-0.13-0.34,0-0.47l19.79-19.85
				c0.13-0.13,0.34-0.13,0.47,0c0.13,0.13,0.13,0.34,0,0.47l-19.79,19.85C122.93,160.7,122.84,160.73,122.76,160.73z"/>
		</g>
		<g>
			<path class="st0" d="M107.16,184.16H83.27c-0.18,0-0.33-0.15-0.33-0.33c0-0.18,0.15-0.33,0.33-0.33h23.89
				c0.18,0,0.33,0.15,0.33,0.33C107.49,184.01,107.34,184.16,107.16,184.16z"/>
		</g>
		<g>
			<path d="M60.61,62.21c-0.49,0-0.79-0.22-0.96-0.43c-1.28-1.58,1-7.31,1.26-7.96c0.04-0.09,0.11-0.16,0.21-0.19
				c0.1-0.03,0.2-0.01,0.28,0.05c4.6,3.26,7.15,3.38,8.48,2.9c1.45-0.52,1.82-1.84,1.83-1.89c0.03-0.11,0.12-0.2,0.23-0.23
				c0.11-0.03,0.24,0,0.32,0.09c0.71,0.75,4.27,4.59,3.95,6.06c-0.06,0.27-0.22,0.47-0.48,0.57c-1.57,0.65-5.67-2.35-6.71-3.14
				c-0.98,0.7-5.25,3.65-8.09,4.16C60.83,62.2,60.72,62.21,60.61,62.21z M61.36,54.44c-0.91,2.35-1.94,6.02-1.2,6.93
				c0.09,0.11,0.25,0.25,0.67,0.17c2.76-0.49,7.16-3.58,7.91-4.11C66.81,57.51,64.33,56.49,61.36,54.44z M69.27,57.39
				c1.88,1.46,5.2,3.6,6.22,3.17c0.06-0.02,0.08-0.05,0.09-0.11c0.16-0.77-1.81-3.32-3.44-5.1c-0.27,0.55-0.86,1.4-2.03,1.82
				C69.85,57.27,69.57,57.34,69.27,57.39z"/>
		</g>
		<g>
			<path d="M62.22,87.35c-0.16,0-0.29-0.11-0.32-0.26c-0.26-1.28-1.44-7.67,0.59-8.09c0.29-0.06,0.55,0.02,0.73,0.22
				c1.05,1.11-0.39,6.77-0.69,7.89C62.5,87.25,62.37,87.35,62.22,87.35z M62.68,79.63c-0.01,0-0.03,0-0.05,0.01
				c-0.85,0.18-0.74,3.17-0.35,5.8c0.55-2.45,0.96-5.26,0.48-5.77C62.74,79.65,62.72,79.63,62.68,79.63z"/>
		</g>
		<g>
			<path d="M87.4,93.11c-0.18,0-0.33-0.15-0.33-0.33V82.24c0-0.18,0.15-0.33,0.33-0.33s0.33,0.15,0.33,0.33v10.54
				C87.72,92.96,87.58,93.11,87.4,93.11z"/>
		</g>
	</g>
	<g>
		<g>
			<path d="M415.82,35.97c0,0,4.34,1.37,5.8,5.69c1.46,4.32-0.33,7.97-0.33,7.97s9.96,0.03,14.67,8.27
				c4.71,8.24-2.04,16.28-2.04,16.28l-31.96-10.04l1.08-23.88L415.82,35.97z"/>
		</g>
		<g>
			<rect x="403.13" y="146.74" width="9.21" height="62.82"/>
		</g>
		<g>
			<path d="M427.14,213.32h-38.65c-1.6,0-2.9-1.3-2.9-2.9c0-1.6,1.3-2.9,2.9-2.9h38.65c1.6,0,2.9,1.3,2.9,2.9
				C430.04,212.03,428.74,213.32,427.14,213.32z"/>
		</g>
		<g>
			<path d="M393.67,217.76c0,3.44-2.79,6.23-6.23,6.23c-3.44,0-6.23-2.79-6.23-6.23c0-3.44,2.79-6.23,6.23-6.23
				C390.88,211.54,393.67,214.32,393.67,217.76z"/>
		</g>
		<g>
			<path d="M413.96,217.76c0,3.44-2.79,6.23-6.23,6.23c-3.44,0-6.23-2.79-6.23-6.23c0-3.44,2.79-6.23,6.23-6.23
				C411.17,211.54,413.96,214.32,413.96,217.76z"/>
		</g>
		<g>
			<path d="M434.17,217.76c0,3.44-2.79,6.23-6.23,6.23c-3.44,0-6.23-2.79-6.23-6.23c0-3.44,2.79-6.23,6.23-6.23
				C431.38,211.54,434.17,214.32,434.17,217.76z"/>
		</g>
		<g>
			<path d="M356.77,197.9c0,0-19.61,9.56-25.39,15.09c-5.78,5.53-6.05,9.27-5.37,11.11c0.68,1.83,41.36-0.27,41.36-0.27
				s0.37-11.18,4.71-10.49c4.34,0.69,2.04,10.72,2.04,10.72l12.3-0.2c0,0,0.49-11.12-0.43-15.47c-1-4.7-3.74-12.01-3.74-12.01
				L356.77,197.9z"/>
		</g>
		<g>
			<path class="st0" d="M360.95,194.62c0,0-16.86,9.66-13.77,10.64c3.1,0.97,20.54,1.02,25.64-0.88c5.1-1.9,9.43-8,9.43-8
				l-11.73-4.65L360.95,194.62z"/>
		</g>
		<g>
			<polygon class="st0" points="357.58,155.56 358.34,198.32 371.06,199.62 382.26,196.38 381.66,152.57 			"/>
		</g>
		<g>
			<path d="M390.42,203.31c0,0-9.9,19.44-11.18,27.34c-1.28,7.9,0.76,11.05,2.41,12.1c1.65,1.05,32.86-25.13,32.86-25.13
				s-6.44-9.14-2.56-11.21c3.88-2.06,8.09,7.33,8.09,7.33l9.7-7.57c0,0-6.3-9.17-9.66-12.09c-3.63-3.15-10.21-7.33-10.21-7.33
				L390.42,203.31z"/>
		</g>
		<g>
			<path class="st0" d="M391.78,198.18c0,0-7.64,17.87-4.58,16.78c3.06-1.09,17.01-11.56,19.94-16.15
				c2.93-4.59,2.71-12.07,2.71-12.07l-12.17,3.36L391.78,198.18z"/>
		</g>
		<g>
			<path class="st0" d="M394.01,200.88c0,0-24.54-41.38-16.9-53.95c7.64-12.57,27.18,9.7,27.18,9.7l5.73,29.96l-8.8,11.77
				L394.01,200.88z"/>
		</g>
		<g>
			<path class="st0" d="M434.76,88.16c0,0,19.51,11.67,15.17,37.26c-4.99,29.45-34.35,39-59.82,32.04
				c-25.47-6.96-21.22-27.02-21.22-27.02L434.76,88.16z"/>
		</g>
		<g>
			<path d="M438.63,141.65c-0.09,0-0.17-0.04-0.24-0.11c-0.12-0.13-0.11-0.34,0.02-0.46c6.31-5.84,7.53-17.3,7.54-17.42
				c0.02-0.18,0.18-0.31,0.36-0.29c0.18,0.02,0.31,0.18,0.29,0.36c-0.05,0.48-1.25,11.82-7.75,17.83
				C438.79,141.62,438.71,141.65,438.63,141.65z"/>
		</g>
		<g>
			<path d="M399.58,53.23c0,0-13.29,1.18-18.28,7.59s1.6,46.63,1.96,47.19c0.36,0.56,9.61,4.66,25.74,4.3
				c16.13-0.36,16.74-4.13,17.28-5c0.53-0.87,7.23-45.57,3.31-49.42C425.68,54.05,409.31,52.06,399.58,53.23z"/>
		</g>
		<g>
			<path d="M432.13,130.73c0.99,3.19-6.49,8.35-16.71,11.53c-10.22,3.18-19.31,3.17-20.3-0.02c-0.99-3.19,6.49-8.35,16.71-11.53
				C422.05,127.52,431.14,127.53,432.13,130.73z"/>
		</g>
		<g>
			<path class="st0" d="M385.76,104.9c0,0-33.2,16.7-37.27,23.49c-4.08,6.79-0.18,39.38-0.18,39.38l31.14,1.52l2.97-9.33
				l22.37-52.05L385.76,104.9z"/>
		</g>
		<g>
			<path class="st0" d="M426.1,108.42c0,0,1.34,14.84,0.86,19.71c-0.48,4.87-15.84,16.34-15.84,16.34l-0.44,23.3l-34.04,1.52
				c0,0-1.06-30.08-0.49-35.19c0.57-5.11,24.91-26.77,24.91-26.77L426.1,108.42z"/>
		</g>
		<g>
			<g>
				<g>
					<g>
						<path class="st0" d="M407.5,46.29l-0.19,8.64c0,0-1.61,2.45-6.68,2.75c-3.77,0.22-5.08-0.66-5.08-0.66l0.62-4.37l0.61-4.26
							l9.17-1.81L407.5,46.29z"/>
					</g>
				</g>
			</g>
		</g>
		<g>
			<g>
				<g>
					<g>
						<path d="M405.96,46.6c-0.03,0.24-0.12,0.51-0.27,0.83c-2.03,4.27-7.34,5.09-9.52,5.23l0.61-4.26L405.96,46.6z"/>
					</g>
				</g>
			</g>
		</g>
		<g>
			<g>
				<g>
					<g>
						<path class="st0" d="M395.29,28.66c0,0-4.78,10.74-3.12,16.8c1.65,6.06,7.17,5.15,10.48,4c3.31-1.15,4.85-3.16,4.85-3.16
							s3.07,1.06,5.15-1.79c2.08-2.85,0.83-6.15-0.92-6.91c-1.75-0.77-3.85,0.49-3.85,0.49l1.66-3.12
							C409.54,34.97,402.75,19.02,395.29,28.66z"/>
					</g>
				</g>
			</g>
		</g>
		<g>
			<path d="M395.7,42.33c-0.14,0-0.27-0.09-0.31-0.23c-0.71-2.29,0.91-4.63,0.98-4.73c0.1-0.15,0.3-0.18,0.45-0.08
				c0.15,0.1,0.18,0.31,0.08,0.45c-0.02,0.02-1.5,2.17-0.89,4.16c0.05,0.17-0.04,0.35-0.21,0.41
				C395.76,42.32,395.73,42.33,395.7,42.33z"/>
		</g>
		<g>
			<path d="M408.33,43.12c-0.08,0-0.16-0.03-0.22-0.09c-0.13-0.12-0.14-0.33-0.01-0.46l2.93-3.1c0.12-0.13,0.33-0.14,0.46-0.01
				c0.13,0.12,0.14,0.33,0.01,0.46l-2.93,3.1C408.51,43.09,408.42,43.12,408.33,43.12z"/>
		</g>
		<g>
			<path d="M411.43,42.29c-0.05,0-2.07-0.31-2.07-0.31c-0.18-0.03-0.3-0.19-0.27-0.37c0.03-0.18,0.18-0.31,0.37-0.27l2.02,0.31
				c0.18,0.03,0.3,0.19,0.27,0.37C411.73,42.17,411.59,42.29,411.43,42.29z"/>
		</g>
		<g>
			<path class="st0" d="M342.99,76.15l-0.31-1.93c0,0-7.4-5.63-11.96-7.49c-1.92-0.78-4.6-0.13-2.34,2.41c1.22,1.37,1.83,3,1.83,3
				s-3.66-1.16-6.17-2.82c-1.61-1.06-3.96-5.35-5.33-4.42c-2.19,1.48,0.33,5.65,0.33,5.65s-1.14-5.29-3.3-3.23
				c-2.15,2.06,3.73,12.45,6.53,14.94c2.8,2.48,17.59,5.37,17.59,5.37L342.99,76.15z"/>
		</g>
		<g>
			<path d="M327.41,74.4c-3.47-0.34-6.6-3.26-6.73-3.38c-0.13-0.12-0.14-0.33-0.01-0.46c0.12-0.13,0.33-0.14,0.46-0.01
				c0.03,0.03,3.1,2.89,6.32,3.2c0.18,0.02,0.31,0.18,0.29,0.36C327.72,74.27,327.57,74.4,327.41,74.4z"/>
		</g>
		<g>
			<path d="M323.57,76.8c-0.07,0-0.14-0.02-0.2-0.07l-3.09-2.32c-0.14-0.11-0.17-0.31-0.07-0.46c0.11-0.14,0.31-0.17,0.46-0.07
				l2.92,2.19l6.3-3.82c0.15-0.09,0.35-0.04,0.45,0.11c0.09,0.15,0.04,0.35-0.11,0.45l-6.48,3.93
				C323.69,76.78,323.63,76.8,323.57,76.8z"/>
		</g>
		<g>
			<path d="M336.05,76.68c-0.03,0-0.07,0-0.1-0.02c-3.7-1.17-6.04-3.8-6.13-3.91c-0.12-0.14-0.1-0.34,0.03-0.46
				c0.13-0.12,0.34-0.11,0.46,0.03c0.02,0.03,2.32,2.61,5.84,3.72c0.17,0.05,0.27,0.24,0.21,0.41
				C336.31,76.59,336.18,76.68,336.05,76.68z"/>
		</g>
		<g>
			<path d="M382.96,59.11c0,0-15.06,13.31-27.22,14.09c-5.86,0.38-13.73-2.42-13.73-2.42l-6.99,18.28c0,0,24.57,23.28,49.6,4.93
				C391.82,88.73,382.96,59.11,382.96,59.11z"/>
		</g>
		<g>
			<polygon class="st0" points="399.38,57.1 394.31,90.71 398.36,90.71 401.95,57.65 			"/>
		</g>
		<g>
			<path class="st1" d="M338.89,92.28l-3.55-1.19c-0.46-0.15-0.71-0.65-0.56-1.12l6.47-19.38c0.15-0.46,0.65-0.71,1.12-0.56
				l3.55,1.19c0.46,0.15,0.71,0.65,0.56,1.12l-6.47,19.38C339.85,92.18,339.35,92.43,338.89,92.28z"/>
		</g>
		<g>
			<path class="st0" d="M404.98,102.18c0,0-7.99,3.23-9.57,3.01c-1.58-0.22-7.27-0.85-7.5-2.05l2.14-3.67c0,0-3.18,1.33-5.34,0.22
				c-2.16-1.12-4.74-3.36-5.27-5.08c-0.53-1.72,1.96-1.37,1.96-1.37s-2.81-1.75,0.76-3.25c3.57-1.5,18.99-3.72,25.41,0.31
				C414,94.33,404.98,102.18,404.98,102.18z"/>
		</g>
		<g>
			<path d="M381.41,93.57c-0.14,0-0.26-0.09-0.31-0.22c-0.06-0.17,0.03-0.35,0.2-0.41c3.85-1.31,7.84-0.76,8-0.74
				c0.18,0.03,0.3,0.19,0.28,0.37c-0.02,0.18-0.18,0.3-0.37,0.28c-0.04,0-4-0.55-7.7,0.71C381.48,93.56,381.44,93.57,381.41,93.57z"
				/>
		</g>
		<g>
			<path d="M410.87,144.88c-0.05,0-0.11-0.01-0.16-0.04c-0.67-0.38-6.5-3.72-6.27-5.83c0.06-0.58,0.51-1,1.34-1.25
				c0.96-0.29,1.84-0.18,2.61,0.34c2.31,1.55,2.78,6.22,2.8,6.42c0.01,0.12-0.04,0.24-0.15,0.3
				C411,144.86,410.93,144.88,410.87,144.88z M406.79,138.26c-0.26,0-0.53,0.04-0.82,0.13c-0.55,0.17-0.85,0.4-0.88,0.69
				c-0.13,1.17,3.02,3.46,5.37,4.86c-0.21-1.31-0.85-4.24-2.43-5.3C407.65,138.38,407.24,138.26,406.79,138.26z"/>
		</g>
		<g>
			<path d="M429.6,57.9c0,0,23.01,25.05,19.27,41.35c-3.74,16.3-49.16,5.65-49.16,5.65l0.49-19.06l23.61-3.7L429.6,57.9z"/>
		</g>
		<g>
			<path class="st1" d="M431.64,83.28c-2.49,0-5.79-0.53-7.15-0.76c-0.14-0.02-0.24-0.13-0.27-0.27c-0.02-0.14,0.05-0.27,0.17-0.34
				c0.29-0.15,7.07-3.7,9.89-0.68c0.45,0.49,0.58,0.92,0.38,1.3C434.35,83.08,433.14,83.28,431.64,83.28z M425.62,82.04
				c3.97,0.62,8.09,0.85,8.46,0.17c0.04-0.07-0.02-0.25-0.29-0.54C431.89,79.61,427.53,81.2,425.62,82.04z"/>
		</g>
		<g>
			<path class="st1" d="M403.82,106.16h-3.75c-0.49,0-0.88-0.4-0.88-0.88V84.84c0-0.49,0.4-0.88,0.88-0.88h3.75
				c0.49,0,0.88,0.4,0.88,0.88v20.43C404.71,105.76,404.31,106.16,403.82,106.16z"/>
		</g>
		<g>
			<path class="st0" d="M396.01,53.77c0,0-2.75,9.23-1.82,9.05c0.93-0.18,6.44-5.13,6.44-5.13s4.34,5.38,5.66,5.41
				c1.32,0.03,1.21-10.18,1.21-10.18s-1.12,3.11-5.99,3.8C396.63,57.42,396.01,53.77,396.01,53.77z"/>
		</g>
		<g>
			<path d="M397.81,45.71c-1.02,0-1.7-0.82-1.94-1.3c-0.04-0.09-0.04-0.2,0-0.29c0.05-0.09,0.13-0.15,0.23-0.17l3.38-0.67
				c0.1-0.02,0.2,0.01,0.28,0.08c0.08,0.07,0.12,0.17,0.11,0.27c-0.04,0.61-0.45,1.81-1.69,2.05
				C398.06,45.69,397.93,45.71,397.81,45.71z M396.71,44.49c0.26,0.3,0.7,0.66,1.36,0.54c0.65-0.12,0.93-0.63,1.06-1.02
				L396.71,44.49z"/>
		</g>
		<g>
			<path d="M402.34,34.15c-0.02,0-0.04,0-0.06,0l-3.43-0.61c-0.18-0.03-0.29-0.2-0.26-0.38c0.03-0.18,0.2-0.29,0.38-0.26l3.43,0.61
				c0.18,0.03,0.29,0.2,0.26,0.38C402.63,34.04,402.5,34.15,402.34,34.15z"/>
		</g>
		<g>
			<path d="M395.55,33.54H394c-0.18,0-0.33-0.15-0.33-0.33c0-0.18,0.15-0.33,0.33-0.33h1.55c0.18,0,0.33,0.15,0.33,0.33
				C395.87,33.39,395.73,33.54,395.55,33.54z"/>
		</g>
		<g>
			<path d="M394.62,37.83c-0.23-0.03-0.35-0.19-0.32-0.37l0.27-1.86l-0.62-0.75c-0.11-0.14-0.09-0.34,0.04-0.46
				c0.14-0.11,0.34-0.09,0.46,0.04l0.71,0.87c0.06,0.07,0.08,0.16,0.07,0.25l-0.29,2C394.92,37.72,394.78,37.83,394.62,37.83z"/>
		</g>
		<g>
			<path d="M400.12,38.25c-0.23-0.03-0.35-0.2-0.32-0.37l0.27-1.86l-0.62-0.75c-0.11-0.14-0.09-0.34,0.04-0.46
				c0.14-0.11,0.34-0.1,0.46,0.04l0.71,0.87c0.06,0.07,0.08,0.16,0.07,0.25l-0.29,2C400.42,38.14,400.28,38.25,400.12,38.25z"/>
		</g>
		<g>
			<path d="M407.88,38.09l-1.47,1.35l0.73-1.5c0,0-2.42-0.33-5.62-3.29c-3.2-2.96-3.7-7.58-3.7-7.58s-2.93,2.19-3.75,4.73
				c-0.83,2.54-0.83,2.54-0.83,2.54s-1.87-10.48,4.88-11.69c6.75-1.21,12.29,4.49,12.29,4.49s4.82,1.17,5.91,4.42
				c1.08,3.25-2.75,8.51-2.75,8.51S412.3,36.37,407.88,38.09z"/>
		</g>
		<g>
			<path d="M409.77,27.78c0,0,5.54-6.12,11.17-3.62s0.83,12.7-7.46,11.87C405.18,35.19,409.77,27.78,409.77,27.78z"/>
		</g>
		<g>
			<path class="st1" d="M382.01,82.2c-0.15,0-0.29-0.11-0.32-0.27c-1.78-9.53,3.33-16.73,3.38-16.81c0.1-0.15,0.31-0.18,0.45-0.07
				c0.15,0.1,0.18,0.31,0.07,0.45c-0.05,0.07-5,7.06-3.27,16.31c0.03,0.18-0.08,0.35-0.26,0.38C382.05,82.2,382.03,82.2,382.01,82.2
				z"/>
		</g>
		<g>
			<path class="st1" d="M409.41,83.44c-0.16,0-0.3-0.12-0.32-0.28c-0.02-0.18,0.1-0.34,0.28-0.37c0.44-0.06,10.92-1.39,15.21-0.92
				c0.18,0.02,0.31,0.18,0.29,0.36c-0.02,0.18-0.19,0.3-0.36,0.29c-4.23-0.46-14.95,0.91-15.06,0.92
				C409.43,83.44,409.42,83.44,409.41,83.44z"/>
		</g>
		<g>
			<path d="M379.38,121.1c-0.1,0-0.21-0.05-0.27-0.14c-0.1-0.15-0.06-0.35,0.09-0.45l11.57-7.84h-7.72c-0.18,0-0.33-0.15-0.33-0.33
				c0-0.18,0.15-0.33,0.33-0.33h8.78c0.14,0,0.27,0.09,0.31,0.23c0.04,0.14-0.01,0.29-0.13,0.37l-12.45,8.43
				C379.5,121.09,379.44,121.1,379.38,121.1z"/>
		</g>
	</g>
	<g>
		<g>
			<g>
				<path class="st0" d="M271.6,50.7c0,0,1.24-5.52,4.19-8.04c2.95-2.52,6.44-4.14,5.83-1.9s-2.65,5.9-2.65,5.9l5.35-1.42
					c0,0,3.49-1.62,6.02-2.3c2.53-0.67,3.33,1.19,3.33,1.19s2.53-0.67,3.64,0.07c1.1,0.74,0.32,2.34,0.32,2.34s3.64,0.07,2.27,2.86
					c-1.37,2.79-8.57,7.47-12.06,9.09c-3.49,1.62-11.35,2.68-11.35,2.68S269.43,62.7,271.6,50.7z"/>
			</g>
		</g>
		<g>
			<path d="M219.26,29.29c0,0-5.69-0.87-7.16,4.3c-1.48,5.17,1.97,8.62,1.97,8.62s-6.24,1.39-7.4,8.25
				c-1.16,6.86,9.16,7.75,9.16,7.75l25.54-4.16c0,0,2.7-7.54-2.13-13.19S219.26,29.29,219.26,29.29z"/>
		</g>
		<g>
			<path d="M291.17,51.94c-0.05,0-0.11-0.01-0.16-0.04l-9.28-4.98c-0.16-0.09-0.22-0.29-0.14-0.45c0.09-0.16,0.29-0.22,0.45-0.14
				l9.28,4.98c0.16,0.09,0.22,0.29,0.14,0.45C291.4,51.87,291.28,51.94,291.17,51.94z"/>
		</g>
		<g>
			<path d="M273.1,54.94c-0.15,0-0.28-0.1-0.32-0.25c-0.05-0.18,0.06-0.36,0.24-0.41c2.81-0.73,4.61-1.9,5.35-3.47
				c0.78-1.66,0.08-3.19,0.08-3.21c-0.08-0.17-0.01-0.36,0.16-0.44c0.17-0.08,0.36-0.01,0.44,0.16c0.03,0.07,0.83,1.84-0.08,3.77
				c-0.83,1.76-2.78,3.05-5.79,3.84C273.16,54.94,273.13,54.94,273.1,54.94z"/>
		</g>
		<g>
			<path class="st0" d="M265.08,70.94l6.28-13.97l12.51,0.44c0,0,4.84,35.25-10.47,42.43c-12.1,5.68-23.06-7.47-23.06-7.47
				L265.08,70.94z"/>
		</g>
		<g>
			
				<rect x="220.28" y="140.94" transform="matrix(-1 -1.224647e-16 1.224647e-16 -1 449.763 344.7051)" width="9.21" height="62.82"/>
		</g>
		<g>
			<path class="st0" d="M199.17,65.34c0,0-20.66,11.53-17.12,48.64c3.19,33.44,34.98,45.78,60.45,37.17
				c25.47-8.61,21.22-33.46,21.22-33.46L199.17,65.34z"/>
		</g>
		<g>
			<polygon points="263.99,76.81 251.36,55.03 241.36,75.95 255.16,88.41 			"/>
		</g>
		<g>
			<path d="M205.47,207.53h38.65c1.6,0,2.9-1.3,2.9-2.9c0-1.6-1.3-2.9-2.9-2.9h-38.65c-1.6,0-2.9,1.3-2.9,2.9
				C202.58,206.23,203.87,207.53,205.47,207.53z"/>
		</g>
		<g>
			<path d="M238.95,211.97c0,3.44,2.79,6.23,6.23,6.23c3.44,0,6.23-2.79,6.23-6.23c0-3.44-2.79-6.23-6.23-6.23
				C241.74,205.74,238.95,208.53,238.95,211.97z"/>
		</g>
		<g>
			<path d="M218.66,211.97c0,3.44,2.79,6.23,6.23,6.23c3.44,0,6.23-2.79,6.23-6.23c0-3.44-2.79-6.23-6.23-6.23
				C221.44,205.74,218.66,208.53,218.66,211.97z"/>
		</g>
		<g>
			<path d="M198.45,211.97c0,3.44,2.79,6.23,6.23,6.23c3.44,0,6.23-2.79,6.23-6.23c0-3.44-2.79-6.23-6.23-6.23
				C201.23,205.74,198.45,208.53,198.45,211.97z"/>
		</g>
		<g>
			<path d="M197.58,135.68c-0.07,0-0.15-0.03-0.21-0.08c-6.74-5.7-9.5-17.33-9.53-17.45c-0.04-0.17,0.07-0.35,0.24-0.39
				c0.18-0.04,0.35,0.07,0.39,0.24c0.03,0.12,2.74,11.53,9.31,17.09c0.14,0.12,0.15,0.32,0.04,0.46
				C197.77,135.64,197.68,135.68,197.58,135.68z"/>
		</g>
		<g>
			<path d="M233.59,47.44c0,0,12.92,1.18,17.78,7.59c4.85,6.41,3.6,47.96,3.26,48.52s-14.51,3.34-30.2,2.98
				c-15.69-0.36-15.62-1.24-16.14-2.1c-0.52-0.87-1.39-50.72,2.95-53.96C214.83,47.77,224.13,46.26,233.59,47.44z"/>
		</g>
		<g>
			<polygon class="st0" points="250.88,181.96 250.88,199.08 237.85,204.01 229.63,194.8 228.28,178.97 			"/>
		</g>
		<g>
			<ellipse transform="matrix(0.1241 -0.9923 0.9923 0.1241 63.8533 329.33)" cx="218.47" cy="128.5" rx="6.05" ry="19.38"/>
		</g>
		<g>
			<polygon class="st0" points="275.27,178.41 275.27,195.53 261.39,200.46 252.64,191.25 251.2,175.42 			"/>
		</g>
		<g>
			<path class="st0" d="M246.65,99.13c0,0,31.56,16.86,35.46,23.67s-0.07,62.04-0.07,62.04l-27.91,0.24l-4.02-30.9l-21.48-52.14
				L246.65,99.13z"/>
		</g>
		<g>
			<path class="st0" d="M208.43,102.44c0,0-1.2,14.82-0.72,19.69c0.48,4.87,15.1,16.41,15.1,16.41l0.96,47.47l32.27,1.69
				c0,0,0.42-54.24-0.14-59.35c-0.56-5.11-22.13-23.81-22.13-23.81L208.43,102.44z"/>
		</g>
		<g>
			<g>
				<g>
					<g>
						<path class="st0" d="M225.14,40.45l-0.43,8.63c0,0,1.43,2.56,6.46,3.22c3.75,0.49,5.2-0.88,5.2-0.88l-0.39-3.82l-0.31-4.29
							l-9.02-2.46L225.14,40.45z"/>
					</g>
				</g>
			</g>
		</g>
		<g>
			<g>
				<g>
					<g>
						<path d="M226.65,40.86c0.01,0.24,0.09,0.52,0.21,0.85c1.72,4.41,6.95,5.6,9.12,5.9l-0.31-4.29L226.65,40.86z"/>
					</g>
				</g>
			</g>
		</g>
		<g>
			<g>
				<g>
					<g>
						<path class="st0" d="M238.57,23.73c0,0,3.99,11.05,1.91,16.98c-2.08,5.93-7.52,4.62-10.74,3.24c-3.21-1.38-4.61-3.5-4.61-3.5
							s-3.14,0.84-5.01-2.15c-1.87-2.99-0.39-6.19,1.41-6.83c1.8-0.64,3.81,0.77,3.81,0.77L223.91,29
							C223.91,29,231.83,13.58,238.57,23.73z"/>
					</g>
				</g>
			</g>
		</g>
		<g>
			<path d="M237.21,37.34c-0.04,0-0.08-0.01-0.12-0.02c-0.17-0.06-0.25-0.25-0.19-0.42c0.75-1.94-0.57-4.19-0.59-4.21
				c-0.09-0.15-0.04-0.35,0.11-0.45c0.15-0.09,0.35-0.04,0.45,0.11c0.06,0.1,1.51,2.55,0.64,4.79
				C237.47,37.26,237.34,37.34,237.21,37.34z"/>
		</g>
		<g>
			<path d="M224.55,37.22c-0.09,0-0.19-0.04-0.25-0.12l-2.7-3.3c-0.11-0.14-0.09-0.34,0.05-0.46c0.14-0.11,0.34-0.09,0.46,0.05
				l2.7,3.3c0.11,0.14,0.09,0.34-0.05,0.46C224.7,37.2,224.63,37.22,224.55,37.22z"/>
		</g>
		<g>
			<path d="M221.52,36.17c-0.17,0-0.31-0.13-0.32-0.3c-0.01-0.18,0.12-0.34,0.3-0.35l2.04-0.16c0.17-0.01,0.34,0.12,0.35,0.3
				c0.01,0.18-0.12,0.34-0.3,0.35l-2.04,0.16C221.54,36.17,221.53,36.17,221.52,36.17z"/>
		</g>
		<g>
			<path d="M248.87,214.89c0,0,0.61-27.52,4.89-26.94c4.28,0.57,8.55,4.59,8.55,4.59s9.77-5.16,14.05-2.29
				c4.28,2.87,6.73,9.17,6.73,9.17l23.81,15.48c0,0,2.88,4.59,2.05,6.88c-0.65,1.79-36.86,0.79-52.74,0.26
				C252.11,221.89,248.87,218.74,248.87,214.89L248.87,214.89z"/>
		</g>
		<g>
			<path d="M261.15,208.19c0,0-5.97-14.61-9.82-17.13c-3.86-2.52-13.5,5.48-13.5,5.48s-8.07-8.5-10.06-4.04
				c-1.99,4.46-2.95,20.43-1.44,23.96c1.5,3.53,12.58,9.4,27.13,9.36c6.86-0.02,16.75-2.14,16.75-4.49
				C270.22,217.62,263.49,210.63,261.15,208.19z"/>
		</g>
		<g>
			<path d="M256.23,183.68c-0.2-0.01-0.34-0.17-0.33-0.34c0.03-0.51,2.81-50.67,1.57-56.55c-0.85-4.01-13.58-16.51-13.71-16.64
				c-0.09-0.09-0.12-0.21-0.08-0.33c0.04-0.12,0.14-0.2,0.26-0.22l9.18-1.5c0.17-0.03,0.34,0.09,0.37,0.27
				c0.03,0.18-0.09,0.35-0.27,0.37l-8.54,1.39c2.35,2.33,12.63,12.72,13.43,16.52c1.26,5.96-1.44,54.65-1.56,56.72
				C256.54,183.55,256.4,183.68,256.23,183.68z"/>
		</g>
		<g>
			<path class="st0" d="M231.62,96.56c0,0,7.56,4.14,9.15,4.11c1.59-0.03,7.32,0.01,7.69-1.16l-1.7-3.89c0,0,3,1.7,5.28,0.84
				c2.27-0.86,5.1-2.78,5.83-4.43c0.72-1.64-1.78-1.59-1.78-1.59s4.29-3.39,0.92-5.3c-3.37-1.9-19.72-3.94-26.57-0.69
				C223.58,87.7,231.62,96.56,231.62,96.56z"/>
		</g>
		<g>
			<path d="M222.81,138.87c-0.04,0-0.08-0.01-0.12-0.02c-0.13-0.05-0.21-0.18-0.2-0.32c0.04-1.1,0.36-6.64,2.16-7.29
				c0.55-0.2,1.14,0.05,1.75,0.73c1.24,1.39-2.57,5.9-3.35,6.79C222.99,138.83,222.9,138.87,222.81,138.87z M225.02,131.82
				c-0.05,0-0.1,0.01-0.15,0.03c-0.94,0.34-1.49,3.38-1.67,5.73c1.79-2.19,3.23-4.61,2.72-5.18
				C225.57,132.01,225.27,131.82,225.02,131.82z"/>
		</g>
		<g>
			<path d="M216.29,48.35c0,0-9.63,2.11-16.12,13.12c-6.85,11.62-6,22.84-6,22.84l21.14-2.03L216.29,48.35z"/>
		</g>
		<g>
			<path class="st0" d="M195.55,84.06c0,0-2.32,10.55,4.57,15.54c6.66,4.82,32.51-3.05,32.51-3.05l0.07-12.59l-18.76-1.52
				L195.55,84.06z"/>
		</g>
		<g>
			<path class="st0" d="M215.11,82.61c-0.19-0.01-0.33-0.16-0.33-0.34l0.17-5.96c0.01-0.18,0.15-0.32,0.33-0.32
				c0.19,0.01,0.33,0.16,0.33,0.34l-0.17,5.96C215.43,82.47,215.29,82.61,215.11,82.61z"/>
		</g>
		<g>
			<path class="st0" d="M248.87,83.07c-0.18,0-0.33-0.15-0.33-0.33V71.62c0-0.18,0.15-0.33,0.33-0.33c0.18,0,0.33,0.15,0.33,0.33
				v11.12C249.19,82.93,249.05,83.07,248.87,83.07z"/>
		</g>
		<g>
			<path class="st0" d="M247.02,208.52c-0.15,0-0.28-0.1-0.32-0.25c-0.04-0.17,0.06-0.35,0.24-0.39l5.95-1.45l-9.66-1.36
				c-0.15-0.02-0.27-0.15-0.28-0.3c-0.01-0.16,0.09-0.29,0.24-0.33l11.34-3c0.18-0.05,0.35,0.06,0.4,0.23
				c0.05,0.17-0.06,0.35-0.23,0.4l-9.78,2.59l9.74,1.38c0.15,0.02,0.27,0.15,0.28,0.31c0.01,0.16-0.1,0.3-0.25,0.33l-7.6,1.85
				C247.07,208.52,247.04,208.52,247.02,208.52z"/>
		</g>
		<g>
			<path class="st0" d="M284.48,207.85c-0.11,0-0.21-0.06-0.28-0.15c-0.07-0.11-0.07-0.25,0.01-0.36l2.26-3.31l-10.19,1.03
				c-0.15,0.01-0.28-0.07-0.33-0.2c-0.05-0.13-0.01-0.29,0.1-0.38l6.83-5.33c0.14-0.11,0.35-0.09,0.46,0.06
				c0.11,0.14,0.08,0.35-0.06,0.46l-5.94,4.63l9.76-0.99c0.12-0.01,0.25,0.05,0.31,0.16c0.06,0.11,0.06,0.25-0.01,0.35l-2.23,3.27
				l7.6-1.19c0.19-0.03,0.35,0.09,0.37,0.27c0.03,0.18-0.09,0.34-0.27,0.37l-8.34,1.31C284.52,207.85,284.5,207.85,284.48,207.85z"
				/>
		</g>
		<g>
			<path d="M256.08,90.77c-0.05,0-0.1-0.01-0.14-0.03c-3.54-1.69-7.52-1.61-7.57-1.61c-0.17,0.02-0.33-0.14-0.33-0.32
				c0-0.18,0.14-0.33,0.32-0.33c0.17-0.01,4.19-0.08,7.86,1.67c0.16,0.08,0.23,0.27,0.15,0.43C256.32,90.7,256.2,90.77,256.08,90.77
				z"/>
		</g>
		<g>
			<path d="M235.93,41.19c-1.15,0-2.18-1.23-2.23-1.28c-0.08-0.1-0.1-0.23-0.04-0.35c0.05-0.11,0.17-0.19,0.29-0.19h3.52
				c0.11,0,0.21,0.05,0.27,0.14c0.06,0.09,0.07,0.2,0.03,0.3c-0.02,0.05-0.55,1.32-1.78,1.36
				C235.97,41.19,235.95,41.19,235.93,41.19z M234.76,40.03c0.35,0.27,0.79,0.53,1.2,0.51c0.41-0.02,0.72-0.27,0.92-0.51H234.76z"/>
		</g>
		<g>
			<path d="M231.06,29.62c-0.08,0-0.17-0.03-0.23-0.1c-0.13-0.13-0.13-0.33,0-0.46c0.06-0.06,1.5-1.47,3.23-0.85
				c0.17,0.06,0.26,0.25,0.2,0.42c-0.06,0.17-0.25,0.26-0.42,0.2c-1.34-0.48-2.54,0.69-2.55,0.7
				C231.23,29.59,231.15,29.62,231.06,29.62z"/>
		</g>
		<g>
			<path d="M239.67,29.16c-0.09,0-0.17-0.03-0.24-0.1c-0.38-0.4-0.75-0.61-1.1-0.61c-0.39,0.02-0.62,0.23-0.63,0.24
				c-0.12,0.13-0.33,0.13-0.46,0c-0.13-0.12-0.13-0.33-0.01-0.46c0.02-0.02,0.43-0.44,1.09-0.44c0.54,0,1.08,0.27,1.59,0.81
				c0.12,0.13,0.12,0.34-0.01,0.46C239.84,29.13,239.75,29.16,239.67,29.16z"/>
		</g>
		<g>
			<path d="M232.63,32.98c-0.17,0-0.31-0.13-0.32-0.31l-0.11-2.02c-0.01-0.1,0.03-0.19,0.1-0.26l0.76-0.7
				c0.13-0.12,0.34-0.11,0.46,0.02c0.12,0.13,0.11,0.34-0.02,0.46l-0.65,0.6l0.1,1.87c0.01,0.18-0.13,0.33-0.31,0.34
				C232.65,32.98,232.64,32.98,232.63,32.98z"/>
		</g>
		<g>
			<path d="M238.61,32.93c-0.17,0-0.31-0.13-0.32-0.3l-0.15-2.02c-0.01-0.1,0.03-0.21,0.11-0.27l0.77-0.66
				c0.14-0.12,0.34-0.1,0.46,0.04c0.12,0.14,0.1,0.34-0.04,0.46l-0.65,0.55l0.14,1.85c0.01,0.18-0.12,0.34-0.3,0.35
				C238.63,32.93,238.62,32.93,238.61,32.93z"/>
		</g>
		<g>
			<path class="st0" d="M224.83,46.63c0,0-1.02,0.01-1.27,0.61c-0.25,0.6,1.41,12.45,4.24,14.05c2.82,1.59,7.17-7.36,7.28-7.17
				c0.11,0.19,4.69,5.35,5.3,5.35c0.61-0.01-0.7-5.19-1.8-7.86c-0.94-2.28-2.59-4-2.59-4s0.11,2.65,0,3.12
				c-0.11,0.47-2.98,2.11-6.19,0.88C225.19,49.84,224.83,46.63,224.83,46.63z"/>
		</g>
		<g>
			<path d="M225.35,32.23l1.94,2.53l-0.97-3.49c0,0,1.52,0.11,3.86-1.98c2.33-2.08,3.11-4.34,3.11-4.34s1.16,0.97,2.69,0.78
				c1.53-0.19,2.6-2,2.6-2l1.1,3.61c0,0,1.17-5.11,0-7.07c-1.17-1.95-2.64-1.62-2.64-1.62s0.03-1.78-3.08-2.11
				c-3.11-0.33-4.44,2.33-4.44,2.33s-1.69-1.56-4.95,0c-3.27,1.56-3.03,5-3.03,5s-3.24,1-3.57,3.56c-0.33,2.56,1.64,6.16,1.64,6.16
				S220.96,30.37,225.35,32.23z"/>
		</g>
	</g>
	<g>
		<g>
			<path d="M179.1,101.41h-13.59V79.35c0-3.75,3.04-6.79,6.79-6.79c3.75,0,6.79,3.04,6.79,6.79V101.41z"/>
		</g>
		<g>
			<rect x="169.72" y="68.05" width="5.17" height="7.63"/>
		</g>
		<g>
			<path class="st0" d="M175.45,69.01h-6.29c-1.01,0-1.84-0.82-1.84-1.84c0-1.01,0.82-1.84,1.84-1.84h6.29
				c1.01,0,1.84,0.82,1.84,1.84C177.28,68.19,176.46,69.01,175.45,69.01z"/>
		</g>
		<g>
			<path class="st0" d="M167.32,90.85c-0.18,0-0.33-0.15-0.33-0.33V78.18c0-0.18,0.15-0.33,0.33-0.33s0.33,0.15,0.33,0.33v12.34
				C167.65,90.7,167.5,90.85,167.32,90.85z"/>
		</g>
	</g>
	<g>
		<g>
			<path d="M314.4,101.5h-13.59V79.44c0-3.75,3.04-6.79,6.79-6.79c3.75,0,6.79,3.04,6.79,6.79V101.5z"/>
		</g>
		<g>
			<rect x="305.02" y="68.14" width="5.17" height="7.63"/>
		</g>
		<g>
			<path class="st0" d="M310.76,69.1h-6.29c-1.01,0-1.84-0.82-1.84-1.84c0-1.01,0.82-1.84,1.84-1.84h6.29
				c1.01,0,1.84,0.82,1.84,1.84C312.59,68.28,311.77,69.1,310.76,69.1z"/>
		</g>
		<g>
			<path class="st0" d="M302.63,90.94c-0.18,0-0.33-0.15-0.33-0.33V78.27c0-0.18,0.15-0.33,0.33-0.33c0.18,0,0.33,0.15,0.33,0.33
				v12.34C302.96,90.79,302.81,90.94,302.63,90.94z"/>
		</g>
	</g>
	<g>
		<g>
			<path class="st0" d="M243.28,98.2h41.15l11.75-26.58h-39.52c-0.99,0-1.88,0.58-2.28,1.48L243.28,98.2z"/>
		</g>
		<g>
			<path d="M246.85,98.2H288l10.49-23.72c0.59-1.35-0.39-2.86-1.86-2.86h-38.02L246.85,98.2z"/>
		</g>
		<g>
			<path d="M229.49,101.56h58.09c0.93,0,1.68-0.75,1.68-1.68c0-0.93-0.75-1.68-1.68-1.68h-58.09c-0.93,0-1.68,0.75-1.68,1.68
				C227.81,100.81,228.56,101.56,229.49,101.56z"/>
		</g>
		<g>
			<path class="st0" d="M269.26,84.91c0,1.93,1.56,3.49,3.49,3.49c1.93,0,3.49-1.56,3.49-3.49c0-1.93-1.56-3.49-3.49-3.49
				C270.83,81.42,269.26,82.98,269.26,84.91z"/>
		</g>
	</g>
	<g>
		<path class="st0" d="M162.99,238.13h-2.73c-2.26,0-4.09-1.83-4.09-4.09V106.52h10.92v127.52
			C167.08,236.3,165.25,238.13,162.99,238.13z"/>
	</g>
	<g>
		<path class="st0" d="M297.41,238.22h-2.73c-2.26,0-4.09-1.83-4.09-4.09V106.61h10.92v127.52
			C301.51,236.39,299.67,238.22,297.41,238.22z"/>
	</g>
	<g>
		<path class="st0" d="M430.87,108.42H67.01c-1.96,0-3.55-1.59-3.55-3.55s1.59-3.55,3.55-3.55h363.87c1.96,0,3.55,1.59,3.55,3.55
			S432.84,108.42,430.87,108.42z"/>
	</g>
	<g>
		<g>
			<path class="st0" d="M98.86,98.24H140l11.75-26.58h-39.52c-0.99,0-1.88,0.58-2.28,1.48L98.86,98.24z"/>
		</g>
		<g>
			<path d="M102.43,98.24h41.15l10.49-23.72c0.59-1.35-0.39-2.86-1.86-2.86h-38.02L102.43,98.24z"/>
		</g>
		<g>
			<path class="st0" d="M124.84,84.95c0,1.93,1.56,3.49,3.49,3.49c1.93,0,3.49-1.56,3.49-3.49c0-1.93-1.56-3.49-3.49-3.49
				C126.41,81.45,124.84,83.02,124.84,84.95z"/>
		</g>
		<g>
			<path d="M85.07,101.59h58.09c0.93,0,1.68-0.75,1.68-1.68c0-0.93-0.75-1.68-1.68-1.68H85.07c-0.93,0-1.68,0.75-1.68,1.68
				C83.39,100.84,84.14,101.59,85.07,101.59z"/>
		</g>
	</g>
	<g>
		<g>
			<path class="st0" d="M387.81,98.32h-41.15l-11.75-26.58h39.52c0.99,0,1.88,0.58,2.28,1.48L387.81,98.32z"/>
		</g>
		<g>
			<path d="M384.24,98.32h-41.15L332.61,74.6c-0.59-1.35,0.39-2.86,1.86-2.86h38.02L384.24,98.32z"/>
		</g>
		<g>
			<path d="M401.61,101.68h-58.09c-0.93,0-1.68-0.75-1.68-1.68c0-0.93,0.75-1.68,1.68-1.68h58.09c0.93,0,1.68,0.75,1.68,1.68
				C403.29,100.92,402.53,101.68,401.61,101.68z"/>
		</g>
		<g>
			<path class="st0" d="M361.83,85.03c0,1.93-1.56,3.49-3.49,3.49c-1.93,0-3.49-1.56-3.49-3.49c0-1.93,1.56-3.49,3.49-3.49
				C360.27,81.53,361.83,83.1,361.83,85.03z"/>
		</g>
	</g>
	<g>
		<g>
			<path class="st0" d="M38.44,84.24c0,0-1.42,9.91,3.09,18.07c4.51,8.17,38.11,2.58,38.11,2.58l2.34-9.78l-19.51-6.04l-0.15-1.57
				C62.32,87.51,49.6,85.63,38.44,84.24z"/>
		</g>
		<g>
			<path class="st0" d="M81.98,95.12c0,0,5.62,0.88,9.01,1.89c3.39,1.01,8.66,2.17,10.88,1.59c2.22-0.58,2.46,0.35,1.87,1.65
				c-0.58,1.3-3.16,1.99-3.16,1.99s2.69,10.77,1.64,11.66c-1.05,0.88-4.1-2.52-4.1-2.52s-0.58,0.76-1.4,0.88s-1.99-0.38-1.99-0.38
				s-0.31,1.01-1.74,1.26s-2.36-0.5-2.36-0.5s-0.82,1.8-1.76,1.41c-0.94-0.4-5.15-1.66-4.91-2.92c0.23-1.26,3.74-1.01,3.74-1.01
				l0.47-2.14c0,0-3.63,2.77-7.02,0.88c-3.39-1.89-3.03-6.62-3.03-6.62L81.98,95.12z"/>
		</g>
		<g>
			<path d="M98.13,111.7c-0.08,0-0.15-0.03-0.21-0.08c-0.14-0.12-0.16-0.33-0.04-0.47c2.48-2.98-0.73-8.79-0.76-8.85
				c-0.09-0.16-0.03-0.36,0.13-0.45c0.16-0.09,0.36-0.03,0.45,0.13c0.14,0.25,3.47,6.27,0.69,9.6
				C98.32,111.66,98.22,111.7,98.13,111.7z"/>
		</g>
		<g>
			<path d="M94.74,112.2c-0.07,0-0.15-0.02-0.21-0.07c-0.14-0.11-0.17-0.32-0.05-0.47c1.49-1.87,0.37-4.76,0.36-4.79
				c-0.07-0.17,0.02-0.36,0.19-0.43c0.17-0.07,0.36,0.02,0.43,0.19c0.05,0.13,1.27,3.27-0.46,5.45
				C94.93,112.16,94.83,112.2,94.74,112.2z"/>
		</g>
		<g>
			<path d="M90.64,112.96c-0.1,0-0.19-0.04-0.26-0.12c-0.11-0.14-0.09-0.35,0.05-0.47c1.59-1.28,1.38-4.09,1.37-4.12
				c-0.02-0.18,0.12-0.34,0.3-0.36c0.19-0.01,0.34,0.12,0.36,0.3c0.01,0.13,0.25,3.19-1.62,4.69
				C90.79,112.94,90.71,112.96,90.64,112.96z"/>
		</g>
	</g>
	<path class="st2" d="M89.04,198.45c0,0-5.45,4.26-3.35,25.12"/>
	<path class="st2" d="M44.62,109.6c0,0-4.26,24.34,19.91,23.66"/>
</g>
<g id="Layer_2">
	<line class="st3" x1="36.62" y1="83.89" x2="62.32" y2="87.98"/>
	<line class="st3" x1="91.43" y1="95.3" x2="104.02" y2="68.91"/>
	<path class="st3" d="M38.44,84.24c0,0-1.65,20.59,7.2,20.59"/>
	<path class="st3" d="M35.94,82.87c0,0,1.87-32.34,25.53-30.3"/>
	<path class="st3" d="M92.62,94.11c0,0,4.94,3.57,6.98,4.94"/>
	<path class="st3" d="M195.55,84.06c0,0-5.06,21.36,17.41,16.25"/>
	<path class="st2" d="M229.55,190.7c0,0-8.17,14.81-2.04,26.3"/>
	<path class="st2" d="M251.33,191.06c0,0,6.82,6.53,10.4,19.04c0,0,5.36,2.81,9.45,12"/>
	<line class="st3" x1="222.91" y1="186.11" x2="255.85" y2="186.62"/>
	<path class="st3" d="M223.77,186.01l-0.72-47.26c-7.26-3.18-15.2-14.44-15.2-14.44l-0.77-15.83"/>
	<path class="st3" d="M263,184.06l19.03,0.77c0.91-7.91,1.65-53.88,1.65-53.88c3.83-10.98-20.17-22.72-20.17-22.72"/>
	<path class="st3" d="M349.3,168.49l61.39-0.72l0.37-22.94c0,0,16.22-10.6,15.91-16.7l-0.68-20.8l-48.39,1.42"/>
	<path class="st3" d="M224.83,46.63c0,0,2.94,5.44,8.81,3.65"/>
	<path class="st0" d="M235.98,47.61"/>
	<path class="st3" d="M396.28,55.64c0,0,5.87,3.83,9.96-2.3"/>
</g>
</svg>
