<?xml version="1.0" encoding="utf-8"?>
<!-- Generator: Adobe Illustrator 25.0.0, SVG Export Plug-In . SVG Version: 6.00 Build 0)  -->
<svg version="1.1" id="Layer_1" xmlns="http://www.w3.org/2000/svg" xmlns:xlink="http://www.w3.org/1999/xlink" x="0px" y="0px"
	 viewBox="0 0 116.29 134.28" style="enable-background:new 0 0 116.29 134.28;" xml:space="preserve">
<style type="text/css">
	.st0{fill:#FFFFFF;}
	.st1{fill:none;stroke:#000000;stroke-width:0.342;stroke-miterlimit:10;}
</style>
<path class="st0" d="M41.64,61.36c0,0,2.5-25.92,11.79-30.37c9.29-4.46,24.32,0.13,24.32,0.13l-0.68,34.66L41.64,61.36z"/>
<path class="st1" d="M41.64,61.36c0,0,2.5-25.92,11.79-30.37c9.29-4.46,24.32,0.13,24.32,0.13l-0.68,34.66L41.64,61.36z"/>
<path d="M69.55,7.58c0,0,10.59,17.02-3.71,18.87S69.55,7.58,69.55,7.58"/>
<path d="M92.14,54.49c1.05-0.84,23.05-4,22.2,26.78s-35.28,48.42-73.08,41.78s-2.02-50.78-2.02-50.78L92.14,54.49z"/>
<polygon class="st0" points="25.48,102.08 26.13,109.37 40.09,109.37 40.09,101.11 "/>
<polygon class="st1" points="25.48,102.08 26.13,109.37 40.09,109.37 40.09,101.11 "/>
<polygon class="st0" points="50.25,105.44 51.66,112.74 67.02,109.09 64.34,101.11 "/>
<polygon class="st1" points="50.25,105.44 51.66,112.74 67.02,109.09 64.34,101.11 "/>
<path class="st0" d="M47.59,59.84c0,0-20.14-4.9-25.66,3.61c-5.52,8.5,2.2,40.94,2.2,40.94h18.54L47.59,59.84z"/>
<path class="st1" d="M47.59,59.84c0,0-20.14-4.9-25.66,3.61c-5.52,8.5,2.2,40.94,2.2,40.94h18.54L47.59,59.84z"/>
<path class="st0" d="M90.25,67.32c0,0,5.06,15.55-3.33,18.68s-25.8,3.23-25.8,3.23l7.85,13.85l-25.24,7.48
	c0,0-20.96-37.86-8.2-47.95s39.61,4.6,39.61,4.6L90.25,67.32z"/>
<path class="st1" d="M90.25,67.32c0,0,5.06,15.55-3.33,18.68s-25.8,3.23-25.8,3.23l7.85,13.85l-25.24,7.48
	c0,0-20.96-37.86-8.2-47.95s39.61,4.6,39.61,4.6L90.25,67.32z"/>
<path class="st0" d="M25.09,105.41c0,0-4.82,5.69-5.94,6.23s-12.79,4.48-15.03,6.68s-2.4,6.51-1.76,6.92s39.05,0,39.05,0l0.4-18.55
	L25.09,105.41z"/>
<path class="st1" d="M25.09,105.41c0,0-4.82,5.69-5.94,6.23s-12.79,4.48-15.03,6.68s-2.4,6.51-1.76,6.92s39.05,0,39.05,0l0.4-18.55
	L25.09,105.41z"/>
<path class="st0" d="M49.39,109.62c0,0-1.96,7.62-3.54,8.42s-8.38,5.07-12.07,8.95c-3.1,3.25,0,5.12,0,5.12h21.4l18.4-13.53
	l-6.57-14.07L49.39,109.62z"/>
<path class="st1" d="M49.39,109.62c0,0-1.96,7.62-3.54,8.42s-8.38,5.07-12.07,8.95c-3.1,3.25,0,5.12,0,5.12h21.4l18.4-13.53
	l-6.57-14.07L49.39,109.62z"/>
<path class="st0" d="M65.75,23.14l0.86,5.5c0,0-0.87,1.79-4.47,2.71c-2.68,0.69-3.71,0.32-3.71,0.32l-0.06-2.85l-0.05-2.78
	l6.36-2.47L65.75,23.14z"/>
<path class="st1" d="M65.75,23.14l0.86,5.5c0,0-0.87,1.79-4.47,2.71c-2.68,0.69-3.71,0.32-3.71,0.32l-0.06-2.85l-0.05-2.78
	l6.36-2.47L65.75,23.14z"/>
<path class="st0" d="M54.59,12.3c0,0-1.93,8.33,0.08,12.43c2.02,4.1,5.83,2.69,8.04,1.41c2.2-1.27,3.03-2.92,3.03-2.92
	s2.34,0.34,3.44-1.99c1.09-2.32-0.25-4.51-1.61-4.81s-2.69,0.88-2.69,0.88l0.76-2.46C65.64,14.84,58.59,4.38,54.59,12.3"/>
<path class="st1" d="M54.59,12.3c0,0-1.93,8.33,0.08,12.43c2.02,4.1,5.83,2.69,8.04,1.41c2.2-1.27,3.03-2.92,3.03-2.92
	s2.34,0.34,3.44-1.99c1.09-2.32-0.25-4.51-1.61-4.81s-2.69,0.88-2.69,0.88l0.76-2.46C65.64,14.84,58.59,4.38,54.59,12.3z"/>
<path d="M56.74,22c-0.09,0-0.17-0.05-0.21-0.13c-0.82-1.54,0.01-3.42,0.05-3.5c0.05-0.12,0.2-0.17,0.31-0.12
	c0.12,0.05,0.17,0.19,0.12,0.31c-0.01,0.02-0.77,1.75-0.06,3.08c0.06,0.12,0.02,0.26-0.1,0.32C56.81,21.99,56.78,22,56.74,22"/>
<path d="M65.84,20.82c-0.04,0-0.09-0.01-0.13-0.04c-0.11-0.07-0.14-0.22-0.07-0.33l1.66-2.61c0.07-0.11,0.22-0.14,0.33-0.07
	s0.14,0.22,0.07,0.33l-1.66,2.61C65.99,20.79,65.92,20.82,65.84,20.82"/>
<path d="M66.45,19.87c-0.13,0-0.23-0.1-0.24-0.23c-0.01-0.13,0.1-0.24,0.23-0.25l1.48-0.06c0.12,0,0.24,0.1,0.25,0.23
	s-0.1,0.24-0.23,0.25L66.45,19.87L66.45,19.87z"/>
<path d="M54.94,56.89c-0.07,0-0.14-0.03-0.19-0.09c-0.02-0.02-1.8-2.4-3.21-5.9c-2.18-5.41-0.1-13.19-0.01-13.52
	c0.03-0.13,0.16-0.2,0.29-0.17c0.13,0.04,0.2,0.17,0.17,0.29c-0.02,0.08-2.13,7.96-0.01,13.22c1.39,3.44,3.13,5.77,3.15,5.79
	c0.08,0.11,0.06,0.25-0.05,0.33C55.04,56.87,54.99,56.89,54.94,56.89"/>
<path d="M58.73,23.29c0.34,0.14,0.84,0.25,1.25-0.06c0.38-0.3,0.59-0.71,0.7-1.04L58.73,23.29z M59.36,23.91
	c-0.66,0-1.24-0.39-1.27-0.41c-0.07-0.05-0.11-0.12-0.1-0.21c0-0.08,0.05-0.15,0.12-0.2l2.8-1.57c0.08-0.04,0.17-0.04,0.25,0.01
	s0.12,0.13,0.11,0.22c-0.01,0.05-0.12,1.18-1.01,1.86C59.97,23.83,59.66,23.91,59.36,23.91"/>
<path d="M60.46,15.47c-0.07,0-0.14-0.03-0.19-0.09c-0.48-0.62-1.38-0.25-1.42-0.23c-0.12,0.05-0.26-0.01-0.31-0.13
	c-0.05-0.12,0-0.26,0.12-0.31c0.05-0.02,1.27-0.53,1.98,0.37c0.08,0.1,0.06,0.25-0.04,0.33C60.56,15.46,60.51,15.47,60.46,15.47"/>
<path d="M54.39,15.73c-0.05,0-0.1-0.02-0.15-0.05c-0.1-0.08-0.12-0.23-0.04-0.33c0.02-0.03,0.54-0.69,1.21-0.73
	c0.33-0.03,0.64,0.1,0.91,0.37c0.09,0.09,0.09,0.24,0,0.34c-0.09,0.09-0.24,0.1-0.34,0c-0.17-0.17-0.35-0.25-0.54-0.23
	c-0.46,0.03-0.86,0.54-0.87,0.55C54.53,15.7,54.46,15.73,54.39,15.73"/>
<path d="M55.35,18.94c-0.13,0-0.23-0.1-0.24-0.23l-0.06-1.36l-0.59-0.5c-0.1-0.08-0.11-0.24-0.03-0.34s0.24-0.11,0.33-0.03
	l0.67,0.57c0.05,0.04,0.08,0.1,0.08,0.17l0.07,1.46c0.01,0.13-0.1,0.24-0.23,0.25h0V18.94z"/>
<path d="M59.66,18.47c-0.12,0-0.23-0.1-0.24-0.22l-0.09-1.35l-0.85-0.57c-0.11-0.07-0.14-0.22-0.07-0.33
	c0.07-0.11,0.22-0.14,0.33-0.07l0.95,0.63c0.06,0.04,0.1,0.11,0.11,0.18l0.09,1.46c0.01,0.13-0.09,0.24-0.22,0.25
	C59.67,18.47,59.66,18.47,59.66,18.47"/>
<path d="M64.57,17.24c0,0-3.87-0.52-5.52-3.1c-1.65-2.58-1.56-3.81-1.56-3.81s-1.91,1.11-2.58,2.55c-0.68,1.44-0.79,2.21-0.79,2.21
	s-0.64-3.1-0.31-4.05s2.13-6.27,9.55-5.62C74.62,6.41,70.04,15.54,64.57,17.24"/>
<path class="st0" d="M65.96,52.24c0,0-0.34-0.15-1.8-0.67c-1.38-0.49-6.36-0.12-6.36-0.12s-4.33,0.64-7.94,2.07
	c-3.61,1.43-3.12,3.06-3.12,3.06s-2.32,1.22-1.46,2.25s4.56,0.4,4.56,0.4s-4.71,1.33-2.91,2.52c1.8,1.19,7.8-0.75,7.8-0.75
	s8.89,4.12,12.16,1.23C70.13,59.36,65.96,52.24,65.96,52.24"/>
<path class="st1" d="M65.96,52.24c0,0-0.34-0.15-1.8-0.67c-1.38-0.49-6.36-0.12-6.36-0.12s-4.33,0.64-7.94,2.07
	c-3.61,1.43-3.12,3.06-3.12,3.06s-2.32,1.22-1.46,2.25s4.56,0.4,4.56,0.4s-4.71,1.33-2.91,2.52c1.8,1.19,7.8-0.75,7.8-0.75
	s8.89,4.12,12.16,1.23C70.13,59.36,65.96,52.24,65.96,52.24z"/>
<path class="st0" d="M64.06,51.01l-3.63,14.5c0,0,23.61,18.56,33.48,4.01c9.86-14.55-8.49-36.36-16.2-38.4"/>
<path class="st1" d="M64.06,51.01l-3.63,14.5c0,0,23.61,18.56,33.48,4.01c9.86-14.55-8.49-36.36-16.2-38.4"/>
<path d="M56.96,82.8c-0.23,0-0.46,0.07-0.69,0.2c-0.36,0.2-0.54,0.46-0.55,0.77c-0.02,1.43,3.24,3.8,5.01,4.93
	c-0.41-1.43-1.61-5.08-3.25-5.79C57.31,82.84,57.14,82.8,56.96,82.8 M61.12,89.46c-0.04,0-0.08-0.01-0.12-0.03
	c-0.59-0.35-5.78-3.52-5.76-5.66c0.01-0.49,0.27-0.89,0.79-1.18c0.54-0.31,1.1-0.34,1.64-0.11c2.25,0.97,3.62,6.45,3.68,6.69
	c0.02,0.09-0.01,0.19-0.09,0.25C61.22,89.44,61.17,89.46,61.12,89.46"/>
<path d="M81.72,53.27c-0.03,0-0.06,0-0.09-0.02c-5.01-1.94-15.08-1.62-15.18-1.61c-0.12,0.01-0.24-0.1-0.25-0.23
	c0-0.13,0.1-0.24,0.23-0.25c0.42-0.01,10.28-0.33,15.37,1.65c0.12,0.05,0.18,0.18,0.14,0.31C81.91,53.21,81.82,53.27,81.72,53.27"/>
<path d="M80.07,49.34c-1.33,0-3.47,1.05-4.9,1.88c3.17-0.46,5.78-1.15,5.82-1.55c0,0-0.01-0.04-0.11-0.12
	C80.67,49.4,80.4,49.34,80.07,49.34 M74.08,51.84c-0.1,0-0.19-0.06-0.22-0.16c-0.04-0.1,0-0.22,0.09-0.28
	c0.55-0.36,5.45-3.49,7.2-2.25c0.32,0.23,0.34,0.47,0.3,0.62c-0.28,1.1-5.69,1.86-7.34,2.06C74.1,51.84,74.09,51.84,74.08,51.84"/>
<path class="st0" d="M46.97,61.5H16.82L8.21,42h28.96c0.72,0,1.38,0.43,1.67,1.09L46.97,61.5z"/>
<path class="st1" d="M46.97,61.5H16.82L8.21,42h28.96c0.72,0,1.38,0.43,1.67,1.09L46.97,61.5z"/>
<path class="st0" d="M44.36,61.5H14.22L6.54,44.1C6.11,43.11,6.83,42,7.9,42h27.85L44.36,61.5z"/>
<path class="st1" d="M44.36,61.5H14.22L6.54,44.1C6.11,43.11,6.83,42,7.9,42h27.85L44.36,61.5z"/>
<path class="st0" d="M57.03,63.95H14.51c-0.68,0-1.23-0.56-1.23-1.26c0-0.7,0.55-1.26,1.23-1.26h42.52c0.68,0,1.23,0.57,1.23,1.26
	C58.26,63.39,57.71,63.95,57.03,63.95"/>
<path class="st1" d="M57.03,63.95H14.51c-0.68,0-1.23-0.56-1.23-1.26c0-0.7,0.55-1.26,1.23-1.26h42.52c0.68,0,1.23,0.57,1.23,1.26
	C58.26,63.39,57.71,63.95,57.03,63.95z"/>
<path d="M46.77,56.82c-0.08,0-0.16-0.04-0.21-0.12c-0.07-0.11-0.03-0.26,0.09-0.32c0.03-0.02,3.14-1.8,7.07-2.92
	c0.13-0.03,0.26,0.04,0.29,0.16c0.04,0.13-0.04,0.26-0.16,0.29c-3.88,1.1-6.93,2.85-6.96,2.87C46.85,56.81,46.81,56.82,46.77,56.82"
	/>
<path d="M49.41,59.35c-0.08,0-0.15-0.04-0.2-0.11c-0.07-0.11-0.04-0.26,0.07-0.33s2.68-1.77,5.09-1.98
	c0.13-0.01,0.25,0.09,0.26,0.22c0.01,0.13-0.08,0.25-0.22,0.26c-2.29,0.2-4.84,1.88-4.87,1.9C49.5,59.33,49.45,59.35,49.41,59.35"/>
<path class="st0" d="M89.7,109.58c-0.08,0-0.16-0.04-0.21-0.12c-0.07-0.11-0.03-0.26,0.08-0.33c9.95-5.95,13.91-14.9,13.95-14.99
	c0.05-0.12,0.19-0.18,0.31-0.12c0.12,0.05,0.18,0.19,0.12,0.31c-0.04,0.09-4.06,9.17-14.14,15.21
	C89.78,109.56,89.74,109.58,89.7,109.58"/>
<path d="M66.57,9.37c0,0,4.01-10.83,8.67-6.53c4.65,4.3-4.33,11.28-4.33,11.28L66.57,9.37z"/>
</svg>
