<?xml version="1.0" encoding="utf-8"?>
<!-- Generator: Adobe Illustrator 25.0.0, SVG Export Plug-In . SVG Version: 6.00 Build 0)  -->
<svg version="1.1" id="Layer_1" xmlns="http://www.w3.org/2000/svg" xmlns:xlink="http://www.w3.org/1999/xlink" x="0px" y="0px"
	 viewBox="0 0 48.8 62.1" style="enable-background:new 0 0 48.8 62.1;" xml:space="preserve">
<style type="text/css">
	.st0{fill:#1E2244;}
	.st1{clip-path:url(#SVGID_2_);}
</style>
<path class="st0" d="M12.1,60.9c-2.6,0.9-5.3-1.1-5.3-3.8V41.6c0-1-0.4-1.9-1-2.7c-1.4-1.8-2.5-3.7-3.3-5.8c-1-2.6-1.5-5.4-1.5-8.4
	C1,18.1,3.3,12.5,7.8,8c4.5-4.5,10.1-6.8,16.6-6.8S36.5,3.4,41,8c4.5,4.5,6.8,10.1,6.8,16.6c0,3-0.5,5.8-1.5,8.4
	c-0.8,2.2-1.9,4.1-3.3,5.8c-0.6,0.8-1,1.7-1,2.7v15.5c0,2.7-2.7,4.7-5.3,3.8l-11-3.7c-0.8-0.3-1.7-0.3-2.5,0L12.1,60.9L12.1,60.9z
	 M24.4,42.2c4.9,0,9-1.7,12.4-5.1c3.4-3.4,5.1-7.6,5.1-12.5s-1.7-9-5.1-12.4S29.3,7,24.4,7s-9,1.7-12.4,5.1s-5.1,7.6-5.1,12.4
	s1.7,9,5.1,12.5S19.5,42.2,24.4,42.2z"/>
<g>
	<defs>
		<rect id="SVGID_1_" x="13.1" y="12.7" width="22" height="22"/>
	</defs>
	<clipPath id="SVGID_2_">
		<use xlink:href="#SVGID_1_"  style="overflow:visible;"/>
	</clipPath>
	<g class="st1">
		<path class="st0" d="M17.2,34.7l2.6-8.4l-6.7-5.4h8.4l2.6-8.2l2.6,8.2H35l-6.8,5.4l2.6,8.4l-6.7-5.2L17.2,34.7z"/>
	</g>
</g>
</svg>
