<?xml version="1.0" encoding="utf-8"?>
<!-- Generator: Adobe Illustrator 25.0.0, SVG Export Plug-In . SVG Version: 6.00 Build 0)  -->
<svg version="1.1" xmlns="http://www.w3.org/2000/svg" xmlns:xlink="http://www.w3.org/1999/xlink" x="0px" y="0px"
	 viewBox="0 0 335.38 304" style="enable-background:new 0 0 335.38 304;" xml:space="preserve">
<style type="text/css">
	.st0{fill:#FFFFFF;}
	.st1{fill:#FFFFFF;stroke:#000000;stroke-width:0.5;stroke-miterlimit:10;}
	.st2{fill:none;stroke:#000000;stroke-width:0.5;stroke-miterlimit:10;}
</style>
<g id="Layer_1">
	<g>
		<g>
			<path d="M251.06,105.69H105.58c-2.57,0-4.64-2.08-4.64-4.64V19.36c0-2.57,2.08-4.64,4.64-4.64h145.49c2.57,0,4.64,2.08,4.64,4.64
				v81.68C255.71,103.61,253.63,105.69,251.06,105.69z"/>
		</g>
		<g>
			<path class="st0" d="M245.27,105.69H99.79c-2.57,0-4.64-2.08-4.64-4.64V19.36c0-2.57,2.08-4.64,4.64-4.64h145.49
				c2.57,0,4.64,2.08,4.64,4.64v81.68C249.92,103.61,247.84,105.69,245.27,105.69z"/>
		</g>
		<g>
			<path d="M255.62,106.47H94.75c-1.55,0-2.81-1.26-2.81-2.81c0-1.55,1.26-2.81,2.81-2.81h160.87c1.55,0,2.81,1.26,2.81,2.81
				C258.43,105.21,257.17,106.47,255.62,106.47z"/>
		</g>
		<g>
			<path d="M134.94,100.85h-26.6c0-5.69,4.62-10.31,10.31-10.31h5.98C130.33,90.54,134.94,95.15,134.94,100.85L134.94,100.85z"/>
		</g>
		<g>
			<path d="M221.34,100.94h-26.98c-0.78,0-1.41-0.63-1.41-1.41c0-0.78,0.63-1.41,1.41-1.41h26.98c0.78,0,1.41,0.63,1.41,1.41
				C222.75,100.31,222.12,100.94,221.34,100.94z"/>
		</g>
		<g>
			<rect x="132.43" y="60.73" width="7.9" height="21.7"/>
		</g>
		<g>
			<rect x="204.73" y="27.55" width="7.9" height="54.88"/>
		</g>
		<g>
			<rect x="150.5" y="49.56" width="7.9" height="32.79"/>
		</g>
		<g>
			<rect x="168.58" y="40.13" width="7.9" height="42.22"/>
		</g>
		<g>
			<rect x="186.65" y="33.43" width="7.9" height="49.1"/>
		</g>
	</g>
	<g>
		<path class="st0" d="M217.05,81.13c0,0-2.23-9.94-4.96-10.14c-2.73-0.2-0.59,8-0.59,8l-7.4-2.83c0,0-8.42-2.35-10.1-1.62
			c-1.67,0.73,1.08,3.46,1.08,3.46s-6-1.8-5.16,1.12c0.84,2.92,4.94,4.61,4.94,4.61s-5.86-2.08-4.54,1.35
			c0.72,1.85,13.61,9.66,22.29,9.38s5.22-6.98,5.22-6.98L217.05,81.13z"/>
	</g>
	<g>
		<path d="M198.11,85.62c-0.1,0-0.2-0.04-0.27-0.12c-0.13-0.15-0.11-0.37,0.04-0.5l7.46-6.37c0.15-0.13,0.37-0.11,0.5,0.04
			c0.13,0.15,0.11,0.37-0.04,0.5l-7.46,6.37C198.27,85.59,198.19,85.62,198.11,85.62z"/>
	</g>
	<g>
		<path d="M213.78,89.25c-0.13-0.01-2.65-0.23-3.83-2.3c-0.97-1.72-0.7-4.13,0.81-7.19c0.09-0.17,0.3-0.25,0.47-0.16
			c0.17,0.09,0.25,0.3,0.16,0.47c-1.4,2.83-1.68,5.03-0.83,6.53c0.99,1.75,3.22,1.94,3.24,1.94c0.19,0.02,0.34,0.18,0.32,0.38
			C214.12,89.11,213.96,89.25,213.78,89.25z"/>
	</g>
	<g>
		<path d="M274.14,40.16c0,0,9.94-7.7,18.42-2.46c8.48,5.25,5.21,16.23,5.21,16.23s10.53,2.88,12.05,16.26
			c1.52,13.38-11.2,15.91-11.2,15.91l-18.28-10.83L274.14,40.16z"/>
	</g>
	<g>
		<path class="st0" d="M303.46,248.42c0,0-40.81-9.57-45.57-40.43c-5.85-37.95,4.52-56.55,4.52-56.55l26.66,31.82l8,38.46
			l10.54,7.63l5.87,12.43L303.46,248.42z"/>
	</g>
	<g>
		<g>
			<path d="M325.37,226.1c-0.09-1.5-1.43-2.67-3.04-2.65c-6.36,0.08-20.62-0.53-20.61,0.63c0.02,1.48,4.26,16.29,4.26,16.29
				s-8.81,0.53-7.15,6.64c1.27,4.69,6.94,10.07,9.51,12.32c0.82,0.71,1.39,1.63,1.66,2.64c1.15,4.37,4.89,16.38,11.36,16.47
				c7.91,0.11,6.97-3.05,6.95-4.53C328.29,272.65,326.01,236.35,325.37,226.1z"/>
		</g>
	</g>
	<g>
		<path class="st0" d="M275.36,183.27c0,0,2.34,73.93,5.47,81.75c3.13,7.82,20.26,0,20.26,0l4.05-80.11L275.36,183.27z"/>
	</g>
	<g>
		<path class="st0" d="M257.89,132.3c0,0-2.9,24.68-2.9,43.08c0,18.4-1.43,38.6,0,40.39c1.43,1.8,15.63,7.82,32.79,6.48
			c17.16-1.35,22.31-7.39,22.03-9.53s-2.29-3.95-2.29-3.95s1.14-53.2-3.43-67.43C299.51,127.11,280,124,280,124h-20.99L257.89,132.3
			z"/>
	</g>
	<g>
		<path class="st0" d="M287.33,127.95c0,0-20.39,1.25-28.57-2.74l0.48-24.5c0,0,4.44-31.38,10.82-32.05c6.38-0.67,12,0.18,12,0.18
			l22.48,29.31L287.33,127.95z"/>
	</g>
	<g>
		<g>
			<path d="M299.38,285.8c1.51-0.01,2.74-1.28,2.81-2.89c0.26-6.35,1.63-20.57,0.47-20.61c-1.48-0.06-16.49,3.38-16.49,3.38
				s-0.06-8.82-6.25-7.49c-4.75,1.02-10.43,6.4-12.81,8.84c-0.76,0.78-1.7,1.3-2.73,1.51c-4.42,0.91-16.62,4.01-17.06,10.47
				c-0.53,7.89,2.67,7.12,4.15,7.18C252.74,286.24,289.11,285.9,299.38,285.8z"/>
		</g>
	</g>
	<g>
		<g>
			<path class="st0" d="M284.13,124.05c0,0-15.46,2.56-18.51,5.37c-3.05,2.81,4.35,13.61,6.26,15.36c1.9,1.75,15.47-7.13,15.47-7.13
				l1.96-7.75L284.13,124.05z"/>
		</g>
	</g>
	<g>
		<g>
			<path class="st0" d="M265.62,129.42c0,0-6.46,9.23-5.39,13.04c1.07,3.81,8.85-7.97,8.85-7.97L265.62,129.42z"/>
		</g>
	</g>
	<g>
		<g>
			<path class="st0" d="M277,142.22c0,0,8-1.13,6.42,1.77c-1.58,2.9-10.13,2.4-11.55,0.79c-1.41-1.61,3.05-5.99,3.05-5.99
				L277,142.22z"/>
		</g>
	</g>
	<g>
		<path d="M278.03,143.12c-0.14,0-0.28-0.09-0.33-0.23c-0.07-0.18,0.02-0.38,0.2-0.45l1.7-0.65l-1.32-0.97
			c-0.16-0.12-0.19-0.34-0.07-0.49c0.12-0.16,0.34-0.19,0.49-0.07l1.83,1.36c0.1,0.08,0.16,0.2,0.14,0.33
			c-0.02,0.13-0.1,0.24-0.22,0.28l-2.3,0.88C278.12,143.11,278.08,143.12,278.03,143.12z"/>
	</g>
	<g>
		<path d="M266.55,137.5c-0.04,0-0.09-0.01-0.13-0.02c-0.18-0.07-0.27-0.27-0.2-0.46c0.15-0.38,1.46-3.74,2.26-4.42
			c0.15-0.13,0.37-0.11,0.5,0.04c0.13,0.15,0.11,0.37-0.04,0.5c-0.5,0.42-1.52,2.76-2.05,4.14
			C266.82,137.41,266.69,137.5,266.55,137.5z"/>
	</g>
	<g>
		<path d="M268.99,141.4c-0.05,0-0.11-0.01-0.16-0.04c-0.17-0.09-0.24-0.3-0.15-0.47l2.78-5.49c0.09-0.17,0.3-0.24,0.47-0.15
			c0.17,0.09,0.24,0.3,0.15,0.47l-2.78,5.49C269.25,141.33,269.12,141.4,268.99,141.4z"/>
	</g>
	<g>
		<path d="M266.1,55.71c0,0-2.93-3.33-2-8.42c0.63-3.45,2.18-4.55,2.18-4.55s-2.28-4.75,4.69-4.37c6.97,0.38,11.03,3.87,11.03,3.87
			s3.21-1.52,4.59,2.22c1.38,3.74-0.13,9.2-0.13,9.2L266.1,55.71z"/>
	</g>
	<g>
		<g>
			<g>
				<g>
					<path class="st0" d="M281.33,61.68L281,70.19c0,0-1.63,2.39-6.63,2.6c-3.72,0.16-4.82-1.79-4.82-1.79l1.19-7.41l9.07-1.63
						L281.33,61.68z"/>
				</g>
			</g>
		</g>
	</g>
	<g>
		<g>
			<g>
				<g>
					<path d="M281.34,61.16c-0.03,0.23-0.13,0.5-0.28,0.81c-2.07,4.18-8.84,5.69-10.99,5.79l0.67-4.19L281.34,61.16z"/>
				</g>
			</g>
		</g>
	</g>
	<g>
		<g>
			<g>
				<g>
					<path class="st0" d="M269.6,44.1c0,0-4.89,10.5-3.36,16.5c1.53,6,6.98,5.19,10.26,4.11c3.28-1.08,4.83-3.03,4.83-3.03
						s3.01,1.1,5.11-1.67c2.1-2.77,0.92-6.04-0.79-6.83c-1.72-0.78-3.81,0.42-3.81,0.42l1.69-3.05
						C283.53,50.55,277.11,34.72,269.6,44.1z"/>
				</g>
			</g>
		</g>
	</g>
	<g>
		<g>
			<g>
				<g>
					<path d="M281.84,53.6c0,0-4.58,0.86-7.67-4.26c-3.1-5.12-2.78-7.2-2.78-7.2l-3.23,5.2c0,0-0.66-3.64,0.83-5.94
						c1.49-2.3,2.99-1.8,2.99-1.8L282,42.24l2.54,8.1L281.84,53.6z"/>
				</g>
			</g>
		</g>
	</g>
	<g>
		<path d="M269.78,57.6c-0.15,0-0.29-0.1-0.34-0.25c-0.67-2.29,0.98-4.57,1.05-4.67c0.12-0.16,0.33-0.19,0.49-0.08
			c0.16,0.11,0.19,0.33,0.08,0.49c-0.02,0.02-1.51,2.11-0.94,4.06c0.05,0.19-0.05,0.38-0.24,0.44
			C269.84,57.6,269.81,57.6,269.78,57.6z"/>
	</g>
	<g>
		<path d="M282.22,58.59c-0.09,0-0.18-0.03-0.25-0.1c-0.14-0.14-0.14-0.36-0.01-0.5l2.93-3.01c0.14-0.14,0.36-0.14,0.5-0.01
			c0.14,0.14,0.14,0.36,0.01,0.5l-2.93,3.01C282.4,58.56,282.31,58.59,282.22,58.59z"/>
	</g>
	<g>
		<path d="M285.28,57.83c-0.02,0-0.04,0-0.06,0l-1.99-0.34c-0.19-0.03-0.32-0.21-0.29-0.41c0.03-0.19,0.21-0.32,0.41-0.29l1.99,0.34
			c0.19,0.03,0.32,0.21,0.29,0.41C285.6,57.71,285.45,57.83,285.28,57.83z"/>
	</g>
	<g>
		<path d="M267.86,48.89c-0.17,0-0.32-0.12-0.35-0.3c-0.03-0.19,0.1-0.37,0.29-0.4l1.89-0.3c0.2-0.03,0.37,0.1,0.4,0.29
			c0.03,0.19-0.1,0.37-0.29,0.4l-1.89,0.3C267.9,48.88,267.88,48.89,267.86,48.89z"/>
	</g>
	<g>
		<path d="M275.67,50.23c-0.06,0-0.11-0.01-0.16-0.04l-3.07-1.61c-0.17-0.09-0.24-0.3-0.15-0.47c0.09-0.17,0.31-0.24,0.47-0.15
			l3.07,1.61c0.17,0.09,0.24,0.3,0.15,0.47C275.92,50.16,275.8,50.23,275.67,50.23z"/>
	</g>
	<g>
		<path d="M267.8,53.24c-0.04,0-0.07-0.01-0.11-0.02c-0.19-0.06-0.29-0.26-0.23-0.44l0.56-1.73l-0.46-0.58
			c-0.12-0.15-0.1-0.37,0.06-0.49c0.15-0.12,0.37-0.1,0.49,0.06l0.58,0.73c0.07,0.09,0.1,0.21,0.06,0.33L268.13,53
			C268.08,53.15,267.94,53.24,267.8,53.24z"/>
	</g>
	<g>
		<path d="M273.15,53.83c-0.04,0-0.07-0.01-0.11-0.02c-0.19-0.06-0.29-0.26-0.23-0.44l0.56-1.72l-0.68-0.81
			c-0.12-0.15-0.1-0.37,0.05-0.5c0.15-0.12,0.37-0.1,0.5,0.04l0.8,0.96c0.08,0.09,0.1,0.22,0.06,0.33l-0.62,1.91
			C273.44,53.74,273.3,53.83,273.15,53.83z"/>
	</g>
	<g>
		<path class="st0" d="M282.07,68.84c0,0,40.05,4.7,39.52,44.31c-0.33,24.28-33.06,31.55-33.06,31.55l-10.11-25.01l16.88-9.65
			L282.07,68.84z"/>
	</g>
	<g>
		<path class="st0" d="M278.98,268.3c-0.15,0-0.29-0.1-0.33-0.25c-0.06-0.18,0.04-0.38,0.23-0.44l7.19-2.27
			c0.18-0.06,0.38,0.04,0.44,0.23c0.06,0.18-0.04,0.38-0.23,0.44l-7.19,2.27C279.05,268.29,279.01,268.3,278.98,268.3z"/>
	</g>
	<g>
		<path class="st0" d="M309.82,247.21c-0.12,0-0.24-0.06-0.3-0.17l-3.85-6.49c-0.1-0.17-0.04-0.38,0.12-0.48
			c0.16-0.1,0.38-0.04,0.48,0.12l3.85,6.49c0.1,0.17,0.04,0.38-0.12,0.48C309.94,247.19,309.88,247.21,309.82,247.21z"/>
	</g>
	<g>
		<path d="M283.14,117.34c-0.11,0-0.21-0.05-0.28-0.14c-0.12-0.15-0.09-0.38,0.07-0.49c0.43-0.33,10.64-8.08,14.73-9.53
			c0.18-0.07,0.38,0.03,0.45,0.21c0.07,0.18-0.03,0.38-0.21,0.45c-3.98,1.41-14.43,9.35-14.54,9.43
			C283.29,117.31,283.21,117.34,283.14,117.34z"/>
	</g>
	<g>
		<path d="M292.56,110.53c-0.04,0-0.09-0.01-0.13-0.02c-0.13-0.05-0.22-0.18-0.22-0.32c-0.01-0.63-0.08-6.21,1.7-7.36
			c0.3-0.2,0.81-0.36,1.49-0.04c0.55,0.26,0.89,0.7,0.99,1.26c0.39,2.23-3.17,5.95-3.58,6.37
			C292.74,110.49,292.65,110.53,292.56,110.53z M294.65,103.31c-0.16,0-0.28,0.06-0.36,0.11c-1.05,0.67-1.33,3.91-1.37,5.86
			c1.2-1.37,3.02-3.77,2.78-5.1c-0.06-0.34-0.25-0.58-0.6-0.75C294.91,103.34,294.77,103.31,294.65,103.31z"/>
	</g>
	<g>
		<path d="M273.62,73.18c-3.18,0-4.32-1.92-4.37-2.01c-0.1-0.17-0.04-0.38,0.13-0.48c0.17-0.1,0.38-0.04,0.48,0.13
			c0.04,0.08,1.17,1.93,4.49,1.62c3.15-0.29,6.43-2.51,6.46-2.54c0.16-0.11,0.38-0.07,0.49,0.09c0.11,0.16,0.07,0.38-0.09,0.49
			c-0.14,0.1-3.46,2.35-6.79,2.66C274.13,73.16,273.87,73.18,273.62,73.18z"/>
	</g>
	<g>
		<path class="st0" d="M210.21,96.47c0,0,8.82,12.14,25.22,13.98c16.4,1.84,26.55-7.14,26.55-7.14l7.1-34.47
			c0,0-16.23,8.13-29.88,13.34c-8.04,3.07-21.23-3.42-21.23-3.42L210.21,96.47z"/>
	</g>
	<g>
		<path d="M240.11,91.64c-0.44,0-0.82-0.16-1.12-0.47c-1.71-1.78-0.3-8.33-0.13-9.07c0.03-0.14,0.15-0.25,0.29-0.27
			c0.15-0.02,0.29,0.05,0.36,0.18c0.35,0.64,3.35,6.33,2.24,8.64c-0.25,0.52-0.69,0.85-1.29,0.96
			C240.34,91.63,240.23,91.64,240.11,91.64z M239.35,83.23c-0.43,2.32-0.9,6.35,0.15,7.45c0.21,0.22,0.48,0.3,0.84,0.23
			c0.38-0.07,0.62-0.25,0.78-0.57C241.81,88.9,240.34,85.28,239.35,83.23z"/>
	</g>
	<g>
		<path d="M271.75,60.19c-0.11,0-0.18-0.01-0.19-0.01c-0.19-0.03-0.32-0.22-0.28-0.41c0.03-0.19,0.2-0.32,0.4-0.29
			c0.04,0.01,1.03,0.13,1.96-1.42c0.1-0.17,0.32-0.22,0.48-0.12c0.17,0.1,0.22,0.32,0.12,0.48
			C273.29,60.02,272.19,60.19,271.75,60.19z"/>
	</g>
	<g>
		<polygon class="st1" points="92.88,252.09 92.88,263.46 113.54,262.66 113.54,252.09 		"/>
	</g>
	<g>
		<polygon class="st1" points="45.19,250.81 45.19,262.18 64.31,261.38 64.31,250.81 		"/>
	</g>
	<g>
		<path d="M86.72,125.53c0,0,14.9,24.45,23.74,63.6c8.06,35.71,9.79,65.24,9.79,65.24H85.4c0,0-3.88-29.11-4.91-40.63
			c-1.03-11.52-4.47-26.94-4.47-26.94s-4.78,66.45-5.92,67.57c-1.14,1.12-34.5,0.25-34.14-1.28c0.36-1.53,10.54-111.73,11.45-118.99
			C50.18,111.76,86.72,125.53,86.72,125.53z"/>
	</g>
	<g>
		<g>
			<g>
				<g>
					<path d="M69.06,280.96c0,2.01-0.65,4.3-1.98,4.88s-12.11,1.78-21.55,0.93c-9.03-0.82-10.91-1.51-11.57-2.36
						c-0.33-0.43,0.31-2.44,1.04-4.38c0.05-0.1,0.08-0.21,0.12-0.3c0.37-0.98,0.76-1.93,1.04-2.6c0.28-0.64,0.62-1.25,1.02-1.85
						c0.98-1.4,2.91-4.28,3.41-5.78c0.65-1.99,1.64-6.29,2.31-8.31c0.67-1.99,2.29-2.41,2.29-2.41s18.57-1.32,19.91-0.16
						c1.32,1.14,1.98,10.61,1.98,12.03v1.43c0,1.33,0.88,3.96,1.46,6.15c0.15,0.55,0.28,1.06,0.37,1.52
						C69,280.23,69.06,280.63,69.06,280.96z"/>
				</g>
			</g>
		</g>
	</g>
	<g>
		<path d="M146.78,285.06c-1.24,0.53-53.95,2.02-55.18,0c-0.37-0.61-0.64-2.68-0.81-5.28c-0.43-6.13-0.43-15.24-0.43-15.24
			s-0.39-3.11-0.31-4.56c0.06-1.43,25.42-0.88,25.42-0.88l16.48,13.46c0,0,4.52-0.83,9.46,0c2.62,0.43,4.31,3.75,5.14,6.88
			C147.3,282.22,147.36,284.8,146.78,285.06z"/>
	</g>
	<g>
		<path class="st0" d="M146.78,285.06c-1.24,0.53-53.95,2.02-55.18,0c-0.37-0.61-0.64-2.68-0.81-5.28
			c10.02,0.74,34.68,2.13,55.77-0.34C147.3,282.22,147.36,284.8,146.78,285.06z"/>
	</g>
	<g>
		<path class="st0" d="M69.06,280.96c0,2.01-0.65,4.3-1.98,4.88s-12.11,1.78-21.55,0.93c-9.03-0.82-10.91-1.51-11.57-2.36
			c-0.33-0.43,0.31-2.44,1.04-4.38c8.38,0.66,23.52,1.25,33.54-1.8c0.15,0.55,0.28,1.06,0.37,1.52
			C69,280.23,69.06,280.63,69.06,280.96z"/>
	</g>
	<g>
		<path class="st0" d="M76.02,187.15c-0.22-0.02-0.37-0.18-0.35-0.38c0.01-0.14,1.1-14.45,1.41-20.79c0.31-6.33,0.33-9.37,0.33-9.4
			c0-0.14,0.08-0.26,0.2-0.32l11.29-5.21c0.17-0.08,0.38,0,0.47,0.17c0.08,0.18,0,0.39-0.17,0.47l-11.09,5.11
			c-0.01,0.81-0.06,3.82-0.33,9.21c-0.32,6.35-1.4,20.67-1.41,20.81C76.36,187.01,76.21,187.15,76.02,187.15z"/>
	</g>
	<g>
		<path class="st0" d="M45.67,268.68c-0.15,0-0.3-0.1-0.34-0.26c-0.05-0.19,0.06-0.38,0.24-0.43c0.3-0.08,7.48-2.06,11.27-1.38
			l2.42,0.43c-1.97-1.52-6.28-4.43-8.93-3.26c-0.18,0.08-0.38,0-0.46-0.18c-0.08-0.18,0-0.38,0.18-0.46
			c3.92-1.74,10.45,3.97,10.73,4.22c0.12,0.1,0.15,0.27,0.08,0.42c-0.07,0.14-0.22,0.22-0.38,0.19l-3.76-0.67
			c-3.64-0.65-10.89,1.35-10.96,1.37C45.73,268.67,45.7,268.68,45.67,268.68z"/>
	</g>
	<g>
		<path class="st0" d="M128,269.68c-0.04,0-9.43-1-9.43-1c-0.13-0.01-0.24-0.1-0.29-0.22c-0.05-0.12-0.03-0.26,0.05-0.36l3.28-3.99
			c0.12-0.15,0.35-0.17,0.5-0.05c0.15,0.12,0.17,0.34,0.05,0.49l-2.86,3.49l8.75,0.93c0.19,0.02,0.33,0.19,0.31,0.39
			C128.33,269.55,128.18,269.68,128,269.68z"/>
	</g>
	<g>
		<path class="st0" d="M47.89,150.22c-0.11,0-0.22-0.05-0.29-0.15c-0.11-0.16-0.08-0.38,0.08-0.49c5.81-4.2,7.33-10.31,7.35-10.37
			c0.05-0.19,0.24-0.3,0.42-0.26c0.19,0.04,0.31,0.23,0.26,0.42c-0.06,0.26-1.59,6.42-7.62,10.78
			C48.04,150.2,47.96,150.22,47.89,150.22z"/>
	</g>
	<g>
		<path class="st0" d="M62.27,69.97c0,0-10.28-0.04-15.83,5.56c-5.55,5.6-0.88,60.4-0.88,60.4s18.93,0.34,29.67,0
			c7.82-0.25,15.57-3.75,15.57-3.75S82.4,77.56,79.52,72.17C76.63,66.78,62.27,69.97,62.27,69.97z"/>
	</g>
	<g>
		<path class="st0" d="M78.69,71.11c0,0,5.88,2.57,14.19,16.08c7.61,12.36,8.69,23.78,5.18,30.81c-3.51,7.02-15.29,6.83-15.29,6.83
			L78.69,71.11z"/>
	</g>
	<g>
		<path d="M63.65,47.74c0,0,8.37,0.74,9.18-7.28c0.85-8.54-7.04-9.69-10.54-6.36c-3.51,3.33-3.03,6.87-3.03,6.87
			s-2.26-2.21-4.92,0.28c-1.96,1.83-1.11,4.98-1.11,4.98s-4.32-0.34-4.07,3.45c0.25,3.79,2.87,5.82,2.87,5.82L63.65,47.74z"/>
	</g>
	<g>
		<g>
			<path class="st0" d="M55.38,62.24l0.51,8.95c0,0,1.76,2.48,7.02,2.61c3.92,0.1,5.24-0.86,5.24-0.86l-0.8-4.5l-0.79-4.39
				l-9.57-1.54L55.38,62.24z"/>
		</g>
	</g>
	<g>
		<g>
			<path d="M56.99,62.5c0.04,0.24,0.15,0.53,0.31,0.85c2.26,4.36,7.79,5.01,10.05,5.08l-0.79-4.39L56.99,62.5z"/>
		</g>
	</g>
	<g>
		<g>
			<path class="st0" d="M67.39,43.53c0,0,5.33,10.95,3.84,17.29s-7.25,5.59-10.71,4.52c-3.47-1.07-5.14-3.1-5.14-3.1
				s-3.15,1.21-5.4-1.67c-2.26-2.88-1.08-6.34,0.71-7.2c1.79-0.86,4.01,0.37,4.01,0.37l-1.83-3.17
				C52.86,50.58,59.32,33.81,67.39,43.53z"/>
		</g>
	</g>
	<g>
		<path d="M54.62,58.6c-0.06,0-0.13-0.02-0.19-0.06l-4.2-2.67c-0.16-0.1-0.21-0.32-0.11-0.48c0.1-0.16,0.32-0.21,0.48-0.11l4.2,2.67
			c0.16,0.1,0.21,0.32,0.11,0.48C54.85,58.54,54.73,58.6,54.62,58.6z"/>
	</g>
	<g>
		<path d="M50.94,58.75c-0.15,0-0.29-0.1-0.33-0.24c-0.06-0.18,0.04-0.38,0.23-0.44l2.62-0.83c0.19-0.06,0.38,0.04,0.44,0.23
			c0.06,0.19-0.04,0.38-0.23,0.44l-2.62,0.83C51.01,58.75,50.97,58.75,50.94,58.75z"/>
	</g>
	<g>
		<path d="M60.15,48.67c-0.07,0-0.14-0.02-0.2-0.06c-0.16-0.11-0.2-0.33-0.09-0.49c1.12-1.64,2.75-1.44,3.46-1.11
			c0.18,0.08,0.25,0.29,0.17,0.47c-0.08,0.18-0.29,0.25-0.47,0.17c-0.07-0.03-1.53-0.67-2.58,0.87
			C60.37,48.62,60.26,48.67,60.15,48.67z"/>
	</g>
	<g>
		<path d="M68.8,47.76c-0.07,0-0.15-0.02-0.21-0.07c-0.99-0.73-1.95-0.11-1.99-0.09c-0.16,0.11-0.38,0.06-0.49-0.1
			c-0.11-0.16-0.06-0.38,0.1-0.49c0.06-0.04,1.4-0.92,2.8,0.11c0.16,0.11,0.19,0.33,0.08,0.49C69.02,47.71,68.91,47.76,68.8,47.76z"
			/>
	</g>
	<g>
		<path d="M67.19,57.86c-0.03,0-0.05,0-0.08-0.01c-0.19-0.04-0.31-0.23-0.26-0.42c0.78-3.3-1.07-5.58-1.09-5.6
			c-0.12-0.15-0.1-0.37,0.04-0.5c0.15-0.12,0.37-0.1,0.49,0.04c0.09,0.1,2.1,2.56,1.23,6.21C67.5,57.75,67.35,57.86,67.19,57.86z"/>
	</g>
	<g>
		<path d="M69.01,52.06c-0.15,0-0.28-0.09-0.33-0.24L68,49.8c-0.06-0.18,0.04-0.38,0.22-0.45c0.18-0.06,0.38,0.04,0.45,0.22
			l0.68,2.02c0.06,0.18-0.04,0.38-0.22,0.45C69.08,52.06,69.04,52.06,69.01,52.06z"/>
	</g>
	<g>
		<path d="M63.35,52.49c-0.15,0-0.28-0.09-0.33-0.24l-0.68-2.02c-0.06-0.18,0.04-0.38,0.22-0.45c0.18-0.06,0.38,0.04,0.45,0.22
			l0.68,2.02c0.06,0.18-0.04,0.38-0.22,0.45C63.42,52.49,63.39,52.49,63.35,52.49z"/>
	</g>
	<g>
		<path d="M68.48,46.01c0,0-1.07-1.74-3.31-1.63c-2.23,0.11-3.45,1.76-3.45,1.76s1.19,3.7-1.73,5.87c-2.92,2.17-5.3,1.74-5.3,1.74
			l-2.25-0.66l-1.8-3.13l5.98-7.23l8-4.82l4.42,3.58L68.48,46.01z"/>
	</g>
	<g>
		<path class="st0" d="M55.98,70.76c0,0-15.28-1.72-23.74,13.3c-7.18,12.75-6.82,24.34-6.82,24.34l23.8-3.45L55.98,70.76z"/>
	</g>
	<g>
		<path class="st0" d="M25.42,108.39c0,0,0.46,18.41,15.28,16.25C57.52,122.2,64.21,88.6,64.21,88.6l5.02-3.2c0,0-0.96,4.1,3.06,1.9
			c4.02-2.21,3.22-6.35,3.22-6.35l-4.7-8.34c0,0,6.94-6.68,4.89-7.02c-3.17-0.52-13.04,6.31-13.04,6.31s0.54-4.12-1.75-3.43
			c-2.48,0.74-3.35,8.32-3.35,8.32l-26.38,30.19L25.42,108.39z"/>
	</g>
	<g>
		<path d="M69.22,85.75c-0.1,0-0.2-0.04-0.27-0.12c-0.1-0.12-0.11-0.3-0.02-0.43l1.84-2.68c0.11-0.16,0.33-0.2,0.49-0.09
			c0.16,0.11,0.2,0.33,0.09,0.49l-1.09,1.59l1.57-0.76c0.18-0.09,0.39-0.01,0.47,0.16c0.08,0.17,0.01,0.39-0.16,0.47l-2.76,1.34
			C69.33,85.74,69.28,85.75,69.22,85.75z"/>
	</g>
	<g>
		<path d="M69.01,74.21c-0.11,0-0.22-0.05-0.29-0.15c-0.11-0.16-0.07-0.38,0.09-0.49l1.79-1.25c0.16-0.11,0.38-0.07,0.49,0.09
			c0.11,0.16,0.07,0.38-0.09,0.49l-1.79,1.25C69.15,74.19,69.08,74.21,69.01,74.21z"/>
	</g>
	<g>
		<path class="st0" d="M56.05,76.97l10.84,13.58c0,0-4.17,26.14-17.18,34.27s-25.15-3.44-24.29-16.43
			C26.28,95.41,56.05,76.97,56.05,76.97z"/>
	</g>
	<g>
		<path d="M65.47,60.74c-0.05,0-0.11-0.01-0.16-0.04l-2.12-1.11c-0.17-0.09-0.24-0.3-0.15-0.47c0.09-0.17,0.3-0.24,0.47-0.15
			l2.12,1.11c0.17,0.09,0.24,0.3,0.15,0.47C65.72,60.67,65.6,60.74,65.47,60.74z"/>
	</g>
	<g>
		<path d="M62.64,72.25c-0.08,0-0.16-0.03-0.23-0.08c-0.12-0.1-0.16-0.27-0.09-0.41c0.01-0.02,0.98-2.26-0.46-3.79
			c-0.22-0.23-0.38-0.22-0.48-0.2c-0.85,0.19-1.92,2.58-2.39,4.04c-0.06,0.18-0.26,0.29-0.44,0.23c-0.18-0.06-0.29-0.26-0.23-0.44
			c0.14-0.42,1.39-4.16,2.91-4.51c0.29-0.07,0.72-0.05,1.15,0.41c1.12,1.19,1.08,2.66,0.88,3.6l2.98-1.92
			c0.16-0.11,0.38-0.06,0.49,0.11c0.1,0.16,0.06,0.38-0.11,0.49l-3.79,2.44C62.78,72.23,62.71,72.25,62.64,72.25z"/>
	</g>
	<g>
		<path class="st0" d="M46.59,89.31c0,0-5.95-0.1-8.7,1.06c-2.75,1.15-7.86,8.29-7.03,9.35c0.84,1.06,2.68,0,2.68,0
			s-1,2.61,1.34,2.54C37.23,102.18,46.59,89.31,46.59,89.31z"/>
	</g>
	<g>
		<path d="M92.8,99.78c-0.06,0-0.12-0.02-0.17-0.05c-7.6-4.34-25.55-4.94-25.73-4.95c-0.19-0.01-0.35-0.17-0.34-0.36
			c0.01-0.19,0.17-0.36,0.36-0.34c0.74,0.02,18.31,0.61,26.06,5.04c0.17,0.1,0.23,0.31,0.13,0.48
			C93.04,99.72,92.92,99.78,92.8,99.78z"/>
	</g>
	<g>
		<path d="M91.16,123.79c-0.2-0.02-17.45-1.64-31.83-8.24c-0.18-0.08-0.25-0.29-0.17-0.47c0.08-0.18,0.29-0.25,0.47-0.17
			c14.27,6.55,31.4,8.16,31.57,8.18c0.19,0.02,0.34,0.19,0.32,0.38C91.5,123.65,91.34,123.79,91.16,123.79z"/>
	</g>
	<g>
		<path d="M66.89,90.91c-0.11,0-0.21-0.05-0.28-0.14l-10.56-13.9l-6.9,8.74c-0.12,0.15-0.34,0.18-0.49,0.06
			c-0.15-0.12-0.18-0.34-0.06-0.49l7.18-9.1c0.07-0.08,0.17-0.13,0.28-0.13c0.11,0,0.21,0.05,0.28,0.14l10.84,14.26
			c0.12,0.15,0.09,0.38-0.07,0.49C67.03,90.88,66.96,90.91,66.89,90.91z"/>
	</g>
	<g>
		<path d="M83.46,96.12c-1.75,0-3.64-0.15-4.8-0.26c-0.16-0.02-0.28-0.13-0.31-0.29c-0.03-0.15,0.05-0.31,0.19-0.38
			c0.27-0.13,6.6-3.23,8.83-1c0.45,0.45,0.41,0.81,0.31,1.03C87.35,95.92,85.49,96.12,83.46,96.12z M80.09,95.27
			c3.63,0.26,6.74,0.12,6.96-0.35c0,0-0.02-0.08-0.17-0.23C85.61,93.42,82.22,94.4,80.09,95.27z"/>
	</g>
	<g>
		<path d="M58.29,73.23c-1.78-0.24-2.51-1.68-2.66-2.41c-0.04-0.19,0.09-0.37,0.28-0.41c0.19-0.04,0.37,0.08,0.41,0.27
			c0.01,0.07,0.35,1.62,2.02,1.84c0.19,0.03,0.33,0.2,0.3,0.4C58.61,73.1,58.46,73.23,58.29,73.23z"/>
	</g>
	<g>
		<path d="M33.38,100.22c-0.08,0-0.16-0.03-0.23-0.09c-0.15-0.13-0.16-0.35-0.03-0.5l5.14-5.88c0.13-0.15,0.35-0.16,0.5-0.03
			c0.15,0.13,0.16,0.35,0.03,0.5l-5.14,5.88C33.58,100.18,33.48,100.22,33.38,100.22z"/>
	</g>
	<g>
		<path class="st0" d="M171.29,221.37c0,0-31.03-33.95-27.93-35.48c3.1-1.53,15.64,13.31,15.64,13.31s-14.18-24.69-11.96-25.69
			c2.21-1,25.84,39.64,25.84,39.64s-7.23-45.4-4.59-46.19c2.63-0.79,10.68,45.25,10.68,45.25s6.2-36.98,9.19-35.05
			c2.99,1.93-2.9,34.24-2.9,34.24s13.18-26.5,12.69-22.48c-0.49,4.01-5.58,23.46-5.58,23.46s21.74-33.75,21.14-28.27
			c-0.6,5.49-19.74,38.22-19.74,38.22L171.29,221.37z"/>
	</g>
	<g>
		<g>
			<path d="M196.26,256.14l-23.1-0.29c-1.25-0.02-2.29-0.92-2.4-2.09l-3.12-33.7c-0.12-1.35,1.02-2.5,2.46-2.48l30.17,0.38
				c1.44,0.02,2.55,1.2,2.39,2.54l-3.95,33.62C198.57,255.28,197.51,256.16,196.26,256.14z"/>
		</g>
	</g>
	<g>
		<g>
			<path d="M191.14,256.08l-23.1-0.29c-1.25-0.02-2.29-0.92-2.4-2.09l-3.12-33.7c-0.12-1.35,1.02-2.5,2.46-2.48l30.17,0.38
				c1.44,0.02,2.55,1.2,2.39,2.54l-3.95,33.62C193.46,255.21,192.4,256.09,191.14,256.08z"/>
		</g>
	</g>
</g>
<g id="Layer_2">
	<path class="st2" d="M43.13,127.64c0,0,14.68-1.66,23.87-36.89"/>
	<path class="st2" d="M33.55,100.19c0,0-0.77,3.7,3.19,1.4l11.62-14.43"/>
	<path class="st2" d="M31.51,100.06c0,0-1.79-0.26,0.13-2.17c0,0,3.96-9.96,13.91-8.43"/>
	<line class="st2" x1="58.06" y1="73.64" x2="57.04" y2="77.47"/>
	<path class="st2" d="M68.53,68.28c0,0,5.11-3.06,8.04-3.19c0,0-0.13,2.68-4.98,7.28"/>
	<path class="st2" d="M71.6,73.64l3.96,7.53c0,0,0,6.26-5.36,6.89c0,0-1.61-0.27-0.77-1.91"/>
	<line class="st2" x1="68.53" y1="85.77" x2="64.96" y2="88.57"/>
	<path class="st2" d="M217.89,78.79c0,0,13.14,8.56,27.01,1.71c12.41-6.12,9.65-5.6,23.88-12.09"/>
	<path class="st2" d="M218.23,79.47l-8,17.19c0,0,17.87,25.19,48.68,9.36l-0.51,19.06c0,0,5.45,2.89,11.06,2.38"/>
	<path class="st2" d="M278.66,120.49l9.7,24c0,0,24.51-3.4,32.85-24.51"/>
	<path class="st2" d="M307.6,79.98c0,0,16.68,12.6,14.3,37.79"/>
	<path class="st2" d="M257.38,217c0,0,33.7,14.81,52.09-2.55"/>
	<line class="st2" x1="277.3" y1="223.13" x2="279.51" y2="258.53"/>
	<line class="st2" x1="303.17" y1="218.53" x2="300.79" y2="263.13"/>
	<path class="st2" d="M262.32,220.4c0,0,4.94,9.87,16,17.36"/>
	<path class="st2" d="M279.3,125.34c0,0-9.49,1.78-13.68,4.08"/>
	<path class="st2" d="M265.26,130.32c0,0-6.38,8.04-4.6,13.02c0,0,0.26,0.77,6.13-4.98l0.64-0.38l3.45,6.13c0,0,2.94,3.19,7.91,1.66
		c0,0,4.85,0.51,4.72-2.81l-3.7-0.13l6.26-4.21"/>
	<path class="st2" d="M210.36,94.32c0,0-14.68-2.04-19.91-10.09c0,0-0.26-2.55,3.96-0.38c0,0-6-2.94-4.21-5.49
		c0,0,1.66-2.55,5.62,0.26c0,0-3.96-2.55-1.4-3.83c0,0,4.85-1.28,10.09,2.3"/>
	<path class="st2" d="M211.89,70.96c0,0,2.68,0.13,5.11,10.09"/>
	<path class="st1" d="M35.34,279.81l-1.53,2.68c0,0-1.4,2.43,4.21,3.19c0,0,23.74,4.34,30.51-0.77c0,0,1.4-3.19-0.13-6"/>
	<path class="st1" d="M91,280.83c0,0-0.89,5.11,1.91,5.11c0,0,49.53,0.64,53.62-0.77c0,0,2.3-1.02-0.13-5.11"/>
</g>
</svg>
