<?xml version="1.0" encoding="utf-8"?>
<!-- Generator: Adobe Illustrator 25.0.0, SVG Export Plug-In . SVG Version: 6.00 Build 0)  -->
<svg version="1.1" xmlns="http://www.w3.org/2000/svg" xmlns:xlink="http://www.w3.org/1999/xlink" x="0px" y="0px"
	 viewBox="0 0 187.39 211.06" style="enable-background:new 0 0 187.39 211.06;" xml:space="preserve">
<style type="text/css">
	.st0{fill:#FFFFFF;}
	.st1{fill:#050505;}
	.st2{fill:#FFFFFF;stroke:#000000;stroke-width:0.5;stroke-miterlimit:10;}
	.st3{fill:none;stroke:#FFFFFF;stroke-width:0.5;stroke-miterlimit:10;}
	.st4{fill:none;stroke:#000000;stroke-width:0.5;stroke-miterlimit:10;}
</style>
<g id="Layer_1">
	<g>
		<g>
			<path d="M158.97,169.57c-0.73,0-1.44-0.37-1.84-1.04c-0.62-1.02-0.3-2.34,0.72-2.96c8.57-5.22,20.04-14.76,18.69-19.62
				c-1.48-5.34-13.06-3.43-16.99-2.33c-1.15,0.32-2.34-0.35-2.65-1.5c-0.32-1.15,0.35-2.34,1.5-2.65c0.79-0.22,19.36-5.25,22.3,5.33
				c2.7,9.7-16.69,22.08-20.6,24.46C159.74,169.47,159.36,169.57,158.97,169.57z"/>
		</g>
		<g>
			<path d="M145.48,181.28c-11.91,0-21.56-9.65-21.56-21.56v-22.89c0-2.43,1.97-4.39,4.39-4.39h34.34c2.43,0,4.39,1.97,4.39,4.39
				v22.89C167.04,171.63,157.38,181.28,145.48,181.28z"/>
		</g>
		<g>
			<rect x="141.4" y="171.24" width="8.14" height="25.87"/>
		</g>
		<g>
			<path d="M161.53,202.38h-32.1v-1.44c0-5.03,4.08-9.1,9.1-9.1h13.89c5.03,0,9.1,4.08,9.1,9.1V202.38z"/>
		</g>
		<g>
			<path d="M142.92,181.29c-11.91,0-21.56-9.65-21.56-21.56v-22.89c0-2.43,1.97-4.39,4.39-4.39h34.34c2.43,0,4.39,1.97,4.39,4.39
				v22.89C164.48,171.64,154.83,181.29,142.92,181.29z"/>
		</g>
		<g>
			<rect x="138.85" y="171.24" width="8.14" height="25.87"/>
		</g>
		<g>
			<path d="M158.97,202.39h-32.1v-1.44c0-5.03,4.08-9.1,9.1-9.1h13.89c5.03,0,9.1,4.08,9.1,9.1V202.39z"/>
		</g>
		<g>
			<path d="M125.62,169.57c-0.38,0-0.77-0.1-1.12-0.31c-3.91-2.38-23.3-14.75-20.6-24.46c2.94-10.58,21.51-5.55,22.3-5.33
				c1.15,0.32,1.82,1.51,1.5,2.65c-0.32,1.15-1.51,1.82-2.65,1.5c-3.94-1.09-15.51-3-17,2.33c-1.35,4.86,10.12,14.4,18.69,19.62
				c1.02,0.62,1.34,1.95,0.72,2.96C127.06,169.2,126.35,169.57,125.62,169.57z"/>
		</g>
		<g>
			<path class="st0" d="M146.99,136.99h-20.12c-0.13,0-0.24-0.11-0.24-0.24c0-0.13,0.11-0.24,0.24-0.24h20.12
				c0.13,0,0.24,0.11,0.24,0.24C147.24,136.88,147.13,136.99,146.99,136.99z"/>
		</g>
		<g>
			<path class="st0" d="M131.19,197.36c-0.02,0-0.05,0-0.07-0.01c-0.13-0.04-0.2-0.17-0.16-0.3c0.01-0.03,1.07-3.37,5.98-3.37
				c0.13,0,0.24,0.11,0.24,0.24c0,0.13-0.11,0.24-0.24,0.24c-4.54,0-5.48,2.9-5.51,3.02C131.39,197.29,131.29,197.36,131.19,197.36z
				"/>
		</g>
	</g>
	<g>
		<g>
			<path class="st1" d="M71.64,10.94l7.88,5.78c0.05,0.04,0.12,0.05,0.18,0.04l9.57-2.12c0.59-0.17,1.11,0.41,0.89,0.98l-3.24,9.25
				c-0.02,0.07-0.01,0.14,0.03,0.2l5.6,8.35c0.34,0.51-0.05,1.19-0.66,1.15L81.4,34.05c-0.07,0-0.14,0.03-0.19,0.08l-6.42,8.1
				c-0.38,0.48-1.14,0.32-1.3-0.27l-2.63-9.66c-0.02-0.07-0.07-0.12-0.13-0.15l-9.12-3.72c-0.58-0.21-0.66-0.99-0.14-1.32l8.01-5.77
				c0.05-0.04,0.09-0.1,0.09-0.16l0.86-9.7C70.46,10.87,71.17,10.55,71.64,10.94z"/>
		</g>
		<g>
			<path class="st0" d="M65.8,26.92c-0.08,0-0.15-0.03-0.2-0.1c-0.08-0.11-0.05-0.26,0.05-0.34l4.74-3.43
				c0.11-0.08,0.26-0.05,0.34,0.05c0.08,0.11,0.05,0.26-0.05,0.34l-4.74,3.43C65.9,26.9,65.85,26.92,65.8,26.92z"/>
		</g>
	</g>
	<g>
		<g>
			<path class="st0" d="M136.95,92.81l0.8,6.15c0.01,0.04,0.03,0.08,0.06,0.1l5.17,3.47c0.34,0.2,0.3,0.69-0.06,0.84l-5.67,2.56
				c-0.04,0.02-0.07,0.05-0.08,0.1l-1.39,6.23c-0.08,0.38-0.57,0.5-0.82,0.2l-4.36-5.05c-0.03-0.03-0.07-0.05-0.12-0.05l-6.53,0.6
				c-0.39,0.04-0.65-0.39-0.44-0.72l3.29-5.44c0.02-0.04,0.03-0.08,0.01-0.13l-2.28-5.82c-0.16-0.36,0.17-0.74,0.54-0.64l6.16,1.16
				c0.04,0.01,0.08,0,0.11-0.03l4.83-3.85C136.46,92.23,136.92,92.42,136.95,92.81z"/>
		</g>
		<g>
			<path d="M130.87,98.05c-0.04,0-3.7-0.68-3.7-0.68c-0.13-0.02-0.22-0.15-0.19-0.28c0.02-0.13,0.15-0.22,0.28-0.19l3.65,0.68
				c0.13,0.02,0.22,0.15,0.19,0.28C131.08,97.96,130.98,98.05,130.87,98.05z"/>
		</g>
	</g>
	<g>
		<g>
			<path class="st0" d="M133.19,53.47c0,0-1.42,17.81-12.9,23.14c-8.31,3.86-10.54-11.58-10.54-11.58s11.63-6.51,14.45-12.89
				C127.02,45.76,133.19,53.47,133.19,53.47z"/>
		</g>
		<g>
			<path class="st0" d="M54.28,96.18c0,0,18.31,1.46,25.02-4.79c6.71-6.25-6.96-11.9-6.96-11.9s-10.67,6.58-17.58,7.45
				C47.83,87.81,54.28,96.18,54.28,96.18z"/>
		</g>
		<g>
			<polygon class="st0" points="123.65,171.96 129.29,177.11 140.61,168.19 133.95,162.98 			"/>
		</g>
		<g>
			<g>
				<path d="M148.11,177.13c0.73-0.78,0.68-2.02-0.1-2.83c-3.1-3.19-10.32-10.51-10.91-9.93c-0.75,0.73-5.64,9.88-5.64,9.88
					s-4.5-4.21-6.85-0.39c-1.8,2.93-1.84,8.43-1.76,10.83c0.02,0.76-0.17,1.5-0.56,2.13c-1.69,2.71-6.06,10.46-3,13.79
					c3.74,4.07,4.91,2.05,5.66,1.32C125.6,201.29,143.15,182.45,148.11,177.13z"/>
			</g>
		</g>
		<g>
			<g>
				<path class="st0" d="M110.62,100.9c0,0,4.57,20.68,13.71,37.99s13.5,22.25,13.5,22.25l-19.08,17.4c0,0-21.84-25.72-24.54-43.25
					c-2.7-17.53-2.49-33.27-2.49-33.27L110.62,100.9z"/>
			</g>
		</g>
		<g>
			<path d="M68.99,80.23l2.57,15.42c0,0,15.21,0.18,18.03-10.9c2.83-11.08-1.26-16.64-1.26-16.64S75.38,76.07,68.99,80.23z"/>
		</g>
		<g>
			<path d="M99.15,49.64c0,0,8.87-0.46,12.26,5.87c3.39,6.33,1.66,22.23,1.66,22.23l-12.5-0.12L99.15,49.64z"/>
		</g>
		<g>
			<polygon class="st0" points="83.86,180.2 83.95,187.56 98.4,190.17 98.19,180.39 			"/>
		</g>
		<g>
			<g>
				<path d="M98.4,202.39c1.07-0.04,1.92-0.95,1.93-2.07c0.07-4.44-0.31-15.36-1.14-15.38c-1.05-0.02-10.97,3-10.97,3
					s-0.21-6.16-4.57-5.12c-3.34,0.8-7.26,4.66-8.9,6.41c-0.52,0.56-1.18,0.94-1.9,1.11c-3.11,0.72-11.69,3.11-11.87,7.63
					c-0.23,5.52,2.02,4.92,3.07,4.94C64.96,202.91,91.13,202.64,98.4,202.39z"/>
			</g>
		</g>
		<g>
			<path d="M96.22,66.78l17.91-5.34l6.79,16.7l-9.5,6.26l-0.29,18.58c0,0-4.29,0.9-10,1.09c-5.71,0.19-3.54-24.93-3.54-24.93
				L96.22,66.78z"/>
		</g>
		<g>
			<g>
				<path class="st0" d="M56.62,96.1c0,0-6.66,0.93-10.67-0.05s-5.1-2.35-5.01-3.05c0.09-0.7,2.77-0.72,2.77-0.72
					s-3.74-1.04-3.51-2.57c0.23-1.53,3.63-1.02,3.63-1.02s-2.49-1.37-1.65-2.41c0.84-1.04,5.86,0.22,5.86,0.22s-2.87-2.46-2.23-3.27
					c0.64-0.81,6.51,0.75,7.92,1.93c1.41,1.17,2.82,3.51,2.82,3.51L56.62,96.1z"/>
			</g>
		</g>
		<g>
			<path d="M44.39,143.55c-0.02,0-0.04,0-0.07,0c-0.53-0.04-0.94-0.5-0.9-1.03l7.62-113.41c0.04-0.53,0.48-0.94,1.03-0.9
				c0.53,0.04,0.94,0.5,0.9,1.03l-7.62,113.41C45.32,143.16,44.89,143.55,44.39,143.55z"/>
		</g>
		<g>
			<polygon class="st0" points="52.08,30.68 7.95,49.41 49.38,70.82 			"/>
		</g>
		<g>
			<g>
				<path class="st0" d="M132.76,54.78c0,0,3.19-5.91,3.67-10.02c0.47-4.1-0.43-5.6-1.11-5.76c-0.69-0.15-1.64,2.35-1.64,2.35
					s0.32-3.87-1.19-4.18c-1.51-0.31-2.23,3.05-2.23,3.05s-0.42-2.81-1.69-2.39s-1.83,5.57-1.83,5.57s-1.3-3.55-2.29-3.23
					c-0.99,0.32-1.56,6.37-0.95,8.1c0.61,1.73,2.31,3.87,2.31,3.87L132.76,54.78z"/>
			</g>
		</g>
		<g>
			<path class="st0" d="M133.68,41.36c0,0,1.87-4.78,2.95-1.24c0.82,2.69-0.24,7.64-1.51,7.57c-1.27-0.07-1.93-2.77-1.93-2.77
				s-0.61,1.97-2.14,1.43c-1.4-0.5-1.48-2.86-1.48-2.86s-0.27,2.38-1.85,1.76c-2.32-0.92-0.45-7.17,0.79-7.96
				c1.65-1.05,1.55,2.04,1.55,2.04s1.53-3.3,2.98-1.94C134.49,38.74,133.68,41.36,133.68,41.36z"/>
		</g>
		<g>
			<path d="M129.6,50.39c-0.14,0-0.25-0.11-0.25-0.25c0.01-5.47-2.81-6.83-2.83-6.84c-0.12-0.06-0.18-0.21-0.12-0.33
				c0.06-0.13,0.2-0.18,0.33-0.12c0.13,0.06,3.14,1.48,3.13,7.3C129.85,50.28,129.74,50.39,129.6,50.39z"/>
		</g>
		<g>
			<path d="M134.94,47.88c-0.04,0-0.08,0-0.12,0c-0.61-0.04-1.1-0.49-1.46-1.34c-0.32-0.76-0.43-1.63-0.3-2.51l0.37-2.7
				c0.02-0.14,0.14-0.23,0.28-0.21c0.14,0.02,0.23,0.15,0.21,0.28l-0.37,2.7c-0.11,0.8-0.02,1.57,0.27,2.25
				c0.28,0.66,0.63,1.01,1.03,1.03c0.77,0.05,0.96-0.56,0.98-0.63c0.04-0.13,0.17-0.21,0.31-0.17c0.13,0.04,0.21,0.17,0.18,0.3
				C136.22,47.23,135.81,47.88,134.94,47.88z"/>
		</g>
		<g>
			<path d="M131.37,46.62c-0.12,0-0.24-0.01-0.37-0.03c-1.82-0.29-1.7-3.01-1.69-3.12l0.5-4.18c0.02-0.14,0.14-0.24,0.28-0.22
				c0.14,0.02,0.24,0.14,0.22,0.28l-0.49,4.17c0,0.01-0.1,2.36,1.28,2.59c1.38,0.22,1.84-1.2,1.86-1.26
				c0.04-0.13,0.18-0.2,0.31-0.16c0.13,0.04,0.2,0.18,0.16,0.31C133.24,45.59,132.59,46.62,131.37,46.62z"/>
		</g>
		<g>
			<path d="M128.56,45.44c-0.13,0-0.24-0.1-0.25-0.23c-0.01-0.14,0.1-0.26,0.23-0.27c0.52-0.03,0.73-1.11,0.77-1.48
				c0.01-0.14,0.12-0.24,0.27-0.23c0.14,0.01,0.24,0.14,0.22,0.27c-0.02,0.19-0.21,1.87-1.24,1.93
				C128.57,45.44,128.56,45.44,128.56,45.44z"/>
		</g>
		<g>
			<g>
				<path class="st0" d="M82.38,101.35c0,0-8.41,23.15-10.7,39c-2.28,15.85,5.61,41.58,5.61,41.58l24.3-0.34
					c0,0-4.57-25.51-5.4-33.27c-0.62-8.54,3.74-45.52,3.74-45.52L82.38,101.35z"/>
			</g>
		</g>
		<g>
			<path d="M109.02,115c-3.78,0-5.52-3.85-5.54-3.89c-0.06-0.13,0-0.27,0.13-0.33c0.12-0.05,0.27,0,0.33,0.13
				c0.08,0.19,2.11,4.63,6.63,3.37c0.13-0.04,0.27,0.04,0.31,0.17c0.04,0.13-0.04,0.27-0.17,0.31
				C110.1,114.93,109.54,115,109.02,115z"/>
		</g>
		<g>
			<path d="M118.97,137.4c-0.18,0-0.34-0.05-0.49-0.16c-0.46-0.34-0.51-0.7-0.47-0.94c0.19-1.22,3.19-2.27,3.53-2.39
				c0.09-0.03,0.2,0,0.27,0.07c0.07,0.08,0.08,0.19,0.03,0.28c-0.15,0.29-1.51,2.85-2.67,3.12
				C119.1,137.39,119.03,137.4,118.97,137.4z M121.07,134.61c-1.13,0.46-2.48,1.18-2.57,1.76c-0.01,0.06-0.04,0.23,0.27,0.47
				c0.08,0.06,0.17,0.08,0.28,0.05C119.69,136.74,120.55,135.49,121.07,134.61z"/>
		</g>
		<g>
			<path d="M96.22,142.9c-0.09,0-0.18-0.05-0.23-0.15c-2.89-6.25-4.15-23.6-4.3-25.65l-6.98-2.12c-0.13-0.04-0.21-0.18-0.17-0.31
				c0.04-0.13,0.18-0.21,0.31-0.17l7.14,2.17c0.1,0.03,0.17,0.12,0.18,0.22c0.01,0.19,1.3,19.22,4.26,25.64
				c0.06,0.13,0,0.27-0.12,0.33C96.29,142.9,96.25,142.9,96.22,142.9z"/>
		</g>
		<g>
			<path class="st0" d="M43.71,92.29c0,0-5.13,0.09-2.19,2.33c2.23,1.7,7.25,2.43,7.62,1.22c0.37-1.22-1.92-2.77-1.92-2.77
				s2.06,0.12,2.08-1.51c0.02-1.48-2.17-2.39-2.17-2.39s2.33,0.57,2.29-1.12c-0.05-2.49-6.57-2.92-7.74-2.03
				c-1.55,1.18,1.37,2.16,1.37,2.16s-3.63,0.28-2.86,2.12C40.97,92.13,43.71,92.29,43.71,92.29z"/>
		</g>
		<g>
			<path d="M54.32,92.19c-3.81,0-4.28-4.23-4.29-4.28c-0.01-0.14,0.09-0.26,0.22-0.27c0.15-0.02,0.26,0.09,0.27,0.22
				c0.02,0.17,0.47,4.19,4.29,3.8c0.14-0.02,0.26,0.09,0.27,0.22c0.01,0.14-0.09,0.26-0.22,0.27
				C54.67,92.18,54.49,92.19,54.32,92.19z"/>
		</g>
		<g>
			<path d="M48.07,96.68c-0.04,0-0.07,0-0.1,0c-0.14-0.01-0.24-0.14-0.22-0.27c0.01-0.14,0.12-0.23,0.27-0.22
				c0.08,0.01,0.71,0.03,0.93-0.7c0.12-0.39-0.09-0.83-0.61-1.33c-0.53-0.5-1.23-0.86-2.01-1.04l-2.66-0.59
				c-0.13-0.03-0.22-0.16-0.19-0.3c0.03-0.13,0.17-0.22,0.3-0.19l2.66,0.59c0.87,0.19,1.65,0.59,2.25,1.16
				c0.67,0.63,0.92,1.25,0.75,1.83C49.17,96.47,48.48,96.68,48.07,96.68z"/>
		</g>
		<g>
			<path d="M47.32,93.32c-0.04,0-0.08,0-0.11,0c-0.14-0.01-0.24-0.12-0.24-0.26c0.01-0.14,0.15-0.26,0.26-0.24
				c0.06,0,1.56,0.06,1.83-1.31c0.27-1.37-1.97-2.09-2-2.1l-4.06-0.98c-0.13-0.03-0.22-0.17-0.18-0.3c0.03-0.13,0.17-0.21,0.3-0.18
				l4.08,0.99c0.13,0.04,2.71,0.88,2.35,2.68C49.28,92.97,48.03,93.32,47.32,93.32z"/>
		</g>
		<g>
			<path d="M48.05,89.54c-0.46,0-0.88-0.11-0.97-0.13c-0.13-0.04-0.21-0.17-0.18-0.31c0.04-0.13,0.18-0.21,0.31-0.18
				c0.36,0.1,1.45,0.26,1.66-0.21c0.06-0.13,0.2-0.18,0.33-0.13c0.13,0.06,0.18,0.2,0.13,0.33C49.1,89.42,48.55,89.54,48.05,89.54z"
				/>
		</g>
		<g>
			<path d="M82.22,94.36c-0.45,4.84-0.71,8.78-0.71,8.78s5.08,0.99,13.43,1.12c3.73,0.06,7.37-0.23,10.25-0.58
				c0,0-5.76-36.49-6.18-36.48c-3.3,0.13-6.48-1.71-11.47,1.39c-4.52,2.8-5.85,16.2-5.85,16.2S82.75,88.66,82.22,94.36z"/>
		</g>
		<g>
			<g>
				<g>
					<g>
						<g>
							<path class="st0" d="M98.96,61.44l0.06,5.76c0,0-0.61,1.86-3.98,2.17c-2.51,0.23-3.81-0.52-3.81-0.52l0.32-2.92l0.31-2.85
								l6.07-1.4L98.96,61.44z"/>
						</g>
					</g>
				</g>
			</g>
		</g>
		<g>
			<g>
				<g>
					<g>
						<g>
							<path d="M97.94,61.68c-0.01,0.16-0.07,0.34-0.16,0.56c-1.26,2.89-4.78,3.55-6.23,3.7l0.31-2.85L97.94,61.68z"/>
						</g>
					</g>
				</g>
			</g>
		</g>
		<g>
			<g>
				<g>
					<g>
						<g>
							<path class="st0" d="M90.44,49.96c0,0-2.95,7.26-1.71,11.26c1.24,4,4.89,3.27,7.07,2.43c2.18-0.84,3.16-2.21,3.16-2.21
								s2.07,0.64,3.39-1.3c1.32-1.94,0.42-4.11-0.77-4.59c-1.19-0.47-2.56,0.41-2.56,0.41l1.04-2.11
								C100.07,53.85,95.19,43.38,90.44,49.96z"/>
						</g>
					</g>
				</g>
			</g>
		</g>
		<g>
			<path d="M90.05,56.78c-0.17-0.02-0.27-0.15-0.25-0.29l0.19-1.32l-0.49-0.2c-0.13-0.05-0.19-0.2-0.14-0.33
				c0.05-0.13,0.2-0.19,0.33-0.14l0.67,0.28c0.11,0.04,0.17,0.15,0.15,0.27l-0.21,1.51C90.28,56.69,90.18,56.78,90.05,56.78z"/>
		</g>
		<g>
			<path d="M94.14,57.07c-0.16-0.01-0.26-0.14-0.25-0.27l0.13-1.35l-0.51-0.28c-0.12-0.07-0.17-0.22-0.1-0.34
				c0.07-0.12,0.22-0.16,0.34-0.1l0.65,0.36c0.09,0.05,0.14,0.14,0.13,0.24l-0.15,1.51C94.38,56.97,94.27,57.07,94.14,57.07z"/>
		</g>
		<g>
			<path d="M99.07,56.26c0,0-3.42-0.82-4.91-2.96c-1.36-1.96-1.87-4.23-1.87-4.23s-0.74,0.57-1.64,1.9
				c-0.71,1.04-1.31,2.31-1.31,2.31s-1.21-4.76,3.1-6.38c4.31-1.61,7.96,1.26,9.05,3.95C102.57,53.55,99.07,56.26,99.07,56.26z"/>
		</g>
		<g>
			<path d="M101.33,55.27c-0.02,0-0.04,0-0.06-0.01c-0.13-0.03-0.22-0.17-0.18-0.3c0.69-2.85-0.17-4.43-0.18-4.44
				c-0.07-0.12-0.03-0.27,0.09-0.34c0.12-0.07,0.27-0.03,0.34,0.09c0.04,0.07,0.97,1.75,0.23,4.81
				C101.54,55.19,101.44,55.27,101.33,55.27z"/>
		</g>
		<g>
			<path d="M94.97,53.92c-0.02,0-0.04,0-0.05-0.01l-1.86-0.41c-0.13-0.03-0.22-0.16-0.19-0.3c0.03-0.13,0.17-0.22,0.3-0.19
				l1.86,0.41c0.13,0.03,0.22,0.16,0.19,0.3C95.19,53.84,95.08,53.92,94.97,53.92z"/>
		</g>
		<g>
			<path d="M89.34,53.53c-0.12,0-0.23-0.09-0.25-0.22c-0.02-0.14,0.08-0.26,0.22-0.28l1.28-0.16c0.15-0.02,0.26,0.08,0.28,0.22
				c0.02,0.14-0.08,0.26-0.22,0.28l-1.28,0.16C89.36,53.53,89.35,53.53,89.34,53.53z"/>
		</g>
		<g>
			<path d="M91.56,59.1c-0.07,0-0.13-0.03-0.18-0.08c-1-1.06,0.09-3.15,0.13-3.24c0.06-0.12,0.21-0.17,0.34-0.1
				c0.12,0.06,0.17,0.22,0.11,0.34c-0.27,0.51-0.84,2-0.21,2.66c0.09,0.1,0.09,0.26-0.01,0.35C91.68,59.07,91.62,59.1,91.56,59.1z"
				/>
		</g>
		<g>
			<path d="M93.16,60.82c-0.11,0-0.22-0.08-0.24-0.2c-0.03-0.13,0.05-0.27,0.19-0.3c0.04-0.01,0.85-0.21,1.08-1.12
				c0.03-0.13,0.17-0.21,0.3-0.18c0.13,0.03,0.21,0.17,0.18,0.3c-0.31,1.21-1.41,1.47-1.45,1.48
				C93.19,60.82,93.17,60.82,93.16,60.82z"/>
		</g>
		<g>
			<path d="M99.37,59c-0.07,0-0.14-0.03-0.19-0.09c-0.09-0.11-0.08-0.26,0.03-0.35l2.33-1.95c0.11-0.09,0.26-0.08,0.35,0.03
				c0.09,0.11,0.08,0.26-0.03,0.35l-2.33,1.95C99.48,58.99,99.42,59,99.37,59z"/>
		</g>
		<g>
			<path d="M101.62,58.62c-0.02,0-0.03,0-0.05-0.01l-1.43-0.3c-0.13-0.03-0.22-0.16-0.19-0.3c0.03-0.13,0.15-0.22,0.3-0.19l1.43,0.3
				c0.13,0.03,0.22,0.16,0.19,0.3C101.84,58.54,101.73,58.62,101.62,58.62z"/>
		</g>
		<g>
			<path class="st0" d="M93.91,69.55c-0.84,0-1.76-0.13-2.75-0.46c-0.13-0.04-0.2-0.18-0.16-0.32c0.04-0.13,0.19-0.2,0.32-0.16
				c4.59,1.52,7.57-1.42,7.6-1.45c0.1-0.1,0.25-0.1,0.35,0c0.1,0.1,0.1,0.26,0,0.35C99.24,67.54,97.2,69.55,93.91,69.55z"/>
		</g>
		<g>
			<path class="st0" d="M82.83,90.88c-0.15,0-0.25-0.12-0.25-0.26l0.14-4.51c-2.25-9.27,1.2-13.22,1.34-13.39
				c0.09-0.1,0.25-0.11,0.35-0.02c0.1,0.09,0.11,0.25,0.02,0.35c-0.03,0.04-3.42,3.96-1.22,12.97c0,0.02,0.01,0.04,0.01,0.07
				l-0.15,4.54C83.08,90.77,82.97,90.88,82.83,90.88z"/>
		</g>
	</g>
</g>
<g id="Layer_2">
	<line class="st2" x1="77.06" y1="182.15" x2="101.83" y2="181.64"/>
	<path class="st2" d="M118.94,179.09c0.38-0.38,18.64-17.62,18.64-17.62"/>
	<path class="st3" d="M137.1,164.36c0.86,0.17,10.43,8.98,10.43,8.98s2.43,3.19,0.38,4.34l-23.74,25.28"/>
	<path class="st4" d="M77.29,181.93c0,0-9.16-28.63-5.71-42.67c0,0,3.42-15.94,9.94-36.12"/>
	<path class="st4" d="M96.47,144.49c0,0,0.64,15.19,5.49,36.26"/>
	<path class="st4" d="M98.26,147.17c0,0,7.4,16.6,20.04,31.02"/>
	<path class="st3" d="M99.4,65.98c0,0,7.15,0.13,14.68-4.09"/>
</g>
</svg>
