<?xml version="1.0" encoding="utf-8"?>
<!-- Generator: Adobe Illustrator 25.0.0, SVG Export Plug-In . SVG Version: 6.00 Build 0)  -->
<svg version="1.1" xmlns="http://www.w3.org/2000/svg" xmlns:xlink="http://www.w3.org/1999/xlink" x="0px" y="0px"
	 viewBox="0 0 147.71 229.45" style="enable-background:new 0 0 147.71 229.45;" xml:space="preserve">
<style type="text/css">
	.st0{fill:#FFFFFF;}
	.st1{fill:#E6F4FF;}
	.st2{fill:none;stroke:#000000;stroke-width:0.5;stroke-miterlimit:10;}
	.st3{fill:none;stroke:#000102;stroke-width:0.5;stroke-miterlimit:10;}
	.st4{fill:none;stroke:#000102;stroke-miterlimit:10;}
</style>
<g id="Layer_1">
</g>
<g id="Layer_2">
	<g>
		<g>
			<g>
				<path d="M105.87,17.58c0,0,4.34,1.37,5.8,5.69c1.46,4.32-0.33,7.97-0.33,7.97s9.96,0.03,14.67,8.27
					c4.71,8.24-2.04,16.28-2.04,16.28L91.99,45.76l1.08-23.88L105.87,17.58z"/>
			</g>
			<g>
				<rect x="93.17" y="128.35" width="9.21" height="62.82"/>
			</g>
			<g>
				<path d="M117.19,194.94H78.54c-1.6,0-2.9-1.3-2.9-2.9c0-1.6,1.3-2.9,2.9-2.9h38.65c1.6,0,2.9,1.3,2.9,2.9
					C120.08,193.65,118.78,194.94,117.19,194.94z"/>
			</g>
			<g>
				<path d="M83.71,199.38c0,3.44-2.79,6.23-6.23,6.23c-3.44,0-6.23-2.79-6.23-6.23c0-3.44,2.79-6.23,6.23-6.23
					C80.92,193.15,83.71,195.94,83.71,199.38z"/>
			</g>
			<g>
				<path d="M104,199.38c0,3.44-2.79,6.23-6.23,6.23c-3.44,0-6.23-2.79-6.23-6.23c0-3.44,2.79-6.23,6.23-6.23
					C101.22,193.15,104,195.94,104,199.38z"/>
			</g>
			<g>
				<path d="M124.21,199.38c0,3.44-2.79,6.23-6.23,6.23c-3.44,0-6.23-2.79-6.23-6.23c0-3.44,2.79-6.23,6.23-6.23
					C121.43,193.15,124.21,195.94,124.21,199.38z"/>
			</g>
			<g>
				<path d="M46.81,179.51c0,0-19.61,9.56-25.39,15.09c-5.78,5.53-6.05,9.27-5.37,11.11s41.36-0.27,41.36-0.27
					s0.37-11.18,4.71-10.49c4.34,0.69,2.04,10.72,2.04,10.72l12.3-0.2c0,0,0.49-11.12-0.43-15.47c-1-4.7-3.74-12.01-3.74-12.01
					L46.81,179.51z"/>
			</g>
			<g>
				<path class="st0" d="M50.99,176.23c0,0-16.86,9.66-13.77,10.64c3.1,0.97,20.54,1.02,25.64-0.88c5.1-1.9,9.43-8,9.43-8
					l-11.73-4.65L50.99,176.23z"/>
			</g>
			<g>
				<polygon class="st0" points="47.63,137.18 48.38,179.94 61.11,181.24 72.3,178 71.7,134.19 				"/>
			</g>
			<g>
				<path d="M80.46,184.93c0,0-9.9,19.44-11.18,27.34c-1.28,7.9,0.76,11.05,2.41,12.1c1.65,1.05,32.85-25.13,32.85-25.13
					s-6.44-9.14-2.56-11.21c3.88-2.06,8.09,7.33,8.09,7.33l9.7-7.57c0,0-6.3-9.17-9.66-12.09c-3.63-3.15-10.21-7.33-10.21-7.33
					L80.46,184.93z"/>
			</g>
			<g>
				<path class="st0" d="M81.82,179.79c0,0-7.64,17.87-4.58,16.78c3.06-1.09,17.01-11.56,19.94-16.15
					c2.93-4.59,2.71-12.07,2.71-12.07l-12.17,3.36L81.82,179.79z"/>
			</g>
			<g>
				<path class="st0" d="M84.05,182.49c0,0-24.54-41.38-16.9-53.95c7.64-12.57,27.18,9.7,27.18,9.7l5.73,29.96l-8.8,11.77
					L84.05,182.49z"/>
			</g>
			<g>
				<path class="st0" d="M124.8,69.78c0,0,19.51,11.67,15.17,37.26c-4.99,29.45-34.35,39-59.82,32.04
					c-25.47-6.96-21.22-27.02-21.22-27.02L124.8,69.78z"/>
			</g>
			<g>
				<path d="M128.67,123.27c-0.09,0-0.17-0.04-0.24-0.11c-0.12-0.13-0.11-0.34,0.02-0.46c6.31-5.83,7.53-17.3,7.54-17.42
					c0.02-0.18,0.18-0.31,0.36-0.29c0.18,0.02,0.31,0.18,0.29,0.36c-0.05,0.48-1.25,11.82-7.75,17.83
					C128.83,123.24,128.75,123.27,128.67,123.27z"/>
			</g>
			<g>
				<path d="M89.63,34.85c0,0-13.29,1.18-18.28,7.59s1.6,46.63,1.96,47.19c0.36,0.56,9.61,4.66,25.74,4.3s16.74-4.13,17.28-5
					c0.53-0.87,7.23-45.57,3.31-49.42C115.72,35.67,99.35,33.67,89.63,34.85z"/>
			</g>
			<g>
				<path d="M122.18,112.34c0.99,3.19-6.49,8.35-16.71,11.53c-10.22,3.18-19.31,3.17-20.3-0.02c-0.99-3.19,6.49-8.35,16.71-11.53
					C112.1,109.14,121.18,109.15,122.18,112.34z"/>
			</g>
			<g>
				<path class="st0" d="M75.8,86.52c0,0-33.2,16.7-37.27,23.49c-4.08,6.79-0.18,39.38-0.18,39.38l31.14,1.52l2.97-9.33l22.37-52.05
					L75.8,86.52z"/>
			</g>
			<g>
				<path class="st0" d="M116.14,90.04c0,0,1.34,14.84,0.86,19.71c-0.48,4.87-15.84,16.34-15.84,16.34l-0.44,23.3l-34.04,1.52
					c0,0-1.06-30.08-0.49-35.19s24.91-26.77,24.91-26.77L116.14,90.04z"/>
			</g>
			<g>
				<g>
					<g>
						<g>
							<path class="st0" d="M97.54,27.91l-0.19,8.64c0,0-1.61,2.45-6.68,2.75c-3.77,0.22-5.08-0.66-5.08-0.66l0.62-4.37l0.61-4.26
								L96,28.22L97.54,27.91z"/>
						</g>
					</g>
				</g>
			</g>
			<g>
				<g>
					<g>
						<g>
							<path d="M96,28.22c-0.03,0.24-0.12,0.51-0.27,0.83c-2.03,4.27-7.34,5.09-9.52,5.23l0.61-4.26L96,28.22z"/>
						</g>
					</g>
				</g>
			</g>
			<g>
				<g>
					<g>
						<g>
							<path class="st0" d="M85.34,10.28c0,0-4.78,10.74-3.12,16.8c1.65,6.06,7.17,5.15,10.48,4c3.31-1.15,4.85-3.16,4.85-3.16
								s3.07,1.07,5.15-1.79c2.08-2.85,0.83-6.15-0.92-6.91c-1.75-0.77-3.85,0.49-3.85,0.49l1.66-3.12
								C99.58,16.59,92.79,0.64,85.34,10.28z"/>
						</g>
					</g>
				</g>
			</g>
			<g>
				<path d="M85.74,23.95c-0.14,0-0.27-0.09-0.31-0.23c-0.71-2.29,0.91-4.63,0.98-4.73c0.1-0.15,0.3-0.18,0.45-0.08
					c0.15,0.1,0.18,0.31,0.08,0.45c-0.02,0.02-1.5,2.17-0.89,4.16c0.05,0.17-0.04,0.35-0.21,0.41
					C85.81,23.94,85.77,23.95,85.74,23.95z"/>
			</g>
			<g>
				<path d="M98.38,24.74c-0.08,0-0.16-0.03-0.22-0.09c-0.13-0.12-0.14-0.33-0.01-0.46l2.93-3.1c0.12-0.13,0.33-0.14,0.46-0.01
					c0.13,0.12,0.14,0.33,0.01,0.46l-2.93,3.1C98.55,24.7,98.46,24.74,98.38,24.74z"/>
			</g>
			<g>
				<path d="M101.47,23.91c-0.05,0-2.07-0.31-2.07-0.31c-0.18-0.03-0.3-0.19-0.27-0.37c0.03-0.18,0.18-0.31,0.37-0.27l2.02,0.31
					c0.18,0.03,0.3,0.19,0.27,0.37C101.77,23.79,101.63,23.91,101.47,23.91z"/>
			</g>
			<g>
				<path class="st0" d="M33.03,57.77l-0.31-1.93c0,0-7.4-5.63-11.96-7.49c-1.92-0.78-4.6-0.13-2.34,2.41c1.22,1.37,1.83,3,1.83,3
					s-3.66-1.16-6.17-2.82c-1.61-1.06-3.96-5.35-5.33-4.42c-2.19,1.48,0.33,5.65,0.33,5.65s-1.14-5.29-3.3-3.23
					C3.64,51,9.53,61.39,12.33,63.87c2.8,2.48,17.59,5.37,17.59,5.37L33.03,57.77z"/>
			</g>
			<g>
				<path d="M17.45,56.01c-3.47-0.34-6.6-3.26-6.73-3.38c-0.13-0.12-0.14-0.33-0.01-0.46c0.12-0.13,0.33-0.14,0.46-0.01
					c0.03,0.03,3.1,2.89,6.32,3.2c0.18,0.02,0.31,0.18,0.29,0.36C17.76,55.89,17.62,56.01,17.45,56.01z"/>
			</g>
			<g>
				<path d="M13.62,58.42c-0.07,0-0.14-0.02-0.2-0.07l-3.09-2.32c-0.14-0.11-0.17-0.31-0.07-0.46c0.11-0.14,0.31-0.17,0.46-0.07
					l2.92,2.19l6.3-3.82c0.15-0.09,0.35-0.04,0.45,0.11c0.09,0.15,0.04,0.35-0.11,0.45l-6.48,3.93
					C13.73,58.4,13.68,58.42,13.62,58.42z"/>
			</g>
			<g>
				<path d="M26.09,58.29c-0.03,0-0.07,0-0.1-0.02c-3.7-1.17-6.04-3.8-6.13-3.91c-0.12-0.14-0.1-0.34,0.03-0.46
					c0.13-0.12,0.34-0.11,0.46,0.03c0.02,0.03,2.32,2.61,5.84,3.72c0.17,0.05,0.27,0.24,0.21,0.41
					C26.35,58.2,26.23,58.29,26.09,58.29z"/>
			</g>
			<g>
				<path d="M73.01,40.73c0,0-15.06,13.31-27.22,14.09c-5.86,0.38-13.73-2.42-13.73-2.42l-6.99,18.29c0,0,24.57,23.28,49.6,4.93
					C81.86,70.34,73.01,40.73,73.01,40.73z"/>
			</g>
			<g>
				<polygon class="st0" points="89.42,38.72 84.35,72.33 88.4,72.33 91.99,39.27 				"/>
			</g>
			<g>
				<path class="st0" d="M28.93,73.89l-3.55-1.19c-0.46-0.15-0.71-0.65-0.56-1.12l6.47-19.38c0.15-0.46,0.65-0.71,1.12-0.56
					l3.55,1.19c0.46,0.15,0.71,0.65,0.56,1.12l-6.47,19.38C29.9,73.8,29.4,74.05,28.93,73.89z"/>
			</g>
			<g>
				<path class="st0" d="M95.02,83.8c0,0-7.99,3.23-9.57,3.01c-1.58-0.22-7.27-0.85-7.5-2.05l2.14-3.67c0,0-3.18,1.33-5.34,0.22
					c-2.16-1.12-4.74-3.36-5.27-5.08c-0.53-1.72,1.96-1.37,1.96-1.37s-2.81-1.75,0.76-3.25c3.57-1.5,18.99-3.72,25.41,0.31
					C104.04,75.95,95.02,83.8,95.02,83.8z"/>
			</g>
			<g>
				<path d="M71.45,75.18c-0.14,0-0.26-0.09-0.31-0.22c-0.06-0.17,0.03-0.35,0.2-0.41c3.85-1.31,7.84-0.76,8-0.74
					c0.18,0.03,0.3,0.19,0.28,0.37c-0.02,0.18-0.18,0.3-0.37,0.28c-0.04,0-4-0.55-7.7,0.71C71.52,75.18,71.49,75.18,71.45,75.18z"/>
			</g>
			<g>
				<path d="M100.92,126.5c-0.05,0-0.11-0.01-0.16-0.04c-0.67-0.38-6.5-3.72-6.27-5.83c0.06-0.58,0.51-1,1.34-1.25
					c0.96-0.29,1.84-0.18,2.61,0.34c2.31,1.55,2.78,6.22,2.8,6.42c0.01,0.12-0.04,0.24-0.15,0.3
					C101.04,126.48,100.98,126.5,100.92,126.5z M96.84,119.87c-0.26,0-0.53,0.04-0.82,0.13c-0.55,0.17-0.85,0.4-0.88,0.69
					c-0.13,1.17,3.02,3.46,5.37,4.86c-0.21-1.31-0.85-4.24-2.43-5.3C97.69,120,97.28,119.87,96.84,119.87z"/>
			</g>
			<g>
				<path d="M119.64,39.52c0,0,23.01,25.05,19.27,41.35c-3.74,16.3-49.16,5.65-49.16,5.65l0.49-19.06l23.61-3.7L119.64,39.52z"/>
			</g>
			<g>
				<path class="st1" d="M121.68,64.89c-2.49,0-5.79-0.53-7.15-0.76c-0.14-0.02-0.24-0.13-0.27-0.27c-0.02-0.14,0.05-0.27,0.17-0.34
					c0.29-0.15,7.07-3.7,9.89-0.68c0.45,0.49,0.58,0.92,0.38,1.3C124.4,64.7,123.19,64.89,121.68,64.89z M115.67,63.66
					c3.97,0.62,8.09,0.85,8.46,0.17c0.04-0.07-0.02-0.25-0.29-0.54C121.93,61.23,117.58,62.81,115.67,63.66z"/>
			</g>
			<g>
				<path class="st0" d="M93.87,87.77h-3.75c-0.49,0-0.88-0.39-0.88-0.88V66.46c0-0.49,0.4-0.88,0.88-0.88h3.75
					c0.49,0,0.88,0.4,0.88,0.88v20.43C94.75,87.38,94.35,87.77,93.87,87.77z"/>
			</g>
			<g>
				<path class="st0" d="M86.06,35.38c0,0-2.75,9.23-1.82,9.05c0.93-0.18,6.44-5.13,6.44-5.13s4.34,5.38,5.66,5.41
					c1.32,0.03,1.21-10.18,1.21-10.18s-1.12,3.11-5.99,3.8C86.68,39.04,86.06,35.38,86.06,35.38z"/>
			</g>
			<g>
				<path d="M87.86,27.32c-1.02,0-1.7-0.82-1.94-1.3c-0.04-0.09-0.04-0.2,0-0.29c0.05-0.09,0.13-0.15,0.23-0.17l3.38-0.67
					c0.1-0.02,0.2,0.01,0.28,0.08c0.08,0.07,0.12,0.17,0.11,0.27c-0.04,0.6-0.45,1.81-1.69,2.05C88.1,27.31,87.98,27.32,87.86,27.32
					z M86.76,26.11c0.26,0.3,0.7,0.66,1.36,0.54c0.65-0.12,0.93-0.63,1.06-1.02L86.76,26.11z"/>
			</g>
			<g>
				<path d="M92.38,15.76c-0.02,0-0.04,0-0.06,0l-3.43-0.61c-0.18-0.03-0.29-0.2-0.26-0.38c0.03-0.18,0.2-0.29,0.38-0.26l3.43,0.61
					c0.18,0.03,0.29,0.2,0.26,0.38C92.68,15.65,92.54,15.76,92.38,15.76z"/>
			</g>
			<g>
				<path d="M85.59,15.15h-1.55c-0.18,0-0.33-0.15-0.33-0.33s0.15-0.33,0.33-0.33h1.55c0.18,0,0.33,0.15,0.33,0.33
					S85.77,15.15,85.59,15.15z"/>
			</g>
			<g>
				<path d="M84.66,19.45c-0.23-0.03-0.35-0.19-0.32-0.37l0.27-1.86l-0.62-0.75c-0.11-0.14-0.09-0.34,0.04-0.46
					c0.14-0.11,0.34-0.09,0.46,0.04l0.71,0.87c0.06,0.07,0.09,0.16,0.07,0.25l-0.29,2C84.96,19.33,84.82,19.45,84.66,19.45z"/>
			</g>
			<g>
				<path d="M90.16,19.87c-0.23-0.03-0.35-0.2-0.32-0.37l0.27-1.86l-0.62-0.75c-0.11-0.14-0.09-0.34,0.04-0.46
					c0.14-0.11,0.34-0.1,0.46,0.04l0.71,0.87c0.06,0.07,0.09,0.16,0.07,0.25l-0.29,2C90.46,19.76,90.32,19.87,90.16,19.87z"/>
			</g>
			<g>
				<path d="M97.92,19.7l-1.47,1.35l0.73-1.5c0,0-2.42-0.33-5.62-3.29c-3.2-2.96-3.7-7.58-3.7-7.58s-2.93,2.19-3.75,4.73
					c-0.83,2.54-0.83,2.54-0.83,2.54S81.42,5.47,88.17,4.26c6.75-1.21,12.29,4.49,12.29,4.49s4.82,1.17,5.91,4.42
					c1.08,3.25-2.75,8.51-2.75,8.51S102.34,17.98,97.92,19.7z"/>
			</g>
			<g>
				<path d="M99.81,9.4c0,0,5.54-6.12,11.17-3.62s0.83,12.7-7.46,11.87S99.81,9.4,99.81,9.4z"/>
			</g>
			<g>
				<path class="st1" d="M72.05,63.82c-0.15,0-0.29-0.11-0.32-0.27c-1.78-9.53,3.33-16.73,3.38-16.81c0.1-0.15,0.31-0.18,0.45-0.07
					c0.15,0.1,0.18,0.31,0.07,0.45c-0.05,0.07-5,7.06-3.27,16.31c0.03,0.18-0.08,0.35-0.26,0.38
					C72.09,63.82,72.07,63.82,72.05,63.82z"/>
			</g>
			<g>
				<path class="st1" d="M99.45,65.06c-0.16,0-0.3-0.12-0.32-0.28c-0.02-0.18,0.1-0.34,0.28-0.37c0.44-0.06,10.92-1.39,15.21-0.92
					c0.18,0.02,0.31,0.18,0.29,0.36c-0.02,0.18-0.19,0.3-0.36,0.29c-4.23-0.46-14.95,0.91-15.06,0.92
					C99.48,65.05,99.46,65.06,99.45,65.06z"/>
			</g>
			<g>
				<path d="M69.42,102.72c-0.1,0-0.21-0.05-0.27-0.14c-0.1-0.15-0.06-0.35,0.09-0.45l11.57-7.84h-7.72c-0.18,0-0.33-0.15-0.33-0.33
					c0-0.18,0.15-0.33,0.33-0.33h8.78c0.14,0,0.27,0.09,0.31,0.23c0.04,0.14-0.01,0.29-0.13,0.37l-12.45,8.43
					C69.55,102.7,69.48,102.72,69.42,102.72z"/>
			</g>
		</g>
		<g>
			<g>
				<path class="st0" d="M77.86,79.93H36.71L24.96,53.35h39.52c0.99,0,1.88,0.58,2.28,1.48L77.86,79.93z"/>
			</g>
			<g>
				<path d="M74.28,79.93H33.14L22.65,56.21c-0.59-1.35,0.39-2.86,1.86-2.86h38.02L74.28,79.93z"/>
			</g>
			<g>
				<path d="M91.65,83.29H33.56c-0.93,0-1.68-0.75-1.68-1.68c0-0.93,0.75-1.68,1.68-1.68h58.09c0.93,0,1.68,0.75,1.68,1.68
					C93.33,82.54,92.58,83.29,91.65,83.29z"/>
			</g>
			<g>
				<path class="st0" d="M51.87,66.64c0,1.93-1.56,3.49-3.49,3.49c-1.93,0-3.49-1.56-3.49-3.49c0-1.93,1.56-3.49,3.49-3.49
					C50.31,63.15,51.87,64.71,51.87,66.64z"/>
			</g>
		</g>
		<path class="st2" d="M86.32,35.98c0,0,3.68,7.59,11.22-1.44"/>
		<path class="st3" d="M67.94,150.36l13.79,28.09l0.51,0.89c0,0-5.74,10.21-5.49,15.7"/>
		<path class="st2" d="M103.06,142c0,0,51.32-9.45,34.47-57.19"/>
		<path class="st4" d="M100.73,149.38c0-2.55,0.4-23.28,0.4-23.28s22.47-13.79,20.94-34.47"/>
		<line class="st3" x1="39.09" y1="149.85" x2="99.6" y2="149.34"/>
		<polyline class="st2" points="41.13,182.4 48.4,178.06 47.89,150.74 		"/>
		<path class="st3" d="M38.74,149.77c0,0-5.19-34.72-0.09-40.34c0,0,7.32-7.57,34.3-21.62"/>
	</g>
</g>
</svg>
