<?xml version="1.0" encoding="utf-8"?>
<!-- Generator: Adobe Illustrator 25.0.0, SVG Export Plug-In . SVG Version: 6.00 Build 0)  -->
<svg version="1.1" xmlns="http://www.w3.org/2000/svg" xmlns:xlink="http://www.w3.org/1999/xlink" x="0px" y="0px"
	 viewBox="0 0 119.33 188.6" style="enable-background:new 0 0 119.33 188.6;" xml:space="preserve">
<style type="text/css">
	.st0{fill:#FFFFFF;}
	.st1{fill:#FFFFFF;stroke:#000000;stroke-width:0.75;stroke-miterlimit:10;}
	.st2{stroke:#000000;stroke-width:0.5;stroke-miterlimit:10;}
	.st3{fill:none;stroke:#000000;stroke-width:0.5;stroke-miterlimit:10;}
	.st4{fill:none;stroke:#FFFFFF;stroke-width:0.5;stroke-miterlimit:10;}
</style>
<g id="Layer_1">
	<g>
		<path d="M65.61,178.65c-0.37,0-0.73-0.18-0.95-0.51l-42.42-62.9c-0.35-0.52-0.22-1.24,0.31-1.59c0.52-0.35,1.24-0.22,1.59,0.31
			l42.42,62.9c0.35,0.52,0.22,1.24-0.31,1.59C66.06,178.58,65.83,178.65,65.61,178.65z"/>
	</g>
	<g>
		<path d="M23.19,178.65c-0.22,0-0.43-0.06-0.63-0.19c-0.53-0.35-0.68-1.06-0.33-1.59l37.04-56.42c0.35-0.53,1.06-0.68,1.59-0.33
			c0.53,0.35,0.68,1.06,0.33,1.59l-37.04,56.42C23.93,178.46,23.57,178.65,23.19,178.65z"/>
	</g>
	<g>
		<path d="M52.53,133.96c-0.02,0-17.33-0.37-17.33-0.37c-0.63-0.01-1.14-0.54-1.12-1.17c0.01-0.63,0.55-1.16,1.17-1.12l17.31,0.37
			c0.63,0.01,1.14,0.54,1.12,1.17C53.67,133.46,53.16,133.96,52.53,133.96z"/>
	</g>
	<g>
		<path class="st0" d="M23.25,67.94c0,0-15.49,9.27-12.05,29.6c3.96,23.39,27.28,30.97,47.51,25.45
			c20.23-5.53,16.86-21.46,16.86-21.46L23.25,67.94z"/>
	</g>
	<g>
		<path class="st0" d="M20.18,110.46c-0.07,0-0.14-0.03-0.2-0.08c-5.17-4.78-6.13-13.8-6.16-14.18c-0.02-0.16,0.1-0.31,0.27-0.32
			c0.16-0.03,0.31,0.1,0.33,0.27c0.01,0.09,0.98,9.18,5.98,13.81c0.12,0.11,0.13,0.3,0.02,0.42
			C20.34,110.43,20.26,110.46,20.18,110.46z"/>
	</g>
	<g>
		<polygon class="st0" points="65.36,147.04 65.36,160.63 55.01,164.55 48.49,157.23 47.42,144.66 		"/>
	</g>
	<g>
		<polygon class="st0" points="84.74,144.22 84.74,157.81 73.71,161.73 66.76,154.41 65.62,141.84 		"/>
	</g>
	<g>
		<path d="M65.91,82.93c0,0,22.62,11.57,25.86,16.96c3.24,5.39-0.33,49.3-0.33,49.3l-23.38,0.31l-3.24-24.54L47.06,83.62
			L65.91,82.93z"/>
	</g>
	<g>
		<path d="M30.13,84.03c0,0-1.07,11.78-0.68,15.65c0.38,3.87,12.58,12.98,12.58,12.98l0.6,37.72l27.03,1.21
			c0,0,0.59-43.11,0.14-47.17c-0.45-4.06-18.44-18.82-18.44-18.82L30.13,84.03z"/>
	</g>
	<g>
		<path class="st0" d="M51.19,40.2c0,0,10.55,0.93,14.52,6.03c3.96,5.09-1.27,37.04-1.56,37.48c-0.28,0.45-7.63,3.7-20.45,3.42
			c-12.81-0.28-15.93-2.73-16.35-3.42c-0.42-0.69-3.11-36.75,0-39.81C30.47,40.85,43.47,39.26,51.19,40.2z"/>
	</g>
	<g>
		<g>
			<g>
				<g>
					<path class="st0" d="M44.9,34.69l0.15,6.86c0,0,1.28,1.95,5.3,2.18c3,0.18,4.03-0.52,4.03-0.52l-0.49-3.47l-0.49-3.38
						l-7.29-1.43L44.9,34.69z"/>
				</g>
			</g>
		</g>
	</g>
	<g>
		<g>
			<g>
				<g>
					<path d="M46.13,34.93c0.02,0.19,0.1,0.41,0.21,0.66c1.61,3.39,5.83,4.04,7.56,4.16l-0.49-3.38L46.13,34.93z"/>
				</g>
			</g>
		</g>
	</g>
	<g>
		<g>
			<g>
				<g>
					<path class="st0" d="M54.6,20.68c0,0,3.79,8.53,2.48,13.34c-1.31,4.81-5.7,4.09-8.32,3.18c-2.63-0.91-3.85-2.51-3.85-2.51
						s-2.44,0.85-4.09-1.42c-1.65-2.26-0.66-4.88,0.73-5.49c1.39-0.61,3.06,0.39,3.06,0.39l-1.32-2.48
						C43.28,25.69,48.68,13.02,54.6,20.68z"/>
				</g>
			</g>
		</g>
	</g>
	<g>
		<path d="M54.27,31.58c-0.03,0-0.06,0-0.09-0.01c-0.16-0.05-0.25-0.22-0.2-0.38c0.48-1.56-0.69-3.25-0.7-3.27
			c-0.1-0.14-0.06-0.32,0.07-0.42c0.14-0.1,0.32-0.06,0.42,0.07c0.06,0.08,1.35,1.95,0.78,3.79C54.52,31.49,54.4,31.58,54.27,31.58z
			"/>
	</g>
	<g>
		<path d="M44.24,32.21c-0.08,0-0.16-0.03-0.22-0.09l-2.32-2.46c-0.11-0.12-0.11-0.31,0.01-0.43c0.12-0.11,0.31-0.11,0.43,0.01
			l2.32,2.46c0.11,0.12,0.11,0.31-0.01,0.43C44.39,32.18,44.31,32.21,44.24,32.21z"/>
	</g>
	<g>
		<path d="M41.78,31.55c-0.15,0-0.27-0.11-0.3-0.26c-0.02-0.16,0.09-0.32,0.25-0.34l1.61-0.24c0.16-0.03,0.32,0.09,0.34,0.25
			c0.02,0.16-0.09,0.32-0.25,0.34l-1.61,0.24C41.81,31.55,41.79,31.55,41.78,31.55z"/>
	</g>
	<g>
		<path d="M50.4,28.39c-0.15,0-0.28-0.11-0.3-0.26l-0.2-1.59c-0.02-0.17,0.1-0.32,0.26-0.34c0.16-0.02,0.32,0.1,0.34,0.26l0.2,1.59
			c0.02,0.17-0.1,0.32-0.26,0.34C50.42,28.39,50.41,28.39,50.4,28.39z"/>
	</g>
	<g>
		<path d="M55.13,28.01c-0.15,0-0.28-0.11-0.3-0.26l-0.23-1.59c-0.02-0.16,0.09-0.32,0.25-0.34c0.17-0.03,0.32,0.09,0.34,0.25
			l0.23,1.59c0.02,0.16-0.09,0.32-0.25,0.34C55.16,28.01,55.14,28.01,55.13,28.01z"/>
	</g>
	<g>
		<path d="M49.31,25.47c-0.05,0-0.1-0.01-0.14-0.04c-0.15-0.08-0.2-0.26-0.12-0.41c0.62-1.13,2.06-0.79,2.12-0.78
			c0.16,0.04,0.26,0.2,0.22,0.36c-0.04,0.16-0.2,0.26-0.36,0.22c-0.04-0.01-1.05-0.24-1.45,0.48
			C49.52,25.42,49.41,25.47,49.31,25.47z"/>
	</g>
	<g>
		<path d="M55.47,24.82c-0.09,0-0.18-0.04-0.24-0.12c-0.08-0.11-0.37-0.4-0.69-0.43c-0.18-0.02-0.34,0.05-0.51,0.19
			c-0.12,0.11-0.31,0.1-0.42-0.03c-0.11-0.13-0.1-0.32,0.03-0.42c0.3-0.26,0.62-0.38,0.97-0.34c0.64,0.06,1.08,0.64,1.1,0.66
			c0.1,0.13,0.08,0.32-0.06,0.42C55.6,24.8,55.54,24.82,55.47,24.82z"/>
	</g>
	<g>
		<path d="M45.42,28.74c0,0,2.32-1.57,2.18-3.95c-0.14-2.38-0.66-2.99-0.66-2.99s2.71-0.14,4.94-0.87c1.46-0.47,2.08-1,2.08-1
			l0.63,0.74c0.68-0.03,2.24-4.17,1.22-4.91c-1.03-0.74-6.54,1.18-6.54,1.18s-5.8-1.36-9.19,2.76c-3.39,4.12,0.41,8.98,0.41,8.98
			S41.5,26.57,45.42,28.74z"/>
	</g>
	<g>
		<path d="M51.19,44.06c-1.79,0-4.09-0.47-6.32-2.27c-0.13-0.1-0.15-0.29-0.05-0.42c0.1-0.13,0.29-0.15,0.42-0.05
			c4.38,3.53,8.99,1.64,9.03,1.62c0.15-0.07,0.33,0.01,0.4,0.16c0.07,0.15-0.01,0.33-0.16,0.4C54.49,43.5,53.13,44.06,51.19,44.06z"
			/>
	</g>
	<g>
		<path d="M52.1,34.43c-0.16,0-0.34-0.02-0.52-0.07c-0.33-0.1-0.58-0.29-0.72-0.56c-0.25-0.47-0.08-1.01-0.06-1.07
			c0.03-0.08,0.08-0.14,0.16-0.18c0.07-0.04,0.16-0.04,0.23-0.01l2.22,0.83c0.1,0.04,0.17,0.12,0.19,0.22
			c0.02,0.1-0.01,0.21-0.09,0.28C53.48,33.9,52.9,34.43,52.1,34.43z M51.33,33.23c0,0.1,0.02,0.2,0.07,0.28
			c0.06,0.12,0.18,0.21,0.36,0.26c0.33,0.1,0.64,0.04,0.87-0.06L51.33,33.23z"/>
	</g>
	<g>
		<path class="st0" d="M96.14,58.4l0.24-1.53c0,0,5.88-4.47,9.5-5.95c1.52-0.62,3.65-0.1,1.86,1.91c-0.97,1.09-1.46,2.38-1.46,2.38
			s2.9-0.92,4.9-2.24c1.28-0.85,3.14-4.25,4.24-3.51c1.74,1.17-0.26,4.49-0.26,4.49s0.9-4.2,2.62-2.56
			c1.71,1.63-2.96,9.89-5.19,11.86c-2.23,1.97-13.97,4.27-13.97,4.27L96.14,58.4z"/>
	</g>
	<g>
		<path d="M108.51,57.05c-0.15,0-0.28-0.12-0.3-0.27c-0.02-0.17,0.1-0.31,0.27-0.33c2.54-0.25,4.97-2.51,4.99-2.53
			c0.12-0.11,0.31-0.11,0.43,0.01c0.11,0.12,0.11,0.31-0.01,0.43c-0.11,0.1-2.6,2.43-5.35,2.7
			C108.53,57.05,108.52,57.05,108.51,57.05z"/>
	</g>
	<g>
		<path d="M111.56,58.96c-0.05,0-0.11-0.01-0.16-0.04l-5.15-3.12c-0.14-0.09-0.19-0.27-0.1-0.41c0.09-0.14,0.27-0.19,0.42-0.1
			l4.98,3.02l2.29-1.72c0.13-0.1,0.32-0.07,0.42,0.06c0.1,0.13,0.07,0.32-0.06,0.42l-2.46,1.84
			C111.68,58.93,111.62,58.96,111.56,58.96z"/>
	</g>
	<g>
		<path d="M101.65,58.86c-0.13,0-0.25-0.08-0.29-0.21c-0.05-0.16,0.04-0.33,0.2-0.38c2.79-0.88,4.6-2.92,4.62-2.94
			c0.11-0.12,0.3-0.14,0.43-0.03c0.13,0.11,0.14,0.3,0.03,0.43c-0.08,0.09-1.94,2.19-4.89,3.12
			C101.71,58.85,101.68,58.86,101.65,58.86z"/>
	</g>
	<g>
		<path class="st0" d="M64.39,44.87c0,0,5.27,3.92,11.2,7.41c0,0,6.82,2.71,11.42,1.95c4.6-0.76,9.19-1.95,9.19-1.95l6.88,18.01
			c0,0-20.13,16.86-40.01,2.29C57.36,68.39,64.39,44.87,64.39,44.87z"/>
	</g>
	<g>
		<path d="M65.36,61.13c-0.17,0-0.3-0.14-0.3-0.3c0-1.39-2.08-8.05-3.18-11.38c-0.05-0.16,0.03-0.33,0.19-0.38
			c0.16-0.05,0.33,0.03,0.38,0.19c0.13,0.4,3.21,9.74,3.21,11.57C65.67,61,65.53,61.13,65.36,61.13z"/>
	</g>
	<g>
		<path d="M63.76,173.19c0,0,0.49-21.85,3.88-21.4c3.4,0.46,6.79,3.64,6.79,3.64s7.76-4.1,11.16-1.82c3.4,2.28,5.35,7.28,5.35,7.28
			l18.91,12.29c0,0,2.29,3.64,1.63,5.46c-0.51,1.42-29.27,0.62-41.89,0.21C66.34,178.75,63.76,176.25,63.76,173.19L63.76,173.19z"/>
	</g>
	<g>
		<path d="M73.52,167.87c0,0-4.74-11.6-7.8-13.61c-3.06-2-10.72,4.36-10.72,4.36s-6.41-6.75-7.99-3.21
			c-1.58,3.54-2.34,16.23-1.15,19.03c1.2,2.8,9.99,7.46,21.55,7.43c5.45-0.02,13.3-1.7,13.31-3.57
			C80.72,175.36,75.38,169.81,73.52,167.87z"/>
	</g>
	<g>
		<path class="st0" d="M68.76,164.16h-8.87c-0.17,0-0.3-0.14-0.3-0.3c0-0.17,0.14-0.3,0.3-0.3h8.87c0.17,0,0.3,0.14,0.3,0.3
			C69.06,164.03,68.93,164.16,68.76,164.16z"/>
	</g>
	<g>
		<path class="st0" d="M70.23,168.18h-9.39c-0.17,0-0.3-0.14-0.3-0.3c0-0.17,0.14-0.3,0.3-0.3h9.39c0.17,0,0.3,0.14,0.3,0.3
			C70.53,168.04,70.4,168.18,70.23,168.18z"/>
	</g>
	<g>
		<path class="st0" d="M86.26,162.8c-0.15,0-0.28-0.11-0.3-0.26c-0.02-0.17,0.09-0.32,0.26-0.34l5.65-0.77
			c0.17-0.02,0.32,0.09,0.34,0.26c0.02,0.17-0.09,0.32-0.26,0.34l-5.65,0.77C86.29,162.8,86.28,162.8,86.26,162.8z"/>
	</g>
	<g>
		<path class="st0" d="M87.68,166.71c-0.15,0-0.28-0.11-0.3-0.26c-0.02-0.16,0.09-0.32,0.25-0.34l9.51-1.45
			c0.16-0.03,0.32,0.09,0.34,0.25c0.02,0.17-0.09,0.32-0.25,0.34l-9.51,1.45C87.71,166.71,87.7,166.71,87.68,166.71z"/>
	</g>
	<g>
		<path class="st0" d="M71.21,149.59c-0.19-0.01-0.31-0.16-0.3-0.32c0.03-0.4,2.69-40.45,1.7-45.12c-0.67-3.16-12.79-14-12.92-14.11
			c-0.08-0.07-0.12-0.18-0.1-0.28c0.02-0.1,0.09-0.19,0.19-0.23l7.29-2.68c0.16-0.06,0.33,0.02,0.39,0.18
			c0.06,0.16-0.02,0.33-0.18,0.39l-6.82,2.5c2.11,1.91,12.08,11.03,12.73,14.1c1,4.74-1.58,43.63-1.69,45.28
			C71.5,149.47,71.37,149.59,71.21,149.59z"/>
	</g>
	<g>
		<path class="st0" d="M42.22,114.98c-0.06,0-0.11-0.02-0.17-0.05c-0.09-0.06-0.15-0.17-0.14-0.28c0.02-0.16,0.4-3.89,2.25-5.13
			c0.62-0.42,1.33-0.51,2.11-0.27c0.67,0.2,1.04,0.55,1.09,1.03c0.18,1.67-4.13,4.18-5,4.67C42.32,114.96,42.27,114.98,42.22,114.98
			z M45.46,109.72c-0.35,0-0.66,0.1-0.96,0.3c-1.21,0.81-1.71,3.01-1.9,4.09c1.94-1.16,4.26-2.92,4.16-3.77
			c-0.02-0.21-0.25-0.39-0.67-0.51C45.88,109.75,45.67,109.72,45.46,109.72z"/>
	</g>
	<g>
		<path class="st0" d="M61.66,67.88h32.68l9.33-21.11H72.28c-0.78,0-1.49,0.46-1.81,1.18L61.66,67.88z"/>
	</g>
	<g>
		<path d="M64.5,67.88h32.68l8.33-18.84c0.47-1.07-0.31-2.27-1.48-2.27h-30.2L64.5,67.88z"/>
	</g>
	<g>
		<path d="M50.71,70.54h46.14c0.74,0,1.33-0.6,1.33-1.33c0-0.74-0.6-1.33-1.33-1.33H50.71c-0.74,0-1.33,0.6-1.33,1.33
			C49.37,69.94,49.97,70.54,50.71,70.54z"/>
	</g>
	<g>
		<path class="st1" d="M50.01,66.05c0,0,6.08-3.14,7.34-3.09c1.26,0.05,5.81,0.14,6.08,1.07l-1.42,3.06c0,0-0.77,0.83,1.01,1.55
			c1.79,0.72,7.19,0.2,7.73,1.51c0.54,1.32-1.45,1.23-1.45,1.23s2.35,1.18-0.36,2.62c-2.71,1.45-14.74,4.34-20.12,1.63
			C43.45,72.92,50.01,66.05,50.01,66.05z"/>
	</g>
	<g>
		<path d="M63.51,72.84c-0.22,0-0.35-0.01-0.38-0.01c-0.16-0.01-0.29-0.15-0.28-0.31c0.01-0.16,0.15-0.28,0.31-0.28
			c0.03,0,3.19,0.14,6.02-1.13c0.15-0.07,0.32,0,0.39,0.15c0.07,0.15,0,0.32-0.15,0.39C67.02,72.73,64.46,72.84,63.51,72.84z"/>
	</g>
	<g>
		<path class="st0" d="M27.35,43.9c0,0-6.11,6.66-10.69,14.77c-3.34,5.92-5.86,12.61-4.61,18.07c2.97,12.95,40.11,5.45,40.11,5.45
			L50.4,62.76l-18.45,0.4L27.35,43.9z"/>
	</g>
	<g>
		<path d="M25.75,64.1c-1.22,0-2.21-0.16-2.46-0.62c-0.17-0.31-0.07-0.68,0.31-1.08c2.26-2.42,7.68,0.41,7.91,0.53
			c0.11,0.06,0.18,0.19,0.16,0.31c-0.02,0.13-0.12,0.23-0.25,0.25C30.34,63.68,27.73,64.1,25.75,64.1z M26.23,62.02
			c-0.86,0-1.65,0.21-2.19,0.79c-0.22,0.24-0.23,0.36-0.22,0.38c0.27,0.5,3.43,0.34,6.53-0.13C29.36,62.63,27.69,62.02,26.23,62.02z
			"/>
	</g>
	<g>
		<path d="M29.98,85.24c-0.17,0-0.34,0-0.52,0c-0.17,0-0.3-0.14-0.3-0.3c0-0.17,0.14-0.3,0.3-0.3c9.05,0.07,16.57-1.81,16.65-1.83
			c0.17-0.04,0.33,0.06,0.37,0.22c0.04,0.16-0.06,0.33-0.22,0.37C46.19,83.4,38.9,85.24,29.98,85.24z"/>
	</g>
	<g>
		<path d="M31.37,63.5c-0.1,0-0.19-0.05-0.25-0.13c-0.09-0.14-0.06-0.33,0.08-0.42c1.63-1.13,0.2-4.95,0.18-4.99
			c-0.06-0.16,0.02-0.33,0.17-0.39c0.15-0.06,0.33,0.02,0.39,0.17c0.07,0.17,1.61,4.3-0.4,5.7C31.49,63.48,31.42,63.5,31.37,63.5z"
			/>
	</g>
	<line class="st2" x1="103.08" y1="70.28" x2="99.68" y2="62.28"/>
</g>
<g id="Layer_2">
	<line class="st2" x1="48.36" y1="61.51" x2="52.16" y2="82.2"/>
	<path class="st3" d="M27.43,85c0,0-30.64,1.02-7.4-31.66"/>
	<path class="st4" d="M65.47,154.32c0,0,3.19,0.26,8.04,14.17c0,0,6.64,4.34,7.15,10.21"/>
	
		<ellipse transform="matrix(0.0596 -0.9982 0.9982 0.0596 23.4634 142.3381)" class="st0" cx="87.28" cy="58.72" rx="2.89" ry="3.46"/>
	<line class="st2" x1="64.11" y1="62.28" x2="68.53" y2="51.04"/>
</g>
</svg>
