<?xml version="1.0" encoding="utf-8"?>
<!-- Generator: Adobe Illustrator 25.0.0, SVG Export Plug-In . SVG Version: 6.00 Build 0)  -->
<svg version="1.1" xmlns="http://www.w3.org/2000/svg" xmlns:xlink="http://www.w3.org/1999/xlink" x="0px" y="0px"
	 viewBox="0 0 249.6 271.32" style="enable-background:new 0 0 249.6 271.32;" xml:space="preserve">
<style type="text/css">
	.st0{fill:#FFFFFF;}
	.st1{fill:#59ACC9;}
	.st2{fill:#FFFFFF;stroke:#000000;stroke-miterlimit:10;}
	.st3{fill:none;stroke:#000000;stroke-width:0.5;stroke-miterlimit:10;}
</style>
<g id="Layer_1">
	<g>
		<path class="st0" d="M101.02,84.35c0,0,11.56-4.37,15.47-2.34c3.91,2.03,0,14.5,0,14.5l-11.26,5.15l-5.3-6.75L101.02,84.35z"/>
	</g>
	<g>
		<path class="st0" d="M88.74,125.61c0,0,2.39,6.07,5.63,7.85c3.24,1.77,5.93-5.84,5.93-5.84l-5.95-4.31L88.74,125.61z"/>
	</g>
	<g>
		<path class="st0" d="M101.04,119.17c0,0,8.88,7.9,9.36,9.85c0.48,1.96-2.53,11.22-4.82,10.2c-2.29-1.03-0.36-8.07-0.36-8.07
			s-11.47-1.71-11.91-5.74S101.04,119.17,101.04,119.17z"/>
	</g>
	<g>
		<path d="M103.03,131.65c-5.84,0-9.26-4.18-9.29-4.23c-0.11-0.13-0.08-0.32,0.05-0.43c0.13-0.11,0.32-0.08,0.43,0.05
			c0.04,0.05,4.13,5.03,10.97,3.81c0.17-0.03,0.32,0.08,0.35,0.25c0.03,0.17-0.08,0.32-0.25,0.35
			C104.49,131.59,103.74,131.65,103.03,131.65z"/>
	</g>
	<g>
		<path class="st1" d="M89.2,173.48l38.5-9.01c1.99-0.47,3.22-2.45,2.76-4.44l-5.75-24.59c-0.47-1.99-2.45-3.22-4.44-2.76
			l-38.5,9.01c-1.99,0.47-3.22,2.45-2.76,4.44l5.75,24.59C85.22,172.71,87.21,173.95,89.2,173.48z"/>
	</g>
	<g>
		<path class="st0" d="M91.89,172.85l38.5-9.01c1.99-0.47,3.22-2.45,2.76-4.44l-5.75-24.59c-0.47-1.99-2.45-3.22-4.44-2.76
			l-38.5,9.01c-1.99,0.47-3.22,2.45-2.76,4.44l5.75,24.59C87.92,172.08,89.91,173.32,91.89,172.85z"/>
	</g>
	<g>
		<g>
			<path class="st0" d="M85.27,143.79c-1.65-7.05,5.57-14.78,16.09-17.25c10.52-2.46,20.42,1.27,22.07,8.32
				c1.65,7.05-5.57,14.78-16.09,17.25C96.82,154.56,86.92,150.83,85.27,143.79z M87.81,143.19c1.32,5.65,9.82,8.51,18.94,6.38
				c9.12-2.14,15.47-8.47,14.15-14.12c-1.32-5.65-9.82-8.51-18.94-6.38C92.83,131.21,86.48,137.54,87.81,143.19z"/>
		</g>
	</g>
	<g>
		<path d="M84.92,157.99c-0.16,0-0.3-0.11-0.34-0.27c-0.04-0.19,0.07-0.38,0.26-0.42l41.97-9.88c0.19-0.05,0.38,0.07,0.42,0.26
			c0.04,0.19-0.07,0.38-0.26,0.42L85,157.98C84.97,157.99,84.94,157.99,84.92,157.99z"/>
	</g>
	<g>
		<path class="st0" d="M73.49,45.63c0,0,13.62,4.78,21.84,30.99c8.6,27.43,7.79,44.46,7.79,44.46l-16.87,5.31L71.28,94.81
			L73.49,45.63z"/>
	</g>
	<g>
		<path d="M114.84,80.84c0,0,12.89-2.07,21.79-7.71c8.9-5.64,20.64-20.27,20.64-20.27l0.71,40.17c0,0-11.01,5.16-21.57,6.33
			s-21.57,0-21.57,0V80.84z"/>
	</g>
	<g>
		<polygon class="st0" points="84.59,227.98 84.59,240.18 104.65,239.32 104.65,227.98 		"/>
	</g>
	<g>
		<polygon class="st0" points="34.98,226.69 34.98,238.11 54.87,237.3 54.87,226.69 		"/>
	</g>
	<g>
		<path d="M78.18,100.87c0,0,15.5,24.56,24.69,63.87c8.38,35.86,10.19,65.52,10.19,65.52H76.81c0,0-4.03-29.24-5.11-40.81
			c-1.07-11.57-4.65-27.06-4.65-27.06s-4.98,66.74-6.16,67.86c-1.19,1.13-35.89,0.25-35.52-1.28c0.37-1.53,7.87-109.47,9.61-116.62
			C41.5,85.54,78.18,100.87,78.18,100.87z"/>
	</g>
	<g>
		<g>
			<g>
				<g>
					<path d="M59.81,256.97c0,2.01-0.68,4.32-2.06,4.9c-1.39,0.58-12.6,1.79-22.42,0.93c-9.39-0.82-9.27-0.48-9.96-1.34
						c-0.34-0.44-1.75-3.48-1-5.43c0.05-0.1,0.08-0.21,0.13-0.31c0.39-0.98,0.79-1.93,1.08-2.61c0.29-0.64,0.64-1.26,1.06-1.85
						c1.02-1.4,3.03-4.3,3.55-5.8c0.68-2,1.71-6.32,2.4-8.35c0.52-1.51,6.68-3.89,9.65-4.96c1.03-0.37,2.13-0.46,3.21-0.26
						c3,0.55,9.19,1.77,10.23,2.65c1.37,1.14,2.06,10.65,2.06,12.09v1.43c0,1.34,0.92,3.98,1.51,6.17c0.16,0.55,0.29,1.06,0.39,1.53
						C59.74,256.23,59.81,256.64,59.81,256.97z"/>
				</g>
			</g>
		</g>
	</g>
	<g>
		<path class="st0" d="M67.05,162.75c-0.22-0.02-0.37-0.19-0.35-0.38c0.01-0.14,1.14-14.51,1.47-20.88
			c0.33-6.36,0.34-9.41,0.34-9.44c0-0.14,0.08-0.26,0.21-0.32l11.75-5.23c0.17-0.08,0.38,0,0.46,0.18c0.08,0.18,0,0.38-0.18,0.46
			l-11.54,5.14c-0.01,0.82-0.06,3.84-0.34,9.24c-0.33,6.38-1.46,20.75-1.47,20.9C67.39,162.61,67.23,162.75,67.05,162.75z"/>
	</g>
	<g>
		<path class="st0" d="M51.7,45.07c0,0-10.46-0.04-16.1,5.59c-5.64,5.62-0.9,60.66-0.9,60.66s19.51,2.34,30.19,0
			c10.68-2.34,16.75-5.63,16.75-5.63s-2.91-52.53-5.85-57.95C72.85,42.33,51.7,45.07,51.7,45.07z"/>
	</g>
	<g>
		<g>
			<g>
				<g>
					<path class="st0" d="M48.9,41.14l0.06,6.92c0,0,2.64,2.18,5.98,2.18c4.51,0,6.04-3.49,6.04-3.49l-0.17-8.11L48.9,41.14z"/>
				</g>
			</g>
		</g>
	</g>
	<g>
		<g>
			<g>
				<g>
					<path d="M48.9,40.96c0,0,3.23,6.64,8.33,5.79c4.11-0.69,3.57-7.54,3.57-7.54L48.9,40.96z"/>
				</g>
			</g>
		</g>
	</g>
	<g>
		<g>
			<g>
				<g>
					<path class="st0" d="M62.86,22.06c0,0,2.48,11.77-1.27,17.48c-3.74,5.71-8.76,4.14-11.02,2.46c-3.05-2.27-3.73-5.47-3.73-5.47
						s-4.13,0.9-5.57-2.46c-1.51-3.53,1.02-6.44,3.09-6.64c2.07-0.2,2.32,0.17,2.32,0.17l-0.67-3.78
						C46.02,23.81,58.39,9.58,62.86,22.06z"/>
				</g>
			</g>
		</g>
	</g>
	<g>
		<g>
			<g>
				<g>
					<path class="st0" d="M60.96,28.47c0,0,6.24-2.79,6.81,2.07c0.66,5.63-6.07,5.79-6.07,5.79L60.96,28.47z"/>
				</g>
			</g>
		</g>
	</g>
	<g>
		<path d="M64.17,33.47c-0.06,0-0.12-0.01-0.17-0.04c-0.17-0.1-0.23-0.31-0.13-0.48l2.04-3.63c0.09-0.17,0.31-0.23,0.48-0.13
			c0.17,0.1,0.23,0.31,0.13,0.48l-2.04,3.63C64.41,33.41,64.29,33.47,64.17,33.47z"/>
	</g>
	<g>
		<path d="M46.09,33.9c-0.08,0-0.16-0.03-0.22-0.08l-3.25-2.69c-0.15-0.12-0.17-0.35-0.05-0.49c0.12-0.15,0.35-0.17,0.5-0.05
			l3.25,2.69c0.15,0.12,0.17,0.35,0.05,0.49C46.3,33.86,46.2,33.9,46.09,33.9z"/>
	</g>
	<g>
		<path d="M43.15,34.46c-0.1,0-0.21-0.05-0.28-0.14c-0.12-0.15-0.09-0.37,0.06-0.49l1.86-1.45c0.15-0.12,0.37-0.09,0.49,0.06
			c0.12,0.15,0.09,0.37-0.06,0.49l-1.86,1.45C43.3,34.43,43.22,34.46,43.15,34.46z"/>
	</g>
	<g>
		<path d="M66.59,32.36H64.8c-0.19,0-0.35-0.16-0.35-0.35c0-0.19,0.16-0.35,0.35-0.35h1.79c0.19,0,0.35,0.16,0.35,0.35
			C66.94,32.2,66.78,32.36,66.59,32.36z"/>
	</g>
	<g>
		<path d="M52.85,30.84c-0.18,0-0.33-0.13-0.35-0.31l-0.21-2.02c-0.02-0.19,0.12-0.37,0.31-0.39c0.21-0.02,0.37,0.12,0.39,0.31
			l0.21,2.02c0.02,0.19-0.12,0.37-0.31,0.39C52.87,30.84,52.86,30.84,52.85,30.84z"/>
	</g>
	<g>
		<path d="M60.6,30.05c-0.18,0-0.33-0.13-0.35-0.31l-0.21-2.02c-0.02-0.19,0.12-0.37,0.31-0.39c0.2-0.03,0.37,0.12,0.39,0.31
			l0.21,2.02c0.02,0.19-0.12,0.37-0.31,0.39C60.62,30.05,60.61,30.05,60.6,30.05z"/>
	</g>
	<g>
		<path d="M57.29,35.52c-0.02,0-0.03,0-0.05,0c-0.19-0.03-0.32-0.21-0.3-0.4c0.45-3.01-0.64-5.46-0.66-5.48
			c-0.08-0.18,0-0.38,0.17-0.47c0.17-0.08,0.38,0,0.46,0.17c0.05,0.11,1.19,2.65,0.71,5.88C57.62,35.4,57.47,35.52,57.29,35.52z"/>
	</g>
	<g>
		<path d="M60.97,26.36c-0.05,0-0.11-0.01-0.16-0.04c-0.78-0.41-1.98-0.11-1.99-0.11c-0.18,0.05-0.38-0.07-0.43-0.25
			c-0.05-0.19,0.07-0.38,0.25-0.43c0.06-0.01,1.47-0.37,2.49,0.17c0.17,0.09,0.24,0.3,0.15,0.47C61.22,26.29,61.1,26.36,60.97,26.36
			z"/>
	</g>
	<g>
		<path d="M51.2,27.32c-0.09,0-0.18-0.03-0.25-0.1c-0.14-0.14-0.14-0.36,0-0.5c0.81-0.83,2.25-0.93,2.32-0.94
			c0.19-0.01,0.36,0.13,0.37,0.33c0.01,0.19-0.13,0.36-0.33,0.37c-0.01,0-1.24,0.09-1.86,0.73C51.38,27.28,51.29,27.32,51.2,27.32z"
			/>
	</g>
	<g>
		<path d="M48.54,29.49c0,0,3-2.03,2.82-5.12c-0.18-3.08-0.86-3.87-0.86-3.87s3.09,1.64,6.93,0.48c4.35-1.31,6.75-7.29,4.37-8.92
			c-2.64-1.82-9.07,0.74-9.07,0.74s-6.73-0.37-11.12,4.98c-4.39,5.35,0.53,11.64,0.53,11.64S43.65,26.97,48.54,29.49z"/>
	</g>
	<g>
		<path d="M56.67,38.8c-1.69,0-3.06-1.39-3.12-1.46c-0.13-0.14-0.13-0.36,0.01-0.5c0.14-0.13,0.36-0.13,0.5,0.01
			c0.02,0.02,1.62,1.65,3.29,1.15c0.18-0.06,0.38,0.05,0.44,0.23c0.06,0.19-0.05,0.38-0.23,0.44C57.24,38.76,56.95,38.8,56.67,38.8z
			"/>
	</g>
	<g>
		<path d="M60.6,15.87c0,0,2.89,2.64,3.57,5.86c0.68,3.22,0,5.95,0,5.95l-0.65-0.01c0,0-1.56-7.81-4.08-8.53
			C56.92,18.43,60.6,15.87,60.6,15.87z"/>
	</g>
	<g>
		<path class="st0" d="M35.47,127c-0.11,0-0.22-0.05-0.29-0.15c-0.11-0.16-0.07-0.38,0.09-0.49c6.05-4.22,7.63-10.36,7.65-10.42
			c0.05-0.19,0.24-0.3,0.42-0.26c0.19,0.05,0.3,0.24,0.26,0.42c-0.06,0.26-1.65,6.45-7.92,10.83C35.61,126.98,35.54,127,35.47,127z"
			/>
	</g>
	<g>
		<polygon class="st0" points="209.78,176.08 228.89,177.12 223.93,195.4 208.5,198.27 		"/>
	</g>
	<g>
		<path class="st0" d="M154.9,95.07c0,0-25.8,83.34-6.01,99.14c19.78,15.8,62.78,8.3,62.78,8.3l2.08-33.43l-23.63-2.15l-25.58-68.61
			L154.9,95.07z"/>
	</g>
	<g>
		<polygon class="st0" points="196.08,226.22 193.69,245.22 175.81,238.97 174.04,223.38 		"/>
	</g>
	<g>
		<path class="st0" d="M194.91,97.76c0,0,5.04,18.09,4.45,29.98c-0.59,11.9-1.4,38.85-1.05,43.6c0.35,4.75,3.03,57.25,3.03,57.25
			s-8.98,2.81-18.78,2.99s-15.29-0.77-15.29-0.77s-10.66-58.43-10.07-75.87c0.59-17.44,1.27-56.5,1.27-56.5L194.91,97.76z"/>
	</g>
	<g>
		<g>
			<path d="M143.88,260.06c-0.48-0.06-0.81-0.52-0.74-1.02c0.36-2.38,1.66-9.03,5.35-11.91c4.54-3.54,14.17-5.1,17.64-7.47
				c3.47-2.37,7.29-8,9.41-6.99c2.11,1.01,6.15,5.78,11.85,4.98c5.69-0.8,8.3-2.23,9.86-0.88c1.56,1.35,2.8,20.68,2.16,21.85
				c-0.64,1.16-8.69,0.25-9.39,0.45c-0.7,0.2-2.76-4.37-4.06-3.65c-1.3,0.72-2.87,2.91-4.79,3.94
				C179.39,260.31,149.65,260.73,143.88,260.06z"/>
		</g>
	</g>
	<g>
		<g>
			<path d="M136.32,261.05c0.48-0.06,0.81-0.52,0.74-1.02c-0.36-2.38-1.66-9.03-5.35-11.91c-4.54-3.54-14.17-5.1-17.64-7.47
				c-3.47-2.37-7.29-8-9.41-6.99c-2.11,1.01-6.15,5.78-11.85,4.98c-5.69-0.8-8.3-2.23-9.86-0.88c-1.56,1.35-2.8,20.68-2.16,21.85
				c0.64,1.16,8.69,0.25,9.39,0.45c0.7,0.2,2.76-4.37,4.06-3.65c1.3,0.72,2.87,2.91,4.79,3.94
				C100.81,261.29,130.55,261.71,136.32,261.05z"/>
		</g>
	</g>
	<g>
		<g>
			<path d="M243.1,228.63c-0.05,0.48-0.52,0.82-1.02,0.74c-2.38-0.35-9.03-1.62-11.93-5.31c-3.56-4.53-5.16-14.15-7.54-17.61
				c-2.38-3.46-8.03-7.26-7.02-9.38c1.01-2.12,5.75-6.18,4.94-11.87s-2.26-8.29-0.91-9.86c1.35-1.57,20.67-2.88,21.84-2.24
				c1.17,0.63,0.28,8.69,0.48,9.39c0.2,0.7-4.36,2.77-3.64,4.07c0.72,1.3,2.92,2.86,3.95,4.78
				C243.22,193.13,243.75,222.86,243.1,228.63z"/>
		</g>
	</g>
	<g>
		<path d="M161.98,199.49c-0.17,0-0.32-0.12-0.35-0.29c-5.04-30.14-0.1-78.78,0.34-82.95l-7.83-2.56c-0.18-0.06-0.29-0.26-0.22-0.44
			c0.06-0.18,0.26-0.28,0.44-0.22l8.1,2.65c0.16,0.05,0.26,0.21,0.24,0.37c-0.06,0.51-5.61,51.79-0.38,83.05
			c0.03,0.19-0.1,0.37-0.29,0.4C162.02,199.49,162,199.49,161.98,199.49z"/>
	</g>
	<g>
		<path d="M192.31,117.58c-7.04,0-9.71-7.29-9.73-7.37c-0.07-0.18,0.03-0.38,0.21-0.45c0.18-0.07,0.38,0.03,0.45,0.21
			c0.12,0.33,2.96,8.02,10.74,6.76c0.2-0.03,0.37,0.1,0.4,0.29c0.03,0.19-0.1,0.37-0.29,0.4
			C193.47,117.53,192.88,117.58,192.31,117.58z"/>
	</g>
	<g>
		<path d="M198.68,192.25c-0.19,0-0.35-0.15-0.35-0.34l-0.45-24.22c0-0.19,0.15-0.35,0.34-0.36c0.2,0,0.35,0.15,0.36,0.34
			l0.45,24.22C199.04,192.08,198.88,192.24,198.68,192.25C198.69,192.25,198.68,192.25,198.68,192.25z"/>
	</g>
	<g>
		<path d="M163.62,46.79c0,0-6.89,4.97-9.36,9.48c-2.47,4.52-2.14,48.02-2.14,48.02s9.63,4.17,21.49,3.62
			c11.86-0.55,22.65-5.26,22.65-5.26s-9.81-57.16-13.35-58.87C179.37,42.08,174.34,42.63,163.62,46.79z"/>
	</g>
	<g>
		<g>
			<path class="st0" d="M173.31,37.34l1.08,9.23c0,0-1.35,2.85-6.7,3.92c-3.98,0.8-5.5,0.05-5.5,0.05l0.01-4.74l0.02-4.62l9.5-3.29
				L173.31,37.34z"/>
		</g>
	</g>
	<g>
		<g>
			<path d="M170.95,37.34c0.02,0.24-0.01,0.55-0.1,0.9c-1.14,4.77-6.64,7.9-8.82,8.52v-5.62L170.95,37.34z"/>
		</g>
	</g>
	<g>
		<g>
			<path class="st0" d="M157.7,20.39c0,0-3.49,12.14-0.82,18.34c2.66,6.21,8.4,4.41,11.75,2.7c3.35-1.71,4.69-4.08,4.69-4.08
				s3.43,0.68,5.22-2.67c1.79-3.34-0.03-6.67-2.01-7.22c-1.98-0.55-4.03,1.1-4.03,1.1l1.3-3.57C173.8,24.99,164.2,9.02,157.7,20.39z
				"/>
		</g>
	</g>
	<g>
		<path d="M173.38,33.48c-0.1,0-0.19-0.04-0.26-0.11c-0.13-0.14-0.12-0.37,0.02-0.5l3.81-3.48c0.14-0.13,0.37-0.12,0.5,0.02
			c0.13,0.14,0.12,0.37-0.02,0.5l-3.81,3.48C173.55,33.45,173.46,33.48,173.38,33.48z"/>
	</g>
	<g>
		<path d="M177.16,32.98c-0.05,0-2.87-0.39-2.87-0.39c-0.19-0.03-0.33-0.2-0.3-0.4c0.03-0.19,0.2-0.33,0.4-0.3l2.82,0.38
			c0.19,0.03,0.33,0.2,0.3,0.4C177.49,32.85,177.34,32.98,177.16,32.98z"/>
	</g>
	<g>
		<path d="M160.41,34.98c-0.14,0-0.27-0.08-0.32-0.21c-1.54-3.57,0.08-6.43,0.15-6.55c0.1-0.17,0.31-0.22,0.48-0.13
			c0.17,0.1,0.23,0.31,0.13,0.48c-0.02,0.03-1.5,2.69-0.11,5.93c0.08,0.18-0.01,0.38-0.18,0.46
			C160.5,34.97,160.45,34.98,160.41,34.98z"/>
	</g>
	<g>
		<path d="M157.68,29.7c-0.21-0.01-0.36-0.17-0.35-0.37l0.1-2.21c0.01-0.19,0.13-0.35,0.37-0.34c0.19,0.01,0.34,0.17,0.34,0.37
			l-0.1,2.21C158.02,29.55,157.87,29.7,157.68,29.7z"/>
	</g>
	<g>
		<path d="M163.08,29.6c-0.21-0.01-0.36-0.17-0.35-0.37l0.1-2.21c0.01-0.19,0.16-0.35,0.37-0.34c0.19,0.01,0.34,0.17,0.34,0.37
			l-0.1,2.21C163.43,29.45,163.27,29.6,163.08,29.6z"/>
	</g>
	<g>
		<path class="st0" d="M194.57,139.88c0,0,0.76,2.32,2.49,2.13c1.74-0.19,1.17-5.73,1.17-5.73L194.57,139.88z"/>
	</g>
	<g>
		<path d="M172.5,28.55c0,0-5.97,0.53-8.07-3.09c-3.92-6.76-6.99-2.98-6.99-2.98l-0.98,3.67c0,0-3.08-8.75-0.99-11.2
			s11.55-1.02,14.79,1.03c3.24,2.05,4.09,3.26,4.09,3.26s1.92-0.25,3.64,1.6c1.71,1.85,0.12,7.72,0.12,7.72
			S175.42,26.96,172.5,28.55z"/>
	</g>
	<g>
		<path class="st0" d="M236.6,169.76l-38.66,8.31c-2,0.43-3.96-0.84-4.39-2.84l-5.31-24.69c-0.43-2,0.84-3.96,2.84-4.39l38.66-8.31
			c2-0.43,3.96,0.84,4.39,2.84l5.31,24.69C239.86,167.36,238.59,169.33,236.6,169.76z"/>
	</g>
	<g>
		<path d="M233.89,170.34l-38.66,8.31c-2,0.43-3.96-0.84-4.39-2.84l-5.31-24.69c-0.43-2,0.84-3.96,2.84-4.39l38.66-8.31
			c2-0.43,3.96,0.84,4.39,2.84l5.31,24.69C237.16,167.94,235.89,169.91,233.89,170.34z"/>
	</g>
	<g>
		<g>
			<path d="M211.06,158.18c-10.56,2.27-20.39-1.64-21.92-8.72c-1.52-7.08,5.83-14.68,16.4-16.95c10.56-2.27,20.39,1.64,21.92,8.72
				C228.97,148.31,221.62,155.91,211.06,158.18z M206.08,135.06c-9.16,1.97-15.62,8.19-14.4,13.86c1.22,5.67,9.66,8.69,18.83,6.72
				c9.16-1.97,15.62-8.19,14.4-13.86C223.69,136.1,215.24,133.09,206.08,135.06z"/>
		</g>
	</g>
	<g>
		<path class="st0" d="M196.55,121.86c0,0-3.92,10.81-2.51,16.16l3.4-1.38c0,0,2.59,7.53,6.01,7.48c1.65-0.02,2.73-3.35,5.06-4.68
			c2.33-1.33,6.44-3.55,6.97-5.76c0.53-2.22-4.5-13.86-6.97-14.88C206.03,117.8,196.55,121.86,196.55,121.86z"/>
	</g>
	<g>
		<path d="M180.66,43.57c0,0,13.37,2.4,20.68,15.42c5.67,10.1,13.45,61.77,12.39,63.25c-1.06,1.48-16.54,6.28-19.7,4.8
			c-3.16-1.48-14.77-46.74-14.77-46.74L180.66,43.57z"/>
	</g>
	<g>
		<path d="M197.11,137.27c-0.14,0-0.28-0.09-0.33-0.24l-1.58-4.89c-0.06-0.18,0.04-0.37,0.22-0.43c0.18-0.05,0.37,0.04,0.43,0.22
			l1.58,4.89c0.06,0.18-0.04,0.37-0.22,0.43C197.18,137.26,197.14,137.27,197.11,137.27z"/>
	</g>
	<g>
		<path class="st0" d="M191.54,162.96c-0.16,0-0.31-0.11-0.34-0.28c-0.04-0.19,0.08-0.38,0.27-0.42l42.16-9.01
			c0.19-0.04,0.38,0.08,0.42,0.27c0.04,0.19-0.08,0.38-0.27,0.42l-42.16,9.01C191.58,162.96,191.56,162.96,191.54,162.96z"/>
	</g>
	<g>
		<path class="st0" d="M162.57,48.09c0,0-2.98,5.23-2.22,5.87c0.76,0.64,4.07-3.7,5.19-2.92c1.12,0.79,4.45,2.77,5.92,2.98
			c1.48,0.21,4.29-9.36,3.51-9.73c-0.78-0.38-0.78-0.38-0.78-0.38s-3.22,4.36-7.14,5.62C163.14,50.8,162.57,48.09,162.57,48.09z"/>
	</g>
	<g>
		<path class="st0" d="M163.62,50.92c0,0-2.59,17.64-2.4,32.42c0.18,14.78,1.14,24.32,1.14,24.32l3.76,0.51
			c0,0-1.48-24.39-1.11-32.24c0.44-9.49,2.01-25.21,2.01-25.21S165.37,49.82,163.62,50.92z"/>
	</g>
	<g>
		<path class="st0" d="M194.57,121.66c-0.16,0-0.31-0.11-0.34-0.28c-0.04-0.19,0.08-0.38,0.27-0.42l18.96-4.08
			c0.2-0.04,0.38,0.08,0.42,0.27c0.04,0.19-0.08,0.38-0.27,0.42l-18.96,4.08C194.62,121.66,194.59,121.66,194.57,121.66z"/>
	</g>
	<g>
		<path class="st0" d="M152.37,98.11c-0.21-0.01-0.36-0.18-0.35-0.37l0.8-14.63c0.01-0.19,0.15-0.34,0.37-0.33
			c0.19,0.01,0.34,0.18,0.33,0.37l-0.8,14.63C152.71,97.97,152.56,98.11,152.37,98.11z"/>
	</g>
	<g>
		<path d="M164.65,55.4c-0.22-0.02-0.37-0.19-0.35-0.38l0.17-2.03c0.02-0.19,0.18-0.34,0.38-0.32c0.19,0.02,0.34,0.19,0.32,0.38
			L165,55.07C164.99,55.26,164.83,55.4,164.65,55.4z"/>
	</g>
	<g>
		<path class="st0" d="M185.87,105.95c-0.14,0-0.27-0.08-0.32-0.21c-0.69-1.6-6.67-15.69-4.83-18.67c0.24-0.39,0.6-0.61,1.05-0.63
			c0.67-0.04,1.22,0.19,1.62,0.69c1.75,2.17-0.08,9.12-0.35,10.1c1.08,3.21,2.36,6.4,3.15,8.24c0.08,0.18-0.01,0.38-0.18,0.46
			C185.97,105.94,185.92,105.95,185.87,105.95z M181.92,87.12c-0.03,0-0.07,0-0.1,0c-0.22,0.01-0.38,0.11-0.5,0.3
			c-0.71,1.16,0.11,4.75,1.32,8.55c0.61-2.58,1.35-7,0.21-8.42C182.61,87.27,182.31,87.12,181.92,87.12z"/>
	</g>
	<g>
		<path d="M164.43,25.82c-0.03,0-0.07,0-0.1-0.01l-2.4-0.71c-0.19-0.06-0.29-0.25-0.24-0.44c0.05-0.19,0.25-0.29,0.44-0.24l2.4,0.71
			c0.19,0.06,0.29,0.25,0.24,0.44C164.72,25.72,164.58,25.82,164.43,25.82z"/>
	</g>
	<g>
		<path d="M156.57,25.82c-0.14,0-0.28-0.09-0.33-0.23c-0.07-0.18,0.03-0.38,0.21-0.45l1.41-0.5c0.18-0.07,0.38,0.03,0.45,0.21
			c0.07,0.18-0.03,0.38-0.21,0.45l-1.41,0.5C156.65,25.81,156.61,25.82,156.57,25.82z"/>
	</g>
	<g>
		<path d="M163.81,38c-0.87,0-1.73-0.43-1.78-0.46c-0.11-0.06-0.18-0.16-0.19-0.28c-0.01-0.12,0.04-0.24,0.14-0.31l3.45-2.6
			c0.11-0.08,0.25-0.09,0.37-0.03c0.12,0.06,0.19,0.19,0.19,0.32c0,0.09-0.08,2.13-1.03,2.97C164.64,37.9,164.22,38,163.81,38z
			 M162.9,37.13c0.52,0.17,1.22,0.29,1.61-0.05c0.39-0.35,0.6-1.08,0.71-1.69L162.9,37.13z"/>
	</g>
	<g>
		<path class="st0" d="M85.27,82.63c0,0,13.44-2.62,14.57-2.07c4.5,2.17,4.5,2.17,4.5,2.17l-3.33,1.11c0,0,8.6,3.51,7.82,4.92
			c-0.79,1.41-4.1,2.81-4.1,2.81s-1,10.64-3.76,11.41c-2.76,0.77-19.34-3.63-19.34-3.63L85.27,82.63z"/>
	</g>
	<g>
		<path d="M80.05,97.17c-0.18,0-0.33-0.14-0.35-0.32L77.37,70.8c-0.02-0.19,0.12-0.36,0.32-0.38c0.21-0.02,0.36,0.13,0.38,0.32
			l2.33,26.05c0.02,0.19-0.12,0.36-0.32,0.38C80.07,97.17,80.06,97.17,80.05,97.17z"/>
	</g>
	<g>
		<path class="st0" d="M113.06,244.04c-0.16,0-0.31-0.11-0.34-0.28c-0.04-0.19,0.08-0.38,0.27-0.42c0.1-0.02,9.69-2.11,9.47-7.08
			c-0.03-0.63-0.19-1.01-0.49-1.12c-0.85-0.3-2.74,1-4.68,2.71c-1.79,2.15-3.84,3.86-4,4c-0.14,0.12-0.35,0.11-0.48-0.03
			c-0.13-0.13-0.13-0.34-0.01-0.48c0.35-0.39,2.07-2.3,4.01-4.01c1.57-1.88,2.89-4.05,2.38-5.62c-0.04-0.13-0.16-0.44-0.32-0.45
			c-1.01,0-3.58,4.44-5.5,8.75c-0.08,0.18-0.29,0.26-0.46,0.18c-0.18-0.08-0.26-0.29-0.18-0.46c0.96-2.16,4.23-9.17,6.13-9.17
			c0.34,0.02,0.75,0.19,0.99,0.94c0.4,1.24-0.12,2.73-1.01,4.19c1.31-0.92,2.54-1.5,3.34-1.21c0.6,0.21,0.92,0.8,0.96,1.75
			c0.24,5.57-9.61,7.71-10.03,7.8C113.11,244.04,113.09,244.04,113.06,244.04z"/>
	</g>
	<g>
		<path class="st0" d="M46.01,248.39c-1.59,0-2.88-0.61-2.91-0.62c-0.17-0.08-0.25-0.29-0.16-0.47c0.08-0.17,0.29-0.25,0.47-0.16
			c0.18,0.09,4.52,2.13,6.66-2.07c0.44-0.86,0.46-1.3,0.32-1.42c-0.48-0.45-3.12,0.61-5.29,1.88c-0.15,0.09-0.35,0.05-0.46-0.09
			c-0.11-0.14-0.09-0.34,0.04-0.47c1.22-1.18,4.39-4.67,4.34-6.58c-0.01-0.35-0.12-0.62-0.36-0.82c-0.21-0.18-0.42-0.24-0.69-0.19
			c-1.66,0.35-4.04,4.78-4.81,6.46c-0.08,0.18-0.29,0.25-0.47,0.17c-0.18-0.08-0.25-0.29-0.17-0.47c0.3-0.65,3-6.36,5.31-6.85
			c0.48-0.1,0.93,0.02,1.3,0.34c0.38,0.34,0.58,0.78,0.6,1.33c0.04,1.65-1.73,3.99-3.08,5.53c1.57-0.75,3.5-1.45,4.23-0.77
			c0.65,0.62,0.03,1.85-0.18,2.25C49.48,247.78,47.59,248.39,46.01,248.39z"/>
	</g>
	<g>
		<path class="st0" d="M171.36,241.47c-0.03,0-0.06,0-0.09-0.01l-5.22-1.46c-0.19-0.05-0.3-0.25-0.24-0.43
			c0.05-0.19,0.24-0.3,0.43-0.24l5.22,1.46c0.19,0.05,0.3,0.25,0.24,0.43C171.66,241.36,171.52,241.47,171.36,241.47z"/>
	</g>
	<g>
		<path class="st0" d="M168.75,244.04c-0.04,0-0.07-0.01-0.11-0.02l-6.72-2.18c-0.18-0.06-0.29-0.26-0.23-0.44
			c0.06-0.18,0.26-0.29,0.44-0.23l6.72,2.18c0.18,0.06,0.29,0.26,0.23,0.44C169.04,243.95,168.9,244.04,168.75,244.04z"/>
	</g>
	<g>
		<path class="st0" d="M223.43,207.86c-0.04,0-0.09-0.01-0.13-0.03c-0.18-0.07-0.26-0.28-0.19-0.46l2.06-5.02
			c0.07-0.18,0.28-0.26,0.46-0.19c0.18,0.07,0.26,0.28,0.19,0.46l-2.06,5.02C223.7,207.77,223.57,207.86,223.43,207.86z"/>
	</g>
	<g>
		<path class="st0" d="M224.79,212.15c-0.05,0-0.1-0.01-0.15-0.03c-0.18-0.08-0.25-0.29-0.17-0.47l2.95-6.42
			c0.08-0.18,0.29-0.25,0.47-0.17c0.18,0.08,0.25,0.29,0.17,0.47l-2.95,6.42C225.05,212.08,224.92,212.15,224.79,212.15z"/>
	</g>
	<g>
		<path class="st0" d="M35.6,50.66c0,0-19.05,22.46-10.15,45.52c8.24,21.34,59.08,6.54,59.08,6.54l1.02-20.85l-29.56-8.66
			L35.6,50.66z"/>
	</g>
	<g>
		<path class="st0" d="M105.34,126.3c0.73,0.47,1.3,1.15,1.74,1.91c1.46,2.56,4.3,10.46,1.96,12.52c-2.24,1.98-3.94-2.36-3.94-2.36
			s0.68,3.77-2.05,3.35c-2.28-0.35-2.83-2.76-2.83-2.76s0.33,3.99-2.83,2.28c-3.16-1.71-5.37-10.1-5.02-13.08
			c0.35-2.98,4.09-0.52,4.09-0.52s0.8-3.17,2.58-3.01c1.89,0.16,2.38,2.75,2.38,2.75S102.7,124.61,105.34,126.3z"/>
	</g>
	<g>
		<path d="M105.09,138.73c-0.15,0-0.28-0.09-0.33-0.24l-3.52-10.04c-0.06-0.18,0.03-0.38,0.22-0.45c0.18-0.06,0.38,0.03,0.45,0.22
			l3.52,10.04c0.06,0.18-0.03,0.38-0.22,0.45C105.17,138.72,105.13,138.73,105.09,138.73z"/>
	</g>
	<g>
		<path d="M100.21,139.32c-0.15,0-0.28-0.09-0.33-0.24l-3.41-10.11c-0.06-0.18,0.04-0.38,0.22-0.45c0.18-0.07,0.38,0.04,0.45,0.22
			l3.41,10.11c0.06,0.18-0.04,0.38-0.22,0.45C100.29,139.31,100.25,139.32,100.21,139.32z"/>
	</g>
	<g>
		<path class="st0" d="M103.42,91c0.78,0.21,1.45,0.63,2,1.13c1.88,1.7,6.11,7.28,4.35,9.39c-1.68,2.02-4.15-1.01-4.15-1.01
			s1.39,2.81-1.24,3.06c-2.19,0.21-3.19-1.57-3.19-1.57s1.11,3.05-2.18,2.38c-3.29-0.68-7.04-6.77-7.31-9.18
			c-0.27-2.41,3.71-1.27,3.71-1.27s0.11-2.65,1.8-2.9c1.79-0.27,2.77,1.65,2.77,1.65S100.62,90.23,103.42,91z"/>
	</g>
	<g>
		<path d="M105.62,100.86c-0.12,0-0.23-0.06-0.3-0.16l-4.66-7.38c-0.1-0.16-0.05-0.38,0.11-0.49c0.16-0.1,0.38-0.05,0.48,0.11
			l4.66,7.38c0.1,0.16,0.05,0.38-0.11,0.48C105.75,100.84,105.69,100.86,105.62,100.86z"/>
	</g>
	<g>
		<path d="M101.19,102.35c-0.11,0-0.23-0.06-0.29-0.16l-4.75-7.25c-0.11-0.16-0.06-0.38,0.1-0.49c0.16-0.11,0.38-0.06,0.49,0.1
			l4.75,7.25c0.11,0.16,0.06,0.38-0.1,0.49C101.33,102.33,101.26,102.35,101.19,102.35z"/>
	</g>
	<g>
		<path d="M47.87,58.06c-0.18,0-0.34-0.04-0.47-0.13c-1.51-1.01,0.56-7.9,1.23-9.98c0.04-0.12,0.14-0.21,0.26-0.24
			c0.12-0.03,0.25,0.02,0.33,0.11c0.03,0.03,1.48,1.54,5.76,2.07c4.21,0.52,5.65-3.22,5.67-3.26c0.04-0.12,0.15-0.21,0.28-0.22
			c0.13-0.02,0.25,0.03,0.33,0.13c1.72,2.2,5.67,7.45,5.25,8.52c-0.07,0.18-0.22,0.3-0.41,0.33c-0.69,0.11-2.32-0.85-4.9-2.45
			c-1.49-0.93-3.73-2.3-4.2-2.27c-0.07,0.07-0.46,0.46-0.95,0.95C52.08,55.57,49.27,58.06,47.87,58.06z M49.14,48.67
			c-1.21,3.91-2.05,8.21-1.35,8.68c0.4,0.27,2.08-0.58,7.77-6.22c0.19-0.19,0.36-0.35,0.5-0.49c-0.37,0.02-0.75,0-1.16-0.05
			C51.59,50.17,49.87,49.21,49.14,48.67z M57.94,50.24c0.78,0.35,1.93,1.04,3.63,2.1c1.45,0.9,3.58,2.22,4.26,2.35
			c-0.17-0.89-2.49-4.28-4.79-7.28C60.63,48.18,59.67,49.56,57.94,50.24z"/>
	</g>
	<g>
		<path d="M44.37,81.88c-0.19,0-0.34-0.15-0.35-0.33c-0.01-0.19,0.14-0.36,0.33-0.37c0.14-0.01,14.5-0.69,19.3-0.4
			c0.19,0.01,0.34,0.18,0.33,0.37c-0.01,0.19-0.15,0.33-0.37,0.33c-4.76-0.29-19.08,0.39-19.22,0.4
			C44.38,81.88,44.38,81.88,44.37,81.88z"/>
	</g>
	<g>
		<path d="M48.67,81.47c-1.24-0.15-7.25-1-7.79-2.73c-0.09-0.29-0.08-0.75,0.47-1.24c0.49-0.43,1.09-0.63,1.78-0.58
			c2.58,0.19,5.68,3.82,5.81,3.98c0.09,0.11,0.11,0.27,0.04,0.39C48.91,81.4,48.79,81.47,48.67,81.47z M42.92,77.62
			c-0.43,0-0.79,0.13-1.1,0.41c-0.33,0.29-0.28,0.45-0.27,0.51c0.26,0.85,3.51,1.68,6.19,2.1c-1.02-1.05-3.03-2.9-4.66-3.01
			C43.02,77.62,42.97,77.62,42.92,77.62z"/>
	</g>
	<g>
		<path class="st0" d="M137.55,81.48c-0.29,0-0.57-0.11-0.8-0.33c-1.43-1.35-1.3-6.9-1.29-7.53c0-0.16,0.12-0.3,0.27-0.33
			c0.15-0.04,0.32,0.04,0.39,0.18c0.52,1,3.08,6.05,2.27,7.53c-0.16,0.28-0.41,0.45-0.75,0.48
			C137.61,81.47,137.58,81.48,137.55,81.48z M136.16,75.12c0.05,1.98,0.28,4.77,1.07,5.51c0.15,0.14,0.27,0.15,0.35,0.14
			c0.11-0.01,0.16-0.05,0.19-0.12C138.16,79.95,137.2,77.33,136.16,75.12z"/>
	</g>
</g>
<g id="Layer_2">
	<path class="st2" d="M167.28,230.81c0,0,20.24,3.58,34.06-2.22"/>
	<path class="st2" d="M210.74,201c0,0,3.4-26.89,3.4-27.91"/>
	<path class="st3" d="M152.12,104.29c0,0-30.56,95.68,10.29,96.54"/>
	<path class="st3" d="M23.51,89.34c0,0-1.32,30.89,58.55,12"/>
	<path class="st3" d="M85.55,81.88c0,0-2.97,19.85-2.97,19.08"/>
	<path class="st3" d="M103.42,120.65c0,0-18.77,7.11-18.1,6.74"/>
	<path class="st3" d="M86.4,82.45c-0.01-0.43,13.73-1.74,13.44-1.89c-0.55-0.27,4.5,2.17,4.5,2.17"/>
	<path class="st3" d="M104.79,82.83l-3.7,0.77l7.15,4.72c1.28,1.53-2.81,3.32-2.81,3.32"/>
	<path class="st3" d="M83.51,100.49c0,0,12.47,2.64,12.47,2.26"/>
	<path class="st0" d="M96.11,101.26"/>
	<path class="st3" d="M94.4,100.74c0-0.26-6.72-7.66,0.85-7.23c0,0,1.79-5.02,4.6-0.68c0,0,0.6-3.66,4.34-1.62"/>
</g>
</svg>
