<?xml version="1.0" encoding="utf-8"?>
<!-- Generator: Adobe Illustrator 25.0.0, SVG Export Plug-In . SVG Version: 6.00 Build 0)  -->
<svg version="1.1" xmlns="http://www.w3.org/2000/svg" xmlns:xlink="http://www.w3.org/1999/xlink" x="0px" y="0px"
	 viewBox="0 0 627.39 68.6" style="enable-background:new 0 0 627.39 68.6;" xml:space="preserve">
<style type="text/css">
	.st0{fill:#FFD13A;}
	.st1{fill:#FFD753;}
</style>
<g id="Isolation_Mode">
	<line class="st0" x1="1359.56" y1="435.76" x2="1361.68" y2="435.77"/>
	<line class="st0" x1="1358.34" y1="435.75" x2="1359.12" y2="435.75"/>
</g>
<g id="Layer_2">
</g>
<g id="Layer_3">
</g>
<g id="Layer_4">
	<g>
		<g>
			<g>
				<g>
					<g>
						<path class="st1" d="M203.38,26.71C203.14,26.68,203.02,26.73,203.38,26.71L203.38,26.71z"/>
						<path class="st1" d="M394.35,27.02c0.08,0,0.11,0,0.19,0c0.14-0.15,0.26-0.28,0.39-0.38L394.35,27.02z"/>
						<path class="st1" d="M425.06,27.96c0.07,0.02,0.12,0.03,0.19,0.04C425.23,27.91,425.27,27.82,425.06,27.96z"/>
						<path class="st1" d="M323.57,28.16c-0.27-0.01-0.41,0.02-0.52,0.07C323.2,28.2,323.35,28.17,323.57,28.16z"/>
						<path class="st1" d="M147.09,26.68c0,0,0.08-0.01,0.13-0.01c-0.11-0.03-0.22-0.06-0.33-0.1L147.09,26.68z"/>
						<path class="st1" d="M147.71,26.43c0.68,0.12-0.19,0.21-0.49,0.24c0.74,0.22,1.49,0.24,2.25,0.16
							C149.47,26.6,148.04,26.61,147.71,26.43z"/>
						<path class="st1" d="M44.98,25.3l0.31-0.09C45.16,25.23,45.06,25.27,44.98,25.3z"/>
						<path class="st1" d="M326.52,39.54c-0.15,0.02-0.32,0.04-0.46,0.05C326.3,39.6,326.43,39.58,326.52,39.54z"/>
						<path class="st1" d="M61.09,25.89l0.18-0.36C61.11,25.68,61.07,25.79,61.09,25.89z"/>
						<path class="st1" d="M394.92,26.64l0.22-0.14C395.07,26.53,395,26.58,394.92,26.64z"/>
						<path class="st1" d="M453.44,28.16c0.01,0.11,0.08,0.2,0.15,0.28c0.04,0,0.06,0,0.08,0L453.44,28.16z"/>
						<path class="st1" d="M596.56,33.07c-0.01-0.05-0.04-0.09-0.08-0.14l-0.57,0.27C596.22,33.17,596.43,33.13,596.56,33.07z"/>
						<path class="st1" d="M492.38,29.62c0.03-0.04,0.13-0.08,0.13-0.13c-0.67-0.12-2.42-0.14-4.67-0.12l-0.14,0.45L492.38,29.62z"
							/>
						<path class="st1" d="M535.03,39.89l-4.16-0.88c13.33-0.5,19.55,0.34,30.95-0.48l-0.63,0.2c1.66,0.19,2.58-1.84,20.95,0.47
							l0,0.09c0.64-0.02,0.63-0.2,1.9,0.02l-3.18-0.52c1.9-0.25,3.55-0.7,6.09-0.79c0.54,0.09,0.73,0.28,0.78,0.42l6.21-0.22
							l1.91,0.57c1.9-0.34,1.02-1.57,6.1-0.93c-1.92-0.84,2.51-0.54,1.88-0.97c0.26,0.1,0.84,0.26,1.31,0.4
							c3.02-0.13,8.71-0.44,10.11-0.89c0,0-11.84-1.68-15.03-2.56c4.25,0.19,1.12-0.12,0.28-0.4l-0.28,0.22
							c-2.55-0.18-2.56-0.72-3.83-0.86c0,0.04,0.04,0.1,0.08,0.15l0.16-0.07c0.12,0.09,0.05,0.16-0.08,0.22
							c0.03,0.12-0.08,0.21-0.78,0.18l0.13-0.06c-1.06,0.09-2.9,0.03-3.7,0l-0.02-0.45c-1.88,0.88-12.7-1.17-15.24-1.18
							c-2.55-0.55-5.7,0.19-8.89-0.07c-5.07-0.1-2.54-0.64-5.09-1.01c-3.18-0.26,0.65,0.52-0.63,0.56l-3.81-0.6
							c2.21-0.07,1.01-0.34,0.6-0.51c-3.29-0.05-8.48-0.83-9.49,0.08c-4.44-0.39-4.46-0.76-6.36-0.78c0.64,0.16,1.91,0.3,1.92,0.48
							c-1.78-0.38-0.85,0.11-0.12,0.19c-2.71,0.42-14.09-1.55-14.65-0.55l0-0.18c-0.63,0.74,0.39,1.45-1.5,1.87l-1.27-0.32
							l-1.9,0.33c-1.28-0.23-0.65-0.43-0.65-0.52c-3.1,0.36-7.43-0.02-11.18-0.09l3.99,1.99c-3.17-0.44-8.89-1.35-9.52-0.7
							l-1.91-0.66c-6.36-1.26-4.43,0.58-6.97,0.2l-3.19-0.72l3.17,0c-3.18-0.36-4.45-0.6-6.98-1.06c0,0.01-0.03,0.01-0.03,0.02
							c0.17,0.03,0.29,0.06,0.31,0.11l-0.44,0.02c-0.38,0.37-2.04,0.63-4.27,0.61c-3.18-0.09-5.66,0.46-10.73-0.29l-1.26,0.76
							l-3.81-0.43l0-0.6c3.73,0.02,10.75-0.24,15.54-0.29l0.08-0.27c-2.84,0.01-6.08,0.29-7.95,0.24c-0.92-0.12-3.26-0.73-1.56-1.14
							l-1.75,0.59c-9.49,0.11-9.55,0.13-19.45-0.53l0.86,0.3c-1.96,0.18-3.92,0.36-4.47-0.13c-5.95-0.09-12.11-0.45-15.97-1.2
							l-0.84,0.71c-1.26-0.04-3.14-1.1-3.75-0.11l-2.68,0.31c-1.72-0.05-2.77,0.35-4.72-0.06v0l-0.01,0
							c-0.12-0.03-0.25-0.06-0.37-0.08c0,0.02,0.01,0.04,0.02,0.06c-3.88-0.31,0.04,0.63-4.41,0.23c-1.43-0.5-1.58,0.9-3.75,0.74
							l-2.18-1.01c-3.93-0.58-4.6,0.43-10.29,0.44c-2.73-0.36-4.05-1.23-2.24-1.99c-2.49,0.93-1.13,0.61-4.43,1.05
							c-0.51-0.38-0.16-0.46,0.57-0.81c-2.93-0.45-1.81,0.34-4.02,0.32c-0.64,0.72-1.38,1.86-2.1,1.91l0.86,0.23
							c-2.34,0.38-4.9,0.55-7.62,0.18l0.1-0.36l-2.9,0.18l-0.18-0.46l-4.14,0.13l0.57,0.13c-0.97,0.06-4.16,0.21-5.98-0.04
							l0.07-0.26c-5.14-0.82-9.38,0.23-15.41,0.29l0.79-0.52c-2.05-0.53-0.57,0.81-3.01,0.53l-0.12-0.65
							c-2.16,0.84-2.78-0.19-4.26-0.52l0.69,0.85l-2.79-0.19c-3.08-0.29-1.88-1.08-1.43-1.52l-2.1,0.66l-0.41-0.75
							c-1.53,0.86-1.53-0.15-4.21,0.31c-0.22-0.28,0.46-0.44-0.45-0.57l-4.43,1.03l2.67-0.45l-0.33,1.09
							c-2.78,0.81-3.76-0.14-5.75,0.16l1.37-0.32c-3.24,0.25-3.41-0.22-5.24-0.46c0.57,0.21,1.43,0.51,0.12,0.65
							c-0.96,0.06-0.52-0.39-1.43-0.51c-0.22,0.72-2.55,1.1-4.65,0.74c0.03-0.1,0.07-0.2,0.21-0.27c-0.54,0.11-0.82,0.3-1.75,0.12
							l0.56-0.8l-1.8,0.76c-1.2-0.23-2.95,0.34-2.79-0.2l0.68-0.16l-9.09-0.26l-0.12-0.65c-0.9,0.88-4.95-0.37-4.66,0.74
							c-1.71-0.62-6.76,0.38-5.74-0.86c-5.97-0.14-9.21,1.05-16.47,0.37c-2.58-1.09-9.67-0.81-14.33-0.96
							c-9.12,0.36-15.01,0.72-24.33,0.94c-5.58-1.55-13.98,0.35-19.99-0.55l-1.66,0.57c-3.99-0.98-10.13,0.09-15.74-0.9
							c-1.38,0.24-2.1,0.31-2.42,0.33c0.25,0.03,0.64,0.15,0.76,0.52c-1.6-0.28-4.85,0-4.61-0.74l0.41-0.07
							c0.25-0.74-4.88,0.28-6.66-0.39l0.97,0.81l-3.04-0.18l0.82-0.14c-13.23,1.6-19.16-1.03-31.59,0.39
							c1.66-0.85-2.45,0.42-2.6-0.54c-3.11-1.25-5.8,0.17-8.37,0.45c0,0.05-0.03,0.1-0.18,0.17l-4.48-0.18
							c2.7-1.16-3.24,0.95-0.77-0.04c-11.67-1.11-26.94-0.46-40.46-1.13l0.59,0.32c-3.43-0.13-7.71,0.16-10.3-0.39
							c-2.6-0.55-5.71,0.67-6.72,0.7c-2.86,0.48-5.44-0.64-4.21-0.56c-3.05,0.09-5.95,1.13-10.17,0.57
							c-1.43-1.04-11.57,0.75-11.68-0.4l-0.05,0.1c-5.4-0.93-10.55,0.33-16.37-0.53c0,0,0.11-0.08,0.31-0.16l-11.97,3.23l3.3,3.92
							l10.24,3.35l27.95-0.06l22.27,1.67l54.28,0.57l3.89-0.81c10.64,1.68,24.34,0.17,35.82,1.39l0.25-0.74
							c3.24,0,3.01,0.46,3.81,0.6c30.13,0.27,61.16-0.43,88.26,0.76c2.61,0.52,10.56,0.29,12.61,0.82
							c8.81-0.85,18.14-0.78,26.96-0.63l-0.33,0.08l4.15-0.12c0.18,0.06,0.2,0.15,0.06,0.21c4.69-0.64,12.06,0.05,17.8,0.34
							l-0.34,0.08c33.47,0.3,64.54-1.06,97.73-0.06c15.43,1.19,33.38-0.53,51.09,0.4C496.05,41.06,531.87,40.27,535.03,39.89z"/>
						<path class="st1" d="M587.74,38.43l-0.14,0.01C587.61,38.75,587.82,38.63,587.74,38.43z"/>
						<path class="st1" d="M513.71,30.43c0.08,0,0.16,0,0.23,0.01L513.07,30L513.71,30.43z"/>
						<path class="st1" d="M561.07,29.82c-2.13-0.08-2.23,0-1.93,0.12C559.92,29.96,560.59,29.93,561.07,29.82z"/>
						<path class="st1" d="M605.13,37.64c1.12,0.01,0.69-0.17,0.03-0.37c-1.14,0.05-1.93,0.08-1.93,0.08
							C603.86,37.41,604.48,37.57,605.13,37.64z"/>
						<path class="st1" d="M600.52,33.42l0.35-0.26C600.21,33.23,600.24,33.32,600.52,33.42z"/>
					</g>
				</g>
			</g>
		</g>
	</g>
</g>
</svg>
