<?xml version="1.0" encoding="utf-8"?>
<!-- Generator: Adobe Illustrator 25.0.0, SVG Export Plug-In . SVG Version: 6.00 Build 0)  -->
<svg version="1.1" id="Layer_1" xmlns="http://www.w3.org/2000/svg" xmlns:xlink="http://www.w3.org/1999/xlink" x="0px" y="0px"
	 viewBox="0 0 274.89 212.28" style="enable-background:new 0 0 274.89 212.28;" xml:space="preserve">
<style type="text/css">
	.st0{fill:#DA5F4F;}
	.st1{fill:#1C1F47;}
	.st2{fill:#FFD13A;}
	.st3{fill:#85AFBB;}
</style>
<g>
	<path class="st0" d="M72.28,108.36c0-17.74,14.38-32.13,32.13-32.13s32.13,14.38,32.13,32.13c0,17.74-14.38,32.13-32.13,32.13
		S72.28,126.11,72.28,108.36"/>
</g>
<rect x="8.02" y="76.24" class="st1" width="64.25" height="64.25"/>
<rect x="49.49" y="105.09" class="st2" width="45.57" height="6.54"/>
<polygon class="st3" points="181.96,140.49 200.78,121.67 200.78,95.06 181.96,76.24 155.35,76.24 136.53,95.06 136.53,121.67 
	155.35,140.49 "/>
<polygon class="st3" points="117.71,76.24 136.53,57.42 136.53,30.81 117.71,11.99 91.09,11.99 72.28,30.81 72.28,57.42 
	91.09,76.24 "/>
<polygon class="st3" points="53.46,204.74 72.28,185.92 72.28,159.31 53.46,140.49 26.84,140.49 8.02,159.31 8.02,185.92 
	26.84,204.74 "/>
<rect x="72.28" y="140.49" class="st1" width="64.25" height="64.25"/>
<rect x="49.49" y="169.35" class="st2" width="45.57" height="6.54"/>
<g>
	<path class="st0" d="M200.78,172.62c0,17.74-14.38,32.13-32.13,32.13s-32.13-14.38-32.13-32.13c0-17.74,14.38-32.13,32.13-32.13
		S200.78,154.87,200.78,172.62"/>
</g>
<polygon class="st3" points="246.21,204.74 265.03,185.92 265.03,159.31 246.21,140.49 219.6,140.49 200.78,159.31 200.78,185.92 
	219.6,204.74 "/>
<rect x="178" y="169.35" class="st2" width="45.57" height="6.54"/>
</svg>
